<?xml version="1.0" encoding="UTF-8"?>
<svg width="56px" height="50px" viewBox="0 0 56 50" version="1.1" xmlns="http://www.w3.org/2000/svg" xmlns:xlink="http://www.w3.org/1999/xlink">
    <title>config-file</title>
    <g id="Panel-Page-v1.0" stroke="none" stroke-width="1" fill="none" fill-rule="evenodd">
        <g id="Desktop-HD" transform="translate(-925, -1222)">
            <g id="Group-14" transform="translate(-163, 1222)">
                <g id="Group-11" transform="translate(537, 0)">
                    <g id="config-file" transform="translate(552, 0)">
                        <g id="Group" transform="translate(0, 2)" stroke="#060000" stroke-linecap="round" stroke-linejoin="round" stroke-width="2">
                            <g id="Path">
                                <path d="M38.988061,6.63228552 L36.4752123,4.36309753 L31.433795,7.93704897 C30.0520034,7.1188208 28.5460234,6.49394915 26.9488672,6.08680008 L25.9459285,0 L19.4676994,0 L19.0652664,2.71406517"></path>
                                <path d="M7.93783497,13.9837629 C7.12432282,15.3545506 6.49945117,16.8487405 6.0938741,18.4325347 L0,19.4684854 L0,25.9475005 L6.0938741,26.9865953 C6.50259518,28.5829655 7.13296884,30.0842295 7.95591302,31.4644491 L4.35995352,36.4752123 L8.94155962,41.0560324 L13.9523229,37.462431 C15.3341145,38.2838031 16.8369505,38.9133908 18.4317487,39.3213259 L19.4676994,45.41913 L22.8113523,45.41913"></path>
                                <path d="M18.4671188,6.08758608 C16.8723206,6.49473516 15.3663406,7.1188208 13.9829769,7.93783497 L8.94155962,4.36388353 L4.35995352,8.94155962 L5.90051759,11.0983493"></path>
                            </g>
                            <path d="M23.3505497,34.05747 C23.1375431,34.070046 22.9221785,34.075548 22.7076,34.075548 C16.4321594,34.075548 11.342796,28.9861846 11.342796,22.709958 C11.342796,20.1035751 12.2207603,17.6991948 13.6960862,15.7837077" id="Path"></path>
                            <path d="M17.3054077,12.7065096 C18.912782,11.8379773 20.7535988,11.343582 22.7076,11.343582 C26.9048511,11.343582 30.5707648,13.619058 32.538914,17.0020109" id="Path"></path>
                            <path d="M20.9831114,17.8186671 C21.5223089,17.6284546 22.1023784,17.5239163 22.706814,17.5239163 C25.5702195,17.5239163 27.8912837,19.8449804 27.8912837,22.709958 C27.8912837,25.5741496 25.5694335,27.8952137 22.706814,27.8952137 C19.8441944,27.8952137 17.5223443,25.5741496 17.5223443,22.709958 C17.5223443,21.949894 17.6866187,21.2267721 17.9797975,20.5743903" id="Path"></path>
                        </g>
                        <g id="Group" transform="translate(26.662, 5.7719)" stroke="#367FCA" stroke-linejoin="round" stroke-width="2">
                            <path d="M25.8720443,2.75586551 L21.9836921,0.426941359 C20.5578843,-0.426656896 18.6919154,0.0402283377 17.8391031,1.4660361 L1.12869898,29.3698958 L0,41.54271 L10.1999489,34.8019562 L26.9103531,6.90124046 C27.7655233,5.47307469 27.2970661,3.61103577 25.8720443,2.75586551 Z" id="Path"></path>
                            <line x1="19.0008142" y1="5.82913363" x2="24.8777517" y2="9.34649292" id="Path"></line>
                            <line x1="1.98386924" y1="28.7976863" x2="10.2997712" y2="33.7777955" id="Path"></line>
                            <line x1="0.951848514" y1="34.1951626" x2="6.02863592" y2="37.2362046" id="Path"></line>
                            <line x1="17.8493211" y1="11.7398692" x2="6.14260623" y2="31.2877409" id="Path"></line>
                        </g>
                        <rect id="Rectangle" stroke-opacity="0" stroke="#979797" x="21.5" y="0.5" width="22" height="49"></rect>
                    </g>
                </g>
            </g>
        </g>
    </g>
</svg>