<?xml version="1.0" encoding="UTF-8"?>
<svg width="48px" height="55px" viewBox="0 0 48 55" version="1.1" xmlns="http://www.w3.org/2000/svg" xmlns:xlink="http://www.w3.org/1999/xlink">
    <title>drupal</title>
    <g id="Game-Images" stroke="none" stroke-width="1" fill="none" fill-rule="evenodd">
        <g id="gamebg-smalland-1920" transform="translate(-744, -771)" fill="#FFFFFF" fill-rule="nonzero">
            <g id="drupal" transform="translate(744, 771)">
                <path d="M35.3669472,10.0626524 C32.6359462,8.34042757 30.0157827,7.66380506 27.4079344,5.94146062 C25.8087426,4.859032 23.5574394,2.25106414 21.6875508,0 C21.3555168,3.60430915 20.2729686,5.06815247 18.9811804,6.08924387 C16.3611364,8.18056818 14.7003683,8.82024487 12.400043,10.0626524 C10.4563824,11.0835047 0,18.2800469 0,31.6885073 C0,45.1219571 11.2928643,55 23.8404515,55 C36.3510928,55 47.2380315,45.896743 47.2380315,32.1191831 C47.2380315,18.3045578 37.0277153,11.0835047 35.3669472,10.0626524 Z M35.6743508,50.1160983 C33.2018509,52.5889569 24.5906069,53.6466354 21.318571,50.6326223 C20.7281553,50.0423263 21.3555168,49.1567029 22.1182266,49.1567029 C22.1182266,49.1567029 24.2094313,50.7927208 28.4536563,50.7927208 C31.7748338,50.7927208 34.1122244,49.8452819 35.1578268,49.070496 C35.9082213,48.5047109 36.1912334,49.5994548 35.6743508,50.1160983 Z M28.9700607,43.6455593 C30.0404132,43.2025683 32.5375436,43.1781769 33.4971782,43.8055383 C34.001387,44.1501267 35.4775456,46.1181788 34.2598881,46.7210292 C33.2263619,47.2376728 34.1122244,44.7896839 30.9998087,44.7896839 C29.1914965,44.7896839 28.6010809,45.4294801 27.7152183,46.1426898 C26.8541059,46.8810082 26.5097566,47.1268353 26.2145488,46.7210292 C25.4763499,45.7122531 28.1705247,43.9777129 28.9700607,43.6455593 Z M40.349132,45.7737099 C38.4792434,45.6507963 34.7519011,39.7707925 32.3531733,39.6843465 C28.5519394,39.5736286 19.547085,49.6117701 12.5107609,44.8510211 C7.73757712,41.5788656 10.714764,31.9592042 18.8828973,31.9101822 C24.9722607,31.8482472 29.1916161,37.9376106 32.2301401,37.8761538 C34.8503037,37.8394471 39.8324884,32.7341097 42.2927926,32.7341097 C48.2837534,32.7341097 45.1589029,46.1796356 40.349132,45.7737099 Z" id="Shape"></path>
            </g>
        </g>
    </g>
</svg>