<?xml version="1.0" encoding="UTF-8"?>
<svg width="26px" height="26px" viewBox="0 0 26 26" version="1.1" xmlns="http://www.w3.org/2000/svg" xmlns:xlink="http://www.w3.org/1999/xlink">
    <title>explore-users</title>
    <g id="Panel-Page-v1.0" stroke="none" stroke-width="1" fill="none" fill-rule="evenodd">
        <g id="Desktop-HD" transform="translate(-137, -2747)" stroke="#060000" stroke-width="1.25">
            <g id="Group-23" transform="translate(102, 2206)">
                <g id="explore-users" transform="translate(36, 542)">
                    <path d="M24.0057148,12.0006123 C24.0057148,18.6272982 18.6326048,24 12.0010205,24 C5.37270176,24 0,18.6272982 0,12.0006123 C0,5.37229356 5.37270176,0 12.0010205,0 C18.6326048,0 24.0057148,5.37229356 24.0057148,12.0006123 Z" id="Path"></path>
                    <path d="M9.44325198,8.14559061 C9.44325198,8.14559061 12.7304703,8.60889531 13.75668,6.09806956 C13.75668,6.09806956 14.8563653,8.12967089 16.463849,8.12967089" id="Path" stroke-linecap="round" stroke-linejoin="round"></path>
                    <g id="Group" transform="translate(4.8204, 3.4264)" stroke-linecap="round" stroke-linejoin="round">
                        <path d="M4.6983587,10.8445956 C4.6983587,11.5071009 4.6983587,12.6439323 4.6983587,12.7516966 C4.6983587,12.8594608 4.83592142,13.5664597 0,14.7971766" id="Path"></path>
                        <g transform="translate(2.6081, 0)" id="Path">
                            <path d="M7.05883399,10.8445956 C7.05883399,11.4560762 7.05883399,12.6696488 7.05883399,12.7516966 C7.05883399,12.8337444 6.92167947,13.5664597 11.7571927,14.7971766"></path>
                            <path d="M6.07262768,11.1438047 C6.72778543,10.9866485 7.06291597,10.6931542 7.06291597,10.6931542 C8.17280627,9.90533209 8.86021166,7.43450974 9.06757623,5.70211753 C9.37290832,3.15169657 9.02022527,0.1008249 4.57413291,0 C0.128856952,0.1008249 -0.223826099,3.15169657 0.0823223826,5.70211753 C0.289278756,7.43328514 0.977092346,9.90533209 2.08616625,10.6931542 C2.08616625,10.6931542 2.42129679,10.9866485 3.07645454,11.1438047"></path>
                        </g>
                    </g>
                </g>
            </g>
        </g>
    </g>
</svg>