<?xml version="1.0" encoding="UTF-8"?>
<svg width="26px" height="26px" viewBox="0 0 26 26" version="1.1" xmlns="http://www.w3.org/2000/svg" xmlns:xlink="http://www.w3.org/1999/xlink">
    <title>explore-plugins</title>
    <g id="Panel-Page-v1.0" stroke="none" stroke-width="1" fill="none" fill-rule="evenodd" stroke-linecap="round" stroke-linejoin="round">
        <g id="Desktop-HD" transform="translate(-168, -2625)" stroke="#060000" stroke-width="1.25">
            <g id="Group-23" transform="translate(102, 2206)">
                <g id="explore-plugins" transform="translate(67, 420)">
                    <path d="M16.2200297,19.6077151 C15.3574184,19.589911 14.5054896,19.2569733 13.8476261,18.5977745 C12.4931751,17.2451039 12.4931751,15.0520772 13.8476261,13.6989614 C15.2002967,12.3462908 17.3937685,12.3462908 18.7464392,13.6989614 C19.4029674,14.3554896 19.739911,15.2083086 19.7590504,16.0686944 L24.0004451,11.8272997 L19.8440653,7.67047478 C20.7618694,7.69495549 21.6872404,7.3611276 22.3878338,6.66053412 C23.7405045,5.30697329 23.7405045,3.11439169 22.3878338,1.76083086 C21.0351632,0.408160237 18.8416914,0.408160237 17.4881306,1.76083086 C16.7884273,2.46186944 16.4537092,3.38724036 16.4777448,4.3041543 L12.1731454,0 L7.93130564,4.24139466 C8.79124629,4.26053412 9.63783383,4.59124629 10.294362,5.24732938 C11.6470326,6.6004451 11.6470326,8.79391691 10.294362,10.1465875 C8.94124629,11.5005935 6.74866469,11.5005935 5.39599407,10.1465875 C4.73768546,9.48827893 4.36824926,7.80489614 4.36824926,7.80489614 L0,12.1731454 L4.30326409,16.4764095 C3.38679525,16.4519288 2.46186944,16.787092 1.76261128,17.4872404 C0.409050445,18.8394659 0.409050445,21.0329377 1.76261128,22.3856083 C3.1152819,23.738724 5.30830861,23.738724 6.66097923,22.3860534 C7.36068249,21.6863501 7.6958457,20.7623145 7.67181009,19.8449555 L11.8264095,24 L16.2200297,19.6077151 Z" id="Path"></path>
                </g>
            </g>
        </g>
    </g>
</svg>