<?xml version="1.0" encoding="UTF-8"?>
<svg width="24px" height="26px" viewBox="0 0 24 26" version="1.1" xmlns="http://www.w3.org/2000/svg" xmlns:xlink="http://www.w3.org/1999/xlink">
    <title>explore-resources</title>
    <g id="Panel-Page-v1.0" stroke="none" stroke-width="1" fill="none" fill-rule="evenodd">
        <g id="Desktop-HD" transform="translate(-318, -2943)" stroke="#060000">
            <g id="Group-23" transform="translate(102, 2206)">
                <g id="explore-resources" transform="translate(216, 738)">
                    <polygon id="Path" stroke-width="1.25" stroke-linecap="round" stroke-linejoin="round" points="9.749289 17.4798318 6.45475666 19.3967555 3.16022431 17.4798318 6.51468055 15.6827559"></polygon>
                    <polyline id="Path" stroke-width="1.25" stroke-linecap="round" stroke-linejoin="round" points="9.75089125 21.9657921 6.45475666 24 3.16022431 22.0830763"></polyline>
                    <line x1="11.7806129" y1="20.7118766" x2="9.90727018" y2="19.6213899" id="Path" stroke-width="1.25" stroke-linecap="round" stroke-linejoin="round"></line>
                    <line x1="17.2243942" y1="17.3298618" x2="15.1334669" y2="16.0970959" id="Path" stroke-width="1.25" stroke-linecap="round" stroke-linejoin="round"></line>
                    <line x1="3.16022431" y1="17.4631684" x2="3.16022431" y2="22.0753855" id="Path" stroke-width="1.25"></line>
                    <line x1="9.75345484" y1="17.4631684" x2="9.75345484" y2="21.9657921" id="Path" stroke-width="1.25"></line>
                    <line x1="6.4675746" y1="19.3977168" x2="6.4675746" y2="23.9974364" id="Path" stroke-width="1.25"></line>
                    <polygon id="Path" stroke-width="1.25" stroke-linecap="round" stroke-linejoin="round" points="15.1094332 9.30775085 11.8149009 11.2246745 8.52004807 9.30775085 11.8745043 7.51099539"></polygon>
                    <line x1="8.52004807" y1="9.30775085" x2="8.52004807" y2="14.9543761" id="Path" stroke-width="1.25"></line>
                    <line x1="15.1071901" y1="9.30775085" x2="15.1071901" y2="18.6440216" id="Path" stroke-width="1.25"></line>
                    <line x1="11.7905468" y1="11.2173042" x2="11.7905468" y2="20.7022632" id="Path" stroke-width="1.25"></line>
                    <polygon id="Path" stroke-width="1.25" stroke-linecap="round" stroke-linejoin="round" points="20.5397557 1.79707591 17.2452233 3.71367915 13.950691 1.79707591 17.3051472 0"></polygon>
                    <line x1="13.950691" y1="1.81502103" x2="13.950691" y2="6.84286" id="Path" stroke-width="1.25"></line>
                    <line x1="17.2208692" y1="3.75085119" x2="17.2208692" y2="17.2567995" id="Path" stroke-width="1.25"></line>
                    <line x1="20.5403966" y1="1.78297617" x2="20.5403966" y2="15.3030242" id="Path" stroke-width="1.25"></line>
                    <line x1="11.7972762" y1="20.7029041" x2="15.1027038" y2="18.6667735" id="Path" stroke-width="1.25" stroke-linecap="round" stroke-linejoin="round"></line>
                    <line x1="17.2413779" y1="17.334989" x2="20.537833" y2="15.298538" id="Path" stroke-width="1.25" stroke-linecap="round" stroke-linejoin="round"></line>
                    <rect id="Rectangle" stroke-opacity="0" x="0.5" y="12.5" width="23" height="9"></rect>
                </g>
            </g>
        </g>
    </g>
</svg>