<?xml version="1.0" encoding="UTF-8"?>
<svg width="76px" height="12px" viewBox="0 0 76 12" version="1.1" xmlns="http://www.w3.org/2000/svg" xmlns:xlink="http://www.w3.org/1999/xlink">
    <title>five-stars-footer</title>
    <g id="Page-1" stroke="none" stroke-width="1" fill="none" fill-rule="evenodd">
        <g id="five-stars-footer" fill="#00B67A" fill-rule="nonzero">
            <path d="M12.5821893,4.65029258 C12.5821893,4.42344245 12.3402593,4.33270876 12.1587919,4.30246154 L8.3629136,3.75047969 L6.66161708,0.310020035 C6.59352708,0.166355702 6.46497444,0 6.2911344,0 C6.1172149,0 5.98866226,0.166355702 5.92057226,0.310020035 L4.21927575,3.75047969 L0.423397429,4.30246154 C0.234382138,4.33270876 0,4.42344245 0,4.65029258 C0,4.78639312 0.0982815949,4.91493782 0.18901529,5.01323531 L2.94137666,7.68999056 L2.29106554,11.4706936 C2.28351764,11.5236084 2.27596974,11.5689752 2.27596974,11.6219694 C2.27596974,11.8185326 2.37425133,12 2.59353767,12 C2.69944662,12 2.79772821,11.9621811 2.89600981,11.9092663 L6.2911344,10.124784 L9.68617953,11.9092663 C9.77691323,11.9621811 9.88274272,12 9.98865167,12 C10.207938,12 10.2986717,11.8185326 10.2986717,11.6219694 C10.2986717,11.5689752 10.2986717,11.5236084 10.2911238,11.4706936 L9.64081268,7.68999056 L12.3856262,5.01323531 C12.4839077,4.91493782 12.5821893,4.78639312 12.5821893,4.65029258 Z M28.2828529,4.65029258 C28.2828529,4.42344245 28.0409229,4.33270876 27.8594555,4.30246154 L24.0635771,3.75047969 L22.3622806,0.310020035 C22.2941906,0.166355702 22.165638,0 21.9917185,0 C21.817799,0 21.6893258,0.166355702 21.6212358,0.310020035 L19.9199393,3.75047969 L16.124061,4.30246154 C15.9350457,4.33270876 15.7006636,4.42344245 15.7006636,4.65029258 C15.7006636,4.78639312 15.7989451,4.91493782 15.8896788,5.01323531 L18.6420402,7.68999056 L17.9917291,11.4706936 C17.9841812,11.5236084 17.9766333,11.5689752 17.9766333,11.6219694 C17.9766333,11.8185326 18.0749149,12 18.2942012,12 C18.4000307,12 18.4983918,11.9621811 18.5966734,11.9092663 L21.9917185,10.124784 L25.3868431,11.9092663 C25.4775768,11.9621811 25.5834063,12 25.6893152,12 C25.9086016,12 25.9993353,11.8185326 25.9993353,11.6219694 C25.9993353,11.5689752 25.9993353,11.5236084 25.9917874,11.4706936 L25.3414762,7.68999056 L28.0862897,5.01323531 C28.1845713,4.91493782 28.2828529,4.78639312 28.2828529,4.65029258 Z M43.9835164,4.65029258 C43.9835164,4.42344245 43.7415864,4.33270876 43.560119,4.30246154 L39.7642407,3.75047969 L38.0629442,0.310020035 C37.9948542,0.166355702 37.8663015,0 37.6923821,0 C37.5184626,0 37.3899099,0.166355702 37.3218994,0.310020035 L35.6206029,3.75047969 L31.8247245,4.30246154 C31.6357092,4.33270876 31.4012477,4.42344245 31.4012477,4.65029258 C31.4012477,4.78639312 31.4996087,4.91493782 31.5903424,5.01323531 L34.3427038,7.68999056 L33.6923926,11.4706936 C33.6848447,11.5236084 33.6772968,11.5689752 33.6772968,11.6219694 C33.6772968,11.8185326 33.7755784,12 33.9948648,12 C34.1006943,12 34.1990553,11.9621811 34.2973369,11.9092663 L37.6923821,10.124784 L41.0875066,11.9092663 C41.1782403,11.9621811 41.2840698,12 41.3899788,12 C41.6092651,12 41.6999988,11.8185326 41.6999988,11.6219694 C41.6999988,11.5689752 41.6999988,11.5236084 41.6923715,11.4706936 L41.0421398,7.68999056 L43.7869533,5.01323531 C43.8852349,4.91493782 43.9835164,4.78639312 43.9835164,4.65029258 Z M59.6844184,4.65029258 C59.6844184,4.42344245 59.4420911,4.33270876 59.2609415,4.30246154 L55.4647454,3.75047969 L53.7636872,0.310020035 C53.6953588,0.166355702 53.5666473,0 53.3934429,0 C53.2194439,0 53.0907324,0.166355702 53.022404,0.310020035 L51.3213459,3.75047969 L47.5253881,4.30246154 C47.3363728,4.33270876 47.1019112,4.42344245 47.1019112,4.65029258 C47.1019112,4.78639312 47.2002723,4.91493782 47.2910059,5.01323531 L50.0429701,7.68999056 L49.3930562,11.4706936 C49.385111,11.5236084 49.3779604,11.5689752 49.3779604,11.6219694 C49.3779604,11.8185326 49.4764803,12 49.6957667,12 C49.8014373,12 49.8999572,11.9621811 49.9976827,11.9092663 L53.3934429,10.124784 L56.7884085,11.9092663 C56.8789833,11.9621811 56.9846539,12 57.0903245,12 C57.3096109,12 57.4009802,11.8185326 57.4009802,11.6219694 C57.4009802,11.5689752 57.4009802,11.5236084 57.393035,11.4706936 L56.7431211,7.68999056 L59.4873785,5.01323531 C59.5858984,4.91493782 59.6844184,4.78639312 59.6844184,4.65029258 Z M75.3848436,4.65029258 C75.3848436,4.42344245 75.1425163,4.33270876 74.9613667,4.30246154 L71.1651705,3.75047969 L69.4641124,0.310020035 C69.395784,0.166355702 69.267867,0 69.0938681,0 C68.9198691,0 68.7911576,0.166355702 68.7228292,0.310020035 L67.0217711,3.75047969 L63.2263694,4.30246154 C63.0372747,4.33270876 62.8028926,4.42344245 62.8028926,4.65029258 C62.8028926,4.78639312 62.900618,4.91493782 62.9919873,5.01323531 L65.7441898,7.68999056 L65.0934814,11.4706936 C65.0863308,11.5236084 65.0783856,11.5689752 65.0783856,11.6219694 C65.0783856,11.8185326 65.1769055,12 65.3961919,12 C65.5018625,12 65.6003824,11.9621811 65.6989024,11.9092663 L69.0938681,10.124784 L72.4888337,11.9092663 C72.5794085,11.9621811 72.6850791,12 72.7915442,12 C73.0108306,12 73.1014054,11.8185326 73.1014054,11.6219694 C73.1014054,11.5689752 73.1014054,11.5236084 73.0934602,11.4706936 L72.4435463,7.68999056 L75.1885982,5.01323531 C75.2863236,4.91493782 75.3848436,4.78639312 75.3848436,4.65029258 Z" id="Shape"></path>
        </g>
    </g>
</svg>