<?xml version="1.0" encoding="UTF-8"?>
<svg width="18px" height="15px" viewBox="0 0 18 15" version="1.1" xmlns="http://www.w3.org/2000/svg" xmlns:xlink="http://www.w3.org/1999/xlink">
    <title>flag-aus</title>
    <g id="Page-1" stroke="none" stroke-width="1" fill="none" fill-rule="evenodd">
        <g id="Desktop-HD" transform="translate(-1232.000000, -204.000000)" fill-rule="nonzero">
            <g id="flag-aus" transform="translate(1232.000000, 204.000000)">
                <g id="Group" transform="translate(0.146892, 0.149641)">
                    <path d="M17.704661,12.7631701 C11.8033881,9.36826163 5.90179124,16.3339343 0,12.9374707 C0,9.00326718 0,5.06886927 0,1.13440657 C5.90179124,4.53106455 11.8033881,-2.4345433 17.704661,0.960106007 C17.704661,4.89456871 17.704661,8.82896661 17.704661,12.7631701 Z" id="Path" fill="#2D328F"></path>
                    <path d="M8.85226569,1.04855221 C8.49770335,1.15578917 8.14346499,1.26309093 7.78864346,1.3657274 C6.66787139,2.43770828 5.54703451,3.4647857 4.42626244,4.30492739 C3.30549036,3.65049032 2.18465349,2.80950629 1.06388141,1.63942464 C0.709059886,1.50575101 0.354821524,1.33903155 2.30200745e-16,1.13492494 C2.30200745e-16,1.37129983 2.30200745e-16,1.60767473 2.30200745e-16,1.84398482 C1.12077208,3.2361863 2.24160895,4.25484027 3.36238103,5.04139587 C2.24160895,5.74915985 1.12083687,6.22495503 2.30200745e-16,6.32713793 C2.30200745e-16,6.56351282 2.30200745e-16,6.79982292 2.30200745e-16,7.03613302 C0.354821524,7.24043402 0.709059886,7.40721828 1.06388141,7.54037354 C2.18465349,7.21607082 3.30542556,6.56299446 4.42626244,5.72298236 C5.54703451,6.37716025 6.66780659,6.84453199 7.78864346,7.26687068 C8.14346499,7.16423422 8.49770335,7.05699725 8.85226569,6.94976029 C8.85226569,6.71338539 8.85226569,6.4770105 8.85226569,6.2407004 C7.731688,5.83255197 6.61091592,5.42407957 5.49014385,4.87415805 C6.61091592,3.92976 7.731688,2.84378324 8.85226569,1.75754729 C8.85226569,1.5212372 8.85226569,1.2849271 8.85226569,1.04855221 Z" id="Path" fill="#FFFFFF"></path>
                    <path d="M6.47957494e-05,1.13492494 C6.47957494e-05,1.25311239 6.47957494e-05,1.37104065 6.47957494e-05,1.4892281 C1.4755936,3.32217026 2.95073363,4.50721972 4.42632723,5.3688088 C4.42632723,5.25036217 4.42632723,5.13223952 4.42632723,5.01405207 C2.95066884,4.15272217 1.4755936,2.96760791 6.47957494e-05,1.13492494 Z" id="Path" fill="#E81D2A"></path>
                    <path d="M8.85226569,6.59558672 C7.37693127,6.05804118 5.90185604,5.52056044 4.42626244,4.65923054 C4.42626244,4.77741799 4.42626244,4.89554064 4.42626244,5.01405207 C5.90179124,5.87512278 7.37693127,6.41260352 8.85226569,6.94988988 C8.85226569,6.83163763 8.85226569,6.71370937 8.85226569,6.59558672 Z" id="Path" fill="#E81D2A"></path>
                    <path d="M6.47957494e-05,7.03619782 C0.177475558,7.13786235 0.354367953,7.23090904 0.531778715,7.31475474 C1.82996155,7.06367121 3.12814439,6.34165218 4.42632723,5.3688088 C4.42632723,5.25036217 4.42632723,5.13223952 4.42632723,5.01405207 C2.95066884,6.11979153 1.4755936,6.90207061 6.47957494e-05,7.03619782 Z" id="Path" fill="#E81D2A"></path>
                    <path d="M8.32081095,1.2086625 C7.02262812,2.46284903 5.72444528,3.68658155 4.42626244,4.65974891 C4.42626244,4.77793636 4.42626244,4.89605901 4.42626244,5.01457043 C5.90133767,3.90850699 7.37693127,2.47865919 8.85226569,1.04887618 C8.67504932,1.10213829 8.49770335,1.15578917 8.32081095,1.2086625 Z" id="Path" fill="#E81D2A"></path>
                    <g transform="translate(0.000000, 1.987378)" id="Path">
                        <path d="M8.85226569,1.4954211 C7.49991361,1.90434707 6.1478855,2.31353223 4.79527423,2.47312416 C4.79527423,1.6616222 4.79527423,0.850120232 4.79527423,0.0389422454 C4.54930957,0.0679059454 4.3032801,0.0887701767 4.05725064,0.0997206583 C4.05725064,0.911157828 4.05725064,1.72240061 4.05725064,2.53390258 C2.70463938,2.59442181 1.35261127,2.36031476 6.47957494e-05,1.58185863 C6.47957494e-05,1.92624804 6.47957494e-05,2.27031347 6.47957494e-05,2.61470288 C1.35267606,3.39315901 2.70470417,3.62720126 4.05725064,3.56674682 C4.05725064,4.37824879 4.05725064,5.18916759 4.05725064,6.00092874 C4.3032801,5.99023744 4.54930957,5.96891964 4.79527423,5.94040951 C4.79527423,5.12864836 4.79527423,4.31721119 4.79527423,3.50596841 C6.1478855,3.34637648 7.49991361,2.93719132 8.85226569,2.52826535 C8.85226569,2.18387594 8.85226569,1.83974571 8.85226569,1.4954211 Z" fill="#E71F2B"></path>
                        <path d="M3.76191162,0.108014514 C3.76191162,0.820897349 3.76191162,1.53403937 3.76191162,2.2469222 C2.50791948,2.2621492 1.25399214,2.00827946 0,1.2865196 C0,1.38487955 0,1.48349868 0,1.58185863 C1.35261127,2.36031476 2.70463938,2.59435701 4.05718585,2.53390258 C4.05718585,1.72240061 4.05718585,0.911157828 4.05718585,0.0997206583 C3.95863151,0.103932382 3.86053075,0.106718599 3.76191162,0.108014514 Z" fill="#FFFFFF"></path>
                        <path d="M6.47957494e-05,2.90945874 C1.25405693,3.63128339 2.50798428,3.88515313 3.76197641,3.86986134 C3.76197641,4.58300335 3.76197641,5.29582139 3.76197641,6.00948178 C3.86053075,6.00799148 3.95869631,6.00539965 4.05731544,6.00086394 C4.05731544,5.18910279 4.05731544,4.37818399 4.05731544,3.56668203 C2.70470417,3.62720126 1.35267606,3.39309421 0.000129591499,2.61463808 C6.47957494e-05,2.71299803 6.47957494e-05,2.81109879 6.47957494e-05,2.90945874 Z" fill="#FFFFFF"></path>
                        <path d="M8.85226569,2.52826535 C7.49991361,2.93719132 6.1478855,3.34637648 4.79527423,3.50596841 C4.79527423,4.31721119 4.79527423,5.12858356 4.79527423,5.94040951 C4.89389336,5.92822791 4.99199413,5.91546315 5.09061326,5.90127288 C5.09061326,5.18813086 5.09061326,4.47505364 5.09061326,3.76191162 C6.34460539,3.58171464 7.59853274,3.20227073 8.85226569,2.82308601 C8.85226569,2.72466126 8.85226569,2.62662529 8.85226569,2.52826535 Z" fill="#FFFFFF"></path>
                        <path d="M8.85226569,1.20008207 C7.59853274,1.5792668 6.34460539,1.95845153 5.09061326,2.13890769 C5.09061326,1.42602485 5.09061326,0.713142018 5.09061326,0 C4.99199413,0.0142550649 4.89389336,0.0272142147 4.79527423,0.0389422454 C4.79527423,0.850185028 4.79527423,1.6616222 4.79527423,2.47312416 C6.1478855,2.31353223 7.49991361,1.90434707 8.85226569,1.4954211 C8.85226569,1.39706115 8.85226569,1.29844202 8.85226569,1.20008207 Z" fill="#FFFFFF"></path>
                    </g>
                    <path d="M6.10259327,11.1218938 C6.10363,11.1168397 6.10155654,11.1127576 6.0975392,11.1106841 C5.79202724,10.9963196 5.48709845,10.8728189 5.18158649,10.7386269 C5.37830638,10.4132875 5.57502628,10.0834771 5.77174617,9.74945503 C5.77427321,9.74537289 5.77427321,9.74031883 5.77122781,9.73630149 C5.76766404,9.73325609 5.76306354,9.73221936 5.75852784,9.73526476 C5.42657922,9.92582906 5.09417702,10.1053133 4.76229319,10.2689225 C4.6540195,9.94358309 4.54522743,9.61681813 4.43695374,9.2879149 C4.43390834,9.27923227 4.41868133,9.28078737 4.41557114,9.28992357 C4.30677908,9.63658083 4.19805181,9.98122942 4.08925974,10.3243229 C3.75731112,10.2145589 3.42594566,10.0869113 3.09406183,9.93852902 C3.08894297,9.93652035 3.0838889,9.93749229 3.08136186,9.94157442 C3.07831646,9.94513819 3.07831646,9.95025705 3.0808435,9.95479276 C3.27756339,10.2638685 3.47428329,10.5657519 3.67093839,10.8605725 C3.36549122,11.0420654 3.06049763,11.2072946 2.75498567,11.3536034 C2.75090354,11.3556121 2.74889487,11.3596942 2.74986681,11.3648131 C2.75090354,11.3698671 2.75498567,11.3740141 2.75952138,11.3740141 C3.1127878,11.4451598 3.46657259,11.4898689 3.81983902,11.5142321 C3.77104782,11.8665265 3.72225662,12.2187562 3.67346542,12.570014 C3.67294705,12.5745497 3.67553888,12.5791502 3.68007459,12.5806405 C3.68467509,12.5832323 3.68921079,12.582714 3.69277455,12.5786318 C3.93724892,12.3204856 4.18172328,12.0520368 4.42626244,11.7745166 C4.6707368,12.0114098 4.91521116,12.2396205 5.15968552,12.46025 C5.16175899,12.4617403 5.16480439,12.4632954 5.16784979,12.462777 C5.16934009,12.462777 5.17089519,12.4617403 5.17238549,12.4607684 C5.17698599,12.457723 5.17951302,12.4526041 5.17899466,12.4485868 C5.13020346,12.104003 5.08141226,11.7603263 5.03262106,11.4157425 C5.38588749,11.3354606 5.73967228,11.2398869 6.0929387,11.1321315 C6.0975392,11.13103 6.10162133,11.1270127 6.10259327,11.1218938 Z" id="Path" fill="#FFFFFF"></path>
                    <path d="M13.7887947,9.54055353 C13.8782776,9.40331613 13.9677605,9.26763383 14.0572434,9.13292347 C14.0602888,9.12884134 14.0602888,9.12424084 14.0572434,9.11970514 C14.054198,9.11562301 14.0480424,9.11465107 14.0440251,9.11614137 C13.8935694,9.17355041 13.7420769,9.23504157 13.591686,9.3001613 C13.5417933,9.14866884 13.4920301,8.99821311 13.4432389,8.84775738 C13.4401935,8.83862118 13.4249665,8.83965791 13.4219211,8.84879411 C13.3720932,9.00644217 13.3222653,9.16396063 13.2734741,9.3215439 C13.1219816,9.27683483 12.9715907,9.23510637 12.8200982,9.19752483 C12.8160161,9.1964881 12.8099253,9.19856156 12.8079166,9.2025789 C12.8048712,9.20666103 12.8048712,9.2117799 12.8068799,9.21579723 C12.8963628,9.33877957 12.9858457,9.46286343 13.0752639,9.58837279 C12.9360178,9.68543683 12.7967069,9.78509269 12.6584328,9.88669242 C12.6543507,9.88980262 12.652342,9.89485669 12.6533787,9.89887402 C12.6544155,9.90340973 12.6584328,9.90703829 12.6625797,9.90651992 C12.8241803,9.89783729 12.984809,9.89278322 13.1454377,9.89174649 C13.1230831,10.0533471 13.1017005,10.2160492 13.079346,10.3776498 C13.0782445,10.3827687 13.0813547,10.3873044 13.0854368,10.3888595 C13.0904909,10.3898962 13.0946378,10.3888595 13.0986551,10.3847773 C13.2094559,10.2566114 13.3212933,10.1305836 13.4320941,10.0055278 C13.5439963,10.1152918 13.654797,10.2266109 13.7665697,10.3400035 C13.7685784,10.3425305 13.7716238,10.3435673 13.774734,10.3430489 C13.7757707,10.3430489 13.7777794,10.3430489 13.7788161,10.3420122 C13.7838702,10.3400035 13.7858788,10.3353382 13.7858788,10.3302841 C13.7635243,10.1712106 13.7411698,10.0116186 13.7188152,9.85299863 C13.8794439,9.83271756 14.0400726,9.8169074 14.2016732,9.80576253 C14.2057553,9.80524417 14.2098374,9.80219877 14.2108742,9.7971447 C14.2119109,9.7925442 14.2098374,9.78749013 14.2057553,9.78541667 C14.0673516,9.70066383 13.9280407,9.6188268 13.7887947,9.54055353 Z" id="Path" fill="#FFFFFF"></path>
                    <path d="M11.0318003,5.59753779 C11.1212832,5.4404729 11.2097294,5.28437993 11.2992124,5.12887014 C11.3022578,5.12433443 11.3022578,5.11895639 11.2992124,5.1156518 C11.2951302,5.1126064 11.2910481,5.1126064 11.285994,5.11513344 C11.1355383,5.20818013 10.9840458,5.30297631 10.8336549,5.3992628 C10.7837622,5.25820245 10.733999,5.11740129 10.6852079,4.97685931 C10.6821625,4.96875984 10.6669354,4.97277718 10.66389,4.98269093 C10.6139973,5.14941039 10.5642342,5.31632424 10.515443,5.48356207 C10.3639505,5.46729834 10.2135596,5.45233052 10.0620671,5.43807545 C10.0570131,5.43807545 10.0528661,5.4403433 10.0498855,5.44546217 C10.0468401,5.45032185 10.0468401,5.45537592 10.0488488,5.4586805 C10.1383317,5.56773175 10.2277499,5.67697738 10.3172328,5.78654699 C10.1779867,5.90777984 10.0397126,6.02979024 9.90040173,6.15251339 C9.8963196,6.15581797 9.89431093,6.1614552 9.89534767,6.16573172 C9.8963844,6.17007303 9.90040173,6.17234088 9.9055206,6.17156334 C10.0661493,6.13877669 10.2267131,6.10702677 10.3874066,6.07650797 C10.3649873,6.24270907 10.3436695,6.40916935 10.3212501,6.57537045 C10.3202134,6.58048931 10.3233236,6.58450665 10.3274057,6.5852842 C10.3314879,6.58606174 10.3366067,6.58353471 10.3406241,6.57919339 C10.4514248,6.43100552 10.5632622,6.28385437 10.674063,6.13722159 C10.7859004,6.22469585 10.896766,6.31307725 11.0085386,6.40204182 C11.0105473,6.40405048 11.0135927,6.40430967 11.0166381,6.40353212 C11.0177396,6.40327294 11.0197483,6.4022362 11.0207202,6.40152345 C11.0257743,6.39821887 11.027783,6.3931648 11.027783,6.38830512 C11.0054284,6.23350807 10.9830739,6.07903501 10.9607194,5.92449714 C11.121348,5.87013351 11.2830134,5.81726018 11.4435773,5.76691388 C11.4476594,5.76535878 11.4517416,5.76108226 11.4527783,5.7559634 C11.453815,5.7514277 11.4517416,5.74656802 11.4476594,5.74553128 C11.3093205,5.69460182 11.1700744,5.64529226 11.0318003,5.59753779 Z" id="Path" fill="#FFFFFF"></path>
                    <path d="M13.1453081,2.53658659 C13.1229535,2.69870555 13.1015709,2.8611485 13.0792164,3.02352665 C13.0781149,3.02864551 13.0812251,3.03298683 13.0853072,3.03447713 C13.0903613,3.03551386 13.0945082,3.03447713 13.0985255,3.03065418 C13.2093263,2.9023586 13.3211637,2.77600688 13.4319645,2.65121027 C13.5438667,2.76071509 13.6546675,2.87235816 13.7664401,2.98568593 C13.7684488,2.98821296 13.7714942,2.9892497 13.7746044,2.98899051 C13.7756411,2.98899051 13.7776498,2.98847215 13.7786865,2.98795378 C13.7837406,2.98568593 13.7857493,2.98108543 13.7857493,2.97596657 C13.7633947,2.81663382 13.7410402,2.65730107 13.7186857,2.49790353 C13.8793143,2.47807603 14.039943,2.46233066 14.2015436,2.45138018 C14.2056257,2.45086181 14.2097078,2.44755723 14.2107446,2.44276234 C14.2117813,2.43816185 14.2097078,2.43310778 14.2056257,2.43103431 C14.0673516,2.3458927 13.9281055,2.26431485 13.7887947,2.18604159 C13.8782776,2.04880419 13.9677605,1.91286271 14.0572434,1.77841153 C14.0602888,1.77432939 14.0602888,1.76921053 14.0572434,1.76519319 C14.054198,1.76117586 14.0480424,1.76007433 14.0440251,1.76162943 C13.8935694,1.81903846 13.7420769,1.88033524 13.591686,1.94532538 C13.5417933,1.79415689 13.4920301,1.64337718 13.4432389,1.49298625 C13.4401935,1.48410923 13.4249665,1.48508117 13.4219211,1.49447655 C13.3720932,1.65154145 13.3222653,1.80912471 13.2734741,1.96670797 C13.1219816,1.92219329 12.9715907,1.88078881 12.8200982,1.84268891 C12.8160161,1.84165218 12.8099253,1.84346646 12.8079166,1.84774298 C12.8048712,1.85234348 12.8048712,1.85739754 12.8068799,1.86122049 C12.8963628,1.98420283 12.9858457,2.10848107 13.0752639,2.23379605 C12.9360178,2.3306657 12.7967069,2.43025677 12.6584328,2.53218048 C12.6543507,2.5349667 12.652342,2.54027995 12.6533787,2.54462126 C12.6544155,2.54896258 12.6584328,2.55226716 12.6625797,2.55200798 C12.8240507,2.54345494 12.9846794,2.53814169 13.1453081,2.53658659 Z" id="Path" fill="#FFFFFF"></path>
                    <path d="M16.6626805,5.15757465 C16.6637173,5.15349252 16.6616438,5.1476609 16.6576265,5.14409714 C16.5183804,5.0089332 16.3801063,4.87849936 16.2407954,4.75324918 C16.3302135,4.64627139 16.4196965,4.54130228 16.5091794,4.43834183 C16.5111881,4.43529643 16.5111881,4.43024237 16.5081427,4.42564187 C16.5050973,4.42026382 16.5000432,4.41695924 16.4959611,4.4174776 C16.3445334,4.42155974 16.1940777,4.4312143 16.0425852,4.44670049 C15.993794,4.27926827 15.9440309,4.11248401 15.8941381,3.94628291 C15.8910927,3.93636916 15.8758657,3.93254622 15.8728203,3.94090487 C15.8240291,4.0822244 15.774266,4.22406229 15.7243733,4.36661294 C15.5739823,4.27538053 15.4224899,4.18946136 15.2720342,4.1081427 C15.2669801,4.10535648 15.261926,4.10613403 15.2588158,4.10969779 C15.2557704,4.11274319 15.2557704,4.11805645 15.2588158,4.12239776 C15.3482988,4.27110401 15.4377817,4.42130055 15.5272646,4.57350577 C15.3880185,4.62864695 15.2487077,4.68812945 15.1094616,4.75169408 C15.1053795,4.75318438 15.103306,4.75804406 15.1043428,4.76283895 C15.1054443,4.76743945 15.1094616,4.77145678 15.1145157,4.7727527 C15.2751444,4.80884393 15.435773,4.85024841 15.5973736,4.89754931 C15.5750191,5.05305911 15.5526645,5.20837452 15.53031,5.36394911 C15.53031,5.36900318 15.5323187,5.37412205 15.5373727,5.37716745 C15.5414549,5.37950009 15.5465737,5.37995367 15.5495543,5.37716745 C15.6613918,5.28237127 15.7721925,5.19010212 15.88403,5.10120235 C15.9948307,5.24608565 16.1066682,5.39420873 16.2174689,5.54518283 C16.2194776,5.54822823 16.2225878,5.55030169 16.2256332,5.55127363 C16.2276419,5.55153281 16.2286786,5.55179199 16.2306873,5.55153281 C16.2347694,5.55075526 16.2378148,5.54719149 16.2367781,5.54187824 C16.2144235,5.37515878 16.1931057,5.20843932 16.1706864,5.04197904 C16.3313151,5.07580242 16.4919437,5.1157166 16.6525724,5.16269352 C16.6576265,5.16392464 16.6617086,5.16191597 16.6626805,5.15757465 Z" id="Path" fill="#FFFFFF"></path>
                    <path d="M14.1425794,6.22553819 C14.1029892,6.12925171 14.0643062,6.03290043 14.024716,5.93706752 C14.0216706,5.9281905 14.0073507,5.92844968 14.0043701,5.93706752 C13.9657518,6.033354 13.9260968,6.12970528 13.8874786,6.22651013 C13.7837406,6.23590551 13.6800674,6.24711518 13.5763942,6.26007433 C13.5723121,6.26085188 13.5682299,6.26415646 13.5671932,6.26823859 C13.5661565,6.27232073 13.5671932,6.27763398 13.5702386,6.27964265 C13.6496134,6.34268891 13.7288586,6.40644793 13.8081686,6.47130847 C13.7837406,6.57271382 13.7593126,6.67411917 13.7339127,6.7757837 C13.7328759,6.77986583 13.7349494,6.78440153 13.7379948,6.78666938 C13.7420769,6.78971478 13.7471958,6.78900203 13.7501764,6.78666938 C13.8386226,6.72926035 13.927004,6.67308244 14.0144783,6.61820044 C14.1029244,6.67230489 14.1913059,6.72796444 14.2798168,6.7849199 C14.2808536,6.78595663 14.2828622,6.78692857 14.2848709,6.78692857 C14.2879811,6.78692857 14.2899898,6.78589184 14.2919984,6.78466072 C14.2950438,6.78239287 14.2970525,6.77753318 14.2960806,6.77377503 C14.2706806,6.67236968 14.2462526,6.57096433 14.2218246,6.46981817 C14.3011994,6.40450405 14.3794727,6.33996749 14.4587179,6.27685643 C14.4628,6.27458858 14.463772,6.26927533 14.4628,6.26545238 C14.4607914,6.26111106 14.4567092,6.25780648 14.4526271,6.25735291 C14.3489539,6.24458815 14.2462526,6.23415603 14.1425794,6.22553819 Z" id="Path" fill="#FFFFFF"></path>
                </g>
            </g>
        </g>
    </g>
</svg>