<?xml version="1.0" encoding="UTF-8"?>
<svg width="19px" height="14px" viewBox="0 0 19 14" version="1.1" xmlns="http://www.w3.org/2000/svg" xmlns:xlink="http://www.w3.org/1999/xlink">
    <title>flag-gr</title>
    <g id="HOSTING" stroke="none" stroke-width="1" fill="none" fill-rule="evenodd">
        <g id="Desktop-HD" transform="translate(-1075.000000, -1982.000000)" fill-rule="nonzero">
            <g id="flag-gr" transform="translate(1075.000000, 1982.000000)">
                <path d="M0.566236275,8.2703504 L0.566236275,9.08557 L1.07007814e-15,9.08557 L1.07007814e-15,13.2754506 C6.27545085,15.7853633 12.5509017,10.765538 18.8250141,13.2754506 L18.8250141,9.08289261 L18.8209982,9.08289261 L18.8209982,9.02667053 L18.7768238,9.02667053 L18.7768238,8.2703504 L0.566236275,8.2703504 Z" id="path3023" fill="#FFCE00"></path>
                <path d="M1.89682461,4.13133746 L1.89682461,4.90773703 L1.07007814e-15,4.90773703 L1.07007814e-15,9.09092439 C6.27545085,11.600837 12.5509017,6.58101175 18.8250141,9.09092439 L18.8250141,4.90773703 L18.8196593,4.90773703 L18.8196593,4.13133746 L1.89682461,4.13133746 Z" id="path3025" fill="#DD0000"></path>
                <path d="M1.07007814e-15,0.724549337 C6.27545085,3.23446186 12.5495632,-1.78536319 18.8250141,0.724549337 L18.8250141,4.90773703 C12.5495632,2.39782436 6.27545085,7.4176493 1.07007814e-15,4.90773703 L1.07007814e-15,0.724549337 Z" id="path3027" fill="#000000"></path>
            </g>
        </g>
    </g>
</svg>