<?xml version="1.0" encoding="UTF-8"?>
<svg width="43px" height="52px" viewBox="0 0 43 52" version="1.1" xmlns="http://www.w3.org/2000/svg" xmlns:xlink="http://www.w3.org/1999/xlink">
    <title>instant-setup</title>
    <g id="Game-Images" stroke="none" stroke-width="1" fill="none" fill-rule="evenodd">
        <g id="gamebg-smalland-1920" transform="translate(-1090, -2265)" stroke-width="2">
            <g id="instant-setup" transform="translate(1091, 2266)">
                <path d="M13.7737367,6.61819396 L13.7737367,3.23851303 C13.7737367,1.45721702 15.2309537,0 17.0137677,0 L23.2638625,0 C25.0459175,0 26.5016166,1.45721702 26.5016166,3.23851303 L26.5016166,6.61819396" id="Path" stroke="#060000"></path>
                <path d="M33.8696702,8.66740539 C36.1799663,10.1701604 38.2269008,12.0417736 39.9307822,14.1964814" id="Path" stroke="#367FCA"></path>
                <line x1="20.1391946" y1="4.48777304" x2="20.1391946" y2="9.88478878" id="Path" stroke="#060000"></line>
                <path d="M20.1391946,15.7842408 C27.9125366,15.7842408 34.2172771,22.0867044 34.2172771,29.8623234 C34.2172771,37.6379423 27.9125366,43.9404059 20.1391946,43.9404059 C12.3628167,43.9404059 6.0595941,37.6379423 6.0595941,29.8623234" id="Path" stroke="#060000"></path>
                <path d="M40.2761123,29.8630823 C40.2761123,40.9842287 31.258064,50 20.1391946,50 C9.01577134,50 0,40.9842287 0,29.8630823 C0,18.7396591 9.01577134,9.7246467 20.1391946,9.7246467 C31.258064,9.7246467 40.2761123,18.7396591 40.2761123,29.8630823 Z" id="Path" stroke="#060000"></path>
                <circle id="Oval" stroke="#367FCA" cx="20.1376766" cy="29.8623234" r="3.7159034"></circle>
                <line x1="23.6570075" y1="31.1981056" x2="27.9451722" y2="32.7957316" id="Path" stroke="#367FCA"></line>
                <line x1="6.1058911" y1="24.6596032" x2="16.613792" y2="28.574356" id="Path" stroke="#367FCA"></line>
            </g>
        </g>
    </g>
</svg>