<?xml version="1.0" encoding="UTF-8"?>
<svg width="56px" height="55px" viewBox="0 0 56 55" version="1.1" xmlns="http://www.w3.org/2000/svg" xmlns:xlink="http://www.w3.org/1999/xlink">
    <title>joomla</title>
    <g id="Game-Images" stroke="none" stroke-width="1" fill="none" fill-rule="evenodd">
        <g id="gamebg-smalland-1920" transform="translate(-192, -791)" fill="#FFFFFF" fill-rule="nonzero">
            <g id="Group" transform="translate(192, 791)">
                <path d="M9.83978638,27.6835781 L8.811749,26.6555407 C5.50734312,23.3511348 4.55273698,18.7249666 5.72763685,14.5393858 C2.42323097,13.8050734 0,10.8678238 0,7.34312417 C0,3.30440587 3.30440587,0 7.34312417,0 C11.0146862,0 14.0253672,2.6435247 14.6128171,6.1682243 C18.5781041,5.21361816 22.9105474,6.31508678 25.9946595,9.39919893 L26.435247,9.83978638 L21.0013351,15.2736983 L20.5607477,14.8331108 C18.7983979,13.070761 15.9345794,13.070761 14.1722296,14.8331108 C12.4098798,16.5954606 12.4098798,19.459279 14.1722296,21.2216288 L26.3618158,33.411215 L20.9279039,38.8451268 L15.200267,33.11749 L9.83978638,27.6835781 Z" id="Path"></path>
                <path d="M15.9345794,21.6622163 L28.1241656,9.47263017 C31.3551402,6.24165554 36.0547397,5.21361816 40.1668892,6.38851802 C40.6809079,2.79038718 43.76502,0.0734312417 47.4365821,0.0734312417 C51.4753004,0.0734312417 54.7797063,3.37783712 54.7797063,7.41655541 C54.7797063,11.1615487 51.9893191,14.2456609 48.3911883,14.6862483 C49.5660881,18.7983979 48.5380507,23.4245661 45.3070761,26.6555407 L44.8664887,27.0961282 L39.5794393,21.6622163 L40.0200267,21.2216288 C41.7823765,19.459279 41.7823765,16.5954606 40.0200267,14.8331108 C38.2576769,13.070761 35.3938585,13.070761 33.6315087,14.8331108 L21.4419226,27.0226969 L15.9345794,21.6622163 Z" id="Path"></path>
                <path d="M40.3871829,49.0520694 C36.2016021,50.3004005 31.5020027,49.3457944 28.1975968,46.0413885 L27.7570093,45.6008011 L33.1909212,40.1668892 L33.6315087,40.6074766 C35.3938585,42.3698264 38.2576769,42.3698264 40.0200267,40.6074766 C41.7823765,38.8451268 41.7823765,35.9813084 40.0200267,34.2189586 L27.8304406,22.0293725 L33.2643525,16.5954606 L45.5273698,28.858478 C48.611482,31.9425901 49.7129506,36.3484646 48.7583445,40.3871829 C52.3564753,40.9012016 55.0734312,43.9853138 55.0734312,47.6568758 C55.0734312,51.6955941 51.7690254,55 47.7303071,55 C44.058745,54.9265688 41.0480641,52.3564753 40.3871829,49.0520694 L40.3871829,49.0520694 Z" id="Path"></path>
                <path d="M38.2576769,33.7783712 L26.0680908,45.9679573 C22.9105474,49.1255007 18.5046729,50.1535381 14.5393858,49.1989319 C13.8050734,52.5033378 10.8678238,54.9265688 7.34312417,54.9265688 C3.30440587,54.9265688 0,51.6221629 0,47.5834446 C0,44.1321762 2.42323097,41.1949266 5.65420561,40.4606142 C4.62616822,36.3484646 5.65420561,31.9425901 8.811749,28.7850467 L9.25233645,28.3444593 L14.6862483,33.7783712 L14.2456609,34.2189586 C12.4833111,35.9813084 12.4833111,38.8451268 14.2456609,40.6074766 C16.0080107,42.3698264 18.8718291,42.3698264 20.6341789,40.6074766 L32.823765,28.4178905 L38.2576769,33.7783712 Z" id="Path"></path>
            </g>
        </g>
    </g>
</svg>