<?xml version="1.0" encoding="UTF-8"?>
<svg width="56px" height="50px" viewBox="0 0 56 50" version="1.1" xmlns="http://www.w3.org/2000/svg" xmlns:xlink="http://www.w3.org/1999/xlink">
    <title>knowledgebase</title>
    <g id="Game-Images" stroke="none" stroke-width="1" fill="none" fill-rule="evenodd">
        <g id="knowledgebase">
            <rect id="Rectangle" stroke="#979797" stroke-width="2" fill="#367FCA" x="16.1652578" y="2.79817146" width="7.779886" height="44.101259"></rect>
            <g id="Group" transform="translate(0, 3)" stroke="#060000" stroke-width="2">
                <g transform="translate(15.5779, 0)" id="Path" stroke-linejoin="round">
                    <polyline points="0 43.4285092 0 1.41783734e-15 8.3624424 1.41783734e-15 8.3624424 43.4285092"></polyline>
                    <line x1="4.18082212" y1="6.95526612" x2="4.18082212" y2="23.7599681"></line>
                </g>
                <g transform="translate(35.8542, 6.3865)" stroke-linejoin="round">
                    <polygon id="Rectangle" transform="translate(7.3601, 18.52) rotate(169.5373) translate(-7.3601, -18.52)" points="3.21192591 0.452899812 11.5083446 0.452899812 11.5083446 36.5870996 3.21192591 36.5870996"></polygon>
                    <line x1="6.06420713" y1="11.5045499" x2="8.65746621" y2="25.5411932" id="Path"></line>
                </g>
                <g transform="translate(3.7346, 7.9905)" id="Path" stroke-linejoin="round">
                    <g transform="translate(3.2071, 5.8626)">
                        <line x1="0" y1="0.399085731" x2="5.40601531" y2="0.399085731"></line>
                        <line x1="0" y1="4.76428546" x2="5.40601531" y2="4.76428546"></line>
                        <line x1="0" y1="8.92834597" x2="5.40601531" y2="8.92834597"></line>
                    </g>
                    <polyline points="0 32.2780539 0 0 8.61306824 0"></polyline>
                </g>
                <line x1="0" y1="43.6009143" x2="55.4210354" y2="43.6009143" id="Path"></line>
                <g transform="translate(27.1434, 18.67)">
                    <polyline id="Path" stroke-linejoin="round" points="0 0 9.36893662 0 9.36893662 24.7584806"></polyline>
                    <rect id="Rectangle" x="1.03682473" y="5.02289301" width="4.06907811" height="8.30257955"></rect>
                </g>
            </g>
            <rect id="Rectangle" stroke-opacity="0" stroke="#979797" x="20.5" y="0.5" width="14" height="49"></rect>
        </g>
    </g>
</svg>