<?xml version="1.0" encoding="UTF-8"?>
<svg width="16px" height="13px" viewBox="0 0 16 13" version="1.1" xmlns="http://www.w3.org/2000/svg" xmlns:xlink="http://www.w3.org/1999/xlink">
    <title>live-chat</title>
    <g id="Page-1" stroke="none" stroke-width="1" fill="none" fill-rule="evenodd">
        <g id="live-chat" fill="#367FCA" fill-rule="nonzero">
            <path d="M14.7761926,9.83770896 C15.5399899,9.08502146 15.9982683,8.14069028 15.9982683,7.11025831 C15.9982683,4.88830259 13.8735231,3.05241167 11.1044108,2.72467321 C10.2295157,1.12486508 8.17420668,0 5.77727194,0 C2.58598804,0 0.000187064077,1.98865037 0.000187064077,4.44391145 C0.000187064077,5.47156597 0.458465432,6.41589715 1.22226271,7.1713621 C0.79731368,8.02403761 0.186275856,8.68506943 0.175166077,8.69617921 C0.000187064077,8.882268 -0.0498069397,9.15445758 0.0529585125,9.39054037 C0.15294652,9.62662317 0.386251871,9.77938263 0.641776779,9.77938263 C2.12770967,9.77938263 3.32756576,9.21833881 4.11913749,8.7017341 C4.37466239,8.76006044 4.63851964,8.80449955 4.90793177,8.83782889 C5.78004939,10.4320821 7.8270261,11.5541698 10.2211834,11.5541698 C10.7988919,11.5541698 11.3543808,11.4875111 11.8820953,11.3653035 C12.673667,11.8791308 13.8707457,12.442952 15.359456,12.442952 C15.6149809,12.442952 15.8455088,12.2901926 15.9482743,12.0541098 C16.0482623,11.818027 16.0010457,11.5458374 15.8260667,11.3597486 C15.8149569,11.3514163 15.2011417,10.6903845 14.7761926,9.83770896 L14.7761926,9.83770896 Z M3.86639002,7.27412755 L3.39144699,7.58242391 C2.99982729,7.83517137 2.59987526,8.03514738 2.19436834,8.17679706 C2.26935935,8.04625716 2.34435035,7.90738493 2.41656391,7.76573525 L2.84706783,6.90194996 L2.15826156,6.22147602 C1.78330653,5.84929844 1.3333605,5.24103806 1.3333605,4.44391145 C1.3333605,2.75800254 3.36922743,1.33317343 5.77727194,1.33317343 C8.18531646,1.33317343 10.2211834,2.75800254 10.2211834,4.44391145 C10.2211834,6.12982035 8.18531646,7.55464946 5.77727194,7.55464946 C5.31899358,7.55464946 4.86071521,7.50187801 4.41632406,7.39911256 L3.86639002,7.27412755 Z M13.8401938,8.88782289 L13.1541649,9.56551939 L13.5846689,10.4293047 C13.6568824,10.5709544 13.7318734,10.7098266 13.8068644,10.8403665 C13.4013575,10.6987168 13.0014055,10.4987408 12.6097858,10.2459933 L12.1348428,9.93769697 L11.5821313,10.0654594 C11.1377401,10.1682249 10.6794618,10.2209963 10.2211834,10.2209963 C8.72136328,10.2209963 7.38263495,9.66272995 6.57439856,8.84060633 C9.38794999,8.54064231 11.5543568,6.69086417 11.5543568,4.44391145 C11.5543568,4.34947833 11.543247,4.25782265 11.5349147,4.16616698 C13.3235891,4.56889646 14.6650948,5.74375554 14.6650948,7.11025831 C14.6650948,7.90738493 14.2151488,8.51564531 13.8401938,8.88782289 Z" id="Shape"></path>
        </g>
    </g>
</svg>