<?xml version="1.0" encoding="UTF-8"?>
<svg width="93px" height="23px" viewBox="0 0 93 23" version="1.1" xmlns="http://www.w3.org/2000/svg" xmlns:xlink="http://www.w3.org/1999/xlink">
    <title>logo-rustr</title>
    <g id="Panel-Page-v1.0" stroke="none" stroke-width="1" fill="none" fill-rule="evenodd">
        <g id="Desktop-HD" transform="translate(-456, -5857)" fill-rule="nonzero">
            <g id="Group-34" transform="translate(340, 5730)">
                <g id="Group-32" transform="translate(116.4262, 111)">
                    <g id="logo-rustr" transform="translate(0, 16)">
                        <polygon id="Path" fill="#C5412B" points="0 0 21.4208179 0 21.4208179 22.0115607 0 22.0115607"></polygon>
                        <path d="M2.87945943,13.4588905 L2.85610906,9.2306545 C2.85610906,9.2306545 5.38466044,10.0344286 7.11230813,10.0610048 L7.14027264,12.770779 C7.14027264,12.770779 5.10697281,12.7701551 2.9344097,13.4909566" id="Path" fill="#000000"></path>
                        <path d="M7.85429991,10.0080599 L9.11521683,9.98118239 L9.14053645,12.953433 L7.90468595,12.953433 L7.85429991,10.0080599 Z M11.1580035,10.5835076 L10.3438512,11.5056754 L11.2104151,12.4385941 L12.0126672,11.473288 L11.1580035,10.5835076 Z M9.92215302,7.82399257 L12.6304658,7.81055381 L12.6557855,9.20133112 L9.95987925,9.20133112 L9.92215302,7.82399257 Z M13.4493023,11.9023876 L11.5218464,13.9350001 L12.4666479,14.9110573 L14.2805453,12.953433 L13.4493023,11.9023876 Z" id="Shape" fill="#000000"></path>
                        <path d="M9.31759932,2.8628019 L13.964987,2.84020138 C13.964987,2.84020138 13.0406659,5.3935213 13.0114552,7.05546621 L10.1830875,7.06891889 C10.1830875,7.06891889 10.0746101,5.00568035 9.28235444,2.9154019 M19.2787361,15.9233427 L16.0175558,19.1713593 C16.0175558,19.1713593 14.8240296,16.7279479 13.6432574,15.5355017 L15.6280793,13.558764 C15.6280793,13.558764 17.1959966,14.9384715 19.2654336,15.8614603" id="Shape" fill="#000000"></path>
                        <path d="M23.5628997,0 L39.173606,0 L39.173606,4.5815139 L23.5628997,4.5815139 L23.5628997,0 Z M23.5628997,4.5815139 L23.5628997,22.0115607 L28.3661325,22.0115607 L28.3661325,15.6037202 L30.4676301,15.6037202 L30.4676301,22.0115607 L39.173606,22.0115607 L39.173606,17.330299 L34.770576,17.330299 L34.770576,15.6037202 L39.173606,15.6037202 L39.173606,4.5815139 L34.770576,4.5815139 L34.770576,11.0464478 L28.3662656,11.0464478 L28.3662656,4.5815139 L23.5628997,4.5815139 Z M41.5752224,0 L41.5752224,22.0114283 L56.8855436,22.0114283 L56.8855436,0 L52.4826468,0 L52.4826468,17.330299 L46.1782872,17.330299 L46.1782872,0 L41.5752224,0 Z M74.4975304,0 L59.28716,0 L59.28716,12.8085278 L69.9945495,12.8085278 L69.9945495,17.330299 L59.28716,17.330299 L59.28716,22.0114283 L74.4975304,22.0114283 L74.4975304,8.12965043 L63.790274,8.12965043 L63.790274,4.5815139 L74.4975304,4.5815139 L74.4975304,0 Z M76.7990628,0 L92.1095171,0 L92.1095171,4.5815139 L86.7057804,4.5815139 L86.7057804,22.0115607 L82.4029675,22.0115607 L82.4029675,4.58138144 L76.7990628,4.58138144 L76.7990628,0 Z" id="Shape" fill="#999999"></path>
                    </g>
                </g>
            </g>
        </g>
    </g>
</svg>