<?xml version="1.0" encoding="UTF-8"?>
<svg width="105px" height="21px" viewBox="0 0 105 21" version="1.1" xmlns="http://www.w3.org/2000/svg" xmlns:xlink="http://www.w3.org/1999/xlink">
    <title>logo-cs2</title>
    <g id="Panel-Page-v1.0" stroke="none" stroke-width="1" fill="none" fill-rule="evenodd">
        <g id="Desktop-HD" transform="translate(-736, -5858)" fill="#1E202F">
            <g id="Group-34" transform="translate(340, 5730)">
                <g id="Group-32" transform="translate(116.4262, 111)">
                    <g id="logo-cs2" transform="translate(279.5738, 16.9985)">
                        <path d="M99.3656362,12.2403951 L99.295299,12.2403951 L83.1489663,12.2403951 L82.837903,12.2403951 L82.7162234,12.5279387 L81.2590777,15.971851 L80.9811142,16.6288697 L81.6918206,16.6288697 L97.4717982,16.6288697 C98.4883021,16.6288697 99.1802018,17.6786374 98.7781139,18.6282816 L98.7781139,18.6284705 L97.9472324,20.59146 L74.2588355,20.59146 L77.6534508,12.5692161 C77.6534508,12.5692161 77.6534508,12.5691972 77.6534508,12.5691783 C78.7698185,9.93205461 81.3371257,8.22247225 84.1769424,8.22247225 L97.8253648,8.22247225 L98.1364281,8.22247225 L98.2581077,7.93490968 L99.6887359,4.55381083 L99.9666994,3.89679213 L99.255993,3.89679213 L81.3233967,3.89679213 L82.9736876,0 L101.646329,0 C104.019174,0 105.626586,2.44800345 104.692079,4.65610694 L102.341049,10.2115317 L102.341049,10.2116451 C101.829318,11.4217617 100.663301,12.2127383 99.3656362,12.2403951 Z" id="Path"></path>
                        <path d="M4.67484314,8.51973709e-08 C3.51318348,-0.000276401624 2.46268058,0.672419757 2.00286372,1.71045641 L0.117695907,6.02014071 C-0.290526276,6.95387045 0.413314484,7.98996923 1.45610416,7.98996923 L7.59453514,7.98996923 C7.88587079,7.98996923 8.14900221,7.82075571 8.26330761,7.5599931 L8.8733626,6.16937751 L2.41308463,6.16937751 L4.14033657,2.22807599 L3.20244071,1.79643669 L10.3112635,1.79643669 C10.6025992,1.79643669 10.8657306,1.62722317 10.980036,1.36647924 L11.579252,0.000831755392 L4.67484314,8.51973709e-08 Z M20.5112364,6.2681399 C20.0549689,7.31227422 19.0031493,7.98996923 17.8386272,7.98996923 L11.3504694,7.98996923 C10.3086301,7.98996923 9.60552782,6.95248759 10.0148518,6.01847754 L11.8998414,1.71849195 C12.3567195,0.676306716 13.4076613,3.90790774e-06 14.5710575,3.90790774e-06 L21.0592917,3.90790774e-06 C22.1013982,3.90790774e-06 22.8042142,1.03776025 22.3948902,1.97148065 L20.5112364,6.2681399 Z M18.3882855,5.73970037 L20.1158427,1.79645537 L13.1403699,1.79645537 L14.0324864,2.22807599 L12.30491,6.1693962 L17.7204862,6.1693962 C18.0114021,6.1693962 18.2741518,6.00018267 18.3882855,5.73942006 L18.3882855,5.73970037 Z M26.1986457,19.8814097 L24.8195387,19.8814097 L27.53787,13.6869988 C27.4317701,13.6869988 24.5329164,13.6875408 24.5329164,13.6875408 L25.3273294,11.8913734 L33.6729596,11.8913734 L33.1208969,13.1635488 C32.9892262,13.4675725 32.6138694,13.6875408 32.2467182,13.6875408 L29.8720664,13.6875408 L27.53787,19.0202988 C27.30945,19.542422 26.7823857,19.8814097 26.1986457,19.8814097 Z M53.5105762,17.6597324 L52.7764645,17.6597324 L50.7798411,17.656948 L49.7883038,19.8810359 L47.4951352,19.8810359 L51.0082611,11.8913734 L53.2955141,11.8913734 L51.6400895,15.6630689 L57.0727447,12.0167652 C57.1941107,11.9352138 57.3381851,11.8913734 57.4858853,11.8913734 L60.9247795,11.8913734 L54.8377783,16.0092512 L57.5847337,19.8814097 L55.0721139,19.8814097 L53.5105762,17.659994 L53.5105762,17.6597324 Z M49.1213633,11.8913734 L46.7696107,11.8913734 L43.2616371,19.8814097 L44.9737374,19.8814097 C45.3414611,19.8814097 45.7347556,19.6438941 45.8668079,19.3394779 L47.9120923,14.6571875 L49.1213633,11.8913734 Z M42.2439564,19.8810359 L39.7945004,19.8810359 L38.7840712,18.0605563 L34.4486715,18.0605563 L34.0271346,19.02142 C33.7985238,19.5429827 33.2720319,19.8810359 32.689437,19.8810359 L31.2916288,19.8810359 L34.79674,11.8913734 L42.5925975,11.8913734 C43.6358489,11.8913734 44.3398099,12.9288176 43.9301042,13.8625287 L42.4193265,17.3071591 C42.2189581,17.7643065 41.7573475,18.0608367 41.2466943,18.0608367 L42.2443381,19.8814097 L42.2439564,19.8810359 Z M43.0103179,15.9232522 L41.7126939,13.6874847 L35.2862114,13.6930348 L36.1754655,14.111892 L35.2280092,16.2838611 L40.0988696,16.2838611 C40.3906441,16.2838611 40.6539855,16.1141056 40.7681,15.8528011 L41.7123123,13.687765 L43.0103179,15.9232522 Z M62.4855539,15.2099205 L67.7569603,15.2099205 L67.2606192,16.3375497 C67.1459321,16.5974714 66.8835449,16.766143 66.593297,16.766143 L61.7995307,16.766143 L61.2283853,18.0607619 L67.6670808,18.0607619 L67.0615865,19.4502936 C66.9478536,19.7115421 66.684894,19.8814097 66.3935011,19.8814097 L59.1840552,19.8814097 C58.6632882,19.8814097 58.3119756,19.3626502 58.5163513,18.8956545 L61.2075852,12.7510453 C61.436196,12.2298191 61.9615429,11.8913734 62.5433745,11.8913734 L70.3730083,11.8913734 L69.775338,13.2570227 C69.6612234,13.5177853 69.3982638,13.6869988 69.1074433,13.6869988 L62.0588646,13.6869988 L62.9673922,14.1100233 L62.4855539,15.2099205 Z M24.2529731,6.16803202 L26.9321849,0.00167081526 L25.534186,0.00167081526 C24.9523543,0.00167081526 24.4264349,0.339591431 24.1976333,0.860621445 L21.9315621,6.0176553 C21.521284,6.95151585 22.2248633,7.98996923 23.2681148,7.98996923 L29.2177205,7.98996923 C30.3846279,7.98996923 31.438184,7.31107823 31.8940698,6.26541155 L34.625759,0.00167081526 L33.2430262,4.25153348e-06 C32.6594771,-0.000825808307 32.1318403,0.338481405 31.9036112,0.861731471 L29.7741721,5.73605635 C29.6608209,5.9985195 29.3967162,6.16913457 29.1041784,6.16913457 L24.2529731,6.16803202 Z M48.2347808,7.98996923 L46.8554829,7.98996923 L49.574005,1.79561444 C49.4679052,1.79561444 46.5688607,1.79617506 46.5688607,1.79617506 L47.3632737,3.90790774e-06 L55.7089038,3.90790774e-06 L55.157032,1.27216256 C55.0251705,1.57618814 54.6498137,1.79617506 54.2826624,1.79617506 L51.9080106,1.79617506 L49.574005,7.12891441 C49.3453942,7.65098157 48.8183299,7.98996923 48.2347808,7.98996923 Z M73.5989396,6.16945226 L74.5963926,7.98968892 L72.1469366,7.98968892 L71.1365073,6.16917195 L66.8011076,6.16917195 L66.3795707,7.13005434 C66.1509599,7.65156088 65.624468,7.98968892 65.0418731,7.98968892 L63.6440649,7.98968892 L67.1489853,3.90790774e-06 L74.9448427,3.90790774e-06 C75.9880942,3.90790774e-06 76.692246,1.0374463 76.2825403,1.97114427 L74.7715718,5.41577468 C74.5712034,5.87292215 74.1097836,6.16945226 73.5989396,6.16945226 Z M74.0653209,1.796119 L75.3631356,4.03188652 L74.0649392,1.79638062 L73.120727,3.9614167 C73.0066124,4.22272125 72.7432711,4.39249539 72.4514965,4.39249539 L67.5804453,4.39249539 L68.5279016,2.22052632 L67.6386475,1.80165044 L74.0653209,1.796119 Z M63.0962005,3.31855482 L57.8123903,3.31855482 L58.2953736,2.21865759 L57.3847469,1.79561444 L64.4499276,1.79561444 C64.7415113,1.79561444 65.0050434,1.62640092 65.1195397,1.36563831 L65.7185458,3.90790774e-06 L57.8704018,3.90790774e-06 C57.2872343,3.90790774e-06 56.7605517,0.338432818 56.5315592,0.859668393 L53.834028,7.00436354 C53.6290798,7.47122841 53.9811557,7.98996923 54.5032585,7.98996923 L61.7294972,7.98996923 C62.0216534,7.98996923 62.2851855,7.82019509 62.3993001,7.55889054 L63.0061301,6.1693962 L56.5523593,6.1693962 L57.1248405,4.87475859 L61.9298656,4.87475859 C62.2208768,4.87475859 62.4838365,4.70610569 62.5987144,4.446184 L63.0962005,3.31855482 Z M35.4270418,7.12990484 C35.1982402,7.65131794 34.6715575,7.98996923 34.08839,7.98996923 L32.6900094,7.98996923 L36.1970289,0.00139050573 L37.9492029,3.90790774e-06 C38.2190323,3.90790774e-06 38.4669167,0.144781912 38.5928625,0.376926792 L41.3909595,5.52541308 L43.4473118,0.86062892 C43.6763043,0.340869642 44.2016511,0.00361055722 44.783292,0.00305554435 L46.2038085,0.00139050573 L42.8817004,7.56034815 C42.7672042,7.82079308 42.5040537,7.98996923 42.21247,7.98996923 L40.7249731,7.98996923 C40.4555253,7.98996923 40.2082135,7.8451987 40.0820768,7.61360697 L37.3866447,2.66619979 L35.4264693,7.12990484 L35.4270418,7.12990484 Z M19.1451055,18.0607619 L19.7053738,16.7833353 L19.7055646,16.783055 L15.3403004,16.7833353 L14.8057557,16.7833353 C13.7634775,16.7833353 13.0596119,15.7483578 13.4667223,14.8149083 L13.684227,14.3164246 L13.9886915,13.61737 C14.4445583,12.5710118 15.4990876,11.8913734 16.6670827,11.8913734 L24.1403852,11.8913734 L23.5438598,13.2567424 C23.4299361,13.5180656 23.1662131,13.6875408 22.8746294,13.6875408 L15.1526984,13.6875408 L16.0672561,14.1191801 L15.7077761,14.9419633 L20.6026425,14.9419633 C21.6460848,14.9419633 22.3502367,15.9794263 21.940531,16.913156 L21.3926665,18.161991 C20.9354449,19.2047425 19.8822704,19.8814097 18.7171377,19.8814097 L11.24332,19.8814097 L11.8582602,18.4890188 C11.9731381,18.2290784 12.2357161,18.0607619 12.5264984,18.0607619 L19.1451055,18.0607619 Z" id="Shape"></path>
                    </g>
                </g>
            </g>
        </g>
    </g>
</svg>