<?xml version="1.0" encoding="UTF-8"?>
<svg width="51px" height="52px" viewBox="0 0 51 52" version="1.1" xmlns="http://www.w3.org/2000/svg" xmlns:xlink="http://www.w3.org/1999/xlink">
    <title>modpack</title>
    <g id="Game-Images" stroke="none" stroke-width="1" fill="none" fill-rule="evenodd">
        <g id="gamebg-smalland-1920" transform="translate(-538, -2452)" stroke-width="2">
            <g id="modpack" transform="translate(539, 2453)">
                <path d="M38.5255511,23.0288282 L32.6337946,17.1344074 L26.8228565,22.9435692 C28.0013855,22.9702126 29.161264,23.4222633 30.0600366,24.3210359 C31.9108688,26.1745324 31.9108688,29.17725 30.0582604,31.0298584 C28.205652,32.8824668 25.2047106,32.8824668 23.3503259,31.0298584 C22.4497771,30.1275333 21.9426633,27.8228743 21.9426633,27.8228743 L15.9629834,33.8052186 L21.8547399,39.6978632 C20.6007211,39.6632267 19.3333807,40.1232704 18.3751044,41.0824349 C16.5216078,42.9350433 16.522496,45.9377609 18.3751044,47.7903693 C20.2277127,49.6429777 23.2304304,49.6429777 25.0830388,47.7921455 C26.0422032,46.832981 26.5013588,45.5665287 26.4693867,44.3107338 L32.1577648,50 L38.1729693,43.9847955 C36.9917761,43.9608164 35.8247926,43.5043251 34.9233557,42.6037763 C33.0698591,40.7511679 33.0698591,37.7484502 34.9233557,35.8940656 C36.7768522,34.0414572 39.7804579,34.0414572 41.6330663,35.8940656 C42.5318389,36.7946145 42.994547,37.9598217 43.0203023,39.1374625 L48.8276879,33.3300769 L43.1357573,27.6390344 C44.3933285,27.6718947 45.661557,27.2136272 46.6216096,26.2544628 C48.4733299,24.4027425 48.4733299,21.4000249 46.6207215,19.5465284 C44.9466243,17.871543 42.3311249,17.7125704 40.4767403,19.0625056" id="Path" stroke="#367FCA" stroke-linecap="round" stroke-linejoin="round"></path>
                <g id="Group" stroke="#060000">
                    <polyline id="Path" stroke-linejoin="round" points="14.7063003 49.9982238 0 49.9982238 0 9.92468783 9.92735217 0 37.6187854 0 37.6187854 15.3599531"></polyline>
                    <polyline id="Path" points="11.5454981 4.79848665 11.5454981 11.5783584 4.75852147 11.5783584"></polyline>
                </g>
            </g>
        </g>
    </g>
</svg>