<?xml version="1.0" encoding="UTF-8"?>
<svg width="31px" height="30px" viewBox="0 0 31 30" version="1.1" xmlns="http://www.w3.org/2000/svg" xmlns:xlink="http://www.w3.org/1999/xlink">
    <title>moo-kubernetes</title>
    <defs>
        <linearGradient x1="-2.76113211e-13%" y1="4.77573828%" x2="100%" y2="95.2242617%" id="linearGradient-1">
            <stop stop-color="#2EA5FD" offset="0%"></stop>
            <stop stop-color="#D661DB" offset="98.789882%"></stop>
        </linearGradient>
    </defs>
    <g id="v2.0" stroke="none" stroke-width="1" fill="none" fill-rule="evenodd">
        <g id="Desktop-HD" transform="translate(-1009, -598)" fill="url(#linearGradient-1)" fill-rule="nonzero">
            <g id="Banner" transform="translate(335.6997, 166.6332)">
                <g id="1" transform="translate(640.3003, 383.4797)">
                    <g id="moo-kubernetes" transform="translate(33.5306, 48.6159)">
                        <path d="M30,16.9761485 L26.2526942,16.1208689 C26.592748,13.489517 25.9790624,10.8233894 24.5228282,8.60554896 L27.4042367,6.30778627 L25.9896239,4.53346967 L23.1090095,6.83009789 C21.2531134,4.92114925 18.7833225,3.72812841 16.1344128,3.46105184 L16.1344128,0 L13.8655872,0 L13.8655872,3.46105184 C11.2166323,3.7282202 8.74683552,4.92136441 6.89099049,6.83043823 L4.0103761,4.53346967 L2.59564991,6.30767282 L5.47705839,8.60543551 C4.02083703,10.8233218 3.40719081,13.4894934 3.74730577,16.1208689 L0,16.9767157 L0.505267457,19.1880315 L4.24576675,18.3337729 C5.09708717,20.8652425 6.81120934,23.0168444 9.08834807,24.4122821 L7.57957906,27.5469459 L9.62356402,28.5313286 L11.1316524,25.3988203 C13.6278501,26.3242499 16.3730575,26.3242499 18.8692551,25.3988203 L20.3771166,28.5313286 L22.4211016,27.5463787 L20.9123326,24.4122821 C23.1894713,23.0168444 24.9035935,20.8652425 25.7549139,18.3337729 L29.4954132,19.1874643 L30,16.9761485 Z M24.0753023,14.7481559 C24.0753023,15.0400559 24.058513,15.3280988 24.031514,15.6134188 L18.35945,14.3183039 C18.3307172,14.0888357 18.278409,13.8629406 18.2033548,13.6441997 L22.7366952,10.028746 C23.6109392,11.4477213 24.0743307,13.0814603 24.0753023,14.7481559 Z M13.8655872,14.7481559 C13.8655872,14.1216035 14.3734811,13.6136824 15,13.6136824 C15.6265189,13.6136824 16.1344128,14.1216035 16.1344128,14.7481559 C16.1344128,15.3747083 15.6265189,15.8826294 15,15.8826294 C14.3737144,15.8820665 13.8661501,15.374475 13.8655872,14.7481559 L13.8655872,14.7481559 Z M21.3252588,8.25261424 L16.7923722,11.8676141 C16.5849168,11.739703 16.364334,11.6344261 16.1344128,11.5535919 L16.1344128,5.75098666 C18.0910581,5.99689172 19.9138024,6.87532798 21.3252588,8.25261424 L21.3252588,8.25261424 Z M13.8655872,5.75098666 L13.8655872,11.5535919 C13.635666,11.6344261 13.4150832,11.739703 13.2076278,11.8676141 L8.67496805,8.25261424 C10.0863646,6.8753722 11.9090223,5.99693928 13.8655872,5.75098666 L13.8655872,5.75098666 Z M5.92469768,14.7481559 C5.92566929,13.0814603 6.38906083,11.4477213 7.26330477,10.028746 L11.7966452,13.6438594 C11.721591,13.8626002 11.6692828,14.0884954 11.64055,14.3179635 L5.96848601,15.6130785 C5.94148699,15.3280988 5.92469768,15.0400559 5.92469768,14.7481559 Z M6.47318626,17.8253019 L12.1171168,16.5363131 C12.2504885,16.7562842 12.4082632,16.9604965 12.5874443,17.1450716 L10.0759678,22.3604733 C8.41371722,21.2809166 7.14884557,19.6886997 6.47318626,17.8253019 Z M15,23.8239441 C14.0200534,23.8223697 13.0468836,23.6614433 12.1185915,23.3474652 L14.6376686,18.114933 C14.7577048,18.1336084 14.8786553,18.1458405 15,18.1515765 C15.121191,18.1458619 15.2419895,18.1336678 15.3618777,18.1150464 L17.8814085,23.3474652 C16.9531817,23.6617044 15.9799689,23.8226379 15,23.8239441 Z M19.9240322,22.3604733 L17.4125557,17.1446178 C17.5917368,16.9600427 17.7495115,16.7558304 17.8828832,16.5358593 L23.5268137,17.8248481 C22.8512398,19.6884133 21.5863599,21.2807999 19.9240322,22.3604733 L19.9240322,22.3604733 Z" id="Shape"></path>
                    </g>
                </g>
            </g>
        </g>
    </g>
</svg>