<?xml version="1.0" encoding="UTF-8"?>
<svg width="50px" height="50px" viewBox="0 0 50 50" version="1.1" xmlns="http://www.w3.org/2000/svg" xmlns:xlink="http://www.w3.org/1999/xlink">
    <title>terraria-icon-locations</title>
    <g id="Network" stroke="none" stroke-width="1" fill="none" fill-rule="evenodd" stroke-linejoin="round">
        <g id="Desktop-HD" transform="translate(-1792.000000, -2220.000000)" stroke="#060000" stroke-width="2">
            <g id="Group-8" transform="translate(1287.000000, 2028.000000)">
                <g id="terraria-icon-locations" transform="translate(506.000000, 193.000000)">
                    <line x1="24" y1="27.8990769" x2="24" y2="0.330364372" id="Path"></line>
                    <line x1="24" y1="47.8670769" x2="24" y2="40.1629798" id="Path"></line>
                    <line x1="5.88204049" y1="24.0155466" x2="0.0334251012" y2="24.0155466" id="Path"></line>
                    <line x1="47.9665749" y1="24.0155466" x2="18.2936356" y2="24.0155466" id="Path"></line>
                    <g id="Group" transform="translate(12.720194, 0.096389)">
                        <path d="M0.189668016,30.0165182 C1.39996761,35.4430445 4.19446154,41.4004858 9.42354656,47.7092794" id="Path"></path>
                        <path d="M9.42354656,1.38081179e-15 C9.42354656,1.38081179e-15 2.10344939,6.71378138 5.52324718e-15,17.5178623" id="Path"></path>
                        <path d="M22.7827045,18.8004534 C23.9790121,26.7253117 22.2774413,36.678996 13.1360648,47.7092794" id="Path"></path>
                        <path d="M13.1360648,1.38081179e-15 C13.1360648,1.38081179e-15 15.8201781,2.46102024 18.4055709,6.80239676" id="Path"></path>
                    </g>
                    <circle id="Oval" cx="24" cy="24" r="24"></circle>
                    <circle id="Oval" fill="#3781C3" cx="33.9668988" cy="12.8126964" r="3.06889069"></circle>
                    <circle id="Oval" fill="#3781C3" cx="12.1706235" cy="24.0287611" r="3.06889069"></circle>
                    <circle id="Oval" fill="#3781C3" cx="23.9743482" cy="34.1192551" r="3.06889069"></circle>
                    <path d="M27.7482753,14.0797409 C21.4628016,14.7490202 14.0012308,13.5480486 5.80042105,8.38425911" id="Path"></path>
                    <path d="M42.8564211,8.38736842 C41.2294737,9.48884211 39.2364049,10.6486154 36.9238543,11.6428178" id="Path"></path>
                    <path d="M27.2251336,34.3571174 C31.7219757,34.9237895 36.6354656,36.5452955 41.851336,39.7665425" id="Path"></path>
                    <path d="M5.70947368,39.6056356 C8.73405668,37.6382186 12.8873198,35.5666397 17.9119676,34.6307368" id="Path"></path>
                </g>
            </g>
        </g>
    </g>
</svg>