<?xml version="1.0" encoding="UTF-8"?>
<svg width="50px" height="32px" viewBox="0 0 50 32" version="1.1" xmlns="http://www.w3.org/2000/svg" xmlns:xlink="http://www.w3.org/1999/xlink">
    <title>terraria-icon-mobile</title>
    <g id="Network" stroke="none" stroke-width="1" fill="none" fill-rule="evenodd" stroke-linejoin="round">
        <g id="Desktop-HD" transform="translate(-1464.000000, -2063.000000)" stroke="#060000" stroke-width="2">
            <g id="Group-8" transform="translate(1287.000000, 2028.000000)">
                <g id="terraria-icon-mobile" transform="translate(178.000000, 36.000000)">
                    <g id="Group" transform="translate(35.868376, 7.638947)">
                        <path d="M12.1316239,20.9137459 C12.1316239,21.4605644 11.6845155,21.9381574 11.1389672,21.9381574 L0.99265669,21.9381574 C0.447108324,21.9381574 0,21.4605644 0,20.9137459 L0,0.99265669 C0,0.44583813 0.447108324,4.51263596e-15 0.99265669,4.51263596e-15 L11.1389672,4.51263596e-15 C11.6845155,4.51263596e-15 12.1316239,0.44583813 12.1316239,0.99265669 L12.1316239,20.9137459 Z" id="Path" fill="#3781C3"></path>
                        <line x1="4.95502719" y1="18.8026833" x2="7.17596158" y2="18.8026833" id="Path" stroke-linecap="round"></line>
                    </g>
                    <g id="Group">
                        <path d="M4.39868217,23.0762513 L4.39868217,2.74044377 C4.39868217,1.23335847 5.63140555,-2.25631798e-15 7.13722066,-2.25631798e-15 L39.2026357,-2.25631798e-15 C40.7109911,-2.25631798e-15 41.9437145,1.23335847 41.9437145,2.74044377 L41.9437145,4.99440321" id="Path"></path>
                        <path d="M33.1590521,25.9513357 L27.288215,25.9513357 L26.6296193,26.7140872 L19.710237,26.7140872 L19.0541817,25.9513357 L1.12815899e-15,25.9513357 C1.12815899e-15,25.9513357 0.79895209,29.5771048 3.45111737,29.5771048 L33.1590521,29.5771048" id="Path"></path>
                    </g>
                </g>
            </g>
        </g>
    </g>
</svg>