<?xml version="1.0" encoding="UTF-8"?>
<svg width="50px" height="41px" viewBox="0 0 50 41" version="1.1" xmlns="http://www.w3.org/2000/svg" xmlns:xlink="http://www.w3.org/1999/xlink">
    <title>terraria-icon-subdomain</title>
    <g id="Network" stroke="none" stroke-width="1" fill="none" fill-rule="evenodd">
        <g id="Desktop-HD" transform="translate(-1619.000000, -2135.000000)">
            <g id="Group-8" transform="translate(1287.000000, 2028.000000)">
                <g id="terraria-icon-subdomain" transform="translate(333.000000, 108.000000)">
                    <circle id="Oval" fill="#3781C3" cx="36.1857141" cy="26.5857141" r="11.8142855"></circle>
                    <g id="7394279_world_earth_globe_tick_checked_icon" transform="translate(0.000000, -0.000000)" stroke="#060000" stroke-width="2">
                        <polyline id="Path" stroke-linecap="round" stroke-linejoin="round" points="29.4089143 26.3485714 34.4146286 31.6738286 41.2957714 21.7536"></polyline>
                        <g id="Group">
                            <g transform="translate(2.817600, 0.038400)" id="Path" stroke-linejoin="round">
                                <g>
                                    <line x1="15.2742857" y1="36.1782857" x2="15.2742857" y2="0"></line>
                                    <line x1="21.5136" y1="18.0260571" x2="0" y2="18.0260571"></line>
                                    <path d="M13.5085714,0.170742857 C11.1456,2.58857143 -1.74651429,17.2971429 13.8637714,36.1330286"></path>
                                    <path d="M16.9789714,0.106285714 C18.2461714,1.38857143 23.2573714,6.91954286 24.1508571,15.0562286"></path>
                                    <path d="M29.0269714,6.48205714 C24.0596571,9.5088 15.0116571,12.9353143 3.93874286,7.73828571"></path>
                                </g>
                                <path d="M18.9572571,25.9021714 C14.7545143,25.2925714 9.80022857,25.6772571 4.34468571,28.1444571"></path>
                            </g>
                            <path d="M23.9732571,35.1222857 C22.1204571,35.7654857 20.1291429,36.1145143 18.0569143,36.1145143 C8.08457143,36.1145143 0,28.0292571 0,18.0569143 C0,8.08388571 8.08457143,0 18.0569143,0 C26.1593143,0 33.0164571,5.33622857 35.3019429,12.6870857" id="Path"></path>
                        </g>
                        <path d="M28.6217143,18.1899429 C29.8422857,17.1476571 31.2980571,16.3460571 32.9417143,15.8756571 C39.0658286,14.1264 45.4491429,17.6729143 47.1990857,23.7977143 C48.9483429,29.9225143 45.3997714,36.3065143 39.2763429,38.0544 C33.1515429,39.8050286 26.7689143,36.2571429 25.0189714,30.1337143 C24.1268571,27.0075429 24.6137143,23.8148571 26.1181714,21.2050286" id="Path" stroke-linecap="round" stroke-linejoin="round"></path>
                    </g>
                </g>
            </g>
        </g>
    </g>
</svg>