<?xml version="1.0" encoding="UTF-8"?>
<svg width="58px" height="12px" viewBox="0 0 58 12" version="1.1" xmlns="http://www.w3.org/2000/svg" xmlns:xlink="http://www.w3.org/1999/xlink">
    <title>nginx</title>
    <g id="Page-1" stroke="none" stroke-width="1" fill="none" fill-rule="evenodd">
        <g id="nginx" fill="#00C500" fill-rule="nonzero">
            <path d="M10.7076129,11.9715978 C10.3838284,11.9715978 10.0685644,11.8466284 9.82714609,11.6080502 L2.48234846,4.26325261 L2.48234846,10.7020215 C2.48234846,11.3836732 1.9256662,11.9431957 1.24117423,11.9431957 C0.556682264,11.9431957 0,11.4177558 0,10.7020215 L0,1.27250555 C0,0.769787382 0.303903073,0.318193096 0.766858221,0.125058433 C1.22981337,-0.0680762302 1.76093369,0.0398519639 2.11880086,0.394878918 L9.46359849,7.73967655 L9.46359849,1.27250555 C9.46359849,0.590853797 10.0202808,0.031331317 10.7047727,0.031331317 C11.3892647,0.031331317 11.945947,0.588013581 11.945947,1.27250555 L11.945947,10.7020215 C11.945947,11.3836732 11.3892647,11.9431957 10.7047727,11.9431957 M16.450529,0.0142900232 L16.1097031,0.650498325 L13.4683025,5.44478232 L13.1274767,6.04974825 L13.4683025,6.65471418 L16.1097031,11.2927863 L16.46473,11.9289946 L23.366454,11.9289946 L23.7072799,11.2303016 L25.6783895,7.25968011 L26.5588564,5.45898339 L24.5593446,5.45898339 L19.5179618,5.47318447 C18.8647122,5.46466383 18.2597463,6.05826889 18.2597463,6.7143587 C18.2597463,7.37044852 18.861872,7.96405358 19.5179618,7.95553294 L22.5569926,7.94133186 L21.8128561,9.44664614 L17.9103998,9.44664614 L15.9705325,6.03270695 L17.9246009,2.49663849 L22.0826766,2.49663849 L23.0483499,4.48478943 L25.5477396,4.48478943 L23.9742602,0.712983069 L23.6334343,0.0142900232 L16.4476887,0.0142900232 M29.0184831,8.89450173e-05 C28.3652335,0.00860959192 27.7858296,0.607895091 27.7971904,1.25546426 L27.7971904,4.49331008 L30.2795389,4.49331008 L30.2795389,1.25546426 C30.2880595,0.596534228 29.7114958,-0.00843170189 29.0241636,8.89450173e-05 M33.0004655,11.9715978 C32.3188137,11.9715978 31.7592912,11.4149156 31.7592912,10.7304236 L31.7592912,1.29238706 C31.7592912,0.610735306 32.3159735,0.0512128264 33.0004655,0.0512128264 C33.6849574,0.0512128264 34.2416397,0.607895091 34.2416397,1.29238706 L34.2416397,7.75955806 L41.5864373,0.414760428 C41.9414643,0.0597334733 42.4754248,-0.0453545051 42.93838,0.144939942 C43.4013351,0.33523439 43.7052382,0.789668891 43.7052382,1.29238706 L43.7052382,10.7588258 C43.7052382,11.4404775 43.1485559,12 42.4640639,12 C41.779572,12 41.2228897,11.4433177 41.2228897,10.7588258 L41.2228897,4.28881455 L33.8780921,11.6336122 C33.6451944,11.8665099 33.3299305,11.9971598 32.9976252,11.9971598 M52.8933358,6.01566566 L56.756029,2.17001369 C57.2388657,1.68717703 57.2388657,0.900437301 56.7588692,0.414760428 C56.2788728,-0.0709164458 55.4892928,-0.0680762302 55.003616,0.411920212 L51.1409227,4.26609283 L47.2782294,0.411920212 C46.7953928,-0.0709164458 46.0058128,-0.0709164458 45.5229762,0.414760428 C45.0401395,0.900437301 45.0401395,1.68717703 45.5258164,2.17001369 L49.3885097,6.01566566 L45.5286566,9.84995676 C45.04582,10.3327934 45.04582,11.1195332 45.5258164,11.60521 C45.7587141,11.8409479 46.073978,11.9744381 46.3778811,11.9744381 C46.6817842,11.9744381 47.0112492,11.855149 47.2526675,11.6108905 L51.1068401,7.7680787 L54.9610127,11.6108905 C55.1939104,11.8437881 55.5091744,11.9744381 55.8357992,11.9744381 C56.162424,11.9744381 56.4720075,11.8523088 56.6878638,11.60521 C57.1707005,11.1223734 57.1707005,10.3356336 56.6850236,9.84995676 L52.8365314,6.01566566 M28.9616788,11.9630772 C28.3084292,11.9545565 27.7290252,11.3552711 27.7403861,10.7077019 L27.7403861,5.51010728 L30.2227346,5.51010728 L30.2227346,10.7020215 C30.2312552,11.3609515 29.6546914,11.9659174 28.9673593,11.9573968" id="Shape"></path>
        </g>
    </g>
</svg>