<?xml version="1.0" encoding="UTF-8"?>
<svg width="54px" height="52px" viewBox="0 0 54 52" version="1.1" xmlns="http://www.w3.org/2000/svg" xmlns:xlink="http://www.w3.org/1999/xlink">
    <title>one-click-backups</title>
    <g id="Panel-Page-v1.0" stroke="none" stroke-width="1" fill="none" fill-rule="evenodd" stroke-linecap="round">
        <g id="Desktop-HD" transform="translate(-742, -1105)" stroke-width="2">
            <g id="Group-14" transform="translate(-163, 1106)">
                <g id="Group-11" transform="translate(906, 0)">
                    <g id="one-click-backups" transform="translate(0, 0)">
                        <path d="M37.4181408,50 L23.8894744,44.3326565 C22.5846221,43.7798546 21.9703977,42.2592748 22.5246978,40.9529244 L22.679752,40.5903822 C23.2325539,39.287028 24.7531338,38.6713055 26.0564879,39.2256056 L32.1904921,41.7828763 L29.8586866,36.1065442 L25.0482611,24.3890907 C24.5096912,23.0797441 25.1448891,21.5659057 26.4527375,21.0273358 L26.6519859,20.947187 C27.9628306,20.4086171 29.47592,21.0408188 30.0122427,22.3501654 L33.6886003,31.2991149 L43.442034,29.057945 C43.442034,29.057945 46.6637157,28.4302376 48.2681897,32.3365549 L51.8816267,43.6150627" id="Path" stroke="#060000" stroke-linejoin="round"></path>
                        <g id="Group">
                            <path d="M23.371878,30.7253395 C22.5119638,31.147806 21.6033612,31.5006105 20.6475681,31.7725171 C12.0484269,34.2301637 3.08299814,29.2489538 0.626100637,20.6483144 C-0.626317847,16.2596063 0.0568195076,11.7757684 2.16990117,8.11064661" id="Path" stroke="#060000" stroke-linejoin="round"></path>
                            <path d="M13.6313497,24.339117 L13.6313497,15.7818006 L10.4745097,15.7818006 C10.0866627,15.7806253 9.9021415,15.4768118 9.82751033,15.298167 C9.67002092,14.9150212 9.72408444,14.4325629 9.95502974,14.2022053 L16.3374644,7.82270882 C16.7840762,7.37962294 17.5080574,7.37962294 17.949968,7.82388411 L24.303608,14.2022053 C24.5498321,14.449017 24.6256386,14.9244235 24.4740256,15.2893523 C24.3406297,15.6072694 24.0644356,15.7823882 23.6965686,15.7823882 L20.4080956,15.7823882 L20.4080956,24.3397047" id="Path" stroke="#367FCA"></path>
                            <path d="M5.68745931,3.87549463 C7.40054607,2.41259194 9.44621287,1.2867636 11.7518014,0.626846921 C20.3539389,-1.82930153 29.3208658,3.15041024 31.7755161,11.7517987 C32.4586535,14.1435285 32.5687644,16.5629733 32.1822525,18.8633185" id="Path" stroke="#060000" stroke-linejoin="round"></path>
                        </g>
                    </g>
                </g>
            </g>
        </g>
    </g>
</svg>