<?xml version="1.0" encoding="UTF-8"?>
<svg width="55px" height="55px" viewBox="0 0 55 55" version="1.1" xmlns="http://www.w3.org/2000/svg" xmlns:xlink="http://www.w3.org/1999/xlink">
    <title>opencart</title>
    <g id="Game-Images" stroke="none" stroke-width="1" fill="none" fill-rule="evenodd">
        <g id="gamebg-smalland-1920" transform="translate(-935, -860)">
            <g id="opencart" transform="translate(935, 860)">
                <path d="M36.3779622,41.6646336 C36.3779622,43.8390542 34.6334997,45.5836363 32.4590791,45.5836363 C30.2850173,45.5836363 28.5232178,43.8389346 28.5232178,41.6646336 C28.5232178,39.4903327 30.2937456,37.7285331 32.4590791,37.7285331 C34.6419888,37.7285331 36.3779622,39.4903327 36.3779622,41.6646336 Z M14.5580719,37.7285331 C12.3837709,37.7285331 10.6391888,39.4991805 10.6391888,41.6646336 C10.6391888,43.8302063 12.3837709,45.5836363 14.5580719,45.5836363 C16.7323728,45.5836363 18.4940528,43.8389346 18.4940528,41.6646336 C18.4940528,39.4903327 16.7322533,37.7285331 14.5580719,37.7285331 Z M39.6265603,14.5251489 C13.6557101,14.5251489 7.03823075,13.4250256 0,6 C2.95637974,10.4431783 4.58055925,18.7962723 32.0639147,18.3923796 C60.7074155,17.9627803 43.235888,25.7918181 38.1482509,34.6261638 C54.1931213,20.3001688 65.597291,14.5251489 39.6265603,14.5251489 L39.6265603,14.5251489 Z" id="Shape" fill="#FFFFFF" fill-rule="nonzero"></path>
                <rect id="Rectangle" stroke-opacity="0" stroke="#FFFFFF" x="10.5" y="0.5" width="38" height="54"></rect>
            </g>
        </g>
    </g>
</svg>