<?xml version="1.0" encoding="UTF-8"?>
<svg width="40px" height="52px" viewBox="0 0 40 52" version="1.1" xmlns="http://www.w3.org/2000/svg" xmlns:xlink="http://www.w3.org/1999/xlink">
    <title>recycling-bin</title>
    <g id="Panel-Page-v1.0" stroke="none" stroke-width="1" fill="none" fill-rule="evenodd">
        <g id="Desktop-HD" transform="translate(-1097, -3380)" stroke-width="2">
            <g id="Group-18" transform="translate(-324, 3093)">
                <g id="Group-30" transform="translate(661, 124)">
                    <g id="Group-29" transform="translate(638, 164)">
                        <g id="recycling-bin" transform="translate(123, 0)">
                            <g id="Group" stroke="#060000" stroke-linejoin="round">
                                <line x1="6.55909635" y1="38.6095617" x2="6.52025295" y2="10.2694178" id="Path"></line>
                                <path d="M35.1781358,10.4146921 L31.2953497,43.4300275 C30.8447662,46.4240767 28.7658675,48.3569242 26.0545983,48.3569242 L19.5933873,48.3569242" id="Path"></path>
                                <path d="M16.9908796,43.7042619 C16.9908796,47.1822998 14.1724025,50 10.6951415,50 C7.21710353,50 4.3986265,47.1822998 4.3986265,43.7042619 C4.3986265,40.2246702 7.21788039,37.4077469 10.6951415,37.4077469 C14.1724025,37.4077469 16.9908796,40.2254471 16.9908796,43.7042619 Z" id="Path" stroke-linecap="round"></path>
                                <path d="M21.8587343,10.3036 L5.51110144,10.3036 C5.08382405,10.3036 4.73423346,9.95400942 4.73423346,9.52673203 L4.73423346,6.15279439 C4.73423346,5.72551701 5.08382405,5.37592642 5.51110144,5.37592642 L37.2267367,5.37592642 C37.6547909,5.37592642 38.0036047,5.72551701 38.0036047,6.15279439 L38.0036047,9.52673203 C38.0036047,9.95400942 37.6547909,10.3036 37.2267367,10.3036 L29.8216311,10.3036" id="Path"></path>
                                <line x1="6.35944128" y1="5.37592642" x2="0" y2="5.37592642" id="Path" stroke-linecap="round"></line>
                                <path d="M35.6015289,4.99681484 L35.6015289,3.89133171 C35.6015289,1.75106042 34.794363,0 32.6533149,0 L15.1939839,0 C13.0529358,0 5.9997514,1.47604916 4.92145865,3.89133171 L4.42193254,5.08926213" id="Path"></path>
                            </g>
                            <g id="Group" transform="translate(12.7107, 18.0195)" stroke="#367FCA" stroke-linecap="round">
                                <path d="M8.98956558,0 C12.5033395,0.894175044 14.8510345,4.31084042 14.3320867,7.98076475 C13.7742955,11.9179317 10.1323384,14.6571682 6.19206399,14.1001538 C2.25489707,13.5431395 -0.485116288,9.90040553 0.0718980528,5.96323861 C0.311950258,4.26578207 1.1261079,2.79128665 2.29140987,1.70755582" id="Path" stroke-linejoin="round"></path>
                                <polygon id="Path" fill-rule="nonzero" points="0.733012703 1.10781374 3.44583569 0.350367459 3.42330651 3.16573701"></polygon>
                            </g>
                        </g>
                    </g>
                </g>
            </g>
        </g>
    </g>
</svg>