<?xml version="1.0" encoding="UTF-8"?>
<svg width="56px" height="50px" viewBox="0 0 56 50" version="1.1" xmlns="http://www.w3.org/2000/svg" xmlns:xlink="http://www.w3.org/1999/xlink">
    <title>scheduled-backups</title>
    <g id="Panel-Page-v1.0" stroke="none" stroke-width="1" fill="none" fill-rule="evenodd">
        <g id="Desktop-HD" transform="translate(-1398, -3380)">
            <g id="Group-18" transform="translate(-324, 3093)">
                <g id="Group-30" transform="translate(661, 124)">
                    <g id="Group-29" transform="translate(948, 163)">
                        <g id="scheduled-backups" transform="translate(114, 0)">
                            <path d="M18.2330021,40.0235356 L10.1987448,40.0235356 C4.59021967,40.0235356 0,35.4341004 0,29.8279289 C0,24.2201883 4.59021967,19.6323222 10.1987448,19.6323222 L10.415272,19.6323222 L10.415272,17.1603033 C10.415272,9.92154812 16.4607741,4 23.8501569,4 C31.0802824,4 37.0237971,9.66893305 37.2771967,16.6935146 L43.0167364,16.6935146 C49.0583159,16.6935146 54,21.626569 54,27.6681485 L54,29.0410565 C54,35.0810669 49.0583159,40.0243201 43.0167364,40.0243201 L36.4048117,40.0243201" id="Path" stroke="#060000" stroke-width="2" stroke-linejoin="round"></path>
                            <path d="M22.6412134,46.1380753 L22.6412134,34.7139121 L18.4267782,34.7139121 C17.9089958,34.7123431 17.6626569,34.3067469 17.563023,34.0682531 C17.352772,33.5567469 17.4249477,32.9126569 17.7332636,32.6051255 L26.2539226,24.0883891 C26.8501569,23.4968619 27.8166841,23.4968619 28.4066423,24.0899582 L36.8888598,32.6051255 C37.2175732,32.9346234 37.3187762,33.5692992 37.1163703,34.0564854 C36.9382845,34.48091 36.5695607,34.7146967 36.0784519,34.7146967 L31.6882845,34.7146967 L31.6882845,46.1388598" id="Path" stroke="#367FCA" stroke-width="2" stroke-linecap="round"></path>
                            <rect id="Rectangle" stroke-opacity="0" stroke="#979797" x="20.5" y="0.5" width="21" height="49"></rect>
                        </g>
                    </g>
                </g>
            </g>
        </g>
    </g>
</svg>