<?xml version="1.0" encoding="UTF-8"?>
<svg width="55px" height="52px" viewBox="0 0 55 52" version="1.1" xmlns="http://www.w3.org/2000/svg" xmlns:xlink="http://www.w3.org/1999/xlink">
    <title>server-pause</title>
    <g id="Panel-Page-v1.0" stroke="none" stroke-width="1" fill="none" fill-rule="evenodd">
        <g id="Desktop-HD" transform="translate(-381, -1293)" stroke-width="2">
            <g id="Group-14" transform="translate(-163, 1223)">
                <g id="Group-11" transform="translate(537, 1)">
                    <g id="server-pause" transform="translate(8, 70)">
                        <path d="M52.5862069,37.7146046 C52.5862069,44.5002754 47.0894369,50 40.3053734,50 C33.5249593,50 28.0172414,44.5002754 28.0172414,37.7146046 C28.0172414,30.9298464 33.5249593,25.4310345 40.3053734,25.4310345 C47.0894369,25.4310345 52.5862069,30.9298464 52.5862069,37.7146046 Z" id="Path" stroke="#367FCA"></path>
                        <g id="Group" transform="translate(37.2594, 31.8966)" stroke="#367FCA">
                            <line x1="0.458836581" y1="11.637931" x2="0.458836581" y2="0" id="Path"></line>
                            <line x1="5.60344828" y1="11.637931" x2="5.60344828" y2="0" id="Path"></line>
                        </g>
                        <g id="Group" stroke="#060000">
                            <ellipse id="Oval" fill="#394553" fill-rule="nonzero" cx="8.45181193" cy="7.59244831" rx="1" ry="1"></ellipse>
                            <ellipse id="Oval" fill="#394553" fill-rule="nonzero" cx="8.45181193" cy="22.5775437" rx="1" ry="1"></ellipse>
                            <ellipse id="Oval" fill="#394553" fill-rule="nonzero" cx="8.45181193" cy="37.6343858" rx="1" ry="1"></ellipse>
                            <path d="M0,11.2633426 L0,2.72456279 C0,1.22605326 1.23548993,0 2.74350095,0 L37.3427059,0 C38.8516315,0 40.0862069,1.22605326 40.0862069,2.72456279 L40.0862069,21.1625874" id="Path" stroke-linejoin="round"></path>
                            <polyline id="Path" points="0 26.4200854 0 15.0813632 39.9664074 15.0813632"></polyline>
                            <path d="M25.1194947,45.2586207 L2.74350095,45.2586207 C1.23548993,45.2586207 0,44.0316592 0,42.5340579 L0,30.1173171 L1.85643564,30.1173171 L24.9804907,30.1173171" id="Path"></path>
                        </g>
                    </g>
                </g>
            </g>
        </g>
    </g>
</svg>