<?xml version="1.0" encoding="UTF-8"?>
<svg width="58px" height="50px" viewBox="0 0 58 50" version="1.1" xmlns="http://www.w3.org/2000/svg" xmlns:xlink="http://www.w3.org/1999/xlink">
    <title>sftp-access</title>
    <g id="Panel-Page-v1.0" stroke="none" stroke-width="1" fill="none" fill-rule="evenodd">
        <g id="Desktop-HD" transform="translate(-1396, -3619)">
            <g id="Group-18" transform="translate(-324, 3093)">
                <g id="Group-30" transform="translate(661, 124)">
                    <g id="Group-29" transform="translate(948, 402)">
                        <g id="sftp-access" transform="translate(112, 0)">
                            <g id="Group" transform="translate(9.0664, 21.0638)" stroke="#367FCA" stroke-linejoin="round" stroke-width="2">
                                <path d="M0,21.0982365 L0,16.2324888 L5.07613015,15.3987829 C5.41517635,14.0686786 5.93591654,12.8133383 6.61922504,11.6614506 L3.63648783,7.45727769 L7.455539,3.63648783 L11.6597119,6.61922504 C12.8029061,5.94026329 14.0486836,5.4212618 15.3683557,5.0804769 L16.2342275,0 L21.6381023,0 L22.5013661,5.0804769 C23.8323398,5.4230005 25.0842027,5.94895678 26.2360904,6.63400397 L30.4141828,3.63648783 L34.2341033,7.45727769 L31.2365872,11.6353701 C31.920765,12.7855191 32.4475907,14.0399901 32.7883756,15.369225 L37.8705912,16.2324888 L37.8705912,21.0982365" id="Path"></path>
                                <path d="M11.0207402,14.1590909 C10.1766021,15.5535271 9.69324391,17.1879036 9.69324391,18.9352956 C9.69324391,19.466468 9.73931942,19.9898162 9.825385,20.4966468" id="Path" stroke-linecap="round"></path>
                                <path d="M28.0434675,20.5201192 C28.1321411,20.0045951 28.1782166,19.4751615 28.1773593,18.9361649 C28.1773593,13.8313462 24.0392449,9.69324391 18.9352956,9.69324391 C17.2426726,9.69411326 15.657849,10.1470442 14.29384,10.9416294" id="Path" stroke-linecap="round"></path>
                            </g>
                            <g id="Group" transform="translate(0, 5)" stroke="#060000" stroke-width="2">
                                <line x1="3.92163438" y1="10.3139593" x2="52.0783656" y2="10.3139593" id="Path" stroke-linejoin="round"></line>
                                <g transform="translate(6.5558, 4.5537)" fill="#394553" fill-rule="nonzero" id="Oval">
                                    <circle cx="0.676353701" cy="0.67722305" r="1"></circle>
                                    <circle cx="7.15387481" cy="0.67722305" r="1"></circle>
                                    <circle cx="13.6313959" cy="0.67722305" r="1"></circle>
                                </g>
                                <path d="M56,38.024466 C56,39.7327372 54.6020864,41.1315201 52.8929459,41.1315201 L3.10705415,41.1315201 C1.39617486,41.1315201 0,39.7327372 0,38.024466 L0,3.10705415 C0,1.39791356 1.39617486,0 3.10705415,0 L52.8929459,0 C54.6020864,0 56,1.39791356 56,3.10705415 L56,38.024466 Z" id="Path"></path>
                            </g>
                            <rect id="Rectangle" stroke-opacity="0" stroke="#979797" x="24.5" y="0.5" width="23" height="49"></rect>
                        </g>
                    </g>
                </g>
            </g>
        </g>
    </g>
</svg>