<?xml version="1.0" encoding="UTF-8"?>
<svg width="43px" height="55px" viewBox="0 0 43 55" version="1.1" xmlns="http://www.w3.org/2000/svg" xmlns:xlink="http://www.w3.org/1999/xlink">
    <title>ssd</title>
    <g id="Game-Images" stroke="none" stroke-width="1" fill="none" fill-rule="evenodd">
        <g id="ssd">
            <rect id="Rectangle" fill="#367FCA" x="16" y="11" width="12" height="24"></rect>
            <path d="M18.90625,13.75 C18.4316303,13.75 18.046875,14.1347553 18.046875,14.609375 L18.046875,26.640625 C18.046875,27.1152447 18.4316303,27.5 18.90625,27.5 C19.3808697,27.5 19.765625,27.1152447 19.765625,26.640625 L19.765625,14.609375 C19.765625,14.1347553 19.3808697,13.75 18.90625,13.75 Z M16.328125,34.375 L26.640625,34.375 L26.640625,12.03125 L16.328125,12.03125 L16.328125,34.375 Z M14.609375,32.65625 L14.609375,30.9375 L12.890625,30.9375 C12.4160053,30.9375 12.03125,30.5527447 12.03125,30.078125 C12.03125,29.6035053 12.4160053,29.21875 12.890625,29.21875 L14.609375,29.21875 L14.609375,27.5 L12.890625,27.5 C12.4160053,27.5 12.03125,27.1152447 12.03125,26.640625 C12.03125,26.1660053 12.4160053,25.78125 12.890625,25.78125 L14.609375,25.78125 L14.609375,24.0625 L12.890625,24.0625 C12.4160053,24.0625 12.03125,23.6777447 12.03125,23.203125 C12.03125,22.7285053 12.4160053,22.34375 12.890625,22.34375 L14.609375,22.34375 L14.609375,20.625 L12.890625,20.625 C12.4160053,20.625 12.03125,20.2402447 12.03125,19.765625 C12.03125,19.2910053 12.4160053,18.90625 12.890625,18.90625 L14.609375,18.90625 L14.609375,17.1875 L12.890625,17.1875 C12.4160053,17.1875 12.03125,16.8027447 12.03125,16.328125 C12.03125,15.8535053 12.4160053,15.46875 12.890625,15.46875 L14.609375,15.46875 L14.609375,13.75 L12.890625,13.75 C12.4160053,13.75 12.03125,13.3652447 12.03125,12.890625 C12.03125,12.4160053 12.4160053,12.03125 12.890625,12.03125 L14.609375,12.03125 L14.609375,11.171875 C14.609375,10.6972553 14.9941303,10.3125 15.46875,10.3125 L27.5,10.3125 C27.9746197,10.3125 28.359375,10.6972553 28.359375,11.171875 L28.359375,12.03125 L30.078125,12.03125 C30.5527447,12.03125 30.9375,12.4160053 30.9375,12.890625 C30.9375,13.3652447 30.5527447,13.75 30.078125,13.75 L28.359375,13.75 L28.359375,15.46875 L30.078125,15.46875 C30.5527447,15.46875 30.9375,15.8535053 30.9375,16.328125 C30.9375,16.8027447 30.5527447,17.1875 30.078125,17.1875 L28.359375,17.1875 L28.359375,18.90625 L30.078125,18.90625 C30.5527447,18.90625 30.9375,19.2910053 30.9375,19.765625 C30.9375,20.2402447 30.5527447,20.625 30.078125,20.625 L28.359375,20.625 L28.359375,22.34375 L30.078125,22.34375 C30.5527447,22.34375 30.9375,22.7285053 30.9375,23.203125 C30.9375,23.6777447 30.5527447,24.0625 30.078125,24.0625 L28.359375,24.0625 L28.359375,25.78125 L30.078125,25.78125 C30.5527447,25.78125 30.9375,26.1660053 30.9375,26.640625 C30.9375,27.1152447 30.5527447,27.5 30.078125,27.5 L28.359375,27.5 L28.359375,29.21875 L30.078125,29.21875 C30.5527447,29.21875 30.9375,29.6035053 30.9375,30.078125 C30.9375,30.5527447 30.5527447,30.9375 30.078125,30.9375 L28.359375,30.9375 L28.359375,32.65625 L30.078125,32.65625 C30.5527447,32.65625 30.9375,33.0410053 30.9375,33.515625 C30.9375,33.9902447 30.5527447,34.375 30.078125,34.375 L28.359375,34.375 L28.359375,35.234375 C28.359375,35.7089947 27.9746197,36.09375 27.5,36.09375 L15.46875,36.09375 C14.9941303,36.09375 14.609375,35.7089947 14.609375,35.234375 L14.609375,34.375 L12.890625,34.375 C12.4160053,34.375 12.03125,33.9902447 12.03125,33.515625 C12.03125,33.0410053 12.4160053,32.65625 12.890625,32.65625 L14.609375,32.65625 Z M7.734375,48.125 L6.875,48.125 C6.40038029,48.125 6.015625,48.5097553 6.015625,48.984375 C6.015625,49.4589947 6.40038029,49.84375 6.875,49.84375 L7.734375,49.84375 C8.20899471,49.84375 8.59375,49.4589947 8.59375,48.984375 C8.59375,48.5097553 8.20899471,48.125 7.734375,48.125 Z M25.78125,48.125 L18.90625,48.125 C18.4316303,48.125 18.046875,48.5097553 18.046875,48.984375 C18.046875,49.4589947 18.4316303,49.84375 18.90625,49.84375 L25.78125,49.84375 C26.2558697,49.84375 26.640625,49.4589947 26.640625,48.984375 C26.640625,48.5097553 26.2558697,48.125 25.78125,48.125 Z M36.09375,48.125 L29.21875,48.125 C28.7441303,48.125 28.359375,48.5097553 28.359375,48.984375 C28.359375,49.4589947 28.7441303,49.84375 29.21875,49.84375 L35.234375,49.84375 L35.234375,50.703125 C35.234375,51.1777447 35.6191303,51.5625 36.09375,51.5625 C36.5683697,51.5625 36.953125,51.1777447 36.953125,50.703125 L36.953125,48.984375 C36.953125,48.5097553 36.5683697,48.125 36.09375,48.125 Z M37.8125,6.01562711 C38.0404583,6.01586049 38.2591126,5.92524418 38.4200781,5.76382813 L39.2794531,4.90445313 C39.6150093,4.56889699 39.6150093,4.02485301 39.2794531,3.68929688 C38.943897,3.35374074 38.399853,3.35374074 38.0642969,3.68929688 L37.2049219,4.54867188 C36.9583348,4.79414125 36.8842885,5.16417 37.0174283,5.48562637 C37.1505681,5.80708273 37.4645635,6.01639357 37.8125,6.01562711 L37.8125,6.01562711 Z M4.54867188,5.76382813 C4.70949113,5.92557044 4.9281636,6.01651433 5.15625,6.01651433 C5.3843364,6.01651433 5.60300887,5.92557044 5.76382813,5.76382813 C5.92514687,5.60278345 6.01579787,5.38419544 6.01579787,5.15625 C6.01579787,4.92830456 5.92514687,4.70971655 5.76382813,4.54867188 L4.90445313,3.68929688 C4.68738637,3.47223011 4.37100467,3.38745589 4.07448597,3.46690784 C3.77796726,3.54635978 3.54635978,3.77796726 3.46690784,4.07448597 C3.38745589,4.37100467 3.47223011,4.68738637 3.68929688,4.90445313 L4.54867188,5.76382813 L4.54867188,5.76382813 Z M4.296875,42.9687521 C4.52483328,42.9689855 4.74348763,42.8783692 4.90445312,42.7169531 L5.76382812,41.8575781 C5.9808949,41.6405114 6.06566913,41.3241297 5.98621719,41.027611 C5.90676524,40.7310922 5.67515776,40.4994848 5.37863905,40.4200328 C5.08212033,40.3405809 4.76573863,40.4253551 4.54867188,40.6424219 L3.68929688,41.5017969 C3.44270979,41.7472663 3.36866349,42.117295 3.5018033,42.4387514 C3.63494311,42.7602077 3.94893849,42.9695186 4.296875,42.9687521 L4.296875,42.9687521 Z M38.0642969,42.7169531 C38.2251161,42.8786954 38.4437886,42.9696393 38.671875,42.9696393 C38.8999614,42.9696393 39.1186339,42.8786954 39.2794531,42.7169531 C39.4407719,42.5559085 39.5314229,42.3373204 39.5314229,42.109375 C39.5314229,41.8814296 39.4407719,41.6628415 39.2794531,41.5017969 L38.4200781,40.6424219 C38.2030114,40.4253551 37.8866297,40.3405809 37.590111,40.4200328 C37.2935923,40.4994848 37.0619848,40.7310923 36.9825328,41.027611 C36.9030809,41.3241297 36.9878551,41.6405114 37.2049219,41.8575781 L38.0642969,42.7169531 L38.0642969,42.7169531 Z M41.25,3.4375 C41.25,2.48960938 40.4791406,1.71875 39.53125,1.71875 L3.4375,1.71875 C2.48960938,1.71875 1.71875,2.48960938 1.71875,3.4375 L1.71875,51.5625 C1.71875,52.5103906 2.48960938,53.28125 3.4375,53.28125 L39.53125,53.28125 C40.4791406,53.28125 41.25,52.5103906 41.25,51.5625 L41.25,3.4375 Z M42.96875,3.4375 L42.96875,51.5625 C42.96875,53.4582813 41.4270313,55 39.53125,55 L3.4375,55 C1.54171875,55 0,53.4582813 0,51.5625 L0,3.4375 C0,1.54171875 1.54171875,0 3.4375,0 L39.53125,0 C41.4270313,0 42.96875,1.54171875 42.96875,3.4375 Z M39.53125,45.546875 C39.53125,46.0214947 39.1464947,46.40625 38.671875,46.40625 L4.296875,46.40625 C3.82225529,46.40625 3.4375,46.0214947 3.4375,45.546875 C3.4375,45.0722553 3.82225529,44.6875 4.296875,44.6875 L38.671875,44.6875 C39.1464947,44.6875 39.53125,45.0722553 39.53125,45.546875 Z" id="Shape" fill="#060000"></path>
        </g>
    </g>
</svg>