<?xml version="1.0" encoding="UTF-8"?>
<svg width="40px" height="52px" viewBox="0 0 40 52" version="1.1" xmlns="http://www.w3.org/2000/svg" xmlns:xlink="http://www.w3.org/1999/xlink">
    <title>ssl</title>
    <g id="Game-Images" stroke="none" stroke-width="1" fill="none" fill-rule="evenodd">
        <g id="ssl" transform="translate(1, 1)">
            <g id="Group" stroke-width="2">
                <path d="M5.27558297,17.8795108 L5.27641837,12.6097756 C5.23966055,5.71768386 10.8494055,0.0360940354 17.7414973,0 L19.6746246,0 C26.5667164,-0.0357508 32.2349397,5.57232338 32.272533,12.4644151 L32.272533,17.8786754" id="Path" stroke="#060000"></path>
                <path d="M10.8886696,17.8795108 L10.8886696,13.2363294 C10.8886696,9.10107437 14.2712247,5.71768386 18.4073151,5.71768386 L19.1675337,5.71768386 C23.3036242,5.71768386 26.6861793,9.10107437 26.6861793,13.2363294 L26.6861793,17.8795108" id="Path" stroke="#060000"></path>
                <path d="M0,40.4797239 C0,45.7160428 4.51035193,50 10.0248607,50 L27.5508235,50 C33.064497,50 37.5756843,45.7152074 37.5756843,40.4797239 L37.5756843,23.1793205 C37.5756843,22.2595395 36.8238197,21.5085104 35.9048742,21.5085104 L1.67081012,21.5085104 C0.751029151,21.5085104 0,22.2595395 0,23.1793205 L0,40.4797239 Z" id="Path" stroke="#060000" stroke-linecap="round" stroke-linejoin="round"></path>
                <line x1="18.7874244" y1="32.8516403" x2="18.7874244" y2="39.9868349" id="Path" stroke="#367FCA" stroke-linecap="round"></line>
            </g>
            <path d="M18.7882599,34.785603 C17.4599658,34.785603 16.3789517,33.7054243 16.3789517,32.3771302 C16.3789517,31.0488362 17.4591304,29.9686574 18.7882599,29.9686574 C20.1157185,29.9686574 21.1958972,31.0488362 21.1958972,32.3771302 C21.1958972,33.7054243 20.1157185,34.785603 18.7882599,34.785603 Z" id="Path" fill="#367FCA" fill-rule="nonzero"></path>
        </g>
    </g>
</svg>