<?xml version="1.0" encoding="UTF-8"?>
<svg width="55px" height="52px" viewBox="0 0 55 52" version="1.1" xmlns="http://www.w3.org/2000/svg" xmlns:xlink="http://www.w3.org/1999/xlink">
    <title>submit-ticket</title>
    <g id="Game-Images" stroke="none" stroke-width="1" fill="none" fill-rule="evenodd">
        <g id="submit-ticket" transform="translate(1, 1)">
            <g id="Group" stroke="#060000" stroke-width="2">
                <path d="M37.5002164,13.3661053 L37.5002164,3.46182473 C37.5002164,1.55782113 35.9423952,0 34.0383916,0 L9.66195282,0 L1.53735901e-15,8.3862704 L1.53735901e-15,46.5381753 C1.53735901e-15,48.4421789 1.55782113,50 3.46182473,50 L34.0383916,50 C35.9423952,50 37.5002164,48.4421789 37.5002164,46.5381753 L37.5002164,39.8127153" id="Path"></path>
                <polyline id="Path" points="11.2206394 0.669863085 11.2206394 11.3227632 4.7184671 11.3227632"></polyline>
                <line x1="7.22396275" y1="25.0437055" x2="25.5863466" y2="25.0437055" id="Path" stroke-linecap="round"></line>
                <line x1="7.22396275" y1="32.0037042" x2="22.9181452" y2="32.0037042" id="Path" stroke-linecap="round"></line>
                <line x1="7.22396275" y1="38.9645682" x2="21.3499386" y2="38.9645682" id="Path" stroke-linecap="round"></line>
            </g>
            <path d="M42.8046875,16.3027344 C42.4540688,16.4809793 48.6943429,23.7150555 48.8247105,23.6641684 C48.9116223,23.6302436 45.6939007,27.1623917 39.1715457,34.2606125 L30.4316406,27.1230469 C38.9140844,19.7906753 43.0384333,16.1839044 42.8046875,16.3027344 Z" id="Path-2" fill="#367FCA"></path>
            <g id="Group" transform="translate(25.6893, 12.456)" stroke="#060000" stroke-linejoin="round" stroke-width="2">
                <g id="Path">
                    <path d="M11.4196943,23.2665449 L0,26.7179841 L3.9620584,15.2783843 L18.7613591,0.478218141 C19.5783497,-0.337041582 21.1681928,-0.0834629209 22.2958822,1.03730283 L25.923009,4.66616061 C27.0489675,5.7921191 27.3025462,7.38369302 26.4838246,8.1998182 L11.4196943,23.2665449 Z"></path>
                    <line x1="11.3452651" y1="21.8887386" x2="4.95300573" y2="15.492152"></line>
                    <line x1="3.48865387" y1="25.4899018" x2="1.4141554" y2="23.3643414"></line>
                </g>
                <line x1="8.3724231" y1="18.7817509" x2="16.7491735" y2="10.4032696" id="Path"></line>
            </g>
            <line x1="41.4441002" y1="16.2826926" x2="48.8247105" y2="23.6641684" id="Path" stroke="#060000" stroke-width="2" stroke-linejoin="round"></line>
        </g>
    </g>
</svg>