<?xml version="1.0" encoding="UTF-8"?>
<svg width="49px" height="50px" viewBox="0 0 49 50" version="1.1" xmlns="http://www.w3.org/2000/svg" xmlns:xlink="http://www.w3.org/1999/xlink">
    <title>terraria-icon-plugins</title>
    <g id="Network" stroke="none" stroke-width="1" fill="none" fill-rule="evenodd">
        <g id="Desktop-HD" transform="translate(-1325.000000, -2100.000000)" stroke="#060000" stroke-width="2">
            <g id="Group-8" transform="translate(1287.000000, 2028.000000)">
                <g id="terraria-icon-plugins" transform="translate(39.000000, 73.000000)">
                    <path d="M36.984529,22.1076751 L31.3284428,16.4490311 L25.7499423,22.0258264 C26.88133,22.0514041 27.9948134,22.4853727 28.8576351,23.3481945 C30.634434,25.1275511 30.634434,28.01016 28.8559299,29.7886641 C27.0774259,31.5671682 24.1965221,31.5671682 22.4163129,29.7886641 C21.551786,28.922432 21.0649567,26.7099593 21.0649567,26.7099593 L15.324464,32.4530098 L20.9805503,38.1099487 C19.7766923,38.0766976 18.5600455,38.5183396 17.6401002,39.4391375 C15.8607435,41.2176415 15.8615961,44.1002504 17.6401002,45.8787545 C19.4186042,47.6572586 22.3012132,47.6572586 24.0797172,45.8804597 C25.0005151,44.9596618 25.4413045,43.7438676 25.4106112,42.5383044 L30.8714542,48 L36.6460506,42.2254036 C35.512105,42.2023837 34.3918009,41.7641521 33.5264214,40.8996252 C31.7470648,39.1211212 31.7470648,36.2385122 33.5264214,34.458303 C35.3057781,32.6797989 38.1892396,32.6797989 39.9677437,34.458303 C40.8305654,35.3228299 41.2747651,36.4414288 41.2994902,37.571964 L46.8745804,31.9968738 L41.410327,26.5334731 C42.6175953,26.5650189 43.8350948,26.1250822 44.7567452,25.2042843 C46.5343967,23.4266328 46.5343967,20.5440239 44.7558926,18.7646672 C43.1487593,17.1566813 40.6378799,17.0040676 38.8576707,18.3000053" id="Path" fill="#3781C3" stroke-linecap="round" stroke-linejoin="round"></path>
                    <g id="Group">
                        <polyline id="Path" stroke-linejoin="round" points="14.1180483 47.9982948 3.0290104e-15 47.9982948 3.0290104e-15 9.52770031 9.53025809 1.5145052e-15 36.114034 1.5145052e-15 36.114034 14.745555"></polyline>
                        <polyline id="Path" points="11.0836782 4.60654719 11.0836782 11.1152241 4.56818061 11.1152241"></polyline>
                    </g>
                </g>
            </g>
        </g>
    </g>
</svg>