<?xml version="1.0" encoding="UTF-8"?>
<svg width="50px" height="50px" viewBox="0 0 50 50" version="1.1" xmlns="http://www.w3.org/2000/svg" xmlns:xlink="http://www.w3.org/1999/xlink">
    <title>terraria-icon-support</title>
    <g id="Network" stroke="none" stroke-width="1" fill="none" fill-rule="evenodd" stroke-linejoin="round">
        <g id="Desktop-HD" transform="translate(-1655.000000, -2222.000000)" stroke="#060000" stroke-width="2">
            <g id="Group-8" transform="translate(1287.000000, 2028.000000)">
                <g id="terraria-icon-support" transform="translate(369.000000, 195.000000)">
                    <g id="Group">
                        <path d="M3.01740506,18.227057 C5.01107595,10.9683544 10.6716772,5.22389241 17.8821203,3.11550633" id="Path"></path>
                        <path d="M21.318038,45.5925633 C11.4517405,44.3797468 3.6289557,36.5625 2.40901899,26.6985759" id="Path"></path>
                        <path d="M45.5893987,26.6993671 C44.3686709,36.5664557 36.5419304,44.3844937 26.6716772,45.5933544" id="Path"></path>
                        <path d="M26.7579114,2.41772152 C36.5727848,3.65901899 44.3496835,11.4414557 45.5846519,21.2587025" id="Path"></path>
                        <path d="M21.4422468,35.4549051 C17.0039557,34.4683544 13.5134494,30.9691456 12.5379747,26.5276899" id="Path"></path>
                        <path d="M35.4556962,26.5522152 C34.471519,30.9912975 30.9731013,34.4841772 26.5308544,35.4612342" id="Path"></path>
                        <path d="M26.5387658,12.5411392 C30.9580696,13.5150316 34.4422468,16.9818038 35.4438291,21.3908228" id="Path"></path>
                        <path d="M12.5514241,21.4058544 C13.5482595,16.9968354 17.0253165,13.5276899 21.4398734,12.5458861" id="Path"></path>
                        <g transform="translate(21.527690, 0.000000)" fill="#3781C3" id="Path">
                            <path d="M4.94462025,12.460443 C4.94462025,13.3306962 4.23259494,14.0427215 3.36234177,14.0427215 L1.58227848,14.0427215 C0.711234177,14.0427215 0,13.3306962 0,12.460443 L0,1.58227848 C0,0.711234177 0.711234177,0 1.58227848,0 L3.36234177,0 C4.23259494,0 4.94462025,0.711234177 4.94462025,1.58227848 L4.94462025,12.460443 Z"></path>
                            <path d="M4.94462025,46.4177215 C4.94462025,47.2879747 4.23259494,48 3.36234177,48 L1.58227848,48 C0.711234177,48 0,47.2879747 0,46.4177215 L0,35.539557 C0,34.6685127 0.711234177,33.9572785 1.58227848,33.9572785 L3.36234177,33.9572785 C4.23259494,33.9572785 4.94462025,34.6685127 4.94462025,35.539557 L4.94462025,46.4177215 Z"></path>
                        </g>
                        <g transform="translate(0.000000, 21.527690)" fill="#3781C3" id="Path">
                            <path d="M35.539557,4.94462025 C34.6677215,4.94462025 33.9572785,4.23259494 33.9572785,3.36234177 L33.9572785,1.58227848 C33.9572785,0.711234177 34.6677215,0 35.539557,0 L46.4177215,0 C47.2879747,0 48,0.711234177 48,1.58227848 L48,3.36234177 C48,4.23259494 47.2879747,4.94462025 46.4177215,4.94462025 L35.539557,4.94462025 Z"></path>
                            <path d="M1.58227848,4.94462025 C0.711234177,4.94462025 -1.4053456e-15,4.23259494 -1.4053456e-15,3.36234177 L-1.4053456e-15,1.58227848 C-1.4053456e-15,0.711234177 0.711234177,0 1.58227848,0 L12.460443,0 C13.3306962,0 14.0427215,0.711234177 14.0427215,1.58227848 L14.0427215,3.36234177 C14.0427215,4.23259494 13.3306962,4.94462025 12.460443,4.94462025 L1.58227848,4.94462025 Z"></path>
                        </g>
                    </g>
                    <path d="M0.924841772,12.0007911 C0.924841772,5.90901899 5.90901899,0.924841772 12.0007911,0.924841772" id="Path"></path>
                    <path d="M12.0007911,47.0751582 C5.90901899,47.0751582 0.924841772,42.090981 0.924841772,35.9992089" id="Path"></path>
                    <path d="M47.0743671,35.9992089 C47.0743671,42.090981 42.090981,47.0751582 35.9984177,47.0751582" id="Path"></path>
                    <path d="M35.9984177,0.924841772 C42.090981,0.924841772 47.0743671,5.90901899 47.0743671,12.0007911" id="Path"></path>
                </g>
            </g>
        </g>
    </g>
</svg>