<?xml version="1.0" encoding="UTF-8"?>
<svg width="16px" height="16px" viewBox="0 0 16 16" version="1.1" xmlns="http://www.w3.org/2000/svg" xmlns:xlink="http://www.w3.org/1999/xlink">
    <title>tooltip</title>
    <g id="Panel-Page-v1.0" stroke="none" stroke-width="1" fill="none" fill-rule="evenodd">
        <g id="Desktop-HD" transform="translate(-504, -4803)" fill="#6F757D" fill-rule="nonzero">
            <g id="Group-26" transform="translate(337, 3805)">
                <g id="Group-24" transform="translate(3, 580)">
                    <g id="tooltip" transform="translate(164, 418)">
                        <path d="M7.98387097,0 C3.57481042,0 0,3.58332258 0,8 C0,12.4192581 3.57481042,16 7.98387097,16 C12.3929315,16 15.9677419,12.4192581 15.9677419,8 C15.9677419,3.58332258 12.3929315,0 7.98387097,0 Z M7.98387097,14.4516129 C4.42551119,14.4516129 1.54526535,11.5667419 1.54526535,8 C1.54526535,4.43564516 4.42563996,1.5483871 7.98387097,1.5483871 C11.5409108,1.5483871 14.4224766,4.43454839 14.4224766,8 C14.4224766,11.5654839 11.5434219,14.4516129 7.98387097,14.4516129 Z M11.4363801,6.21935484 C11.4363801,8.38232258 9.10492879,8.4156129 9.10492879,9.21493548 L9.10492879,9.41935484 C9.10492879,9.63312903 8.93195565,9.80645161 8.71861245,9.80645161 L7.24909729,9.80645161 C7.0357541,9.80645161 6.86278096,9.63312903 6.86278096,9.41935484 L6.86278096,9.14003226 C6.86278096,7.98696774 7.73521202,7.52603226 8.39449304,7.15564516 C8.95983481,6.83806452 9.30632837,6.62206452 9.30632837,6.20148387 C9.30632837,5.64516129 8.59811394,5.27590323 8.02556094,5.27590323 C7.27903681,5.27590323 6.93441044,5.63 6.44996976,6.24264516 C6.31936264,6.40780645 6.08103766,6.43848387 5.91344075,6.31116129 L5.01770194,5.63058065 C4.85329214,5.50567742 4.81646332,5.2736129 4.93258357,5.10274194 C5.69320825,3.98358065 6.66202523,3.35483871 8.17039737,3.35483871 C9.75014145,3.35483871 11.4363801,4.59045161 11.4363801,6.21935484 L11.4363801,6.21935484 Z M9.33597815,11.6129032 C9.33597815,12.3599677 8.72942931,12.9677419 7.98387097,12.9677419 C7.23831263,12.9677419 6.63176379,12.3599677 6.63176379,11.6129032 C6.63176379,10.8658387 7.23831263,10.2580645 7.98387097,10.2580645 C8.72942931,10.2580645 9.33597815,10.8658387 9.33597815,11.6129032 Z" id="Shape"></path>
                    </g>
                </g>
            </g>
        </g>
    </g>
</svg>