<?xml version="1.0" encoding="UTF-8"?>
<svg width="80px" height="20px" viewBox="0 0 80 20" version="1.1" xmlns="http://www.w3.org/2000/svg" xmlns:xlink="http://www.w3.org/1999/xlink">
    <title>tp-logo</title>
    <g id="Panel-Page-v1.0" stroke="none" stroke-width="1" fill="none" fill-rule="evenodd">
        <g id="Desktop-HD" transform="translate(-1017, -5325)">
            <g id="Group-28" transform="translate(-320, 5141)">
                <g id="Group-27" transform="translate(686, 101)">
                    <g id="tp-logo" transform="translate(651, 83)">
                        <g id="Group" transform="translate(20, 7.2727)" fill="#FFFFFF" fill-rule="nonzero">
                            <path d="M0.0133716017,0 L8.12079436,0 L8.12079436,1.51228164 L4.92871838,1.51228164 L4.92871838,10.0372935 L3.17892949,10.0372935 L3.17892949,1.51228164 L0,1.51228164 L0.0133716017,0 Z M7.77367298,2.77027585 L9.26976164,2.77027585 L9.26976164,4.17551045 L9.29632473,4.17551045 C9.34990118,3.9747691 9.44354745,3.78738043 9.57681318,3.60003686 C9.71052927,3.41264819 9.87080836,3.23870242 10.0711573,3.09146202 C10.2579995,2.93086893 10.4718551,2.81042412 10.7122738,2.71672978 C10.9391858,2.62308055 11.1796045,2.56953448 11.4200233,2.56953448 C11.6073157,2.56953448 11.7405815,2.58293228 11.8076646,2.58293228 C11.8742975,2.59628496 11.9544371,2.60968275 12.02107,2.60968275 L12.02107,4.14871487 C11.9143673,4.12196439 11.794158,4.1085666 11.6739486,4.09521391 C11.5537393,4.08181612 11.4470365,4.06841833 11.3268273,4.06841833 C11.0593952,4.06841833 10.8059201,4.12196439 10.5655014,4.22901141 C10.3250826,4.33610355 10.1242835,4.49669663 9.93744127,4.69743798 C9.76365545,4.91157714 9.616883,5.16581945 9.51018036,5.47365294 C9.40302745,5.78144132 9.34990118,6.14282087 9.34990118,6.54430358 L9.34990118,9.99714518 L7.74701983,9.99714518 L7.77367298,2.77027585 Z M19.3808536,10.0372935 L17.791569,10.0372935 L17.791569,9.02014374 L17.7645556,9.02014374 C17.5642067,9.394876 17.2706618,9.67591391 16.8830204,9.90345082 C16.4958293,10.1309426 16.0951315,10.2380348 15.6944335,10.2380348 C14.7458153,10.2380348 14.0515725,10.0104978 13.6238613,9.52871855 C13.1966004,9.06029201 12.9827448,8.33762312 12.9827448,7.38741729 L12.9827448,2.77027585 L14.5855361,2.77027585 L14.5855361,7.2268242 C14.5855361,7.86924165 14.7057455,8.32422533 14.9596708,8.57851275 C15.2000895,8.84619796 15.5476611,8.97999546 15.9879785,8.97999546 C16.3220435,8.97999546 16.6025319,8.92649451 16.8298942,8.81940237 C17.0568062,8.71235535 17.2436485,8.57851275 17.3773645,8.40452187 C17.5241369,8.2305761 17.6177832,8.01643695 17.6844161,7.77554732 C17.7514992,7.53465769 17.7780623,7.26697247 17.7780623,6.98593457 L17.7780623,2.77027585 L19.3808536,2.77027585 L19.3808536,10.0372935 Z M22.0925425,7.70860345 C22.1456686,8.17703004 22.3194545,8.49821621 22.6265061,8.69895756 C22.9335576,8.88634624 23.3076924,8.97999546 23.7354035,8.97999546 C23.882176,8.97999546 24.0559618,8.96664278 24.242804,8.93984719 C24.4296463,8.91309672 24.6169387,8.87294845 24.7772179,8.80604969 C24.9505535,8.73910584 25.0842695,8.64545661 25.1909722,8.511614 C25.2981251,8.37777139 25.3512513,8.21717831 25.3381948,8.01643695 C25.3246882,7.81569559 25.2580553,7.64170471 25.1108326,7.5078621 C24.9640602,7.3740646 24.7902744,7.28037026 24.576869,7.18667593 C24.3630134,7.10637938 24.109088,7.03948064 23.8285995,6.98593457 C23.5481111,6.93238851 23.2676225,6.86548975 22.9740776,6.79859101 C22.6800825,6.73164715 22.3860874,6.65135061 22.1055989,6.55770138 C21.8251104,6.46400705 21.5846917,6.34356223 21.3577796,6.16957135 C21.1439241,6.00897826 20.9570818,5.8082369 20.8368725,5.55394948 C20.7031565,5.29966205 20.6365235,5.00522636 20.6365235,4.63053924 C20.6365235,4.22901141 20.7297195,3.90782524 20.9300685,3.64018514 C21.117361,3.37249992 21.3708361,3.15836076 21.6648313,2.99776768 C21.9588265,2.83717459 22.2924411,2.71672978 22.6530692,2.64983103 C23.0136972,2.58293228 23.3612688,2.55613669 23.6818271,2.55613669 C24.0559618,2.55613669 24.4165898,2.59628496 24.7502045,2.67658151 C25.0842695,2.75687805 25.4048277,2.87732286 25.6718095,3.06471154 C25.9522981,3.23870242 26.1796603,3.47959205 26.3529959,3.76062995 C26.5402884,4.04166785 26.646991,4.3896045 26.7005675,4.79113233 L25.030693,4.79113233 C24.9505535,4.40300229 24.7772179,4.14871487 24.5097858,4.01491737 C24.2292974,3.88107476 23.9222458,3.8141309 23.5616177,3.8141309 C23.4549151,3.8141309 23.3076924,3.8275287 23.1609199,3.84092649 C23.0006407,3.86767696 22.8669247,3.89447255 22.7201523,3.94797351 C22.5864363,4.00151957 22.4662269,4.08181612 22.3725807,4.17551045 C22.2793846,4.26915968 22.2258082,4.40300229 22.2258082,4.56359538 C22.2258082,4.76433674 22.2924411,4.91157714 22.4261572,5.03202195 C22.5598732,5.15246676 22.733659,5.2461611 22.960571,5.33981033 C23.1744265,5.42010687 23.4279017,5.48705074 23.7083902,5.54055169 C23.9888786,5.59409775 24.2828738,5.6609965 24.576869,5.72794036 C24.8704139,5.79483911 25.1509024,5.87513565 25.4313909,5.96882999 C25.7118794,6.06252433 25.9658047,6.18296915 26.1796603,6.35691491 C26.3930656,6.51755311 26.5803581,6.71829446 26.7136239,6.95918409 C26.8473399,7.20007373 26.9139728,7.5078621 26.9139728,7.85584386 C26.9139728,8.28407705 26.8207768,8.64545661 26.6204279,8.95324498 C26.420079,9.24768064 26.1661536,9.50196809 25.859102,9.68931164 C25.5516002,9.87670036 25.1909722,10.0104978 24.8172876,10.1041922 C24.4296463,10.1844887 24.0559618,10.2380348 23.6818271,10.2380348 C23.2275528,10.2380348 22.8002918,10.1844887 22.4131007,10.0774417 C22.0254593,9.97034955 21.6783379,9.80975645 21.3978495,9.60901509 C21.117361,9.394876 20.8899987,9.14063364 20.7297195,8.81940237 C20.5694405,8.511614 20.4762445,8.13688176 20.4627377,7.69525077 L22.0790357,7.69525077 L22.0790357,7.70860345 L22.0925425,7.70860345 Z M27.3682471,2.77027585 L28.5838473,2.77027585 L28.5838473,0.575473595 L30.1866386,0.575473595 L30.1866386,2.75687805 L31.6291508,2.75687805 L31.6291508,3.94797351 L30.1866386,3.94797351 L30.1866386,7.82909338 C30.1866386,8.00303915 30.2001453,8.13688176 30.2132017,8.27072437 C30.2267084,8.39116918 30.2667782,8.49821621 30.306848,8.57851275 C30.3604244,8.65880929 30.440564,8.72575315 30.53376,8.76590142 C30.6409129,8.80604969 30.7741787,8.83280017 30.9614712,8.83280017 C31.0681738,8.83280017 31.1883832,8.83280017 31.2950859,8.81940237 C31.4022387,8.80604969 31.5224481,8.7926519 31.6291508,8.76590142 L31.6291508,10.0104978 C31.455365,10.0372935 31.2820295,10.0506461 31.1082436,10.0640439 C30.9344578,10.0907944 30.7741787,10.0907944 30.5873365,10.0907944 C30.1600755,10.0907944 29.8260105,10.0506461 29.5720852,9.97034955 C29.3186101,9.890053 29.1182611,9.76960818 28.9710385,9.62241291 C28.824266,9.46181982 28.7306197,9.27443118 28.6774935,9.04693932 C28.6239171,8.81940237 28.5969037,8.53836447 28.5838473,8.24392878 L28.5838473,3.96137131 L27.3682471,3.96137131 L27.3682471,2.74352536 L27.3682471,2.77027585 Z M32.7511047,2.77027585 L34.2602498,2.77027585 L34.2602498,3.76062995 L34.2872632,3.76062995 C34.5141752,3.33235165 34.821677,3.03791595 35.2223748,2.85057239 C35.6230726,2.66322883 36.0503336,2.56953448 36.531171,2.56953448 C37.1056546,2.56953448 37.5995485,2.66322883 38.0272596,2.87732286 C38.4545205,3.07806422 38.801642,3.34574944 39.0821305,3.70708388 C39.3626189,4.05506565 39.5764745,4.46990104 39.7101905,4.93832762 C39.8434564,5.40675419 39.9235959,5.91528393 39.9235959,6.43721145 C39.9235959,6.93238851 39.856963,7.40081508 39.7367536,7.85584386 C39.6030376,8.31087265 39.4161954,8.72575315 39.16227,9.0736898 C38.9087949,9.42167155 38.5882366,9.70270945 38.1875388,9.91684864 C37.7868409,10.1309426 37.3325666,10.2380348 36.7981528,10.2380348 C36.5712408,10.2380348 36.3308221,10.2112392 36.1034598,10.1710909 C35.8765478,10.1309426 35.6496358,10.0640439 35.4357802,9.97034955 C35.2223748,9.87670036 35.0215757,9.75621045 34.8482401,9.60901509 C34.6609476,9.46181982 34.5141752,9.28782891 34.3939658,9.10044027 L34.3674027,9.10044027 L34.3674027,12.7272727 L32.7646114,12.7272727 L32.7646114,2.77027585 L32.7511047,2.77027585 Z M38.3478179,6.41046097 C38.3478179,6.08927481 38.3077481,5.76808864 38.2141019,5.46025515 C38.1339624,5.15246676 38.0002463,4.88478155 37.8269107,4.64389192 C37.6531249,4.40300229 37.4392694,4.21565873 37.1988506,4.06841833 C36.9453755,3.92122304 36.6513804,3.85427917 36.3308221,3.85427917 C35.6626922,3.85427917 35.1552917,4.08181612 34.8081704,4.55024269 C34.4741054,5.01862415 34.3003196,5.64764382 34.3003196,6.42385877 C34.3003196,6.79859101 34.3403894,7.13312986 34.4340356,7.44096335 C34.5276818,7.74875173 34.6478912,8.01643695 34.8347335,8.24392878 C35.0085193,8.47146573 35.2223748,8.64545661 35.47585,8.77925411 C35.7297754,8.91309672 36.0102638,8.97999546 36.3443287,8.97999546 C36.7180133,8.97999546 37.0120084,8.89969892 37.2659337,8.75250363 C37.5194089,8.60530834 37.7197578,8.40452187 37.8935436,8.17703004 C38.0538227,7.9361404 38.1740321,7.66845519 38.240665,7.36066681 C38.3077481,7.03948064 38.3478179,6.73164715 38.3478179,6.41046097 Z M41.1657592,0 L42.7690007,0 L42.7690007,1.51228164 L41.1657592,1.51228164 L41.1657592,0 Z M41.1657592,2.77027585 L42.7690007,2.77027585 L42.7690007,10.0372935 L41.1657592,10.0372935 L41.1657592,2.77027585 Z M44.1980063,0 L45.8007975,0 L45.8007975,10.0372935 L44.1980063,10.0372935 L44.1980063,0 Z M50.6893111,10.2380348 C50.1152777,10.2380348 49.5943705,10.1443405 49.1400962,9.94359909 C48.6858219,9.74285773 48.3121375,9.48857027 47.9915792,9.15398636 C47.6840774,8.81940237 47.4436586,8.40452187 47.2833795,7.9361404 C47.1231004,7.46771383 47.0294542,6.9457863 47.0294542,6.39706318 C47.0294542,5.84838517 47.1095937,5.33981033 47.2833795,4.87142886 C47.4436586,4.40300229 47.6840774,4.00151957 47.9915792,3.65353782 C48.2986308,3.31899896 48.6858219,3.05131375 49.1400962,2.86397018 C49.5943705,2.67658151 50.1152777,2.56953448 50.6893111,2.56953448 C51.2637947,2.56953448 51.7847019,2.66322883 52.2389762,2.86397018 C52.6928003,3.05131375 53.066935,3.31899896 53.3874932,3.65353782 C53.6945448,3.98812178 53.9349635,4.40300229 54.0952426,4.87142886 C54.2555218,5.33981033 54.349168,5.84838517 54.349168,6.39706318 C54.349168,6.95918409 54.2690285,7.46771383 54.0952426,7.9361404 C53.9219071,8.40452187 53.6945448,8.80604969 53.3874932,9.15398636 C53.0804416,9.48857027 52.6928003,9.75621045 52.2389762,9.94359909 C51.7847019,10.1309426 51.2773014,10.2380348 50.6893111,10.2380348 Z M50.6893111,8.96664278 C51.0368827,8.96664278 51.357441,8.88634624 51.6109161,8.73910584 C51.8783482,8.59191055 52.0786971,8.39116918 52.2520326,8.15027955 C52.4258185,7.90938993 52.5460278,7.62830692 52.6261674,7.33391633 C52.7063069,7.02608285 52.7463767,6.71829446 52.7463767,6.39706318 C52.7463767,6.08927481 52.7063069,5.78144132 52.6261674,5.47365294 C52.5460278,5.16581945 52.4258185,4.89817935 52.2520326,4.65728972 C52.0786971,4.41640008 51.8648415,4.22901141 51.6109161,4.08181612 C51.3439343,3.93462083 51.0368827,3.85427917 50.6893111,3.85427917 C50.3421897,3.85427917 50.0216315,3.93462083 49.7677061,4.08181612 C49.5007243,4.22901141 49.3003754,4.42975277 49.1265895,4.65728972 C48.953254,4.89817935 48.8325944,5.16581945 48.7524548,5.47365294 C48.6727655,5.78144132 48.6326957,6.08927481 48.6326957,6.39706318 C48.6326957,6.71829446 48.6727655,7.02608285 48.7524548,7.33391633 C48.8325944,7.64170471 48.953254,7.90938993 49.1265895,8.15027955 C49.3003754,8.39116918 49.5142309,8.59191055 49.7677061,8.73910584 C50.0351381,8.89969892 50.3421897,8.96664278 50.6893111,8.96664278 Z M54.8300055,2.77027585 L56.0456055,2.77027585 L56.0456055,0.575473595 L57.6483969,0.575473595 L57.6483969,2.75687805 L59.0909091,2.75687805 L59.0909091,3.94797351 L57.6483969,3.94797351 L57.6483969,7.82909338 C57.6483969,8.00303915 57.6619035,8.13688176 57.67496,8.27072437 C57.6884667,8.39116918 57.7285365,8.49821621 57.7686063,8.57851275 C57.8221827,8.65880929 57.9023223,8.72575315 57.9955183,8.76590142 C58.1026712,8.80604969 58.235937,8.83280017 58.4232295,8.83280017 C58.5299321,8.83280017 58.6501415,8.83280017 58.7568442,8.81940237 C58.8639971,8.80604969 58.9842065,8.7926519 59.0909091,8.76590142 L59.0909091,10.0104978 C58.9171233,10.0372935 58.7437877,10.0506461 58.5700019,10.0640439 C58.3962161,10.0907944 58.235937,10.0907944 58.0490947,10.0907944 C57.6218338,10.0907944 57.2877688,10.0506461 57.0338435,9.97034955 C56.7803684,9.890053 56.5800195,9.76960818 56.4327967,9.62241291 C56.2860243,9.46181982 56.192378,9.27443118 56.1392518,9.04693932 C56.0856754,8.81940237 56.0591123,8.53836447 56.0456055,8.24392878 L56.0456055,3.96137131 L54.8300055,3.96137131 L54.8300055,2.74352536 L54.8300055,2.77027585 Z" id="Shape"></path>
                        </g>
                        <g id="Artboard1">
                            <rect id="Rectangle" x="-9.87552473e-16" y="3.24096526e-16" width="79.0909091" height="20"></rect>
                            <g id="Group" transform="translate(0.0578, 0.3543)" fill="#5BBB89" fill-rule="nonzero">
                                <polygon id="Path" points="18.8917791 6.92083245 11.6742712 6.92083245 9.45247009 0 7.21750785 6.92083245 0 6.90755959 5.8371356 11.1899543 3.60217335 18.1107867 9.43930891 13.8283474 15.2764445 18.1107867 13.0546435 11.1899543"></polygon>
                            </g>
                            <g id="Group" opacity="0.300000012" transform="translate(9.5103, 11.5442)" fill="#2D56A8" fill-rule="nonzero">
                                <polygon id="Path" points="4.10176617 1.56449855 3.60217335 0 0 2.63839308"></polygon>
                            </g>
                        </g>
                    </g>
                </g>
            </g>
        </g>
    </g>
</svg>