<?xml version="1.0" encoding="UTF-8"?>
<svg width="128px" height="24px" viewBox="0 0 128 24" version="1.1" xmlns="http://www.w3.org/2000/svg" xmlns:xlink="http://www.w3.org/1999/xlink">
    <title>tp-stars</title>
    <g id="Panel-Page-v1.0" stroke="none" stroke-width="1" fill="none" fill-rule="evenodd">
        <g id="Desktop-HD" transform="translate(-896, -5287)" fill-rule="nonzero">
            <g id="Group-28" transform="translate(-320, 5141)">
                <g id="Group-27" transform="translate(686, 101)">
                    <g id="tp-stars" transform="translate(530, 45)">
                        <rect id="Rectangle-path" fill="#5BBB89" x="0" y="0" width="24" height="24" rx="3"></rect>
                        <rect id="Rectangle-path" fill="#5BBB89" x="26" y="0" width="24" height="24" rx="3"></rect>
                        <rect id="Rectangle-path" fill="#5BBB89" x="52" y="0" width="24" height="24" rx="3"></rect>
                        <rect id="Rectangle-path" fill="#5BBB89" x="78" y="0" width="24" height="24" rx="3"></rect>
                        <rect id="Rectangle-path" fill="#5BBB89" x="104" y="0" width="24" height="24" rx="3"></rect>
                        <path d="M11.5,16.2012579 L15.1934524,15.2704403 L16.7366071,20 L11.5,16.2012579 Z M20,10.0880503 L13.4985119,10.0880503 L11.5,4 L9.5014881,10.0880503 L3,10.0880503 L8.26190476,13.8616352 L6.26339286,19.9496855 L11.5252976,16.1761006 L14.7633929,13.8616352 L20,10.0880503 L20,10.0880503 L20,10.0880503 L20,10.0880503 Z" id="Shape" fill="#FFFFFF"></path>
                        <path d="M38.5,16.2012579 L42.1934524,15.2704403 L43.7366071,20 L38.5,16.2012579 Z M47,10.0880503 L40.4985119,10.0880503 L38.5,4 L36.5014881,10.0880503 L30,10.0880503 L35.2619048,13.8616352 L33.2633929,19.9496855 L38.5252976,16.1761006 L41.7633929,13.8616352 L47,10.0880503 L47,10.0880503 L47,10.0880503 L47,10.0880503 Z" id="Shape" fill="#FFFFFF"></path>
                        <path d="M64.5,16.2012579 L68.1934524,15.2704403 L69.7366071,20 L64.5,16.2012579 Z M73,10.0880503 L66.4985119,10.0880503 L64.5,4 L62.5014881,10.0880503 L56,10.0880503 L61.2619048,13.8616352 L59.2633929,19.9496855 L64.5252976,16.1761006 L67.7633929,13.8616352 L73,10.0880503 L73,10.0880503 L73,10.0880503 L73,10.0880503 Z" id="Shape" fill="#FFFFFF"></path>
                        <path d="M89.5,16.2012579 L93.1934524,15.2704403 L94.7366071,20 L89.5,16.2012579 Z M98,10.0880503 L91.4985119,10.0880503 L89.5,4 L87.5014881,10.0880503 L81,10.0880503 L86.2619048,13.8616352 L84.2633929,19.9496855 L89.5252976,16.1761006 L92.7633929,13.8616352 L98,10.0880503 L98,10.0880503 L98,10.0880503 L98,10.0880503 Z" id="Shape" fill="#FFFFFF"></path>
                        <path d="M115.5,16.2012579 L119.193452,15.2704403 L120.736607,20 L115.5,16.2012579 Z M124,10.0880503 L117.498512,10.0880503 L115.5,4 L113.501488,10.0880503 L107,10.0880503 L112.261905,13.8616352 L110.263393,19.9496855 L115.525298,16.1761006 L118.763393,13.8616352 L124,10.0880503 L124,10.0880503 L124,10.0880503 L124,10.0880503 Z" id="Shape" fill="#FFFFFF"></path>
                    </g>
                </g>
            </g>
        </g>
    </g>
</svg>