<?xml version="1.0" encoding="UTF-8"?>
<svg width="74px" height="18px" viewBox="0 0 74 18" version="1.1" xmlns="http://www.w3.org/2000/svg" xmlns:xlink="http://www.w3.org/1999/xlink">
    <title>trustpilot</title>
    <g id="Page-1" stroke="none" stroke-width="1" fill="none" fill-rule="evenodd">
        <g id="trustpilot" fill-rule="nonzero">
            <path d="M19.3397973,6.66666667 L26.7539702,6.66666667 L26.7539702,8.01707498 L23.83872,8.01707498 L23.83872,15.608389 L22.2356556,15.608389 L22.2356556,8.01707498 L19.3333333,8.01707498 L19.3333333,6.66666667 L19.3397973,6.66666667 Z M26.4372356,9.13400149 L27.8075972,9.13400149 L27.8075972,10.3834447 L27.833453,10.3834447 C27.8787008,10.2067558 27.9627325,10.0363772 28.0855478,9.8723088 C28.2083632,9.70824052 28.3570346,9.55048255 28.5315617,9.41796589 C28.7060889,9.27913885 28.900008,9.17186343 29.113319,9.08351894 C29.3266299,9.00148475 29.5464049,8.95731251 29.7661799,8.95731251 C29.9342431,8.95731251 30.0570585,8.9636229 30.1216982,8.96993321 C30.1863379,8.97624352 30.2509775,8.98886414 30.3220812,8.99517445 L30.3220812,10.370824 C30.2186577,10.3518931 30.1152342,10.3392725 30.0053468,10.3266518 C29.8954593,10.3140312 29.7920357,10.3077209 29.6886122,10.3077209 C29.4429814,10.3077209 29.2102785,10.3582034 28.9905036,10.4528582 C28.7707286,10.547513 28.5832735,10.6926504 28.4216743,10.8756496 C28.260075,11.0649592 28.1307956,11.2921306 28.0338361,11.5697847 C27.9368765,11.8474387 27.8916288,12.1629547 27.8916288,12.5226429 L27.8916288,15.6020787 L26.4307717,15.6020787 L26.4307717,9.13400149 L26.4372356,9.13400149 Z M37.0381454,15.608389 L35.6031442,15.608389 L35.6031442,14.7060133 L35.5772883,14.7060133 C35.3962972,15.03415 35.1312744,15.2928731 34.7757561,15.488493 C34.4202378,15.6841129 34.0582556,15.785078 33.6898093,15.785078 C32.8171734,15.785078 32.1837044,15.5768374 31.7958662,15.154046 C31.4080281,14.7312547 31.214109,14.0939124 31.214109,13.2420193 L31.214109,9.13400149 L32.6749661,9.13400149 L32.6749661,13.1031923 C32.6749661,13.671121 32.7848536,14.0749814 33.0110925,14.3084633 C33.2308675,14.5419451 33.5476019,14.6618411 33.948368,14.6618411 C34.2586386,14.6618411 34.5107333,14.6176689 34.7175804,14.5230141 C34.9244274,14.4283593 35.0924906,14.3084633 35.215306,14.1507052 C35.3445854,13.9992576 35.435081,13.8099481 35.4932567,13.5953972 C35.5514325,13.3808463 35.5772883,13.1473645 35.5772883,12.8949518 L35.5772883,9.1403118 L37.0381454,9.1403118 L37.0381454,15.608389 Z M39.5267736,13.532294 C39.5720214,13.948775 39.7336206,14.2390497 40.0115713,14.4094284 C40.295986,14.5734967 40.6321124,14.6618411 41.0264145,14.6618411 C41.1621578,14.6618411 41.3172931,14.6492205 41.4918203,14.6302895 C41.6663475,14.6113585 41.8344107,14.5671864 41.9830819,14.5103934 C42.1382172,14.4536006 42.2610326,14.3652562 42.3644561,14.2516703 C42.4614157,14.1380846 42.5066635,13.9929473 42.5001995,13.8099481 C42.4937356,13.6269488 42.4226319,13.4755011 42.2933525,13.3619154 C42.1640731,13.2420193 42.0024738,13.1536748 41.8020908,13.077951 C41.6017078,13.0085375 41.3754689,12.9454343 41.1169101,12.8949518 C40.8583513,12.8444692 40.5997925,12.7876763 40.3347697,12.7308835 C40.063283,12.6740905 39.7982603,12.5983667 39.5461655,12.5163326 C39.2940707,12.4342985 39.0678318,12.3207127 38.8674488,12.1755754 C38.6670656,12.0367483 38.5054665,11.853749 38.389115,11.6328879 C38.2662996,11.4120268 38.2081238,11.140683 38.2081238,10.8125464 C38.2081238,10.4591685 38.2986194,10.1688938 38.4731466,9.92910175 C38.6476738,9.68930959 38.8739127,9.49999999 39.1389354,9.35486264 C39.4104221,9.20972528 39.7077648,9.10876017 40.0374272,9.045657 C40.3670896,8.98886414 40.6838241,8.95731251 40.9811667,8.95731251 C41.3237571,8.95731251 41.6534195,8.99517445 41.96369,9.06458801 C42.2739605,9.13400149 42.5583752,9.24758722 42.81047,9.4116555 C43.0625648,9.56941347 43.2694118,9.77765408 43.4374751,10.0300669 C43.6055383,10.2824795 43.7089618,10.5916853 43.7542095,10.9513735 L42.2287128,10.9513735 C42.1576091,10.6106162 42.0024738,10.3771343 41.7503791,10.2635486 C41.4982843,10.1436526 41.2074056,10.0868597 40.8842071,10.0868597 C40.7807836,10.0868597 40.6579682,10.09317 40.5157609,10.112101 C40.3735536,10.131032 40.2442742,10.1625835 40.1149948,10.2067558 C39.9921794,10.250928 39.8887559,10.3203415 39.7982603,10.408686 C39.7142287,10.4970305 39.6689809,10.6106162 39.6689809,10.7557535 C39.6689809,10.9324424 39.7336206,11.0712695 39.856436,11.1785449 C39.9792515,11.2858203 40.1408507,11.3741648 40.3412337,11.4498886 C40.5416168,11.5193022 40.7678557,11.5824053 41.0264145,11.6328879 C41.2849733,11.6833705 41.549996,11.7401633 41.8214828,11.7969562 C42.0865054,11.853749 42.3450642,11.9294729 42.603623,12.011507 C42.8621818,12.0935412 43.0884207,12.2071269 43.2888037,12.3522643 C43.4891869,12.4974016 43.650786,12.6740905 43.7736015,12.8886415 C43.8964169,13.1031923 43.9610566,13.374536 43.9610566,13.6900519 C43.9610566,14.0749814 43.870561,14.3968077 43.6895699,14.6681515 C43.5085787,14.9331849 43.2758758,15.154046 42.9914612,15.3181143 C42.7070465,15.4821827 42.3838481,15.608389 42.0347937,15.6841129 C41.6857394,15.7598367 41.336685,15.7976986 40.9940947,15.7976986 C40.5739366,15.7976986 40.1860985,15.7535264 39.8305802,15.6588716 C39.4750618,15.5642168 39.1647913,15.4253897 38.9062325,15.2423905 C38.6476738,15.0530809 38.4408268,14.8195991 38.2921554,14.5419451 C38.1434842,14.264291 38.0659165,13.9298441 38.0529886,13.5449147 L39.5267736,13.5449147 L39.5267736,13.532294 Z M44.3488948,9.13400149 L45.4542335,9.13400149 L45.4542335,7.19042317 L46.9150906,7.19042317 L46.9150906,9.13400149 L48.2337403,9.13400149 L48.2337403,10.2004454 L46.9150906,10.2004454 L46.9150906,13.6585004 C46.9150906,13.8099481 46.9215546,13.9361544 46.9344825,14.0497401 C46.9474104,14.1570156 46.9797302,14.2516703 47.0249781,14.3273942 C47.0702258,14.403118 47.1413295,14.4599109 47.238289,14.4977728 C47.3352486,14.5356347 47.458064,14.5545657 47.6261272,14.5545657 C47.7295507,14.5545657 47.8329743,14.5545657 47.9363978,14.5482554 C48.0398213,14.5419451 48.1432448,14.5293244 48.2466683,14.5040831 L48.2466683,15.608389 C48.085069,15.6273199 47.9234698,15.6399406 47.7747985,15.6588716 C47.6196632,15.6778025 47.464528,15.6841129 47.3029288,15.6841129 C46.9150906,15.6841129 46.60482,15.6462509 46.3721172,15.5768374 C46.1394142,15.5074239 45.9519591,15.4001485 45.8226798,15.2613214 C45.6869364,15.1224945 45.6029048,14.9521158 45.5511931,14.7438753 C45.5059452,14.5356347 45.4736254,14.2958426 45.4671614,14.0308092 L45.4671614,10.2130661 L44.3618227,10.2130661 L44.3618227,9.13400149 L44.3488948,9.13400149 Z M49.2679754,9.13400149 L50.6512649,9.13400149 L50.6512649,10.0111358 L50.6771207,10.0111358 C50.8839678,9.63251673 51.1683824,9.36748334 51.5368287,9.20341497 C51.905275,9.03934669 52.2995771,8.95731251 52.732663,8.95731251 C53.2562445,8.95731251 53.7087224,9.045657 54.0965605,9.22865629 C54.4843987,9.40534519 54.8075972,9.65144765 55.066156,9.9669636 C55.3247147,10.2824795 55.5121699,10.6484781 55.6414492,11.0649592 C55.7707286,11.4814402 55.8353683,11.9294729 55.8353683,12.4027468 C55.8353683,12.8381589 55.7771925,13.2609503 55.6608411,13.6648107 C55.5444897,14.0749814 55.3699625,14.4346696 55.1372596,14.7501856 C54.9045567,15.0657015 54.6072141,15.311804 54.2452318,15.5011136 C53.8832495,15.6904232 53.4630915,15.785078 52.9718299,15.785078 C52.7585189,15.785078 52.5452078,15.766147 52.3318969,15.728285 C52.1185859,15.6904232 51.9117389,15.6273199 51.7178198,15.5452858 C51.5239007,15.4632517 51.3364456,15.3559762 51.1748464,15.2234595 C51.0067832,15.0909428 50.8710398,14.9394952 50.7546884,14.7691166 L50.7288325,14.7691166 L50.7288325,18 L49.2679754,18 L49.2679754,9.13400149 L49.2679754,9.13400149 Z M54.3745112,12.3775056 C54.3745112,12.0872309 54.3357274,11.8032665 54.2581598,11.5256125 C54.1805921,11.2479584 54.0642407,11.0081663 53.9091054,10.7936155 C53.7539702,10.5790646 53.560051,10.408686 53.3338121,10.2824795 C53.1011092,10.1562732 52.8360865,10.0868597 52.5387439,10.0868597 C51.9246668,10.0868597 51.4592611,10.2951002 51.1489905,10.7115813 C50.83872,11.1280624 50.6835847,11.6833705 50.6835847,12.3775056 C50.6835847,12.7056422 50.7223685,13.0085375 50.8064002,13.2861915 C50.8904318,13.5638456 51.0067832,13.8036377 51.1748464,14.005568 C51.3364456,14.2074982 51.5303647,14.3652562 51.7566036,14.4788419 C51.9828425,14.5987379 52.2478653,14.6555308 52.5452078,14.6555308 C52.8813343,14.6555308 53.159285,14.5861173 53.3919879,14.4536006 C53.6246908,14.3210839 53.8121459,14.1443949 53.9608172,13.9361544 C54.1094884,13.7216036 54.219376,13.4818114 54.2840156,13.2104677 C54.3421914,12.939124 54.3745112,12.6614699 54.3745112,12.3775056 L54.3745112,12.3775056 Z M56.953635,6.66666667 L58.4144921,6.66666667 L58.4144921,8.01707498 L56.953635,8.01707498 L56.953635,6.66666667 Z M56.953635,9.13400149 L58.4144921,9.13400149 L58.4144921,15.608389 L56.953635,15.608389 L56.953635,9.13400149 Z M59.7202139,6.66666667 L61.181071,6.66666667 L61.181071,15.608389 L59.7202139,15.608389 L59.7202139,6.66666667 Z M65.6606017,15.785078 C65.1305563,15.785078 64.6586864,15.6967335 64.2449924,15.5263548 C63.8312984,15.3559762 63.4822441,15.1161841 63.1913654,14.8195991 C62.9069508,14.5167038 62.6871758,14.1570156 62.5385045,13.7405345 C62.3898332,13.3240534 62.3122656,12.8634001 62.3122656,12.3648849 C62.3122656,11.8726801 62.3898332,11.4183371 62.5385045,11.001856 C62.6871758,10.5853749 62.9069508,10.2256867 63.1913654,9.92279135 C63.4757801,9.61989603 63.8312984,9.38641426 64.2449924,9.21603567 C64.6586864,9.045657 65.1305563,8.95731251 65.6606017,8.95731251 C66.1906472,8.95731251 66.6625169,9.045657 67.076211,9.21603567 C67.489905,9.38641426 67.8389594,9.62620642 68.129838,9.92279135 C68.4142526,10.2256867 68.6340276,10.5853749 68.7826989,11.001856 C68.9313702,11.4183371 69.0089379,11.8726801 69.0089379,12.3648849 C69.0089379,12.8634001 68.9313702,13.3240534 68.7826989,13.7405345 C68.6340276,14.1570156 68.4142526,14.5167038 68.129838,14.8195991 C67.8454234,15.1224945 67.489905,15.3559762 67.076211,15.5263548 C66.6625169,15.6967335 66.1906472,15.785078 65.6606017,15.785078 Z M65.6606017,14.6555308 C65.9838002,14.6555308 66.2682148,14.5861173 66.5073817,14.4536006 C66.7465486,14.3210839 66.9404676,14.1443949 67.0956029,13.9298441 C67.2507382,13.7152933 67.3606257,13.4691908 67.4381933,13.1978471 C67.5092969,12.9265033 67.5480808,12.6488493 67.5480808,12.3648849 C67.5480808,12.0872309 67.5092969,11.8158872 67.4381933,11.5382331 C67.3670896,11.2605791 67.2507382,11.0207869 67.0956029,10.8062361 C66.9404676,10.5916853 66.7465486,10.4213066 66.5073817,10.2887899 C66.2682148,10.1562732 65.9838002,10.0868597 65.6606017,10.0868597 C65.3374033,10.0868597 65.0529886,10.1562732 64.8138217,10.2887899 C64.5746549,10.4213066 64.3807357,10.5979956 64.2256005,10.8062361 C64.0704652,11.0207869 63.9605778,11.2605791 63.8830101,11.5382331 C63.8119064,11.8158872 63.7731227,12.0872309 63.7731227,12.3648849 C63.7731227,12.6488493 63.8119064,12.9265033 63.8830101,13.1978471 C63.9541138,13.4691908 64.0704652,13.7152933 64.2256005,13.9298441 C64.3807357,14.1443949 64.5746549,14.3210839 64.8138217,14.4536006 C65.0529886,14.5924276 65.3374033,14.6555308 65.6606017,14.6555308 L65.6606017,14.6555308 Z M69.4355598,9.13400149 L70.5408986,9.13400149 L70.5408986,7.19042317 L72.0017557,7.19042317 L72.0017557,9.13400149 L73.3204054,9.13400149 L73.3204054,10.2004454 L72.0017557,10.2004454 L72.0017557,13.6585004 C72.0017557,13.8099481 72.0082196,13.9361544 72.0211475,14.0497401 C72.0340755,14.1570156 72.0663954,14.2516703 72.1116431,14.3273942 C72.1568909,14.403118 72.2279945,14.4599109 72.3249541,14.4977728 C72.4219136,14.5356347 72.5447291,14.5545657 72.7127923,14.5545657 C72.8162158,14.5545657 72.9196393,14.5545657 73.0230628,14.5482554 C73.1264863,14.5419451 73.2299098,14.5293244 73.3333333,14.5040831 L73.3333333,15.608389 C73.1717341,15.6273199 73.0101349,15.6399406 72.8614636,15.6588716 C72.7063283,15.6778025 72.5511931,15.6841129 72.3895938,15.6841129 C72.0017557,15.6841129 71.6914852,15.6462509 71.4587822,15.5768374 C71.2260794,15.5074239 71.0386242,15.4001485 70.9093448,15.2613214 C70.7736015,15.1224945 70.6895699,14.9521158 70.6378581,14.7438753 C70.5926104,14.5356347 70.5602905,14.2958426 70.5538265,14.0308092 L70.5538265,10.2130661 L69.4484877,10.2130661 L69.4484877,9.13400149 L69.4355598,9.13400149 Z" id="Shape" fill="#FFFFFF"></path>
            <polygon id="Path" fill="#00B076" points="17.3333333 6.36950905 10.7143384 6.36950905 8.66986118 0 6.61899496 6.36950905 0 6.3630491 5.36036368 10.3036176 3.30949748 16.6666667 8.66986118 12.7325581 14.0238358 16.6666667 11.9793586 10.3036176"></polygon>
            <polygon id="Path" fill="#005128" points="12.6666667 12.248227 12.1785311 10.6666666 8.66666667 13.3333333"></polygon>
        </g>
    </g>
</svg>