<?xml version="1.0" encoding="UTF-8"?>
<svg width="152px" height="28px" viewBox="0 0 152 28" version="1.1" xmlns="http://www.w3.org/2000/svg" xmlns:xlink="http://www.w3.org/1999/xlink">
    <title>trustpilot-stars</title>
    <g id="Page-1" stroke="none" stroke-width="1" fill="none" fill-rule="evenodd">
        <g id="grey-bg" transform="translate(-1410, -174)" fill-rule="nonzero">
            <g id="trustpilot-stars" transform="translate(1410, 174)">
                <rect id="Rectangle-path" fill="#00B076" x="0" y="0" width="28" height="28" rx="3"></rect>
                <rect id="Rectangle-path" fill="#00B076" x="31" y="0" width="28" height="28" rx="3"></rect>
                <rect id="Rectangle-path" fill="#00B076" x="62.0000001" y="0" width="28" height="28" rx="3"></rect>
                <rect id="Rectangle-path" fill="#00B076" x="93" y="0" width="28" height="28" rx="3"></rect>
                <rect id="Rectangle-path" fill="#00B076" x="124" y="0" width="28" height="28" rx="3"></rect>
                <path d="M14,18.7264151 L18.3452381,17.6792452 L20.1607143,23 L14,18.7264151 Z M24,11.8490566 L16.3511905,11.8490566 L14,5 L11.6488095,11.8490566 L4,11.8490566 L10.1904762,16.0943397 L7.83928572,22.9433963 L14.0297619,18.6981131 L17.8392857,16.0943397 L24,11.8490566 L24,11.8490566 L24,11.8490566 L24,11.8490566 Z" id="Shape" fill="#FFFFFF"></path>
                <path d="M44.9999999,18.7264151 L49.345238,17.6792452 L51.1607142,23 L44.9999999,18.7264151 Z M55,11.8490566 L47.3511905,11.8490566 L45,5 L42.6488096,11.8490566 L35,11.8490566 L41.1904762,16.0943397 L38.8392857,22.9433963 L45.0297618,18.6981131 L48.8392857,16.0943397 L55,11.8490566 L55,11.8490566 L55,11.8490566 L55,11.8490566 Z" id="Shape" fill="#FFFFFF"></path>
                <path d="M76,18.7264151 L80.3452381,17.6792452 L82.1607143,23 L76,18.7264151 Z M86,11.8490566 L78.3511904,11.8490566 L76,5 L73.6488095,11.8490566 L66,11.8490566 L72.1904761,16.0943397 L69.8392858,22.9433963 L76.0297619,18.6981131 L79.8392857,16.0943397 L86,11.8490566 L86,11.8490566 L86,11.8490566 L86,11.8490566 Z" id="Shape" fill="#FFFFFF"></path>
                <path d="M107,18.7264151 L111.345238,17.6792452 L113.160714,23 L107,18.7264151 Z M117,11.8490566 L109.351191,11.8490566 L107,5 L104.648809,11.8490566 L97.0000001,11.8490566 L103.190476,16.0943397 L100.839286,22.9433963 L107.029762,18.6981131 L110.839286,16.0943397 L117,11.8490566 L117,11.8490566 L117,11.8490566 L117,11.8490566 Z" id="Shape" fill="#FFFFFF"></path>
                <path d="M138,18.7264151 L142.345238,17.6792452 L144.160715,23 L138,18.7264151 Z M148,11.8490566 L140.35119,11.8490566 L138,5 L135.64881,11.8490566 L128,11.8490566 L134.190476,16.0943397 L131.839286,22.9433963 L138.029762,18.6981131 L141.839286,16.0943397 L148,11.8490566 L148,11.8490566 L148,11.8490566 L148,11.8490566 Z" id="Shape" fill="#FFFFFF"></path>
            </g>
        </g>
    </g>
</svg>