<?xml version="1.0" encoding="UTF-8"?>
<svg width="53px" height="53px" viewBox="0 0 53 53" version="1.1" xmlns="http://www.w3.org/2000/svg" xmlns:xlink="http://www.w3.org/1999/xlink">
    <title>wallet</title>
    <g id="Game-Images" stroke="none" stroke-width="1" fill="none" fill-rule="evenodd">
        <g id="wallet" transform="translate(1, 2)">
            <g id="Group" stroke-width="2">
                <polyline id="Path" stroke="#367FCA" points="14.5663944 8.47303105 34.7014717 0 38.5435466 8.63769141"></polyline>
                <path d="M46.687257,39.2710291 L46.687257,45.3485776 C46.687257,47.9068599 44.5941169,50 42.0358346,50 L4.6514224,50 C2.09314008,50 0,47.9068599 0,45.3485776 L0,17.596331 C0,15.0380486 2.09314008,12.9449086 4.6514224,12.9449086 L42.0367648,12.9449086 C44.5950472,12.9449086 46.6881872,15.0380486 46.6881872,17.596331 L46.6881872,23.492474" id="Path" stroke="#060000" stroke-linejoin="round"></path>
                <path d="M30.0788881,39.0691573 C27.5206058,39.0691573 25.428396,36.9760173 25.428396,34.4177349 L25.428396,28.5271736 C25.428396,25.9688913 27.5206058,23.8757512 30.0788881,23.8757512 L50.6028243,23.8757512 L50.6028243,39.0691573 L30.0788881,39.0691573 Z" id="Path" stroke="#060000" stroke-linecap="round" stroke-linejoin="round"></path>
            </g>
            <circle id="Oval" fill="#367FCA" fill-rule="nonzero" cx="32.3683182" cy="31.4724543" r="1.88754721"></circle>
        </g>
    </g>
</svg>