<?xml version="1.0" encoding="UTF-8"?>
<svg width="50px" height="50px" viewBox="0 0 50 50" version="1.1" xmlns="http://www.w3.org/2000/svg" xmlns:xlink="http://www.w3.org/1999/xlink">
    <title>wh-plan-1</title>
    <g id="Game-Images" stroke="none" stroke-width="1" fill="none" fill-rule="evenodd" stroke-linecap="round" stroke-linejoin="round">
        <g id="gamebg-smalland-1920" transform="translate(-911, -1057)" stroke-width="2">
            <g id="wh-plan-1" transform="translate(912, 1058)">
                <g id="Path" stroke="#FFFFFF">
                    <path d="M8.38873042,14.7781614 C7.53040084,16.228194 6.87064004,17.8063354 6.44147525,19.4805585 L0,20.5742881 L0,27.4233098 L6.44147525,28.5202422 C6.87304209,30.2072762 7.53920833,31.7950258 8.4103488,33.2538658 L4.60871741,38.5495671 L9.45043287,43.3912826 L14.7469349,39.5904519 C16.2057749,40.4583896 17.7951259,41.1237552 19.4805585,41.5561227 L20.5750888,48 L27.4233098,48 L28.5210429,41.5577241 C30.2064755,41.1237552 31.7958265,40.4583896 33.2562678,39.5904519 L38.5495671,43.3912826 L43.392884,38.5495671 L39.5928539,33.2562678 C40.4671971,31.7838162 41.1365661,30.1808537 41.5697343,28.4802082 L48,27.4233098 L48,20.5742881 L41.5697343,19.5205925 C41.1413702,17.8327578 40.480008,16.2402042 39.615273,14.7789621 L43.3936846,9.45203423 L38.5503678,4.60951809 L33.2226392,8.38873042 C31.7621979,7.52319472 30.1704449,6.86263324 28.4826102,6.43266777 L27.4241105,0 L20.5758895,0 L20.1523295,2.86883851"></path>
                    <path d="M19.5181905,6.43426913 C17.8327578,6.86343392 16.2418055,7.52319472 14.7797628,8.38873042 L9.45043287,4.60951809 L4.60871741,9.44963219 L6.23810239,11.7283691"></path>
                </g>
                <path d="M18.2907471,13.4290147 C19.9889906,12.5114347 21.9346444,11.9885903 24.0004003,11.9885903 C30.6324376,11.9885903 36.0122104,17.3667617 36.0122104,24.0004003 C36.0122104,30.6332383 30.6324376,36.0114097 24.0004003,36.0114097 C17.3667617,36.0114097 11.9885903,30.6332383 11.9885903,24.0004003 C11.9885903,21.2460592 12.9157784,18.7063004 14.4747035,16.6805785" id="Path" stroke="#FFFFFF"></path>
                <polyline id="Path" stroke="#367FCA" points="17.6638142 23.2741831 21.9578642 29.2208377 29.8725917 19.7591953"></polyline>
            </g>
        </g>
    </g>
</svg>