<?xml version="1.0" encoding="UTF-8"?>
<svg width="53px" height="50px" viewBox="0 0 53 50" version="1.1" xmlns="http://www.w3.org/2000/svg" xmlns:xlink="http://www.w3.org/1999/xlink">
    <title>wh-plan-3</title>
    <g id="Game-Images" stroke="none" stroke-width="1" fill="none" fill-rule="evenodd">
        <g id="gamebg-smalland-1920" transform="translate(-1150, -1100)">
            <g id="wh-plan-3" transform="translate(1151, 1101)">
                <g id="Group" transform="translate(0, 0.5511)" stroke="#FFFFFF" stroke-linecap="round" stroke-width="2">
                    <polygon id="Path" stroke-linejoin="round" points="25.246235 0.177870683 29.9506865 14.6591287 45.1776331 14.6591287 32.8597083 23.6081524 37.5649199 38.0901706 25.246235 29.1403867 12.92755 38.0901706 17.6327617 23.6081524 5.31483681 14.6591287 20.5417835 14.6591287"></polygon>
                    <line x1="25.246235" y1="36.6694855" x2="25.246235" y2="47.4489049" id="Path"></line>
                    <line x1="40.2405815" y1="25.8505392" x2="50.49247" y2="29.1806737" id="Path"></line>
                    <line x1="10.2518885" y1="25.8505392" x2="0" y2="29.1806737" id="Path"></line>
                    <line x1="34.643736" y1="8.59100195" x2="41.1550192" y2="0" id="Path"></line>
                    <line x1="15.8487339" y1="8.59100195" x2="9.33745071" y2="0" id="Path"></line>
                </g>
                <path d="M19.8006556,44.1537365 C18.9500689,44.1537365 18.2583496,43.4620172 18.2583496,42.6114305 C18.2583496,41.7608437 18.9500689,41.0691244 19.8006556,41.0691244 C20.6512423,41.0691244 21.3429617,41.7608437 21.3429617,42.6114305 C21.3429617,43.4620172 20.6512423,44.1537365 19.8006556,44.1537365 Z" id="Path" fill="#367FCA" fill-rule="nonzero"></path>
                <path d="M30.6925745,44.1537365 C29.8419877,44.1537365 29.1502684,43.4620172 29.1502684,42.6114305 C29.1502684,41.7608437 29.8419877,41.0691244 30.6925745,41.0691244 C31.5431612,41.0691244 32.2348805,41.7608437 32.2348805,42.6114305 C32.2348805,43.4620172 31.5431612,44.1537365 30.6925745,44.1537365 Z" id="Path" fill="#367FCA" fill-rule="nonzero"></path>
                <path d="M43.6862559,34.794242 C42.8356692,34.794242 42.1439498,34.1025227 42.1439498,33.251936 C42.1439498,32.4013492 42.8356692,31.7096299 43.6862559,31.7096299 C44.5368426,31.7096299 45.2285619,32.4013492 45.2285619,33.251936 C45.2285619,34.1025227 44.5368426,34.794242 43.6862559,34.794242 Z" id="Path" fill="#367FCA" fill-rule="nonzero"></path>
                <path d="M47.0300727,24.4161718 C46.179486,24.4161718 45.4877666,23.7244525 45.4877666,22.8738657 C45.4877666,22.023279 46.179486,21.3315597 47.0300727,21.3315597 C47.8806594,21.3315597 48.5723787,22.023279 48.5723787,22.8738657 C48.5723787,23.7244525 47.8806594,24.4161718 47.0300727,24.4161718 Z" id="Path" fill="#367FCA" fill-rule="nonzero"></path>
                <path d="M42.232125,9.66506722 C41.3815383,9.66506722 40.689819,8.9733479 40.689819,8.12276118 C40.689819,7.27217445 41.3815383,6.58045513 42.232125,6.58045513 C43.0827118,6.58045513 43.7744311,7.27217445 43.7744311,8.12276118 C43.7744311,8.9733479 43.0827118,9.66506722 42.232125,9.66506722 Z" id="Path" fill="#367FCA" fill-rule="nonzero"></path>
                <path d="M33.5613093,3.10893629 C32.7107226,3.10893629 32.0190033,2.41721697 32.0190033,1.56663024 C32.0190033,0.716043518 32.7107226,0.0243241959 33.5613093,0.0243241959 C34.4118961,0.0243241959 35.1036154,0.716043518 35.1036154,1.56663024 C35.1036154,2.41721697 34.4126562,3.10893629 33.5613093,3.10893629 Z" id="Path" fill="#367FCA" fill-rule="nonzero"></path>
                <path d="M16.909877,3.0846121 C16.0592902,3.0846121 15.3675709,2.39289277 15.3675709,1.54230605 C15.3675709,0.691719322 16.0592902,0 16.909877,0 C17.7604637,0 18.452183,0.691719322 18.452183,1.54230605 C18.452183,2.39289277 17.7604637,3.0846121 16.909877,3.0846121 Z" id="Path" fill="#367FCA" fill-rule="nonzero"></path>
                <path d="M8.26338543,9.68863129 C7.41279871,9.68863129 6.72107939,8.99691197 6.72107939,8.14632524 C6.72107939,7.29573851 7.41279871,6.60401919 8.26338543,6.60401919 C9.11397216,6.60401919 9.80569148,7.29573851 9.80569148,8.14632524 C9.80569148,8.99691197 9.11397216,9.68863129 8.26338543,9.68863129 Z" id="Path" fill="#367FCA" fill-rule="nonzero"></path>
                <path d="M3.44111359,24.4161718 C2.59052687,24.4161718 1.89880754,23.7244525 1.89880754,22.8738657 C1.89880754,22.023279 2.59052687,21.3315597 3.44111359,21.3315597 C4.29170032,21.3315597 4.98341964,22.023279 4.98341964,22.8738657 C4.98341964,23.7244525 4.29246045,24.4161718 3.44111359,24.4161718 Z" id="Path" fill="#367FCA" fill-rule="nonzero"></path>
                <path d="M6.81457551,34.7737185 C5.96398879,34.7737185 5.27226947,34.0819991 5.27226947,33.2314124 C5.27226947,32.3808257 5.96398879,31.6891064 6.81457551,31.6891064 C7.66516224,31.6891064 8.35688156,32.3808257 8.35688156,33.2314124 C8.35688156,34.0819991 7.66516224,34.7737185 6.81457551,34.7737185 Z" id="Path" fill="#367FCA" fill-rule="nonzero"></path>
            </g>
        </g>
    </g>
</svg>