<?xml version="1.0" encoding="UTF-8"?>
<svg width="50px" height="48px" viewBox="0 0 50 48" version="1.1" xmlns="http://www.w3.org/2000/svg" xmlns:xlink="http://www.w3.org/1999/xlink">
    <title>wh-plan-4</title>
    <g id="Game-Images" stroke="none" stroke-width="1" fill="none" fill-rule="evenodd">
        <g id="gamebg-smalland-1920" transform="translate(-700, -1103)" stroke-width="2">
            <g id="wh-plan-4" transform="translate(701, 1103)">
                <g id="Group" transform="translate(0, 2)" stroke="#FFFFFF" stroke-linejoin="round">
                    <path d="M15.8945085,6.00488136 L15.8945085,2.55050847 C15.8945085,1.13816949 17.0302373,0 18.4206102,0 L29.5785763,0 C30.967322,0 32.104678,1.13735593 32.104678,2.55050847 L32.104678,6.00488136" id="Path"></path>
                    <path d="M48,15.0150508 C48,21.2322712 38.5261017,25.4863729 26.9475254,25.4863729 L21.0524746,25.4863729 C9.47389831,25.4863729 0,21.2322712 0,15.0150508 L0,9.75050847 L48,9.75050847 L48,15.0150508 Z" id="Path" stroke-linecap="round"></path>
                    <polyline id="Path" stroke-linecap="round" points="48 24.3799322 48 43.2235932 0 43.2235932 0 24.3799322"></polyline>
                </g>
                <polyline id="Path" stroke="#367FCA" points="42.6402712 35.2574915 42.6402712 40.2682034 5.35972881 40.2682034 5.35972881 35.2574915"></polyline>
                <line x1="20.8767458" y1="21.2691525" x2="27.1240678" y2="21.2691525" id="Path" stroke="#367FCA" stroke-linecap="round" stroke-linejoin="round"></line>
                <rect id="Rectangle" stroke-opacity="0" stroke="#979797" x="22" y="1" width="18" height="46"></rect>
            </g>
        </g>
    </g>
</svg>