<?xml version="1.0" encoding="UTF-8"?>
<svg width="25px" height="26px" viewBox="0 0 25 26" version="1.1" xmlns="http://www.w3.org/2000/svg" xmlns:xlink="http://www.w3.org/1999/xlink">
    <title>explore-databases</title>
    <g id="Panel-Page-v1.0" stroke="none" stroke-width="1" fill="none" fill-rule="evenodd">
        <g id="Desktop-HD" transform="translate(-509, -2969)">
            <g id="Group-23" transform="translate(102, 2206)">
                <g id="explore-databases" transform="translate(407.523, 763.663)">
                    <ellipse id="Oval" stroke="#060000" stroke-width="1.25" cx="11.5206557" cy="3.61652459" rx="10.5206557" ry="3.61652459"></ellipse>
                    <path d="M22.0413115,9.20419672 C22.0413115,11.2020984 17.3310164,12.8215082 11.5214426,12.8215082 C5.71029508,12.8215082 1,11.2020984 1,9.20419672" id="Path" stroke="#060000" stroke-width="1.25"></path>
                    <path d="M22.0413115,14.7942295 C22.0413115,16.7913443 17.3310164,18.4107541 11.5214426,18.4107541 C5.71029508,18.4107541 1,16.7913443 1,14.7942295" id="Path" stroke="#060000" stroke-width="1.25"></path>
                    <path d="M1,20.3834754 C1,22.3805902 5.71029508,24 11.5214426,24 C17.3310164,24 22.0413115,22.3805902 22.0413115,20.3834754 L22.0413115,4.04380328" id="Path" stroke="#060000" stroke-width="1.25"></path>
                    <rect id="Rectangle" stroke-opacity="0" stroke="#979797" x="0.5" y="8.5" width="23" height="11"></rect>
                </g>
            </g>
        </g>
    </g>
</svg>