<?xml version="1.0" encoding="UTF-8"?>
<svg width="14px" height="8px" viewBox="0 0 14 8" version="1.1" xmlns="http://www.w3.org/2000/svg" xmlns:xlink="http://www.w3.org/1999/xlink">
    <title>faq-up</title>
    <g id="Page-1" stroke="none" stroke-width="1" fill="none" fill-rule="evenodd">
        <g id="grey-bg" transform="translate(-990, 0)" fill="#262A30" fill-rule="nonzero">
            <g id="faq-up" transform="translate(997.0012, 4) scale(1, -1) translate(-997.0012, -4)translate(990, 0)">
                <path d="M7.00122428,5.32331425 L7.00122428,5.32331425 L7.00122428,5.32331425 L12.4468145,0.0965480185 C12.5812349,-0.0347463484 12.8031849,-0.031620292 12.9407314,0.102800131 L13.8973046,1.03749098 C14.0348511,1.1719114 14.0379771,1.39073535 13.9035567,1.52202972 L7.25443485,7.9054368 C7.18566161,7.97421004 7.09187992,8.0054706 7.00122428,7.99921849 C6.90744259,8.00234454 6.81678696,7.97108398 6.74801372,7.9054368 L0.0988918476,1.52202972 C-0.0355285757,1.39073535 -0.0324025193,1.1719114 0.10514396,1.03749098 L1.06171721,0.102800131 C1.19926368,-0.031620292 1.42121369,-0.0347463484 1.55563411,0.0965480185 L7.00122428,5.32331425 Z" id="Path"></path>
            </g>
        </g>
    </g>
</svg>