<?xml version="1.0" encoding="UTF-8"?>
<svg width="20px" height="14px" viewBox="0 0 20 14" version="1.1" xmlns="http://www.w3.org/2000/svg" xmlns:xlink="http://www.w3.org/1999/xlink">
    <title>flag-eng</title>
    <g id="HOSTING" stroke="none" stroke-width="1" fill="none" fill-rule="evenodd">
        <g id="Desktop-HD" transform="translate(-837.000000, -1981.000000)" fill-rule="nonzero">
            <g id="flag-eng" transform="translate(837.658000, 1981.639028)">
                <g id="Group" transform="translate(-0.000000, 0.000000)">
                    <path d="M1.87118452e-15,12.0403448 C6.33171109,8.7161306 12.6634222,15.3645589 18.9951772,12.0403448 C18.9951772,8.3467881 18.9951772,4.65318756 18.9951772,0.959630902 C12.6633783,4.28384506 6.33171109,-2.36458326 1.87118452e-15,0.959630902 C1.87118452e-15,4.65318756 1.87118452e-15,8.3467881 1.87118452e-15,12.0403448 Z" id="Path" fill="#FFFFFF"></path>
                    <path d="M12.7191198,5.7143395 C14.8111389,4.90283938 16.903158,3.72204066 18.9951772,1.45261426 C18.9951772,1.28828647 18.9951772,1.12395869 18.9951772,0.959630902 C18.8508198,1.0354306 18.7063746,1.10600728 18.5620172,1.17171206 C16.1764553,3.5921234 13.7909373,4.66152684 11.4053753,5.4465607 C11.8433633,5.54759771 12.2812635,5.6390226 12.7191198,5.7143395 Z" id="Path" fill="#BD0034"></path>
                    <path d="M12.4220218,8.95186899 C14.613059,10.5893093 16.8041839,11.8590751 18.995221,11.9346114 C18.995221,11.6894365 18.995221,11.4443054 18.995221,11.1991744 C17.2419963,11.1388682 15.4888155,10.3139813 13.7356785,9.14792995 C13.2977783,9.10171276 12.8598781,9.03412067 12.4220218,8.95186899 Z" id="Path" fill="#BD0034"></path>
                    <path d="M1.87118452e-15,1.80396146 C1.87410046,1.87405534 3.74815702,2.81779894 5.62230137,4.11802498 C6.06024545,4.17556604 6.49814564,4.2525508 6.93604583,4.3424395 C4.62404518,2.56841045 2.31200065,1.15301451 1.87118452e-15,1.06725156 C1.87118452e-15,1.31282152 1.87118452e-15,1.55839149 1.87118452e-15,1.80396146 Z" id="Path" fill="#BD0034"></path>
                    <path d="M6.63886008,7.57452652 C4.42592135,8.39124965 2.21293873,9.57459405 1.87118452e-15,11.9761323 C1.87118452e-15,11.9975511 1.87118452e-15,12.0189699 1.87118452e-15,12.0403448 C0.399539484,11.8305898 0.799035078,11.6606001 1.19857456,11.5252404 C3.449874,9.50138391 5.70121733,8.57919078 7.95251676,7.86218792 C7.51461657,7.75627902 7.07676027,7.65827048 6.63886008,7.57452652 Z" id="Path" fill="#BD0034"></path>
                    <path d="M17.6960484,1.50813633 C15.4790278,2.22711428 13.2619633,1.89069001 11.0448988,1.35504463 C11.0448988,2.59689569 11.0448988,3.83870286 11.0448988,5.08055392 C13.2619194,4.37434824 15.4790278,3.46892145 17.6960484,1.50813633 Z" id="Path" fill="#1A237B"></path>
                    <path d="M8.10780301,0.602577874 C5.89964839,0.0602171792 3.69153767,-0.304736222 1.48347084,0.353759975 C3.69158156,0.937114835 5.89969229,2.5438754 8.10780301,4.32808715 C8.10780301,3.08627999 8.10780301,1.84442893 8.10780301,0.602577874 Z" id="Path" fill="#1A237B"></path>
                    <path d="M18.9951772,4.9659546 C18.9951772,4.11868334 18.9951772,3.27141209 18.9951772,2.42414084 C17.4913848,4.06092283 15.9877241,5.13515428 14.4839318,5.91413118 C15.9877241,5.98238164 17.4914287,5.75542144 18.9951772,4.9659546 Z" id="Path" fill="#1A237B"></path>
                    <path d="M18.9951772,10.7711057 C18.9951772,9.93305159 18.9951772,9.09504133 18.9951772,8.25698718 C17.4913848,9.04645403 15.9877241,9.27345812 14.4839318,9.20511988 C15.9877241,10.1115562 17.4914287,10.7225184 18.9951772,10.7711057 Z" id="Path" fill="#1A237B"></path>
                    <path d="M1.85966033,11.3320762 C3.94237455,10.8180252 6.02504489,11.1717425 8.10775912,11.6832917 C8.10775912,10.5160114 8.10775912,9.34873113 8.10775912,8.18140693 C6.02504489,8.837138 3.94233066,9.65074488 1.85966033,11.3320762 Z" id="Path" fill="#1A237B"></path>
                    <path d="M11.0448988,12.4357585 C13.1342406,12.9405485 15.2235824,13.2684579 17.3128802,12.7027911 C15.2235824,12.1011337 13.1342406,10.6059879 11.0448988,8.93387369 C11.0448988,10.101154 11.0448988,11.2684343 11.0448988,12.4357585 Z" id="Path" fill="#1A237B"></path>
                    <path d="M1.87118452e-15,8.25698718 C1.87118452e-15,9.13278756 1.87118452e-15,10.0086318 1.87118452e-15,10.8844322 C1.55624206,9.19160146 3.11248413,8.10117424 4.66872619,7.3170621 C3.11248413,7.22537386 1.55624206,7.43995681 1.87118452e-15,8.25698718 Z" id="Path" fill="#1A237B"></path>
                    <path d="M1.87118452e-15,4.9659546 C1.55624206,4.14892422 3.11248413,3.93434128 4.66872619,4.02602951 C3.11248413,3.05700471 1.55624206,2.39433887 1.87118452e-15,2.33407657 C1.87118452e-15,3.21136925 1.87118452e-15,4.08866192 1.87118452e-15,4.9659546 Z" id="Path" fill="#1A237B"></path>
                    <path d="M8.69515195,0.750490438 C8.69515195,2.30545966 8.69515195,3.86047278 8.69515195,5.415442 C5.79681186,4.67091951 2.89838398,4.10292649 4.38909683e-05,5.62458247 C4.38909683e-05,6.28277143 4.38909683e-05,6.9409165 4.38909683e-05,7.59910546 C2.89842787,6.07740559 5.79681186,6.64539861 8.69515195,7.38996499 C8.69515195,8.87040735 8.69515195,10.3508058 8.69515195,11.8312043 C9.28263256,11.9821014 9.87011317,12.1402845 10.4575499,12.2897771 C10.4575499,10.8093348 10.4575499,9.3289363 10.4575499,7.84849394 C13.3034403,8.57265103 16.1493307,9.09319791 18.995221,7.59906157 C18.995221,6.94087261 18.995221,6.28268365 18.995221,5.62453858 C16.1493307,7.11867492 13.3034403,6.59812803 10.4575499,5.87397095 C10.4575499,4.31900172 10.4575499,2.7640325 10.4575499,1.20901938 C9.87006928,1.05957064 9.28258867,0.901387587 8.69515195,0.750490438 Z" id="Path" fill="#BD0034"></path>
                </g>
            </g>
        </g>
    </g>
</svg>