<?xml version="1.0" encoding="UTF-8"?>
<svg width="19px" height="14px" viewBox="0 0 19 14" version="1.1" xmlns="http://www.w3.org/2000/svg" xmlns:xlink="http://www.w3.org/1999/xlink">
    <title>flag-ams</title>
    <g id="HOSTING" stroke="none" stroke-width="1" fill="none" fill-rule="evenodd">
        <g id="Desktop-HD" transform="translate(-927.000000, -1981.000000)" fill-rule="nonzero">
            <g id="flag-ams" transform="translate(927.000000, 1981.000000)">
                <path d="M0.566711761,8.27062916 L0.566711761,9.08527732 L0,9.08527732 L0,13.2754024 C6.27527489,15.7854821 12.5513243,10.7653227 18.8266369,13.2754024 L18.8266369,9.08881927 L18.8230969,9.08881927 L18.8230969,9.08291602 L18.8219181,9.08291602 L18.8219181,9.02624484 L18.7782341,9.02624484 L18.7782341,8.27062916 L0.566715539,8.27062916 L0.566711761,8.27062916 Z" id="path3" fill="#21468B"></path>
                <path d="M1.89730375,4.13127201 L1.89730375,4.90695873 L0,4.90695873 L0,9.09118056 C6.27527489,11.6012603 12.5513243,6.58110083 18.8266369,9.09118056 L18.8266369,4.90695873 L18.8207337,4.90695873 L18.8207337,4.13127201 L1.89730375,4.13127201 Z" id="path5" fill="#FFFFFF"></path>
                <path d="M0.000292801076,0.724597604 C6.27560547,3.23467733 12.5508804,-1.78548213 18.8261552,0.724597604 C18.8261552,2.11908634 18.8261552,3.51357508 18.8261552,4.90806382 C12.5508426,2.39798409 6.27556769,7.41814355 0.000292801076,4.90806382 C0.000292801076,3.51357508 0.000292801076,2.11908634 0.000292801076,0.724597604 Z" id="path7" fill="#AE1C28"></path>
            </g>
        </g>
    </g>
</svg>