<?xml version="1.0" encoding="UTF-8"?>
<svg width="18px" height="15px" viewBox="0 0 18 15" version="1.1" xmlns="http://www.w3.org/2000/svg" xmlns:xlink="http://www.w3.org/1999/xlink">
    <title>flag-sg</title>
    <g id="Page-1" stroke="none" stroke-width="1" fill="none" fill-rule="evenodd">
        <g id="Desktop-HD" transform="translate(-1128.000000, -310.000000)" fill-rule="nonzero">
            <g id="flag-sg" transform="translate(1128.000000, 310.000000)">
                <g id="Group" transform="translate(0.148965, 0.147945)">
                    <path d="M17.704661,6.86235331 C11.802481,3.46517697 5.90146726,10.4314976 0,7.03717225 C0,9.00417681 0,10.971311 0,12.9383803 C5.90146726,16.3327057 11.802481,9.3671626 17.704661,12.7644685 C17.704661,10.797464 17.704661,8.82935788 17.704661,6.86235331 Z" id="Path" fill="#FFFFFF"></path>
                    <path d="M17.704661,0.961404416 C11.802481,-2.43596632 5.90146726,4.53003031 1.20855391e-15,1.13570498 C1.20855391e-15,3.10277434 1.20855391e-15,5.0698437 1.20855391e-15,7.03717225 C5.90146726,10.4314976 11.802481,3.46517697 17.704661,6.86235331 C17.704661,4.89554314 17.704661,2.92847378 17.704661,0.961404416 Z" id="Path" fill="#EC2F43"></path>
                    <g transform="translate(1.475010, 3.016699)" fill="#FFFFFF" id="Path">
                        <path d="M2.69440165,3.90870018 C1.67633083,3.93105471 0.878306383,2.94168841 0.878306383,1.92303444 C0.878306383,0.901335059 1.67633083,0.228884772 2.69440165,0.121647806 C2.69997408,0.12112944 2.70483376,0.117112104 2.70509295,0.111474874 C2.70612968,0.10635601 2.70308428,0.100783575 2.69796541,0.0997468432 C2.48245475,0.036700579 2.25728952,0.00417311283 2.02856053,9.09806157e-05 C0.910315483,-0.00852685405 2.30200745e-16,0.595304735 2.30200745e-16,1.71452171 C2.30200745e-16,2.83276676 0.910315483,4.04885338 2.02856053,4.05695285 C2.25728952,4.06103498 2.48245475,4.01736265 2.69796541,3.92988839 C2.70308428,3.92787972 2.70606488,3.92282565 2.70509295,3.91770679 C2.70515774,3.91174558 2.70003888,3.90766344 2.69440165,3.90870018 Z"></path>
                        <path d="M2.44590995,1.52505894 C2.44487322,1.52097681 2.44033751,1.51793141 2.43521865,1.51793141 L2.43521865,1.51793141 C2.31929905,1.52149518 2.20344425,1.52246711 2.08752466,1.52149518 C2.05169261,1.40512201 2.01560138,1.28816568 1.97976933,1.17127415 C1.97724229,1.16161958 1.96149693,1.16161958 1.95845153,1.17075579 C1.92261948,1.28563865 1.88698181,1.40103988 1.85121456,1.51592274 C1.73510058,1.51080388 1.61918098,1.50374114 1.5030022,1.49408657 L1.5030022,1.49408657 C1.49788334,1.49356821 1.49334764,1.49661361 1.49185733,1.50069574 C1.4908206,1.50477787 1.49185733,1.51035031 1.49593947,1.51391407 C1.59021728,1.59374244 1.68423591,1.67149734 1.77857853,1.74724357 C1.74248729,1.86212643 1.70639606,1.97649093 1.67030483,2.09085543 C1.66874973,2.09441919 1.67082319,2.09999163 1.67484053,2.10303703 C1.67639563,2.10452733 1.67944103,2.10608243 1.6814497,2.10608243 C1.68345837,2.10608243 1.6860502,2.10556406 1.68805886,2.10400896 C1.78181831,2.03746373 1.87583695,1.9692986 1.96966119,1.89970797 C2.06342064,1.9738991 2.1569857,2.0471183 2.25074515,2.11826403 C2.25223545,2.11975433 2.25528085,2.1202727 2.25735432,2.1202727 C2.25787268,2.1202727 2.25787268,2.1202727 2.25787268,2.1202727 C2.26396348,2.1202727 2.26908235,2.11470026 2.26908235,2.10860946 C2.26908235,2.10660079 2.26856398,2.1034906 2.26759205,2.1020003 C2.23176,1.98711743 2.19612233,1.87229936 2.16035508,1.75683334 C2.25437371,1.68568761 2.34839235,1.61298677 2.44247577,1.53879564 C2.44610434,1.53471351 2.44791862,1.52914107 2.44590995,1.52505894 Z"></path>
                        <path d="M4.74745497,1.20892048 C4.74641823,1.20483835 4.74188253,1.20231131 4.73676367,1.20334805 L4.73676367,1.20334805 C4.62058489,1.22978471 4.50473009,1.25466628 4.38855131,1.27857591 C4.35271926,1.16926548 4.3171464,1.06053822 4.28131435,0.951227786 C4.27872252,0.942091585 4.26245878,0.945136986 4.25993175,0.955309918 C4.2240997,1.07829225 4.18852683,1.20127458 4.15269478,1.32432171 C4.0365808,1.34570431 3.92014284,1.36598538 3.80402886,1.38432258 L3.80402886,1.38432258 C3.79949315,1.38484094 3.79489266,1.38937664 3.79333756,1.39345878 C3.79230083,1.39799448 3.79333756,1.40311334 3.79741969,1.40615874 C3.8917623,1.46259584 3.98578093,1.51799621 4.08005875,1.57235984 C4.04396752,1.69534217 4.00787628,1.8183245 3.97178505,1.94085327 C3.97029475,1.9449354 3.97178505,1.95005426 3.97638555,1.95206293 C3.97787585,1.95355323 3.98046768,1.9540716 3.98247635,1.95355323 C3.98506818,1.95303487 3.98759521,1.95154457 3.98908552,1.94998947 C4.08310415,1.86154327 4.17718758,1.77206034 4.27120621,1.68212384 C4.36470648,1.7360339 4.45827154,1.78884244 4.5517718,1.84074383 C4.55378047,1.84178057 4.55630751,1.84178057 4.55883454,1.8412622 L4.55883454,1.8412622 C4.56544371,1.8397071 4.57056257,1.8336163 4.57056257,1.8275255 C4.57056257,1.82551683 4.57004421,1.82240664 4.5685539,1.8214347 C4.53272185,1.71367937 4.49708419,1.6064424 4.46131694,1.49816871 C4.55533557,1.40719547 4.6493542,1.31570388 4.74343763,1.22272198 C4.74745497,1.21857505 4.74894527,1.21241945 4.74745497,1.20892048 Z"></path>
                        <path d="M3.40909876,1.14691095 C3.40961713,1.14691095 3.40961713,1.14691095 3.40961713,1.14691095 C3.41629109,1.14587422 3.42082679,1.14082015 3.42082679,1.13369262 C3.42082679,1.13168395 3.42030843,1.12961048 3.41933649,1.12708345 C3.38350444,1.01673629 3.34741321,0.905935557 3.31158116,0.794681255 C3.40585898,0.712325858 3.49987761,0.628480158 3.59415542,0.543597727 C3.59771919,0.54003396 3.59972786,0.534461526 3.59771919,0.530379394 C3.59668246,0.525778895 3.59214676,0.523251861 3.58702789,0.523770227 L3.58702789,0.523770227 C3.4711083,0.540552326 3.3552535,0.555779327 3.2393339,0.568479294 C3.20350185,0.456641831 3.16792898,0.343832431 3.13209693,0.231476602 C3.12905153,0.221822035 3.1127878,0.223830703 3.11026077,0.23348527 C3.0746879,0.353486998 3.03911503,0.472905564 3.00354217,0.592388926 C2.88742818,0.602043493 2.77099022,0.610142961 2.65487624,0.615780191 L2.65487624,0.615780191 C2.64975738,0.616298557 2.64567524,0.619862324 2.64366658,0.624398026 C2.64262984,0.62951689 2.64366658,0.634570959 2.64774871,0.637097993 C2.74209132,0.703708023 2.83662832,0.768762956 2.93090613,0.832845952 C2.89455572,0.952264518 2.85846448,1.07122951 2.82211407,1.19019451 C2.82062377,1.19524858 2.82263244,1.20036744 2.82671457,1.20237611 C2.82820487,1.20341284 2.83125027,1.20444957 2.83332373,1.20393121 C2.83591556,1.20393121 2.83792423,1.20289448 2.83941453,1.20185774 C2.93343317,1.12254775 3.02751659,1.04226581 3.12153523,0.960947148 C3.21503549,1.02399341 3.30860056,1.08548458 3.40210082,1.14593901 C3.40404469,1.14639258 3.40709009,1.14691095 3.40909876,1.14691095 Z"></path>
                        <path d="M2.85865887,2.81864128 L2.85865887,2.81864128 C2.74254489,2.82725912 2.62610693,2.83438665 2.50999294,2.83898715 C2.47442008,2.72358592 2.43884721,2.60818469 2.40327435,2.49284826 C2.40074731,2.48423042 2.38448358,2.48474879 2.38091981,2.49336662 C2.34560613,2.61077652 2.31003326,2.72766805 2.27465478,2.84455958 C2.1585408,2.84559632 2.04210284,2.84455958 1.92598886,2.84099582 L1.92598886,2.84099582 C1.92138836,2.84099582 1.91678786,2.84300449 1.91529756,2.84760498 C1.91426082,2.85220548 1.91529756,2.85777792 1.91937969,2.86030495 C2.0136575,2.93501445 2.10767614,3.00823365 2.20195395,3.07989775 C2.16560354,3.19627091 2.1295123,3.31270887 2.09316189,3.4281101 C2.0914124,3.43264581 2.09368025,3.43776467 2.09828075,3.44132844 C2.09977106,3.44281874 2.10184452,3.4433371 2.10437155,3.4433371 C2.10696338,3.4433371 2.10949042,3.44281874 2.11104552,3.44074527 C2.20480496,3.36959954 2.29837003,3.29689871 2.39212948,3.22270758 C2.48588893,3.29236301 2.57990756,3.36046334 2.6737318,3.42707337 C2.67574047,3.42856367 2.67781394,3.4296004 2.68034097,3.4296004 C2.68085934,3.4296004 2.68085934,3.42908204 2.6813777,3.42908204 C2.6874685,3.42908204 2.69252257,3.42299124 2.69252257,3.41690044 C2.69252257,3.41489177 2.69148584,3.41184637 2.69103227,3.41029127 C2.65468185,3.29741708 2.61859062,3.18408931 2.58224021,3.07076154 C2.67651802,2.99501531 2.77105502,2.91726041 2.86533283,2.83846878 C2.86941497,2.83542338 2.87090527,2.82985095 2.86941497,2.82525045 C2.86727671,2.82116832 2.86371294,2.81812292 2.85865887,2.81864128 Z"></path>
                        <path d="M4.32096934,2.61382192 L4.32096934,2.61382192 C4.20459618,2.63721319 4.08815822,2.65956772 3.97178505,2.67991358 C3.93621218,2.56956642 3.90063932,2.45876569 3.86506645,2.34796496 C3.86202105,2.33986549 3.84627568,2.34239253 3.84323028,2.35152873 C3.80765742,2.47405749 3.77208455,2.59600309 3.73651168,2.71853185 C3.6203977,2.73583232 3.50395974,2.75209605 3.38784576,2.76628632 L3.38784576,2.76628632 C3.38324526,2.76680468 3.37922792,2.76985008 3.37663609,2.77496895 C3.37559936,2.77950465 3.37663609,2.78514188 3.38123659,2.78715055 C3.47551441,2.84715141 3.5700514,2.90605075 3.66432922,2.96404295 C3.6279788,3.08553498 3.591434,3.20702701 3.55501879,3.32851904 C3.55352849,3.33311953 3.55501879,3.3381736 3.55961929,3.34070064 C3.56162796,3.34173737 3.56370142,3.34173737 3.56622846,3.34173737 C3.56875549,3.341219 3.57076416,3.34024707 3.57335599,3.3381736 C3.66711544,3.25329117 3.7606805,3.16685364 3.85443995,3.07996254 C3.9481994,3.13639964 4.04176446,3.1918 4.13552391,3.24616364 C4.13753258,3.24765394 4.13960604,3.24817231 4.14265144,3.24765394 C4.14926061,3.24512691 4.15431468,3.24007284 4.15431468,3.23346367 C4.15457386,3.23139021 4.15379631,3.22886317 4.15230601,3.22737287 C4.11647396,3.11909917 4.08038273,3.01030711 4.04455068,2.90203341 C4.13882849,2.81306885 4.23284713,2.72365072 4.32718974,2.63313105 C4.33127187,2.62956729 4.33276217,2.62399485 4.33127187,2.61945915 C4.32958718,2.61531222 4.32505148,2.61330355 4.32096934,2.61382192 Z"></path>
                    </g>
                </g>
            </g>
        </g>
    </g>
</svg>