<?xml version="1.0" encoding="UTF-8"?>
<svg width="20px" height="15px" viewBox="0 0 20 15" version="1.1" xmlns="http://www.w3.org/2000/svg" xmlns:xlink="http://www.w3.org/1999/xlink">
    <title>flag-usa</title>
    <g id="HOSTING" stroke="none" stroke-width="1" fill="none" fill-rule="evenodd">
        <g id="Desktop-HD" transform="translate(-755.000000, -908.000000)" fill-rule="nonzero">
            <g id="flag-usa" transform="translate(755.574192, 908.795566)">
                <path d="M1.07249145e-15,9.4136286 C1.07249145e-15,9.73546341 1.07249145e-15,10.0572604 1.07249145e-15,10.3790952 C6.28917603,12.8892477 12.578314,7.86898047 18.8674521,10.3790952 C18.8674521,10.0572604 18.8674521,9.73546341 18.8674521,9.4136286 C12.578314,6.90347605 6.28917603,11.9237811 1.07249145e-15,9.4136286 Z" id="path3" fill="#FFFFFF"></path>
                <path d="M1.07249145e-15,1.69000951 C1.07249145e-15,2.01184432 1.07249145e-15,2.33367913 1.07249145e-15,2.65551394 C6.28917603,5.16566649 12.578314,0.145399231 18.8674521,2.65551394 C18.8674521,2.33367913 18.8674521,2.01184432 18.8674521,1.69000951 C12.578314,-0.820143037 6.28917603,4.20016206 1.07249145e-15,1.69000951 L1.07249145e-15,1.69000951 Z" id="path5" fill="#FFFFFF"></path>
                <path d="M1.07249145e-15,7.48277113 C1.07249145e-15,7.8045681 1.07249145e-15,8.12636506 1.07249145e-15,8.44816202 C6.28917603,10.9583146 12.578314,5.93800947 18.8674521,8.44816202 C18.8674521,8.12636506 18.8674521,7.8045681 18.8674521,7.48277113 C12.578314,4.97261858 6.28917603,9.99292368 1.07249145e-15,7.48277113 Z" id="path7" fill="#FFFFFF"></path>
                <path d="M1.07249145e-15,11.3445239 C1.07249145e-15,11.6663209 1.07249145e-15,11.9881557 1.07249145e-15,12.3099526 C6.28917603,14.8201052 12.578314,9.79980009 18.8674521,12.3099526 C18.8674521,11.9881557 18.8674521,11.6663209 18.8674521,11.3445239 C12.578314,8.83437136 6.28917603,13.8547143 1.07249145e-15,11.3445239 Z" id="path9" fill="#FFFFFF"></path>
                <path d="M1.07249145e-15,3.62098051 C1.07249145e-15,3.94277748 1.07249145e-15,4.26457444 1.07249145e-15,4.5863714 C6.28917603,7.09652395 12.578314,2.07621885 18.8674521,4.5863714 C18.8674521,4.26457444 18.8674521,3.94277748 18.8674521,3.62098051 C12.578314,1.11082796 6.28917603,6.13113306 1.07249145e-15,3.62098051 Z" id="path11" fill="#FFFFFF"></path>
                <path d="M1.07249145e-15,5.55187582 C1.07249145e-15,5.87367279 1.07249145e-15,6.19546975 1.07249145e-15,6.51726671 C6.28917603,9.02741926 12.578314,4.00715201 18.8674521,6.51726671 C18.8674521,6.19546975 18.8674521,5.87367279 18.8674521,5.55187582 C12.578314,3.04172327 6.28917603,8.06202837 1.07249145e-15,5.55187582 Z" id="path13" fill="#FFFFFF"></path>
                <g id="g15" transform="translate(0.000000, 0.000000)" fill="#B22234">
                    <path d="M-6.72264184e-17,0.724618625 C6.28917592,3.23477118 12.578314,-1.78553392 18.8674521,0.724618625 C18.8674521,1.04641559 18.8674521,1.36821255 18.8674521,1.69000951 C12.5782761,-0.820143037 6.28913807,4.20016206 -6.72264184e-17,1.69000951 C-6.72264184e-17,1.36821255 -6.72264184e-17,1.04641559 -6.72264184e-17,0.724618625 Z" id="stripe_21_"></path>
                </g>
                <g id="g18" transform="translate(0.000000, 1.930910)" fill="#B22234">
                    <path d="M-6.72264184e-17,0.724603701 C6.28917592,3.23475625 12.578314,-1.785511 18.8674521,0.724603701 C18.8674521,1.04647635 18.8674521,1.36827332 18.8674521,1.69010812 C12.5782761,-0.820044426 6.28913807,4.20026067 -6.72264184e-17,1.69010812 C-6.72264184e-17,1.36823547 -6.72264184e-17,1.04647635 -6.72264184e-17,0.724603701 Z" id="stripe_13_"></path>
                </g>
                <g id="g21" transform="translate(0.000000, 3.861753)" fill="#B22234">
                    <path d="M-6.72264184e-17,0.724618625 C6.28917592,3.23477118 12.578314,-1.78553392 18.8674521,0.724618625 C18.8674521,1.04645343 18.8674521,1.36828824 18.8674521,1.69012305 C12.5782761,-0.820029502 6.28913807,4.2002756 -6.72264184e-17,1.69012305 C-6.72264184e-17,1.36828824 -6.72264184e-17,1.04645343 -6.72264184e-17,0.724618625 Z" id="stripe_12_"></path>
                </g>
                <g id="g24" transform="translate(0.000000, 5.792663)" fill="#B22234">
                    <path d="M-6.72264184e-17,0.724603701 C6.28917592,3.23475625 12.578314,-1.785511 18.8674521,0.724603701 C18.8674521,1.04643851 18.8674521,1.36831116 18.8674521,1.69014597 C12.5782761,-0.82000658 6.28913807,4.20029852 -6.72264184e-17,1.69014597 C-6.72264184e-17,1.36827332 -6.72264184e-17,1.04643851 -6.72264184e-17,0.724603701 Z" id="stripe_11_"></path>
                </g>
                <g id="g27" transform="translate(0.000000, 7.723543)" fill="#B22234">
                    <path d="M-6.72264184e-17,0.724618625 C6.28917592,3.23477118 12.578314,-1.78553392 18.8674521,0.724618625 C18.8674521,1.04645343 18.8674521,1.3682504 18.8674521,1.6900852 C12.5782761,-0.820067347 6.28913807,4.20023775 -6.72264184e-17,1.6900852 C-6.72264184e-17,1.3682504 -6.72264184e-17,1.04645343 -6.72264184e-17,0.724618625 Z" id="stripe_10_"></path>
                </g>
                <g id="g30" transform="translate(0.000000, 9.654491)" fill="#B22234">
                    <path d="M-6.72264184e-17,0.724603701 C6.28917592,3.23475625 12.578314,-1.785511 18.8674521,0.724603701 C18.8674521,1.04640066 18.8674521,1.36827332 18.8674521,1.69007028 C12.5782761,-0.820082271 6.28913807,4.20022283 -6.72264184e-17,1.69007028 C-6.72264184e-17,1.36823547 -6.72264184e-17,1.04640066 -6.72264184e-17,0.724603701 Z" id="stripe_9_"></path>
                </g>
                <g id="g33" transform="translate(0.000000, 11.585334)" fill="#B22234">
                    <path d="M-6.72264184e-17,0.724618625 C6.28917592,3.23477118 12.578314,-1.78553392 18.8674521,0.724618625 C18.8674521,1.04641559 18.8674521,1.3682504 18.8674521,1.69004736 C12.5782761,-0.820105192 6.28913807,4.20019991 -6.72264184e-17,1.69004736 C-6.72264184e-17,1.3682504 -6.72264184e-17,1.04641559 -6.72264184e-17,0.724618625 Z" id="stripe_8_"></path>
                </g>
                <path d="M1.07249145e-15,0.724618625 C3.17951899,1.99364082 6.35900026,1.33797431 9.5385571,0.70369028 C9.5385571,2.95634471 9.5385571,5.20911267 9.5385571,7.4617671 C6.35900026,8.09608897 3.17948115,8.75171764 1.07249145e-15,7.48273329 C1.07249145e-15,5.23004102 1.07249145e-15,2.97738659 1.07249145e-15,0.724618625 Z" id="path36" fill="#3C3B6E"></path>
                <g id="g38" transform="translate(0.446005, 1.146629)" fill="#FFFFFF">
                    <g id="e_14_" transform="translate(0.000000, -0.000000)">
                        <g id="t_53_" transform="translate(0.000000, 0.142146)">
                            <path d="M0.131322529,0.622211438 C0.208564396,0.415842059 0.285844109,0.208375171 0.363085977,0 C0.440327844,0.25488681 0.517531867,0.508789646 0.594735889,0.761746356 C0.396503208,0.565708691 0.198232681,0.363123822 1.34452837e-16,0.153348382 C0.243344051,0.237023918 0.486612413,0.309951443 0.729918619,0.373001395" id="s_149_"></path>
                            <g id="g43" transform="translate(1.583364, 0.339736)">
                                <path d="M0.179871409,0.914078025 C0.285699471,0.610500994 0.391579384,0.305878046 0.497407446,7.43167802e-16 C0.603235508,0.334483841 0.709063569,0.66786947 0.81483978,1 C0.543243804,0.773559251 0.271544125,0.539587909 0,0.297563016 C0.333350617,0.35446083 0.666649383,0.399069135 1,0.432799916" id="s_148_"></path>
                            </g>
                        </g>
                        <g id="f_26_" transform="translate(3.166727, 0.289780)">
                            <g id="t_52_" transform="translate(0.000000, 0.215181)">
                                <path d="M0.131284683,0.999462969 C0.208526551,0.702338525 0.285768419,0.404432944 0.363010286,0.105502124 C0.440252154,0.404530586 0.517494022,0.702582629 0.594735889,1 C0.396503208,0.821364058 0.198194836,0.637357809 5.37811347e-16,0.447493043 C0.243306206,0.456427281 0.486536722,0.45637846 0.729880774,0.448518283" id="s_147_"></path>
                                <g id="g49" transform="translate(1.583326, 0.000000)">
                                    <path d="M0.179819558,1 C0.28564762,0.66728281 0.391475682,0.334037497 0.497303744,0 C0.603131805,0.312701347 0.709011718,0.624768946 0.81483978,0.936308424 C0.543243804,0.769263269 0.271544125,0.598151571 0,0.422339583 C0.333350617,0.395616583 0.666597532,0.361816741 1,0.32215474" id="s_146_"></path>
                                </g>
                            </g>
                            <g id="g52" transform="translate(3.166614, 0.000000)">
                                <path d="M0.179871409,1 C0.285699471,0.66711451 0.391527533,0.333712278 0.497303744,0 C0.603131805,0.299038859 0.708959867,0.597715998 0.814787929,0.896134766 C0.543191953,0.749069864 0.271595976,0.599834642 0,0.447602315 C0.333350617,0.397013229 0.666597532,0.342186854 1,0.284156676" id="s_145_"></path>
                            </g>
                        </g>
                        <g id="g55" transform="translate(7.916705, 0.000000)">
                            <path d="M0.179880736,1 C0.285714286,0.666802985 0.391495981,0.333452612 0.497277677,7.26452035e-16 C0.603111226,0.292556998 0.708944776,0.584858399 0.814778325,0.877210919 C0.543168265,0.738983744 0.271558206,0.600194254 -1.47377285e-15,0.460382374 C0.333316049,0.397352009 0.666632097,0.332532461 1,0.267252837" id="s_144_"></path>
                        </g>
                    </g>
                    <g id="g58" transform="translate(0.000000, 0.827029)">
                        <g id="d_11_" transform="translate(0.791682, 0.000000)">
                            <g id="t_51_" transform="translate(-0.000000, 0.193767)">
                                <path d="M0.131284683,0.697401371 C0.208526551,0.465905825 0.285806264,0.233425017 0.363048131,1.16678474e-15 C0.440289999,0.269222875 0.517494022,0.537419434 0.594698044,0.804630732 C0.396465363,0.610451989 0.198194836,0.409581674 0,0.201691367 C0.243306206,0.268278665 0.486536722,0.32419229 0.729842929,0.370540663" id="s_143_"></path>
                                <g id="g63" transform="translate(1.583326, 0.232481)">
                                    <path d="M0.17993259,0.95860077 C0.285766139,0.640136928 0.391599689,0.32054985 0.497433238,1.52020269e-15 C0.603266788,0.334403081 0.709100337,0.667629439 0.814882033,1 C0.543271973,0.787494651 0.271558206,0.568356868 0,0.341623877 C0.333367903,0.374144202 0.666632097,0.395539153 1,0.406985451" id="s_142_"></path>
                                </g>
                            </g>
                            <g id="f_25_" transform="translate(3.166727, 0.000000)">
                                <g id="t_50_" transform="translate(0.000000, 0.257763)">
                                    <path d="M0.131246838,1 C0.208488706,0.727008585 0.285730574,0.453356813 0.362972441,0.179044684 C0.440214309,0.443847678 0.517456176,0.707990315 0.594660199,0.971472595 C0.396427518,0.822276029 0.198156991,0.668985252 0,0.511027955 C0.243268361,0.502751486 0.486536722,0.487431213 0.729842929,0.466123707" id="s_141_"></path>
                                    <g id="g69" transform="translate(1.583288, 0.000000)">
                                        <path d="M0.179828883,1 C0.285662432,0.667153513 0.391495981,0.333837567 0.497277677,0 C0.603111226,0.305044077 0.708944776,0.609514371 0.814778325,0.913463043 C0.543168265,0.757915602 0.271506352,0.599186271 -1.47377285e-15,0.436649105 C0.333316049,0.396484273 0.666632097,0.350790256 1,0.300505973" id="s_140_"></path>
                                    </g>
                                </g>
                                <g id="g72" transform="translate(3.166614, 0.000000)">
                                    <path d="M0.179828883,1 C0.285662432,0.66694041 0.391495981,0.333624185 0.497329531,0 C0.60316308,0.294975107 0.708944776,0.589693579 0.814778325,0.884206744 C0.543168265,0.74290407 0.271558206,0.600318226 -1.47377285e-15,0.455576657 C0.333316049,0.397423395 0.666580244,0.336293179 1,0.273263871" id="s_139_"></path>
                                </g>
                            </g>
                        </g>
                        <g id="g75" transform="translate(0.000000, 0.524609)">
                            <g id="e_13_">
                                <g id="t_49_" transform="translate(0.000000, 0.142146)">
                                    <path d="M0.131322529,0.622211438 C0.208564396,0.415879904 0.285844109,0.208375171 0.363085977,1.07562269e-15 C0.440327844,0.25488681 0.517531867,0.508827492 0.594735889,0.761746356 C0.396503208,0.565746536 0.198232681,0.363085977 1.34452837e-16,0.153310537 C0.243344051,0.236986073 0.486612413,0.309913598 0.729918619,0.37296355" id="s_138_"></path>
                                    <g id="g80" transform="translate(1.583364, 0.339736)">
                                        <path d="M0.179871409,0.914078025 C0.285699471,0.610500994 0.391579384,0.305878046 0.497407446,0 C0.603235508,0.334483841 0.709063569,0.66786947 0.81483978,1 C0.543243804,0.773506955 0.271544125,0.539587909 0,0.297510721 C0.333350617,0.354408535 0.666649383,0.399016839 1,0.432747621" id="s_137_"></path>
                                    </g>
                                </g>
                                <g id="f_24_" transform="translate(3.166727, 0.289742)">
                                    <g id="t_48_" transform="translate(0.000000, 0.215181)">
                                        <path d="M0.131284683,0.99951179 C0.208526551,0.702387346 0.285768419,0.404432944 0.363010286,0.105502124 C0.440252154,0.404530586 0.517494022,0.70263145 0.594735889,1 C0.396503208,0.821364058 0.198194836,0.637357809 5.37811347e-16,0.447444222 C0.243306206,0.456427281 0.486536722,0.45637846 0.729880774,0.448469462" id="s_136_"></path>
                                        <g id="g86" transform="translate(1.583326, 0.000000)">
                                            <path d="M0.179819558,1 C0.28564762,0.66728281 0.391475682,0.334037497 0.497303744,0 C0.603131805,0.312701347 0.709011718,0.624768946 0.81483978,0.936308424 C0.543243804,0.769210457 0.271544125,0.598098759 0,0.422286771 C0.333350617,0.395563771 0.666597532,0.361763929 1,0.32215474" id="s_135_"></path>
                                        </g>
                                    </g>
                                    <g id="g89" transform="translate(3.166614, 0.000000)">
                                        <path d="M0.179871409,1 C0.285699471,0.66711451 0.391527533,0.333712278 0.497303744,0 C0.603131805,0.299038859 0.708959867,0.597715998 0.814787929,0.896134766 C0.543191953,0.749018189 0.271595976,0.599834642 0,0.447550641 C0.333350617,0.396961554 0.666597532,0.34213518 1,0.284105002" id="s_134_"></path>
                                    </g>
                                </g>
                                <g id="g92" transform="translate(7.916705, 0.000000)">
                                    <path d="M0.179880736,1 C0.285714286,0.666802985 0.391495981,0.333452612 0.497277677,0 C0.603111226,0.292556998 0.708944776,0.584858399 0.814778325,0.877262039 C0.543168265,0.738983744 0.271558206,0.600143135 -1.47377285e-15,0.460331254 C0.333316049,0.397300889 0.666632097,0.332481341 1,0.267201718" id="s_133_"></path>
                                </g>
                            </g>
                            <g id="q_5_" transform="translate(0.791682, 0.827067)">
                                <g id="t_47_" transform="translate(-0.000000, 0.193767)">
                                    <path d="M0.131284683,0.697376524 C0.208526551,0.465903026 0.285806264,0.23348524 0.363048131,-1.16688054e-15 C0.440289999,0.269244981 0.517494022,0.537422507 0.594698044,0.80461469 C0.396465363,0.610420002 0.198194836,0.409533194 0,0.201666872 C0.243306206,0.268259638 0.486536722,0.32421891 0.729842929,0.370530032" id="s_132_"></path>
                                    <g id="g98" transform="translate(1.583326, 0.232500)">
                                        <path d="M0.17993259,0.958596341 C0.285766139,0.64015192 0.391599689,0.320584145 0.497433238,0 C0.603266788,0.334385364 0.709100337,0.667700867 0.814882033,1 C0.543271973,0.787471916 0.271558206,0.568310688 0,0.341606933 C0.333367903,0.374130737 0.666632097,0.395527977 1,0.407028993" id="s_131_"></path>
                                    </g>
                                </g>
                                <g id="f_23_" transform="translate(3.166727, 0.000000)">
                                    <g id="t_46_" transform="translate(0.000000, 0.257801)">
                                        <path d="M0.131246838,1 C0.208488706,0.727016555 0.285730574,0.453328637 0.362972441,0.179024304 C0.440214309,0.443862275 0.517456176,0.707995773 0.594660199,0.971468827 C0.396427518,0.822252554 0.198156991,0.668985558 0,0.511007397 C0.243268361,0.502729834 0.486536722,0.487407538 0.729842929,0.466097217" id="s_130_"></path>
                                        <g id="g104" transform="translate(1.583288, 0.000000)">
                                            <path d="M0.179828883,1 C0.285662432,0.66720576 0.391495981,0.333785476 0.497277677,0 C0.603111226,0.304987479 0.708944776,0.609453255 0.814778325,0.913449499 C0.543168265,0.757877713 0.271506352,0.59917571 -1.47377285e-15,0.436665275 C0.333316049,0.396441987 0.666632097,0.350740818 1,0.300448664" id="s_129_"></path>
                                        </g>
                                    </g>
                                    <g id="g107" transform="translate(3.166614, 0.000000)">
                                        <path d="M0.179828883,1 C0.285662432,0.666957548 0.391495981,0.333607104 0.497329531,0 C0.60316308,0.294954058 0.708944776,0.589651455 0.814778325,0.884246189 C0.543168265,0.74298034 0.271558206,0.600328525 -1.47377285e-15,0.455572096 C0.333316049,0.397412864 0.666580244,0.336276372 1,0.273240593" id="s_128_"></path>
                                    </g>
                                </g>
                            </g>
                            <g id="g110" transform="translate(0.000000, 1.351638)">
                                <g id="e_12_" transform="translate(0.000000, 0.000000)">
                                    <g id="t_45_" transform="translate(0.000000, 0.142108)">
                                        <path d="M0.131322529,0.622173593 C0.208564396,0.415842059 0.285844109,0.208375171 0.363085977,-1.07562269e-15 C0.440327844,0.25488681 0.517531867,0.508789646 0.594735889,0.761670665 C0.396503208,0.565708691 0.198232681,0.363085977 1.34452837e-16,0.153348382 C0.243344051,0.237023918 0.486612413,0.309989288 0.729918619,0.37303924" id="s_127_"></path>
                                        <g id="g115" transform="translate(1.583364, 0.339660)">
                                            <path d="M0.179871409,0.91417364 C0.285699471,0.610669456 0.391579384,0.305962343 0.497407446,0 C0.603235508,0.334518828 0.709063569,0.667887029 0.81483978,1 C0.543243804,0.773535565 0.271544125,0.539644351 0,0.297594142 C0.333350617,0.354497908 0.666649383,0.39916318 1,0.432845188" id="s_126_"></path>
                                        </g>
                                    </g>
                                    <g id="f_22_" transform="translate(3.166727, 0.289780)">
                                        <g id="t_44_" transform="translate(0.000000, 0.215167)">
                                            <path d="M0.131284683,0.999511743 C0.208526551,0.702407109 0.285768419,0.404423612 0.363010286,0.105512426 C0.440252154,0.404521264 0.517494022,0.702651238 0.594735889,1 C0.396503208,0.82139544 0.198194836,0.637420048 5.37811347e-16,0.447536741 C0.243306206,0.456520678 0.486536722,0.456471852 0.729880774,0.448562082" id="s_125_"></path>
                                            <g id="g121" transform="translate(1.583326, 0.000000)">
                                                <path d="M0.179819558,1 C0.28564762,0.667353298 0.391475682,0.334072783 0.497303744,0 C0.603131805,0.312787197 0.709011718,0.624782126 0.81483978,0.936301695 C0.543243804,0.769238895 0.271544125,0.598161939 0,0.422384197 C0.333350617,0.395605556 0.666597532,0.361854962 1,0.322241589" id="s_124_"></path>
                                            </g>
                                        </g>
                                        <g id="g124" transform="translate(3.166614, 0.000000)">
                                            <path d="M0.179871409,1 C0.285699471,0.66711458 0.391527533,0.333712337 0.497303744,0 C0.603131805,0.299085224 0.708959867,0.597705308 0.814787929,0.896118662 C0.543191953,0.749030958 0.271595976,0.599875963 0,0.447671714 C0.333350617,0.397074784 0.666597532,0.342239909 1,0.284200734" id="s_123_"></path>
                                        </g>
                                    </g>
                                    <g id="g127" transform="translate(7.916705, 0.000000)">
                                        <path d="M0.179880736,1 C0.285714286,0.666768916 0.391495981,0.333486708 0.497277677,0 C0.603111226,0.292535787 0.708944776,0.584867076 0.814778325,0.877249489 C0.543168265,0.73900818 0.271558206,0.600255624 -1.47377285e-15,0.460429448 C0.333316049,0.397392638 0.666632097,0.332566462 1,0.267280164" id="s_122_"></path>
                                    </g>
                                </g>
                                <g id="g130" transform="translate(0.000000, 0.827029)">
                                    <g id="d_9_" transform="translate(0.791682, -0.000000)">
                                        <g id="t_43_" transform="translate(-0.000000, 0.193767)">
                                            <path d="M0.131284683,0.697347894 C0.208526551,0.465924953 0.285806264,0.233475655 0.363048131,0 C0.440289999,0.269274982 0.517494022,0.537400443 0.594698044,0.804622711 C0.396465363,0.610353888 0.198194836,0.409516381 0,0.201617538 C0.243306206,0.26820757 0.486536722,0.324164546 0.729842929,0.370473766" id="s_121_"></path>
                                            <g id="g135" transform="translate(1.583326, 0.232531)">
                                                <path d="M0.17993259,0.958596341 C0.285766139,0.64015192 0.391599689,0.320584145 0.497433238,0 C0.603266788,0.334385364 0.709100337,0.667700867 0.814882033,1 C0.543271973,0.787418423 0.271558206,0.568257195 0,0.341499947 C0.333367903,0.374023751 0.666632097,0.395474484 1,0.406922007" id="s_120_"></path>
                                            </g>
                                        </g>
                                        <g id="f_21_" transform="translate(3.166727, 0.000000)">
                                            <g id="t_42_" transform="translate(0.000000, 0.257801)">
                                                <path d="M0.131246838,1 C0.208488706,0.727016555 0.285730574,0.453328637 0.362972441,0.179024304 C0.440214309,0.443862275 0.517456176,0.707995773 0.594660199,0.971468827 C0.396427518,0.822208524 0.198156991,0.668897499 0,0.510919338 C0.243268361,0.502641775 0.486536722,0.487319479 0.729842929,0.466009158" id="s_119_"></path>
                                                <g id="g141" transform="translate(1.583288, 0.000000)">
                                                    <path d="M0.179828883,1 C0.285662432,0.66720576 0.391495981,0.333785476 0.497277677,0 C0.603111226,0.304987479 0.708944776,0.609453255 0.814778325,0.913449499 C0.543168265,0.757825543 0.271506352,0.599071369 -1.47377285e-15,0.436560935 C0.333316049,0.396337646 0.666632097,0.350636477 1,0.300344324" id="s_118_"></path>
                                                </g>
                                            </g>
                                            <g id="g144" transform="translate(3.166614, 0.000000)">
                                                <path d="M0.179828883,1 C0.285662432,0.666957548 0.391495981,0.333607104 0.497329531,0 C0.60316308,0.294954058 0.708944776,0.589651455 0.814778325,0.884246189 C0.543168265,0.742929008 0.271558206,0.600225861 -1.47377285e-15,0.455469432 C0.333316049,0.3973102 0.666580244,0.336173708 1,0.273137929" id="s_117_"></path>
                                            </g>
                                        </g>
                                    </g>
                                    <g id="g147" transform="translate(0.000000, 0.524609)">
                                        <g id="e_11_">
                                            <g id="t_41_" transform="translate(0.000000, 0.142108)">
                                                <path d="M0.131322529,0.622173593 C0.208564396,0.415842059 0.285844109,0.208375171 0.363085977,0 C0.440327844,0.25488681 0.517531867,0.508789646 0.594735889,0.761670665 C0.396503208,0.565670845 0.198232681,0.363048131 1.34452837e-16,0.153272692 C0.243344051,0.236948228 0.486612413,0.309913598 0.729918619,0.37296355" id="s_116_"></path>
                                                <g id="g152" transform="translate(1.583364, 0.339698)">
                                                    <path d="M0.179871409,0.914169151 C0.285699471,0.610649093 0.391579384,0.305926042 0.497407446,0 C0.603235508,0.334536325 0.709063569,0.667869658 0.81483978,1 C0.543243804,0.773576024 0.271544125,0.539515665 0,0.297452796 C0.333350617,0.354359538 0.666649383,0.399027146 1,0.432710916" id="s_115_"></path>
                                                </g>
                                            </g>
                                            <g id="f_20_" transform="translate(3.166727, 0.289780)">
                                                <g id="t_40_" transform="translate(0.000000, 0.215175)">
                                                    <path d="M0.131284683,0.999511719 C0.208526551,0.702392578 0.285768419,0.404394531 0.363010286,0.10546875 C0.440252154,0.404492187 0.517494022,0.702636719 0.594735889,1 C0.396503208,0.821386719 0.198194836,0.637353516 5.37811347e-16,0.447412109 C0.243306206,0.456396484 0.486536722,0.456347656 0.729880774,0.4484375" id="s_114_"></path>
                                                    <g id="g158" transform="translate(1.583326, 0.000000)">
                                                        <path d="M0.179819558,1 C0.28564762,0.667335728 0.391475682,0.334037608 0.497303744,1.50125235e-15 C0.603131805,0.312750898 0.709011718,0.624762307 0.81483978,0.936298331 C0.543243804,0.769226706 0.271544125,0.598087894 0,0.422248046 C0.333350617,0.395520811 0.666597532,0.361715614 1,0.322100148" id="s_113_"></path>
                                                    </g>
                                                </g>
                                                <g id="g161" transform="translate(3.166614, 0.000000)">
                                                    <path d="M0.179871409,1 C0.285699471,0.667166262 0.391527533,0.333712337 0.497303744,0 C0.603131805,0.299085224 0.708959867,0.597705308 0.814787929,0.896118662 C0.543191953,0.749030958 0.271595976,0.599772598 0,0.44756835 C0.333350617,0.39697142 0.666597532,0.342136545 1,0.284097369" id="s_112_"></path>
                                                </g>
                                            </g>
                                            <g id="g164" transform="translate(7.916705, 0.000000)">
                                                <path d="M0.179880736,1 C0.285714286,0.666768916 0.391495981,0.333537832 0.497277677,0 C0.603111226,0.292535787 0.708944776,0.5849182 0.814778325,0.877249489 C0.543168265,0.73900818 0.271558206,0.600204499 -1.47377285e-15,0.460327198 C0.333316049,0.397341513 0.666632097,0.332464213 1,0.267177914" id="s_111_"></path>
                                            </g>
                                        </g>
                                        <g id="q_4_" transform="translate(0.791682, 0.827029)">
                                            <g id="t_39_" transform="translate(-0.000000, 0.193767)">
                                                <path d="M0.131284683,0.697347894 C0.208526551,0.465924953 0.285806264,0.233475655 0.363048131,0 C0.440289999,0.269274982 0.517494022,0.537441498 0.594698044,0.804622711 C0.396465363,0.610353888 0.198194836,0.409557435 0,0.201617538 C0.243306206,0.26820757 0.486536722,0.324164546 0.729842929,0.370473766" id="s_110_"></path>
                                                <g id="g170" transform="translate(1.583326, 0.232531)">
                                                    <path d="M0.17993259,0.958596341 C0.285766139,0.64015192 0.391599689,0.320584145 0.497433238,0 C0.603266788,0.334385364 0.709100337,0.667700867 0.814882033,1 C0.543271973,0.787525409 0.271558206,0.568310688 0,0.341606933 C0.333367903,0.374077244 0.666632097,0.395527977 1,0.4069755" id="s_109_"></path>
                                                </g>
                                            </g>
                                            <g id="f_19_" transform="translate(3.166727, 0.000000)">
                                                <g id="t_38_" transform="translate(0.000000, 0.257801)">
                                                    <path d="M0.131246838,1 C0.208488706,0.727016555 0.285730574,0.453328637 0.362972441,0.179024304 C0.440214309,0.443818246 0.517456176,0.707951744 0.594660199,0.971424797 C0.396427518,0.822208524 0.198156991,0.668941529 0,0.510919338 C0.243268361,0.502641775 0.486536722,0.487363508 0.729842929,0.466009158" id="s_108_"></path>
                                                    <g id="g176" transform="translate(1.583288, 0.000000)">
                                                        <path d="M0.179828883,1 C0.285662432,0.66720576 0.391495981,0.333837646 0.497277677,0 C0.603111226,0.305039649 0.708944776,0.609453255 0.814778325,0.913449499 C0.543168265,0.757929883 0.271506352,0.59917571 -1.47377285e-15,0.436560935 C0.333316049,0.396389816 0.666632097,0.350688648 1,0.300396494" id="s_107_"></path>
                                                    </g>
                                                </g>
                                                <g id="g179" transform="translate(3.166614, 0.000000)">
                                                    <path d="M0.179828883,1 C0.285662432,0.666957548 0.391495981,0.333607104 0.497329531,0 C0.60316308,0.294954058 0.708944776,0.589651455 0.814778325,0.884246189 C0.543168265,0.742929008 0.271558206,0.600277193 -1.47377285e-15,0.455520764 C0.333316049,0.397361532 0.666580244,0.336276372 1,0.273189261" id="s_106_"></path>
                                                </g>
                                            </g>
                                        </g>
                                        <g id="g182" transform="translate(0.000000, 1.351562)">
                                            <g id="t_37_" transform="translate(0.000000, 0.142071)">
                                                <path d="M0.131322529,0.622287129 C0.208564396,0.415917749 0.285844109,0.208413016 0.363085977,0 C0.440327844,0.254924655 0.517531867,0.508865337 0.594735889,0.761784201 C0.396503208,0.565784381 0.198232681,0.363199512 1.34452837e-16,0.153386227 C0.243344051,0.237099608 0.486612413,0.310027134 0.729918619,0.37311493" id="s_105_"></path>
                                                <g id="g186" transform="translate(1.583364, 0.339811)">
                                                    <path d="M0.179871409,0.914030225 C0.285699471,0.610521362 0.391579384,0.305809758 0.497407446,0 C0.603235508,0.334466349 0.709063569,0.667834545 0.81483978,1 C0.543243804,0.773571092 0.271544125,0.539559693 0,0.297547456 C0.333350617,0.354442295 0.666649383,0.39910056 1,0.432777284" id="s_104_"></path>
                                                </g>
                                            </g>
                                            <g id="f_18_" transform="translate(3.166727, 0.289780)">
                                                <g id="t_36_" transform="translate(0.000000, 0.215151)">
                                                    <path d="M0.131284683,0.99951179 C0.208526551,0.702387346 0.285768419,0.404432944 0.363010286,0.105453303 C0.440252154,0.404481765 0.517494022,0.70263145 0.594735889,1 C0.396503208,0.821364058 0.198194836,0.63740663 5.37811347e-16,0.447541864 C0.243306206,0.456476102 0.486536722,0.456427281 0.729880774,0.448518283" id="s_103_"></path>
                                                    <g id="g192" transform="translate(1.583326, 0.000000)">
                                                        <path d="M0.179819558,1 C0.28564762,0.667335622 0.391475682,0.334037497 0.497303744,0 C0.603131805,0.312754159 0.709011718,0.624821759 0.81483978,0.936308424 C0.543243804,0.769210457 0.271544125,0.598098759 0,0.422339583 C0.333350617,0.395510959 0.666597532,0.361816741 1,0.32215474" id="s_102_"></path>
                                                    </g>
                                                </g>
                                                <g id="g195" transform="translate(3.166614, 0.000000)">
                                                    <path d="M0.179871409,1 C0.285699471,0.667166184 0.391527533,0.333712278 0.497303744,-1.46867039e-15 C0.603131805,0.299090533 0.708959867,0.597767673 0.814787929,0.896186441 C0.543191953,0.749069864 0.271595976,0.599834642 0,0.447653989 C0.333350617,0.397064903 0.666597532,0.342238528 1,0.284208351" id="s_101_"></path>
                                                </g>
                                            </g>
                                            <g id="g198" transform="translate(7.916705, -0.000000)">
                                                <path d="M0.179880736,1 C0.285714286,0.666717784 0.391495981,0.333486684 0.497277677,0 C0.603111226,0.292542044 0.708944776,0.584930737 0.814778325,0.877268313 C0.543168265,0.739048203 0.271558206,0.600265808 -1.47377285e-15,0.460409958 C0.333316049,0.397433931 0.666632097,0.33256658 1,0.26734141" id="s_100_"></path>
                                            </g>
                                        </g>
                                    </g>
                                </g>
                            </g>
                        </g>
                    </g>
                </g>
            </g>
        </g>
    </g>
</svg>