<?xml version="1.0" encoding="UTF-8"?>
<svg width="217px" height="60px" viewBox="0 0 217 60" version="1.1" xmlns="http://www.w3.org/2000/svg" xmlns:xlink="http://www.w3.org/1999/xlink">
    <title>logo-minecraft</title>
    <g id="Game-Images" stroke="none" stroke-width="1" fill="none" fill-rule="evenodd">
        <g id="logo-minecraft">
            <path d="M216.489609,39.669261 L215.823798,37.3800851 L215.199149,35.2873305 C215.199149,35.2873305 213.224825,28.8501966 212.9663,28.0024071 C212.649066,26.9658305 212.336377,25.9278682 212.028244,24.8885501 L211.979138,24.7130707 L216.356014,19.4544652 L214.297922,13 L192.249619,13.020942 L191.575865,14.0933162 L191.313006,13.0223863 L169.115221,13.0454947 L168.570729,14.2637407 L168.356255,13.0440504 L145.984434,13.0693252 L145.590869,14.5309316 L145.441387,13.0693252 L122.840648,13.0909893 L122.624007,15.4812645 L122.55396,13.0909893 L99.8384017,13.1148199 L99.7632994,15.300008 L99.5278825,13.1119313 L77.0058573,13.136484 L76.8549306,14.5453743 L76.4519779,13.1379283 L65.5917516,13.1473161 L64.7251866,19.2053278 L64.2305223,17.9553077 L63.9914948,17.9343657 L62.0929953,13.1509267 L51.3706973,13.1610367 L51.1533339,14.3229559 L50.5886223,13.1617588 L39.9717564,13.1718687 L39.7305625,14.2565193 L39.1051914,13.1718687 L28.5793148,13.1834229 L27.3545695,17.9004253 L24.5028484,17.9033138 L23.9561903,19.9642943 L18.9979941,13.1920886 L8.75447324,13.2029206 L0,40.3957314 L9.30690845,49 L19.4471636,49 L21.0575303,42.9390997 L21.8439381,43.8136083 L24.5570087,43.8136083 L29.073979,48.9978336 L39.4937014,48.994945 L39.6995106,48.0142823 L40.436813,48.9963893 L50.9374147,48.994945 L51.1251705,47.934125 L51.7960363,48.994945 L62.396293,48.9935008 L63.215197,43.3095563 L65.9499318,48.9935008 L76.6917275,48.9913343 L76.8267672,47.6907647 L77.2947123,48.9913343 L99.6390917,48.9891679 L99.7185268,46.9224103 L99.9647757,48.9898901 L122.488245,48.9862794 L122.705609,46.7274332 L122.781433,48.9862794 L133.830859,48.984113 L134.176763,47.3968547 L134.281473,48.984113 L145.196582,48.9819466 L145.659472,47.6185509 L145.795234,48.9819466 L156.591912,48.9819466 L157.147958,47.7680334 L157.308995,48.9819466 L168.003129,48.9819466 L168.64511,47.8741876 L168.825644,48.9812244 L179.426623,48.9768916 L185.554682,40.2404718 L185.261494,38.8409693 L188.657707,38.8388029 L193.4527,32.197304 L197.580438,48.9754473 L207.985718,48.974003 L216.670144,40.3235176 L216.489609,39.669261 Z M111.231565,33.0292065 L111.344219,29.3166974 L121.981305,29.3101982 L122.07446,28.0767873 L122.241996,33.0255958 L111.231565,33.0292065 L111.231565,33.0292065 Z" id="Shape" fill="#020303" fill-rule="nonzero"></path>
            <path d="M19.4659392,19.3598652 L18.0505496,24.2963973 L24.3317018,24.2963973 L25.6510471,19.4212469 L28.5222659,19.4190805 L29.7448447,14.6912461 L38.0227072,14.6825804 L32.187836,39.7667496 L23.2636604,39.7696381 L25.9377357,29.1181096 L22.7162802,29.1144989 L21.3225548,34.303057 L15.5418439,34.3052235 L16.9832304,29.1116104 L13.7184466,29.120276 L10.5706491,39.7732488 L1.81039878,39.7783038 L9.85284442,14.7107438 L17.9776137,14.7028003 L16.6301051,19.2551553 L19.4659392,19.3598652 Z M49.4375351,14.7331301 L44.5053358,39.8245206 L35.5789938,39.8281313 L41.1603948,14.7403514 L49.4375351,14.7331301 Z M61.5095081,31.6874749 L62.248977,26.5003611 L59.0159673,26.4397015 L56.8784402,39.7595282 L47.940544,39.7609725 L52.6228837,14.6688598 L60.9086897,14.6609163 L60.1829415,19.306427 L63.0194977,19.3786408 L62.3471877,24.231405 L65.5368691,24.2761775 L66.8980984,14.6536949 L75.1896815,14.6464736 L72.2845222,39.7537511 L63.3372382,39.7573618 L64.4572735,31.7604108 L61.5095081,31.6874749 Z M97.2473722,34.5767472 L97.0213432,39.7458076 L75.7031212,39.7523068 L78.3569767,14.643585 L98.1197144,14.6233652 L97.9240151,19.0688438 L86.298323,19.0796758 L85.9321993,24.2017973 L97.6994303,24.2335714 L97.4871219,29.0863356 L85.4981947,29.0942791 L85.0952419,34.5305304 L97.2473722,34.5767472 Z M213.186552,14.5107117 L214.605552,18.9677445 L208.834229,18.9720773 L208.871058,19.1100056 C209.109364,20.0848913 209.367889,21.0763861 209.644468,22.0888229 C209.924657,23.1048704 210.219289,24.1375271 210.524031,25.1839044 C210.833106,26.2338923 211.147236,27.2990452 211.473642,28.364198 C211.800048,29.4358501 212.131509,30.5154457 212.461526,31.593597 C212.661558,32.2485758 212.862312,32.9086095 213.065233,33.578031 C213.272487,34.2481746 213.47974,34.922651 213.682661,35.6014603 C213.889914,36.282436 214.092835,36.9670224 214.296478,37.6508866 C214.497954,38.3361951 214.700152,39.0215037 214.891519,39.7068122 L205.884298,39.7097007 L200.222017,18.9814651 L194.446361,18.9865201 L193.308272,14.5302094 L213.186552,14.5107117 L213.186552,14.5107117 Z M192.448929,24.0429271 L193.678007,29.0285646 L181.626254,29.0350638 L183.858381,39.7169221 L174.867046,39.7190885 L170.26342,14.5525957 L190.119313,14.533098 L191.213352,18.9886865 L179.525556,18.9987964 L180.580599,24.0378721 L192.448929,24.0429271 Z M157.899703,31.6051512 L159.009629,39.7255877 L150.02696,39.7277542 L147.24673,14.5757041 L167.078793,14.5562064 L171.42895,39.7234213 L162.444115,39.7255877 L161.27353,31.6167054 L157.899703,31.6051512 Z M163.72302,21.727032 L163.218246,18.5322956 L159.291262,18.5366284 L159.652331,21.464174 L156.570248,21.4396213 L156.173072,18.5387948 L152.373907,18.5438498 L152.773971,21.7356977 L156.261173,21.7342534 L156.42221,22.908449 L154.66886,22.9098933 L155.309396,27.8305384 L157.413705,27.828372 L157.255556,26.1551793 L160.375191,26.142903 L160.635882,27.8254834 L162.768354,27.8240392 L162.020942,22.9265024 L160.282035,22.9163925 L160.131108,21.7277542 L163.72302,21.727032 M142.32103,26.704726 L145.285405,26.7025596 L146.596807,39.7277542 L137.62497,39.7328091 L136.824119,29.1289417 L133.502287,29.0473401 L134.191928,39.7328091 L125.220091,39.7378641 L124.25676,14.5988125 L144.066437,14.5800369 L145.005215,23.9078873 L142.048062,23.9049988 L142.32103,26.704726 L142.32103,26.704726 Z M136.46955,24.2090187 L136.080318,19.0370697 L132.855974,19.0377919 L133.188879,24.210463 L136.46955,24.2090187 M109.715799,19.0587339 L121.207895,19.0493461 L121.080077,14.6009789 L101.292065,14.6219209 L100.446441,39.7436412 L121.794993,39.7378641 L121.646955,34.5724143 L109.440664,34.5767472 L109.715799,19.0587339 Z" id="Shape" fill="#FFFFFF" fill-rule="nonzero"></path>
            <path d="M2.98098371,39.7768595 C2.33755918,39.7768595 2.19024312,40.141539 2.65529969,40.5870978 L9.00433283,46.6725508 C9.46794512,47.1166653 10.375672,47.4827891 11.0198187,47.4827891 L16.6091631,47.4827891 C17.2533098,47.4827891 17.4194014,47.0971676 16.9810639,46.6248897 L11.3700554,40.6282596 C10.9317179,40.1588703 10.0442109,39.7732488 9.40006419,39.7732488 L2.98098371,39.7768595 Z M24.4349675,39.7703603 C23.7908208,39.7703603 23.6008987,40.1754794 24.0146835,40.6679772 L28.9721576,46.5830057 C29.3852203,47.078392 30.250341,47.4813448 30.8944877,47.4813448 L36.7553559,47.4813448 C37.3995025,47.4813448 37.611811,47.0588943 37.2276338,46.5411217 L32.8868651,40.7069726 C32.5019658,40.1892 31.6606756,39.7660274 31.0165289,39.7667487 L24.4349675,39.7703603 L24.4349675,39.7703603 Z" id="Shape" fill="#282729" fill-rule="nonzero"></path>
            <path d="M16.7117067,34.3045013 C16.0682821,34.3045013 15.8899141,34.6980663 16.3174196,35.1818984 L21.8338281,41.4088903 C22.2613335,41.8912782 23.0405199,42.2653454 23.5676803,42.2386263 C24.0926743,42.2147958 24.2204927,41.7627377 23.8500361,41.2348552 L23.4658589,40.6903635 C23.0946803,40.1639252 22.9314772,39.2251464 23.104068,38.603386 L23.2109444,38.214876 C23.3842574,37.595282 23.1965016,36.6731124 22.7971596,36.1683383 L22.0475808,35.221616 C21.6482388,34.7161197 20.7946722,34.3037792 20.1512477,34.3037792 L16.7117067,34.3037792 L16.7117067,34.3045013 Z M36.7495788,39.8281313 C36.1047099,39.8288534 35.8916794,40.2549145 36.272968,40.7734093 L40.5133595,46.5382332 C40.8924817,47.0581722 41.7323277,47.4827891 42.3771965,47.4827891 L48.1499639,47.4827891 C48.7933884,47.4827891 49.0403595,47.0372302 48.696622,46.4912942 L45.1270962,40.8174597 C44.7840809,40.2715237 43.9774533,39.8252427 43.3333066,39.8266835 L36.7495788,39.8281313 L36.7495788,39.8281313 Z M49.1111289,39.7609725 C48.4677044,39.7609725 48.2149563,40.2108642 48.5514724,40.7604108 L51.9917355,46.3923614 C52.3282516,46.941908 53.1276579,47.3917997 53.7725267,47.3917997 L59.4528605,47.3917997 C60.0977293,47.3917997 60.3930835,46.9187996 60.1078392,46.3403675 L57.3962128,40.8102383 C57.1116906,40.2318061 56.3534462,39.7595282 55.7092995,39.7595282 L49.1111289,39.7609725 L49.1111289,39.7609725 Z M64.5085453,39.7566397 C63.8651208,39.7566397 63.5596566,40.2346947 63.8304582,40.818904 L66.4200433,46.4190805 C66.691567,47.004734 67.4389794,47.4820669 68.0831261,47.4820669 L73.9468828,47.4820669 C74.5910294,47.4820669 74.9369333,46.9866806 74.7137928,46.3829736 L72.6867528,40.8521223 C72.4643344,40.2476932 71.7573618,39.7537511 71.112493,39.7537511 L64.5085453,39.7566397 Z M76.8737062,39.753029 C76.2302816,39.753029 75.8807671,40.2498596 76.0974083,40.8535666 L78.0081842,46.1952178 C78.2241033,46.8032576 78.9289096,47.298644 79.5730562,47.298644 L96.9187996,47.298644 C97.5636685,47.298644 98.0164487,46.7750943 97.9261815,46.1396133 L97.1852684,40.903394 C97.0957233,40.2650245 96.4934606,39.7450855 95.8514804,39.7450855 L76.8737062,39.753029 L76.8737062,39.753029 Z M101.617026,39.7436412 C100.973602,39.7436412 100.502768,40.2671909 100.572093,40.9077269 L101.155581,46.3172591 C101.224906,46.9585172 101.807671,47.4813448 102.451817,47.4813448 L119.708016,47.4813448 C120.352885,47.4813448 120.941427,46.9570729 121.016529,46.3187034 L121.657065,40.9005055 C121.732889,40.2599695 121.266389,39.7371419 120.622964,39.7378633 L101.617026,39.7436412 L101.617026,39.7436412 Z M126.392121,39.7364198 C125.747974,39.7364198 125.155099,40.2606916 125.073498,40.8990612 L124.398299,46.2291583 C124.31742,46.8689722 124.776699,47.3910776 125.421568,47.3910776 L131.196502,47.3910776 C131.840648,47.3910776 132.490572,46.8783599 132.63861,46.2522667 L133.920404,40.87162 C134.066998,40.2448046 133.664768,39.7328091 133.020621,39.7335305 L126.392121,39.7364198 Z M138.795555,39.732087 C138.151408,39.732087 137.503651,40.2455268 137.354168,40.8723421 L136.099815,46.1612774 C135.951055,46.7880928 136.355452,47.3008104 137.000321,47.3008104 L142.774533,47.3008104 C143.419401,47.3008104 144.119875,46.8039798 144.332905,46.19594 L146.212629,40.8333467 C146.423494,40.226029 146.072535,39.7284763 145.428388,39.7291976 L138.795555,39.732087 L138.795555,39.732087 Z M151.196823,39.727032 C150.55051,39.727032 149.848592,40.2238626 149.634117,40.8311803 L147.707454,46.2883736 C147.492979,46.8949691 147.843938,47.3917997 148.487363,47.3917997 L154.255797,47.3917997 C154.900666,47.3917997 155.650967,46.9137447 155.924657,46.3288133 L158.514242,40.7849635 C158.786488,40.2007542 158.48319,39.7234213 157.839766,39.7234213 L151.196823,39.727032 L151.196823,39.727032 Z M163.6147,39.7234213 C162.969831,39.7241435 162.213031,40.1971435 161.930675,40.7762978 L159.222659,46.3382011 C158.941025,46.9180775 159.237824,47.3910776 159.881248,47.3910776 L165.83455,47.3910776 C166.479419,47.3910776 167.268715,46.9354088 167.590789,46.3779186 L170.843296,40.7365803 C171.166092,40.1798122 170.902511,39.7234213 170.25692,39.7234213 L163.6147,39.7234213 Z M176.039076,39.7183664 C175.395651,39.7183664 174.593356,40.1689802 174.259007,40.719249 L170.806467,46.3909171 C170.470673,46.9411859 170.723421,47.3917997 171.366124,47.3917997 L177.227714,47.3917997 C177.872583,47.3917997 178.705207,46.9621279 179.07783,46.4378561 L183.181016,40.6715879 C183.553639,40.1465939 183.333387,39.7176442 182.687074,39.7176442 L176.039076,39.7183664 L176.039076,39.7183664 Z M207.056327,39.7089786 C206.41218,39.7089786 205.536949,40.1032657 205.110888,40.5870978 L199.958437,46.421969 C199.531654,46.9058012 199.710022,47.3000883 200.35489,47.3000883 L205.941346,47.3000883 C206.587659,47.3000883 207.490331,46.931076 207.951777,46.4833507 L214.056728,40.5228276 C214.51673,40.073658 214.367247,39.70609 213.722378,39.7068111 L207.056327,39.7089786 L207.056327,39.7089786 Z" id="Shape" fill="#282729" fill-rule="nonzero"></path>
            <path d="M8.3746289,18.8818102 C8.31469149,19.0450132 8.79202439,19.180053 9.43544893,19.1814972 L15.57434,19.206772 C16.2184867,19.2096606 16.7514242,19.0702881 16.7615341,18.8991415 C16.7701998,18.7265506 16.2502608,18.5850116 15.6061141,18.5850116 L9.6542566,18.5850116 C9.00938779,18.5850116 8.43384418,18.7186071 8.3746289,18.8818102 M7.94856776,31.6390917 C8.14859986,31.0274412 7.78680895,30.5262778 7.14338442,30.5262778 L5.64350477,30.5262778 C4.9993581,30.5262778 4.47364198,30.6497633 4.47364198,30.7992458 C4.47364198,30.9494504 5.00008024,31.073658 5.64350477,31.073658 L6.38586215,31.073658 C7.02928669,31.073658 7.39252186,31.5733772 7.19104549,32.1857498 L5.82620557,36.340207 C5.62617347,36.9540239 5.98868651,37.4537431 6.63283319,37.4537431 L11.2321271,37.4537431 C11.8769959,37.4537431 12.4034342,37.3302576 12.4034342,37.180053 C12.4034342,37.0298484 11.8769959,36.907085 11.2321271,36.907085 L7.38891118,36.907085 C6.74404237,36.907085 6.38152933,36.4059215 6.58372783,35.7935489 L6.6927706,35.4664206 C6.89352483,34.854048 7.58533258,34.3536067 8.22875712,34.3536067 L11.7787852,34.3536067 C12.423654,34.3536067 12.9508144,34.2308433 12.9508144,34.0813608 C12.9508144,33.9297119 12.423654,33.8076707 11.7787852,33.8076707 L8.40784723,33.8076707 C7.76442269,33.8076707 7.40190965,33.3086737 7.60266389,32.6948568 L7.94856776,31.6390917 Z M32.4290299,19.9570729 C32.5164086,19.3201476 32.0592955,18.7973201 31.4165931,18.7973201 L29.6372462,18.7994865 C28.9930996,18.8002086 28.4204445,18.9236941 28.3626735,19.0731766 C28.3049025,19.2204927 28.7865682,19.3439782 29.4307149,19.3439782 L30.7919442,19.3439782 C31.4360908,19.3439782 31.8924817,19.8660836 31.8051031,20.503731 L31.5552435,22.346626 C31.468587,22.9849956 30.8706571,23.5063789 30.2279547,23.5063789 L24.6032255,23.5063789 C23.9590789,23.5063789 23.4326406,23.6298644 23.4326406,23.7793469 C23.4326406,23.9295515 23.9590789,24.053037 24.6032255,24.053037 L35.6598732,24.053037 C36.3040199,24.053037 36.8304582,23.9295515 36.8304582,23.7793469 C36.8304582,23.6298644 36.3040199,23.5063789 35.6598732,23.5063789 L33.1186713,23.5063789 C32.4752467,23.5063789 32.0174115,22.9842734 32.1055123,22.346626 L32.4290299,19.9570729 Z M40.1544572,36.7012758 C40.2699992,36.067239 40.195619,35.8195459 39.9890877,36.1488406 C39.7818342,36.476691 39.5160876,37.2638209 39.3969349,37.8985798 L39.2228998,38.8272487 C39.1037471,39.459119 39.3023349,40.4137848 39.6641258,40.9481666 L39.9587579,41.3814491 C40.321271,41.9143866 40.898981,42.5585333 41.2434406,42.8141699 C41.587178,43.0698066 41.576346,42.840889 41.2181658,42.3057851 L40.2302816,40.8282917 C39.8721014,40.2924657 39.6735136,39.3370778 39.7897777,38.703041 L40.1544572,36.7012758 L40.1544572,36.7012758 Z M48.9551472,19.7700393 C48.9551472,19.6198347 48.4294311,19.5064591 47.7860066,19.5187355 L45.478055,19.5642301 C44.8339084,19.5779507 44.5739389,19.6898821 44.8996229,19.8148118 C45.2253069,19.9404638 46.0189361,20.0437294 46.6623606,20.0437294 L47.7852844,20.0437294 C48.4294311,20.0437294 48.9551472,19.9202439 48.9551472,19.7700393 M52.3477493,38.0285646 C52.4885662,37.3995828 52.4177967,37.1634438 52.1932119,37.5021263 C51.9700714,37.8429752 51.7014363,38.487844 51.5960042,38.9355693 C51.4905721,39.3847388 51.5750622,40.2000321 51.7844821,40.7466902 C51.9931798,41.2947926 52.3542486,41.9880446 52.5860547,42.2870095 C52.8193051,42.5852523 52.84458,42.3310599 52.6416593,41.7186873 L52.3441387,40.8261253 C52.141218,40.2137527 52.088502,39.1984273 52.2271524,38.5708898 L52.3477493,38.0285646 L52.3477493,38.0285646 Z M50.1408971,31.6802536 C49.4967504,31.6477574 48.964535,31.7430795 48.955087,31.8940063 C48.948648,32.0442109 49.4693092,32.1929712 50.1127337,32.2261895 L56.6574661,32.5576506 C57.2994464,32.5894247 57.9941427,32.8768354 58.1992297,33.1960202 C58.4043168,33.5123165 58.6751184,33.7072936 58.8007703,33.6264142 C58.9278665,33.5455348 58.8303779,33.163524 58.5826847,32.7807911 C58.3364359,32.3980583 57.6056327,32.0572093 56.9658188,32.0247132 L50.1408971,31.6802536 L50.1408971,31.6802536 Z M57.0690845,18.8991415 C57.3189441,19.0731766 58.0504694,19.2154377 58.6946161,19.2154377 L59.1921688,19.2154377 C59.8355934,19.2154377 60.3634759,19.0926743 60.3634759,18.9410254 C60.3634759,18.7922651 59.8363155,18.6557811 59.1921688,18.6413384 L57.7832785,18.6110086 C57.139854,18.5951216 56.8185028,18.7258285 57.0690845,18.8991415 M64.8826125,31.8449009 C64.2399101,31.8723421 63.7170826,32.0182139 63.7235219,32.1676964 C63.7293589,32.317901 64.2615743,32.4182781 64.9035545,32.3908369 L68.7056086,32.2298002 C69.3490331,32.202359 69.7967584,32.7006339 69.699992,33.3382813 L68.9049186,38.5947204 C68.8067079,39.2302014 68.8796437,40.2563588 69.0666774,40.8730643 L69.2320469,41.4240552 C69.4190805,42.0407607 69.789537,42.8553318 70.0596165,43.2351761 C70.3296959,43.6142983 70.3975768,43.4207655 70.2134318,42.8033379 L69.6256118,40.8340688 C69.4421889,40.2166413 69.3699751,39.1904838 69.4652973,38.5550028 L70.3390837,32.7627377 C70.435128,32.1258124 69.9881248,31.6268154 69.3439782,31.6549787 L64.8826125,31.8449009 L64.8826125,31.8449009 Z M66.1853486,18.7669903 C66.1593517,18.9150285 66.6576266,19.1244484 67.2938297,19.2320469 L73.7735698,19.9931798 C74.4119393,20.0726149 74.9347669,20.0133997 74.9347669,19.8631951 C74.9347669,19.7115462 74.4119393,19.5223461 73.7735698,19.442911 L67.3862633,18.6933323 C66.7500602,18.5850116 66.2091792,18.6189521 66.1853486,18.7669903 M80.2850838,35.2519458 C80.2971105,34.9451169 80.1832062,34.6467038 79.969792,34.4259258 C79.7563778,34.2051478 79.4619988,34.0811899 79.1549386,34.0827895 L76.8375993,34.0827895 C76.1941748,34.0827895 75.6662922,34.2070128 75.6662922,34.3557731 C75.6662922,34.5059777 76.1941748,34.6301853 76.8375993,34.6301853 L78.5880607,34.6301853 C78.8949929,34.6289819 79.1891272,34.7530688 79.4024512,34.9737535 C79.6157752,35.1944381 79.7298167,35.4926111 79.7182059,35.799326 L79.624328,38.5030089 C79.6019417,39.1471556 79.7145952,40.1827008 79.8741876,40.8059055 L80.306748,42.4964294 C80.4677846,43.1203563 80.7667496,43.9356495 80.9754473,44.3075503 C81.1819787,44.6816176 81.236139,44.4714756 81.0931557,43.8432159 L80.3926823,40.7546337 C80.2511434,40.1270962 80.1522105,39.086496 80.1738747,38.4430715 L80.2850838,35.2519458 L80.2850838,35.2519458 Z M77.0340207,21.9588382 C77.0340207,22.1090428 77.5611811,22.2332504 78.2053278,22.2332504 L80.4194014,22.2332504 C81.062826,22.2332504 81.8564551,22.0888229 82.1821391,21.9147878 C82.5085453,21.7385862 82.2471315,21.6035465 81.603707,21.6129343 L78.2046056,21.6678167 C77.5611811,21.6772045 77.0340207,21.8086336 77.0340207,21.9588382 M92.1021423,24.7686753 C92.0869775,24.1238065 91.9504935,23.5973682 91.7974003,23.5973682 C91.6493621,23.5973682 91.5258766,24.1238065 91.5258766,24.7686753 L91.5258766,27.4405841 C91.5258766,28.0847308 91.6681377,28.3020942 91.8443392,27.928027 C92.0190965,27.5510712 92.1490813,26.7177245 92.1339164,26.0728557 L92.1021423,24.7686753 Z M94.767552,34.7341732 C94.7383995,35.3842118 94.2057519,35.897825 93.555083,35.9033138 L91.7836797,35.9033138 C91.1402552,35.9033138 90.6123726,36.4304742 90.6123726,37.075343 L90.6123726,38.8359143 C90.6123726,39.4807831 90.7344139,40.0064992 90.8867849,40.0064992 C91.0377116,40.0064992 91.160475,39.480061 91.160475,38.8359143 L91.160475,37.6220011 C91.160475,36.9785766 91.6869133,36.4528605 92.3325042,36.4528605 L94.0858541,36.4528605 C94.7292787,36.4528605 95.2737704,35.9264222 95.2954345,35.2815534 L95.3142101,34.7146754 C95.3365963,34.0705288 95.2311642,33.5404798 95.0809596,33.5339442 C94.930755,33.5289256 94.7884939,34.0510311 94.7668298,34.6937335 L94.767552,34.7341732 L94.767552,34.7341732 Z M117.187756,35.9531413 C117.062104,36.192891 117.015887,36.9128621 117.083768,37.5533981 L117.200032,38.6568242 C117.267191,39.2973602 117.249137,40.3430153 117.161759,40.9806628 L116.391238,46.5598973 C116.303859,47.1968226 116.38185,47.7109845 116.565273,47.7031318 C116.750863,47.6943754 116.966782,47.1643264 117.046217,46.5252347 L117.731525,40.9914948 C117.810238,40.351681 117.818904,39.3045816 117.749579,38.6647677 L117.539437,36.6817781 C117.470834,36.0419642 117.312686,35.7133916 117.187756,35.9531413 M100.732408,44.5646313 C100.732408,44.7148359 101.258846,44.8383214 101.902993,44.8383214 L102.206291,44.8383214 C102.849715,44.8383214 103.376153,44.7155581 103.376153,44.5646313 C103.376153,44.4151488 102.849715,44.2916633 102.206291,44.2916633 L101.902993,44.2916633 C101.258846,44.2916633 100.732408,44.4151488 100.732408,44.5646313 M102.830217,22.6867528 C103.131349,22.8369574 103.890315,23.0767071 104.518575,23.218246 L109.029768,24.0234294 C109.621921,24.279066 110.154136,24.3751103 110.213352,24.2364599 C110.274011,24.0992538 109.822675,23.8197866 109.211747,23.6175881 L103.433202,22.6325925 C102.80061,22.5112734 102.529086,22.5365482 102.830217,22.6867528 M102.737062,27.7460483 C102.987643,27.5698467 102.666292,27.4456391 102.022868,27.4694696 L101.812004,27.476691 C101.166413,27.4997994 100.641419,27.6420605 100.641419,27.7922651 C100.641419,27.9424697 101.010431,28.0652331 101.460323,28.0652331 C101.912381,28.0652331 102.485758,27.9215277 102.737062,27.7460483 M128.221295,22.9597208 C128.259568,23.3106796 128.817781,23.5980903 129.464094,23.5980903 L129.974645,23.5980903 C130.618069,23.5980903 131.225387,23.6262537 131.319987,23.6587499 C131.41892,23.6926904 131.781433,23.9504935 131.909251,23.8732247 C132.037792,23.7966782 131.943192,23.5814812 131.700554,23.396614 C131.457915,23.2117468 130.704726,23.0564872 130.061301,23.0543208 L129.952981,23.0543208 C129.308112,23.0535987 128.723181,22.5278825 128.650967,21.889513 L127.933162,15.4350477 C127.860226,14.7930675 127.67897,14.2839605 127.530932,14.302014 C127.382893,14.3186231 127.316457,14.8558934 127.38867,15.4957073 L127.958437,20.6127738 C128.030651,21.2525877 127.558373,21.7754152 126.916393,21.7754152 L125.058333,21.7754152 C124.414186,21.7754152 123.88847,21.8981786 123.88847,22.0469389 C123.88847,22.1971435 124.414908,22.3199069 125.058333,22.3199069 L126.977052,22.3199069 C127.621921,22.3199069 128.180133,22.6080398 128.221295,22.9597208 M127.437776,35.8036588 C127.481104,36.4456391 127.255075,37.4277461 126.933724,37.9859584 L126.444115,38.5369494 C126.294632,39.1637647 126.291744,39.7010351 126.438337,39.7328091 C126.586376,39.763861 126.868009,39.2886945 127.062986,38.6748776 C127.062986,38.6748776 127.138089,38.4076868 127.375672,38.0704485 C127.610367,37.7310439 127.872503,37.4537431 127.951938,37.4537431 C128.032095,37.4537431 128.063869,36.9273048 128.019819,36.2860467 L127.816898,33.3346706 C127.792035,33.0315822 127.896241,32.7320762 128.103865,32.5098764 C128.31149,32.2876767 128.603249,32.1634214 128.907326,32.1676964 L133.293589,32.1676964 C133.937736,32.1676964 134.46273,32.0442109 134.46273,31.8940063 C134.46273,31.7445238 133.936291,31.619594 133.293589,31.619594 L128.321672,31.619594 C127.678248,31.619594 127.185028,32.1460323 127.2298,32.7880125 L127.437776,35.8036588 L127.437776,35.8036588 Z M136.64864,33.5354249 C136.64864,33.6856295 137.175078,33.809115 137.819225,33.809115 L140.764102,33.809115 C141.408971,33.809115 142.160716,33.6856295 142.436572,33.5354249 C142.716039,33.3844981 142.414186,33.2602905 141.770761,33.2602905 L137.817781,33.2617347 C137.1758,33.2617347 136.64864,33.3852203 136.64864,33.5354249 M139.177566,25.8157747 C139.341491,25.9508144 140.001525,26.0620236 140.644227,26.0620236 L141.494905,26.0620236 C142.139774,26.0620236 142.66549,25.9385381 142.66549,25.7890556 C142.66549,25.6374067 142.139052,25.5218647 141.494905,25.5312525 L140.053518,25.5521945 C139.407205,25.5615823 139.015085,25.6800128 139.177566,25.8157747 M124.160716,45.0203001 C124.147717,45.1697826 124.66549,45.3308192 125.30747,45.3763139 L131.816818,45.8449811 C132.457354,45.8919201 132.991736,45.8067079 133.004734,45.6565032 C133.014844,45.5070208 132.498516,45.3474284 131.855091,45.3004894 L125.350076,44.8332665 C124.708096,44.7870497 124.17227,44.8708176 124.160716,45.0203001 M162.156704,33.3397256 C161.512557,33.3476691 160.987563,33.4754874 160.988285,33.625692 C160.989007,33.7758967 161.51689,33.8936051 162.160315,33.887828 L170.118992,34.7717243 C170.759528,34.8338281 171.32785,34.7695579 171.3784,34.6287411 C171.431838,34.4893685 170.94945,34.3196662 170.310359,34.2546738 L162.156704,33.3397256 Z M186.969349,23.2326888 C186.828532,23.2825162 186.741154,23.8493942 186.771484,24.4935409 L187.498676,28.1605552 C187.22282,28.7425981 187.106555,29.2733692 187.242317,29.3412501 C187.378079,29.4084089 187.717484,28.988847 187.996951,28.4089706 L187.28709,24.3108401 C187.253149,23.6674156 187.112333,23.1828613 186.969349,23.2326888 M182.745567,16.3969349 C182.169301,16.3969349 181.549707,15.9058814 181.36484,15.3086737 C181.181417,14.7092995 180.914948,14.2557972 180.769799,14.3005697 C180.627538,14.3446201 180.664367,14.8847789 180.852844,15.5000401 L180.953222,15.8257241 C181.140977,16.4417075 181.768515,16.9450373 182.348391,16.9450373 C182.926823,16.9450373 183.572414,17.4418679 183.779668,18.0527963 L184.051914,18.8413705 C184.260611,19.4508545 184.548744,19.9094119 184.688117,19.8603065 C184.830378,19.8126454 184.775495,19.2739308 184.566798,18.6651689 L184.1689,17.5046939 C183.960924,16.895932 183.319666,16.3969349 182.745567,16.3969349 M204.365642,32.2586857 C203.722218,32.2586857 203.196502,32.3814491 203.196502,32.5323758 C203.196502,32.6840247 203.72294,32.8075102 204.365642,32.8075102 L211.870095,32.8075102 C212.515686,32.8075102 213.04068,32.6840247 213.04068,32.5323758 C213.04068,32.3814491 212.514242,32.2586857 211.870095,32.2586857 L204.365642,32.2586857 Z M210.031533,19.4053599 C210.175239,19.3656423 210.15863,18.8247613 209.986761,18.2044452 L209.235016,15.4494905 C209.068202,14.8277301 208.808955,14.3518415 208.662361,14.3922812 C208.520099,14.4312766 208.538153,14.9721576 208.707855,15.5931959 L209.4596,18.3467063 C209.630747,18.9677445 209.887828,19.4443553 210.031533,19.4053599" id="Shape" fill="#020303" fill-rule="nonzero"></path>
            <path d="M28.1265345,19.2450453 L30.5789136,19.2450453 C31.2223381,19.2450453 31.2317259,19.1425018 30.5998556,19.0204606 L29.7542325,18.8543689 C29.1216401,18.7308834 28.6378079,18.8449811 28.6753591,19.1100056 L28.1265345,19.2450453 L28.1265345,19.2450453 Z M14.4066437,43.5146433 C14.1575062,43.2387868 13.4288695,43.077028 12.791222,43.1542967 L11.3765546,43.329054 C10.7374629,43.4063227 10.7374629,43.5319746 11.3772767,43.6085212 L13.6989489,43.8814892 C14.3394849,43.9558694 14.6579475,43.791222 14.4066437,43.5146433 M37.6060339,46.5245126 C37.4319987,46.248656 36.7632994,46.0666774 36.120597,46.122282 L33.0767873,46.3793629 C32.434807,46.4328011 32.434807,46.5259568 33.075343,46.58445 L36.7604108,46.9180775 C37.4016689,46.9765706 37.7836797,46.799647 37.6060339,46.5245126 M65.6849073,45.3849795 C65.609805,45.13512 66.0734173,44.9451978 66.7182861,44.9632512 L67.4765305,44.9863596 C68.1199551,45.0029688 68.1416192,45.166894 67.5220252,45.3467063 L66.943593,45.5127979 C66.3261654,45.6926101 65.7592875,45.6348391 65.6849073,45.3849795 M97.8149723,43.6077991 C97.765867,43.2315654 97.2047661,42.9975929 96.5671187,43.0885822 L94.4151488,43.3954907 C93.78039,43.48648 93.78039,43.6424617 94.4144267,43.7428388 L96.7476531,44.1096847 C97.3845784,44.2100618 97.8640777,43.9840327 97.8149723,43.6077991 M100.502768,44.909813 C100.470272,44.5343015 100.969269,44.2887748 101.607639,44.3609885 L101.674797,44.368932 C102.316056,44.4425901 102.365161,44.7300008 101.78384,45.009468 L101.618471,45.088181 C101.03715,45.3654818 100.535264,45.2853246 100.502768,44.909813 M80.1782075,38.6394929 C80.1023831,38.0877798 79.9586777,38.046618 79.8583006,38.5485036 C79.7579235,39.049667 79.8265265,39.9646153 80.0113937,40.5805986 L80.1587098,41.0716521 C80.3442991,41.6883575 80.4598411,41.6666934 80.4143465,41.0261574 L80.3991816,40.8102383 C80.3440732,40.0848882 80.270391,39.3610689 80.1782075,38.6394929 M90.8420124,39.0489449 C90.7163604,38.823638 90.6318703,39.1644869 90.6549787,39.8079114 L90.6643665,40.1133756 C90.6874749,40.7568001 90.7871299,40.8730643 90.8896734,40.3719008 C90.9886063,39.8700152 90.9683864,39.2749739 90.8420124,39.0489449 M69.2392682,38.8207494 C69.2132713,38.2683142 69.112172,38.2683142 69.0132392,38.8207494 C68.9128621,39.3731846 68.9973522,40.3242397 69.1988285,40.9351681 L69.369253,41.4471636 C69.5721736,42.058092 69.653053,42.03715 69.5468988,41.4031132 L69.4775736,40.9799406 C69.362091,40.2646468 69.282556,39.5440112 69.2392682,38.8207494 M51.8718607,39.2316457 C51.7714836,39.0056166 51.605392,39.0467785 51.5079034,39.322635 C51.4075263,39.5984915 51.5115141,40.1097649 51.736821,40.4607237 C51.9621279,40.8109604 52.1282195,40.771965 52.1015004,40.3697344 C52.0755035,39.9696702 51.97296,39.4576747 51.8718607,39.2316457 M39.7478938,38.8453021 C39.6236861,38.2921447 39.3983792,38.3535264 39.2481746,38.9803418 L39.2481746,38.9825082 C39.0972479,39.6078793 39.3442189,40.4903314 39.7941106,40.9416673 C40.2447244,41.3937254 40.4693092,41.3323437 40.295274,40.8059055 C40.0860223,40.1601487 39.903408,39.5060619 39.7478938,38.8453021 M17.9176763,38.0473401 C17.7421969,37.8220332 18.1242077,37.6833828 18.7661879,37.7389874 L20.6228035,37.9000241 C21.2647838,37.9556287 21.266228,38.06756 20.6285806,38.1506058 L19.3980583,38.309476 C18.7604108,38.3910776 18.0938779,38.2733692 17.9176763,38.0473401 M117.341571,38.430073 C117.433283,37.7931477 117.615261,37.7859263 117.753189,38.4149081 L117.808072,38.6784883 C117.943834,39.3081922 117.919281,40.3329054 117.754634,40.9553879 L117.531493,41.7916232 C117.366124,42.4119393 117.216641,42.3953302 117.198588,41.7511835 L117.175479,40.9943834 C117.156704,40.3502367 117.215919,39.3024151 117.307631,38.6640456 L117.341571,38.430073 L117.341571,38.430073 Z M110.030651,24.3736661 C110.030651,24.6495226 109.59448,24.5765867 109.061542,24.2169622 L108.717805,23.9837118 C108.184867,23.6211987 108.260692,23.4478857 108.887507,23.5980903 L108.890396,23.5988125 C109.518655,23.7504614 110.030651,24.0970874 110.030651,24.3736661 M145.62842,42.9224906 C145.7028,42.6719089 145.237744,42.4827088 144.592875,42.5000401 L143.744363,42.5245928 C143.101661,42.5433684 143.082885,42.7000722 143.701035,42.8755516 L144.363957,43.061141 C144.985718,43.234454 145.553318,43.171628 145.62842,42.9224906 M141.068844,39.049667 C140.892642,38.6734334 140.768435,38.8929632 140.792987,39.5371098 L140.79732,39.6569847 C140.822595,40.2996871 140.964134,40.5798764 141.113616,40.2794672 C141.265987,39.9783359 141.245767,39.4259007 141.068844,39.049667 M157.251946,44.0627457 C157.352323,43.7868892 156.907486,43.6041884 156.267672,43.6554602 L154.043489,43.8338281 C153.400786,43.8843778 153.396454,44.0049747 154.033379,44.1024633 L155.912381,44.3884298 C156.54714,44.4851962 157.150124,44.3386023 157.251946,44.0627457 M154.97288,39.186151 C154.871058,38.8842975 154.728797,38.8640777 154.654417,39.1399342 C154.579315,39.4165129 154.600979,40.0317741 154.69919,40.509107 C154.799567,40.9849956 154.943272,41.0059376 155.016208,40.5538795 C155.092755,40.1025435 155.073257,39.4872824 154.97288,39.186151 M187.28709,29.4777341 C187.061783,29.4026318 187.082725,28.8689722 187.333307,28.2927064 C187.583166,27.7157185 187.768033,27.7691567 187.742036,28.4133034 L187.740592,28.4450774 C187.717484,29.088502 187.512397,29.5542807 187.28709,29.4777341 M171.971997,43.4243762 C172.198026,43.1492418 172.903555,43.0012036 173.539758,43.0965257 L176.693332,43.5695258 C177.33098,43.6648479 177.325925,43.7587258 176.683222,43.7760571 L172.732408,43.8915991 C172.088983,43.911819 171.748134,43.7002327 171.971997,43.4243762 M201.870657,43.4243762 C202.147236,43.0481425 202.890315,42.8394448 203.52363,42.9629303 L206.421568,43.5218647 C207.052716,43.643906 207.04405,43.7731686 206.401348,43.812164 L202.540079,44.0381931 C201.894488,44.0786328 201.595523,43.8013319 201.870657,43.4243762 M203.058573,32.4854369 C202.932921,32.0593758 203.349595,31.7885742 203.98652,31.8831742 L206.592714,32.2680735 C207.228918,32.3626735 207.231806,32.5352644 206.597769,32.6515285 L204.4393,33.047982 C203.805986,33.1642462 203.18567,32.911498 203.058573,32.4854369 M200.001765,19.815534 C199.802455,19.6393324 199.617588,18.9691888 199.595924,18.3264864 L199.590869,18.2044452 C199.569205,17.5610206 199.683303,17.5451336 199.84795,18.166894 L200.068202,19.0024071 C200.232127,19.6248897 200.202519,19.9917355 200.001765,19.815534 M171.016609,35.085132 L169.369413,34.4250983 C168.771484,34.1860708 168.805424,34.0394769 169.446682,34.0994143 L171.197144,34.2633395 M108.436171,40.3697344 C108.559657,40.0202199 108.559657,39.4663404 108.436171,39.1392121 C108.311963,38.8142502 107.682259,38.5492257 107.038835,38.5492257 L106.369413,38.5492257 C105.725267,38.5492257 105.014683,38.8561342 104.789377,39.2330899 C104.563348,39.6093236 104.886143,40.0613817 105.505737,40.2375832 L107.085052,40.6881971 C107.704646,40.8636765 108.311963,40.7199711 108.436171,40.3697344" id="Shape" fill="#020303" fill-rule="nonzero"></path>
            <path d="M107.342133,39.4583969 C106.913905,39.0085052 106.935569,38.6380486 107.387627,38.6380486 C107.838963,38.6380486 108.392843,38.8640777 108.61815,39.1399342 C108.842734,39.4165129 108.748134,40.0888229 108.406563,40.6347589 L108.280189,40.8376795 C107.937174,41.3821712 107.762417,41.4811041 107.886624,41.0543208 C108.015165,40.6268154 107.768194,39.9104549 107.342133,39.4583969 M66.092915,18.9489689 C66.1434647,18.5987322 66.6944556,18.4384177 67.3183824,18.5958437 L67.5992939,18.665891 C68.224665,18.823317 68.2217765,19.0702881 67.5949611,19.216882 L67.1421809,19.322314 C66.5153655,19.468908 66.0423654,19.3013721 66.092915,18.9489689 M36.603707,23.916553 C36.4773329,24.1418599 35.8649603,24.2025195 35.2374228,24.0523149 L34.8698548,23.9634919 C34.2452058,23.8132873 34.25676,23.6587499 34.9016288,23.6197545 L35.6605954,23.5749819 C36.3040199,23.5374308 36.7293589,23.690524 36.603707,23.916553 M12.8569365,33.9896494 C12.9587579,33.6877959 12.5218647,33.5426462 11.8907165,33.6668539 L10.9107759,33.8574982 C10.2789056,33.9809837 10.2817941,34.1636845 10.9172751,34.2626173 L11.5180936,34.3572174 C12.1528524,34.4561502 12.7565594,34.2915028 12.8569365,33.9896494" id="Shape" fill="#020303" fill-rule="nonzero"></path>
            <path d="M14.6803338,43.6077991 C14.4803017,43.3824922 14.4636925,42.6906844 14.6463933,42.0747011 L14.8976972,41.2204124 C15.0789537,40.6022627 15.2017171,40.6232047 15.1721094,41.2659071 L15.0984514,42.8466661 C15.0688438,43.4922571 14.881088,43.8316617 14.6803338,43.6077991 M37.470272,46.6147797 C37.2695178,46.4891278 37.2695178,45.9366926 37.470272,45.3842574 C37.6710262,44.8325443 37.8349515,44.9090909 37.8349515,45.5532376 L37.8349515,45.6716681 C37.8349515,46.3158148 37.6710262,46.7404317 37.470272,46.6147797 M58.0266389,32.8970553 C58.0020862,32.4955468 58.1732328,32.6565835 58.4093717,33.2574019 L58.5537992,33.6300249 C58.7906604,34.229399 58.778384,34.4734815 58.5270802,34.1730723 C58.2764984,33.8719409 58.0511915,33.2978416 58.0266389,32.8970553 M172.247854,43.7897777 C172.472438,43.6135762 172.512156,42.9636524 172.335232,42.3447806 L172.065875,41.4045575 C171.889673,40.7856856 171.7568,40.8059055 171.774131,41.44933 L171.81096,42.9383776 C171.824681,43.5818021 172.021825,43.9652572 172.247854,43.7897777 M202.329214,43.6063548 C202.654898,43.4301533 202.701837,42.8083928 202.431036,42.2249057 L201.223622,39.6107679 C200.954265,39.0243922 200.830057,39.0633876 200.947765,39.6981465 L201.522587,42.7744524 C201.640295,43.4084891 202.00353,43.7825564 202.329214,43.6063548 M203.604509,32.4406644 C203.478857,32.1893605 203.143786,32.4572735 202.859986,33.0349836 L201.614298,35.5819626 C201.329054,36.1603948 201.408489,36.2080558 201.789056,35.6895611 L203.141619,33.8394448 C203.522186,33.3216721 203.730883,32.6926904 203.604509,32.4406644" id="Shape" fill="#282729" fill-rule="nonzero"></path>
            <path d="M184.049747,19.952018 L184.100297,18.4803017 C184.121239,17.8354329 184.272166,17.8195459 184.434647,18.4420284 L184.869373,20.1339966" id="Path" fill="#020303" fill-rule="nonzero"></path>
            <path d="M10.3518415,44.2447244 C9.7755757,44.069245 9.81673754,43.9667014 10.4428308,44.0186953 C11.1282548,44.0745185 11.8119228,44.1501338 12.4929792,44.2454465 C12.9934205,44.3205488 12.9529808,44.4238145 12.4019899,44.4721977 C11.8502768,44.5227473 10.9281072,44.4202038 10.3518415,44.2447244 M39.2091792,41.0167696 C38.7549547,40.561823 38.688518,40.6174276 39.0618631,41.1409773 L39.5240311,41.7880125 C39.8980984,42.3122844 40.4924176,42.924657 40.8440985,43.1514082 C41.1943352,43.3767151 41.1748375,43.1932921 40.799326,42.7412341 C40.315473,42.1735079 39.810837,41.623828 39.2864479,41.0933162 L39.2091792,41.0167696 L39.2091792,41.0167696 Z M50.9612453,39.7335313 C50.8095964,39.7335313 50.8926422,40.1632031 51.1432239,40.6910856 C51.3938057,41.2175239 51.516569,41.2175239 51.4169141,40.6910856 C51.3165369,40.1624809 51.1114499,39.7335313 50.9612453,39.7335313 M67.7372222,45.5676803 C67.2353366,45.5171307 67.3443794,45.3828131 67.977694,45.2658268 L68.6774452,45.1394528 C69.3107598,45.0239108 69.563508,45.0946803 69.2371018,45.2954345 C68.9143063,45.4954666 68.2376635,45.6175078 67.7372222,45.5676803 M79.4481265,40.6903635 C79.2220974,40.3646795 79.1397737,40.5690444 79.2647035,41.1453101 C79.3903555,41.7215759 79.718928,42.6047501 79.9947846,43.1051914 C80.2684747,43.6077991 80.3760732,43.5045334 80.2302014,42.8784402 L80.1247693,42.4249378 C79.9774533,41.795956 79.6741555,41.0153254 79.4481265,40.6903635 M118.191527,41.6919682 C118.115702,41.3157346 117.929391,41.3771163 117.780631,41.8277301 C117.630426,42.279066 117.506941,43.1391318 117.506941,43.7428388 C117.506941,44.3436572 117.673754,44.3364359 117.878841,43.7269518 L117.958276,43.48648 C118.160475,42.8762738 118.266629,42.0682019 118.191527,41.6919682 M105.281874,39.1818182 C105.154778,38.797641 104.863757,38.8633555 104.634839,39.3269678 C104.405922,39.7905801 104.694777,40.4000642 105.272487,40.68242 L105.301372,40.6946963 C105.877638,40.9756078 106.164326,40.9077269 105.933242,40.5423253 C105.704325,40.1790901 105.408971,39.5667175 105.281874,39.1818182 M126.940223,45.7489369 C126.364679,45.5994544 126.419562,45.4759689 127.062986,45.4759689 L127.274573,45.4759689 C127.917997,45.4759689 128.915991,45.6398941 129.494423,45.8406483 C130.069967,46.0414026 130.017973,46.1684988 129.373104,46.122282 L129.15863,46.1071171 C128.516649,46.0601781 127.518655,45.8998636 126.940223,45.7489369 M141.572174,40.6903635 C141.524513,40.4643344 141.338201,40.6701436 141.162,41.1453101 C140.984354,41.6211987 141.026238,41.8067881 141.253711,41.5562064 C141.477574,41.3049025 141.623445,40.9142261 141.572174,40.6903635 M155.646634,40.1928107 C155.596084,39.9689481 155.411217,40.173313 155.23646,40.6499238 C155.060258,41.1250903 155.102142,41.3121239 155.328171,41.0593758 C155.552756,40.8080719 155.697906,40.4188398 155.646634,40.1928107 M153.387788,44.4209259 C152.754473,44.2996068 152.763139,44.1486801 153.402953,44.0858541 L153.899061,44.0381931 C154.539597,43.9768114 155.330338,44.0894648 155.658188,44.2916633 C155.983872,44.4916954 155.881329,44.6563428 155.429993,44.6563428 C154.978657,44.6563428 154.092594,44.5566878 153.459279,44.4346466 L153.387788,44.4209259 Z M174.071973,44.3826527 C173.494263,44.431758 173.494263,44.3299366 174.071973,44.1544572 C174.647517,43.9782556 175.645511,43.8793228 176.285325,43.9342052 L177.143224,44.0093076 C177.78376,44.0634679 177.78376,44.1400144 177.140335,44.1761213 L176.286769,44.2237824 C175.645511,44.2620557 174.646795,44.3328252 174.071973,44.3826527" id="Shape" fill="#595558" fill-rule="nonzero"></path>
            <path d="M187.42213,29.6604349 C187.12172,29.786809 186.673273,30.3746289 186.426302,30.9696702 L186.414026,30.9942229 C186.167054,31.5892642 186.281874,31.656423 186.669662,31.1429832 L187.258926,30.3652411 C187.651047,29.8510792 187.723983,29.5340608 187.42213,29.6604349" id="Path" fill="#282729" fill-rule="nonzero"></path>
            <path d="M210.07775,19.67905 C209.801171,19.67905 209.524593,19.154056 209.461767,18.51352 L209.414828,18.0188558 C209.352724,17.3761534 209.52026,17.3328252 209.784562,17.9192008 L210.099414,18.6117307 C210.362994,19.1988285 210.354329,19.67905 210.07775,19.67905 M123.933242,22.2758565 C123.909412,21.9501725 124.41563,21.7017572 125.059055,21.7234213 L125.450453,21.7356977 C126.0946,21.7580839 126.133595,21.9761695 125.539998,22.2224184 L125.059777,22.4188398 C124.465458,22.6658108 123.957795,22.6008184 123.933242,22.2758565 M91.8912782,23.4608842 C91.63853,23.3352323 91.5006018,23.7547942 91.5843697,24.3931638 L91.64864,24.8993822 C91.7324079,25.5377517 91.9172751,25.5471395 92.0638691,24.919602 L92.0826446,24.8307791 C92.2292385,24.2032416 92.1418599,23.5872583 91.8912782,23.4608842 M63.2195298,32.349675 C63.1444275,32.0990933 63.6102062,31.8947284 64.2543529,31.8947284 L66.7457274,31.8947284 C67.3891519,31.8947284 67.3992618,31.9979941 66.7681136,32.1229239 L64.5056567,32.5742598 C63.8745085,32.7006339 63.29391,32.6002568 63.2195298,32.349675 M12.3333868,37.3620316 C12.3716601,37.1742759 11.8755516,37.0190163 11.2306828,37.0190163 L10.6327529,37.0190163 C9.987162,37.0190163 9.97271925,37.1446682 10.5980903,37.2977614 L11.1274172,37.427024 C11.7520661,37.5808393 12.2943914,37.5497874 12.3333868,37.3620316" id="Shape" fill="#020303" fill-rule="nonzero"></path>
            <path d="M3.26983872,39.4468427 C2.62569205,39.4547862 2.20179732,39.5623847 2.32889352,39.6873145 C2.45526759,39.8136885 3.08497152,39.9155099 3.72839605,39.9155099 L8.49883656,39.9155099 C9.14081682,39.9155099 9.77124288,39.7927465 9.89689481,39.6418198 C10.0225467,39.490893 9.5964856,39.3746289 8.95306106,39.3818503 L3.26983872,39.4468427 L3.26983872,39.4468427 Z M24.8769157,39.4468427 C24.2313247,39.4547862 23.8067079,39.5623847 23.9338041,39.6873145 C24.0587339,39.8136885 24.6869935,39.9155099 25.330418,39.9155099 L30.1008585,39.9155099 C30.7442831,39.9155099 31.373987,39.7927465 31.5003611,39.6418198 C31.626013,39.490893 31.1999519,39.3746289 30.5572495,39.3818503 L24.8769157,39.4468427 L24.8769157,39.4468427 Z M37.023991,39.3522426 C36.3798443,39.3717404 35.8880687,39.4930595 35.9285084,39.6187114 C35.9718366,39.7450855 36.5329375,39.8469068 37.1770842,39.8469068 L37.2594078,39.8469068 C37.9035545,39.8469068 38.4653775,39.7234213 38.5094279,39.5732167 C38.5513119,39.4215678 38.0602584,39.3168579 37.4161117,39.3370778 L37.023991,39.3522426 L37.023991,39.3522426 Z M15.3497553,28.7548744 C14.7063307,28.7765386 14.2145551,28.8971355 14.2571612,29.0220653 C14.3019337,29.1477172 14.8630346,29.2509829 15.5064591,29.2509829 L15.5873385,29.2509829 C16.2307631,29.2509829 16.7918639,29.1274974 16.8366364,28.9772928 C16.8792426,28.8256439 16.3874669,28.7202118 15.7440424,28.7411538 L15.3497553,28.7548744 L15.3497553,28.7548744 Z M24.3057049,28.7548744 C23.6630025,28.7765386 23.171949,28.8971355 23.2138329,29.0220653 C23.2586055,29.1477172 23.8189842,29.2509829 24.4616866,29.2509829 L24.5432881,29.2509829 C25.1874348,29.2509829 25.7485357,29.1274974 25.7918639,28.9772928 C25.8359143,28.8256439 25.3426944,28.7202118 24.6985477,28.7411538 L24.3057049,28.7548744 L24.3057049,28.7548744 Z M6.39163925,30.186151 C5.74893685,30.2092594 5.25499478,30.3305785 5.29326807,30.4576747 C5.33009709,30.5826045 5.85436893,30.6844259 6.45374308,30.6844259 C7.05311723,30.6844259 7.57522266,30.5609404 7.61277381,30.4114579 C7.65176924,30.2612533 7.15710503,30.1572655 6.51440263,30.1818182 L6.39163925,30.186151 Z M17.1276579,33.8315012 C16.4827891,33.8437776 16.0220653,33.9549868 16.1007783,34.0813608 C16.1816577,34.2077349 16.7738105,34.308112 17.4165129,34.308112 L19.5569285,34.308112 C20.2017973,34.308112 20.793228,34.1860708 20.8719409,34.0365883 C20.9520982,33.8863837 20.4899302,33.7730081 19.8465057,33.7838402 L17.1276579,33.8315012 L17.1276579,33.8315012 Z M12.2048463,18.2448849 C11.5599775,18.2564391 11.0992538,18.3683704 11.1794111,18.4933002 C11.258124,18.61823 11.8502768,18.7207735 12.4929792,18.7207735 L14.6362834,18.7207735 C15.2811522,18.7207735 15.8725828,18.5980101 15.9512958,18.4478055 C16.0292867,18.2968788 15.5671187,18.182781 14.9236941,18.1936131 L12.2048463,18.2448849 L12.2048463,18.2448849 Z M49.4649763,39.3522426 C48.8222739,39.3717404 48.3297761,39.4930595 48.3731044,39.6187114 C48.4171548,39.7450855 48.9775335,39.8469068 49.620958,39.8469068 L49.7011153,39.8469068 C50.3445398,39.8469068 50.9078071,39.7234213 50.9511354,39.5732167 C50.9944636,39.4215678 50.502688,39.3168579 49.857097,39.3370778 L49.4649763,39.3522426 L49.4649763,39.3522426 Z M70.7261494,39.348632 C70.0820027,39.3710182 69.5873385,39.4930595 69.6270561,39.6194335 C69.6653294,39.7458076 70.1881569,39.8483511 70.7875311,39.8483511 C71.3890717,39.8483511 71.9097328,39.7248656 71.947284,39.5732167 C71.9862794,39.4230121 71.4887266,39.3197464 70.8489128,39.3428549 L70.7261494,39.348632 L70.7261494,39.348632 Z M53.4309556,39.3681297 C52.7875311,39.3832946 52.3159753,39.4945037 52.3860226,39.6201557 C52.4546257,39.7465297 53.0381128,39.8469068 53.6815374,39.8469068 L55.2817941,39.8469068 C55.9259408,39.8469068 56.5087058,39.7234213 56.578031,39.5739389 C56.646634,39.4237343 56.1765225,39.3096365 55.5323758,39.3240793 L53.4309556,39.3681297 Z M64.7114659,39.3695739 C64.0665971,39.3825724 63.6044291,39.4937816 63.6816978,39.6201557 C63.7596887,39.7465297 64.349675,39.847629 64.9930996,39.847629 L67.0100297,39.847629 C67.6548985,39.847629 68.2441627,39.7241435 68.3228757,39.5739389 C68.3994223,39.4237343 67.93581,39.3089144 67.2923855,39.322635 L64.7114659,39.3695739 Z M77.1560619,39.3623526 C76.5126374,39.3782396 76.0316938,39.4945037 76.0865763,39.6194335 C76.1436251,39.7458076 76.7162802,39.8461847 77.3597047,39.8461847 L78.2313247,39.8461847 C78.8747493,39.8461847 79.4481265,39.7226992 79.5058975,39.5724946 C79.5629463,39.42229 79.0827249,39.3118029 78.4378561,39.3284121 L77.1560619,39.3623526 Z M101.83439,39.3623526 C101.190965,39.3782396 100.710022,39.4945037 100.767793,39.6194335 C100.825564,39.7458076 101.398941,39.8461847 102.043088,39.8461847 L102.911097,39.8461847 C103.553799,39.8461847 104.128621,39.7226992 104.186392,39.5724946 C104.244163,39.42229 103.763941,39.3118029 103.120517,39.3284121 L101.83439,39.3623526 L101.83439,39.3623526 Z M119.404718,39.3580197 C118.761293,39.375351 118.275295,39.4937816 118.325844,39.6187114 C118.377116,39.7450855 118.943272,39.8469068 119.589585,39.8469068 L120.095081,39.8469068 C120.739228,39.8469068 121.30755,39.7234213 121.3581,39.5732167 C121.410094,39.42229 120.924817,39.3139693 120.280671,39.3327449 L119.404718,39.3580197 Z M128.158469,39.3760732 C127.514322,39.385461 127.075263,39.4937816 127.182861,39.6194335 C127.291182,39.7458076 127.906443,39.8461847 128.549868,39.8461847 L132.373586,39.8461847 C133.01701,39.8461847 133.632272,39.7226992 133.742036,39.5724946 C133.851801,39.42229 133.413464,39.3053037 132.768595,39.3139693 L128.158469,39.3760732 L128.158469,39.3760732 Z M138.95948,39.3544091 C138.315333,39.3739068 137.826446,39.4937816 137.871219,39.6201557 C137.915991,39.7450855 138.479981,39.847629 139.120517,39.847629 L139.30394,39.847629 C139.948808,39.847629 140.511354,39.7241435 140.555404,39.5739389 C140.600899,39.4230121 140.112012,39.3168579 139.465698,39.3363556 L138.95948,39.3544091 Z M142.858301,39.3681297 C142.211265,39.3832946 141.744042,39.4945037 141.813368,39.6201557 C141.882693,39.7465297 142.467624,39.8469068 143.111049,39.8469068 L144.751023,39.8469068 C145.394448,39.8469068 145.979379,39.7234213 146.050148,39.5739389 C146.118029,39.4237343 145.649362,39.3096365 145.005215,39.3240793 L142.858301,39.3681297 L142.858301,39.3681297 Z M151.470513,39.3637968 C150.825644,39.3789617 150.349033,39.4937816 150.408248,39.6194335 C150.468908,39.7458076 151.044452,39.847629 151.688598,39.847629 L152.718366,39.847629 C153.361791,39.847629 153.938057,39.7241435 153.997272,39.5739389 C154.056487,39.4237343 153.579154,39.3118029 152.935008,39.32769 L151.470513,39.3637968 L151.470513,39.3637968 Z M156.599133,39.3580197 C155.954265,39.3767953 155.468266,39.4945037 155.515927,39.6201557 C155.565032,39.7458076 156.132633,39.847629 156.778224,39.847629 L157.204285,39.847629 C157.847709,39.847629 158.414587,39.7241435 158.461526,39.5739389 C158.509909,39.4230121 158.023911,39.3154136 157.380486,39.3341892 L156.599133,39.3580197 Z M163.84795,39.3789617 C163.203803,39.3861831 162.784963,39.4937816 162.919281,39.6194335 C163.053599,39.7458076 163.68908,39.847629 164.332504,39.847629 L169.609163,39.847629 C170.25331,39.847629 170.889513,39.7241435 171.023831,39.5732167 C171.157426,39.4230121 170.74003,39.3053037 170.097328,39.3125251 L163.84795,39.3789617 Z M176.151729,39.3789617 C175.50686,39.3861831 175.089465,39.4937816 175.223782,39.6194335 C175.356656,39.7458076 175.993581,39.847629 176.63845,39.847629 L181.913664,39.847629 C182.558533,39.847629 183.194736,39.7241435 183.329776,39.5732167 C183.465538,39.4230121 183.04742,39.3053037 182.404718,39.3125251 L176.151729,39.3789617 L176.151729,39.3789617 Z M207.25997,39.3789617 C206.616545,39.3861831 206.199149,39.4937816 206.336356,39.6194335 C206.469229,39.7458076 207.10471,39.847629 207.751023,39.847629 L213.020461,39.847629 C213.665329,39.847629 214.302255,39.7241435 214.436572,39.5732167 C214.57089,39.4230121 214.153494,39.3053037 213.511514,39.3125251 L207.25997,39.3789617 L207.25997,39.3789617 Z M195.841531,18.6521704 C195.198106,18.6651689 194.73305,18.7763781 194.808152,18.9027521 C194.883254,19.0284041 195.473241,19.1295033 196.116665,19.1295033 L198.057049,19.1295033 C198.701196,19.1295033 199.29046,19.00674 199.366284,18.8558132 C199.441387,18.7056086 198.975608,18.592233 198.332183,18.6045093 L195.841531,18.6521704 Z M186.13167,18.6557811 C185.489689,18.6666132 185.034021,18.7763781 185.119955,18.9027521 C185.208056,19.0284041 185.805264,19.1295033 186.450855,19.1295033 L188.993501,19.1295033 C189.639814,19.1295033 190.235577,19.00674 190.322956,18.8565353 C190.408168,18.7056086 189.952499,18.592233 189.308353,18.6016208 L186.13167,18.6557811 L186.13167,18.6557811 Z M181.208136,18.6463933 C180.564712,18.6615582 180.086657,18.7778224 180.14876,18.90203 C180.207976,19.0276819 180.782797,19.1295033 181.42911,19.1295033 L182.522426,19.1295033 C183.167295,19.1295033 183.742117,19.00674 183.80422,18.8558132 C183.86488,18.7048865 183.389714,18.5951216 182.7434,18.6102864 L181.208136,18.6463933 Z M182.852443,28.7050469 C182.207574,28.7166011 181.746129,28.8285325 181.824119,28.9541844 C181.899944,29.0798363 182.491374,29.1802134 183.134077,29.1802134 L185.19578,29.1802134 C185.838482,29.1802134 186.428468,29.0581722 186.507181,28.9086897 C186.585894,28.757763 186.122282,28.6451095 185.477413,28.6559416 L182.852443,28.7050469 L182.852443,28.7050469 Z M152.838963,17.9654176 C152.194095,17.9805825 151.716762,18.0954024 151.778143,18.2210543 C151.838081,18.345262 152.413624,18.4478055 153.058493,18.4478055 L154.150365,18.4478055 C154.795234,18.4478055 155.370055,18.3250421 155.430715,18.1748375 C155.48993,18.0246329 155.013319,17.9134237 154.368451,17.9300329 L152.838963,17.9654176 Z M159.810479,17.9654176 C159.16561,17.9805825 158.688999,18.0954024 158.749659,18.2210543 C158.808874,18.345262 159.387306,18.4478055 160.030009,18.4478055 L161.126214,18.4478055 C161.769638,18.4478055 162.345182,18.3250421 162.406563,18.1748375 C162.464334,18.0246329 161.989168,17.9134237 161.342855,17.9300329 L159.810479,17.9654176 Z M155.346225,22.3906764 C154.825564,22.4137848 154.425499,22.5379925 154.456551,22.6636444 C154.486881,22.7900185 154.889834,22.8932841 155.349113,22.8932841 C155.808393,22.8932841 156.210623,22.7690765 156.238787,22.6188719 C156.267672,22.4701115 155.865442,22.3668459 155.346225,22.3906764 M157.829656,20.955067 C157.185509,20.9796197 156.690845,21.1031052 156.72623,21.2287571 C156.763059,21.3544091 157.266389,21.4576747 157.844821,21.4576747 C158.423253,21.4576747 158.925138,21.3341892 158.961967,21.1832625 C158.998074,21.0316136 158.500522,20.9283479 157.857097,20.9543449 L157.829656,20.955067 L157.829656,20.955067 Z M126.789296,21.2287571 C126.14515,21.2525877 125.648319,21.375351 125.685148,21.5017251 C125.720533,21.627377 126.223863,21.7306427 126.803017,21.7306427 C127.382171,21.7306427 127.884779,21.6071572 127.925219,21.4569526 C127.963492,21.3060258 127.465217,21.202038 126.823959,21.2265907 L126.789296,21.2287571 Z M134.583327,28.4826286 C133.937014,28.5028484 133.446682,28.6220011 133.494343,28.7483752 C133.539116,28.873305 134.103827,28.9765706 134.747252,28.9765706 L134.948006,28.9765706 C135.592875,28.9765706 136.156864,28.8545294 136.200193,28.7043248 C136.244965,28.5526759 135.756078,28.4465217 135.111931,28.4652973 L134.583327,28.4826286 Z M129.113857,31.0953222 C128.470432,31.110487 127.999599,31.2216962 128.069646,31.346626 C128.139693,31.4730001 128.721736,31.5740993 129.368049,31.5740993 L130.964695,31.5740993 C131.60812,31.5740993 132.192329,31.4506138 132.260932,31.3004092 C132.330258,31.1487603 131.860146,31.036829 131.217444,31.0512718 L129.113857,31.0953222 Z M206.505336,31.6419803 C205.861911,31.6571451 205.393244,31.7683543 205.463291,31.8947284 C205.532617,32.0196582 206.11827,32.1214796 206.760972,32.1214796 L208.356174,32.1214796 C209.001043,32.1214796 209.58453,31.9979941 209.6553,31.8470673 C209.724625,31.6968627 209.254513,31.5856535 208.613255,31.598652 L206.505336,31.6419803 L206.505336,31.6419803 Z M77.7727674,33.6856295 C77.1293429,33.7029608 76.6440664,33.8213913 76.6953382,33.945599 C76.7480542,34.0698066 77.3170986,34.171628 77.9605231,34.171628 L78.5873385,34.171628 C79.2307631,34.171628 79.8019738,34.0488646 79.8546899,33.89866 C79.9074059,33.7484554 79.4250181,33.6408569 78.7801492,33.6574661 L77.7727674,33.6856295 L77.7727674,33.6856295 Z M66.8309396,31.4968306 C66.187515,31.5141619 65.7036829,31.6325925 65.7556768,31.7568001 C65.8076707,31.8810078 66.3759929,31.9835513 67.0194175,31.9835513 L67.6476771,31.9835513 C68.2925459,31.9835513 68.8630346,31.8607879 68.9157506,31.7113055 C68.9684667,31.5603787 68.4846345,31.4520581 67.8404878,31.4693894 L66.8309396,31.4968306 Z M51.2407125,31.2910214 C50.5965658,31.3083527 50.1134558,31.4267833 50.1661719,31.5517131 C50.2203322,31.677365 50.7908208,31.7799085 51.4342454,31.7799085 L52.0610607,31.7799085 C52.7044853,31.7799085 53.2749739,31.656423 53.32769,31.5047741 C53.3811281,31.3545695 52.8965739,31.2455268 52.2524272,31.2628581 L51.2407125,31.2910214 Z M27.6578673,22.9517773 C27.0144428,22.9640536 26.5450534,23.0738185 26.6158228,23.1994704 C26.6880366,23.3258445 27.2722458,23.4298323 27.9171147,23.4327209 L29.6343577,23.4392201 C30.2777822,23.4421086 30.86488,23.3200674 30.9356495,23.1698628 C31.0085854,23.0189361 30.5413624,22.9048383 29.8972158,22.9149482 L27.6578673,22.9517773 L27.6578673,22.9517773 Z M71.9241756,18.9886865 C71.2843617,18.917917 70.7875311,18.9684667 70.8229158,19.0998957 C70.8575784,19.232769 71.4085694,19.411137 72.0462168,19.4970713 L72.6694215,19.5808393 C73.3077911,19.6682179 73.8891118,19.6234454 73.9606034,19.4819064 C74.032095,19.3403675 73.5684827,19.1670545 72.9272246,19.0970071 L71.9241756,18.9886865 Z M139.028083,32.7952339 C138.383214,32.8118431 137.89866,32.9295515 137.952098,33.0544813 C138.004092,33.1794111 138.575303,33.2812324 139.217283,33.2812324 L139.844821,33.2812324 C140.488245,33.2812324 141.058012,33.1584691 141.11145,33.0082645 C141.162,32.8580599 140.679612,32.7497392 140.034021,32.7670705 L139.028083,32.7952339 L139.028083,32.7952339 Z M158.717163,30.8822916 C158.073738,30.8996229 157.589906,31.0166092 157.643344,31.1422611 C157.69606,31.2664687 158.265827,31.3682901 158.909251,31.3682901 L159.536789,31.3682901 C160.181658,31.3682901 160.74998,31.2448046 160.802696,31.0946 C160.853968,30.9429511 160.37158,30.8367969 159.728877,30.8534061 L158.717163,30.8822916 L158.717163,30.8822916 Z M111.403434,18.4586376 C110.76001,18.4651368 110.366445,18.5727353 110.531814,18.6991094 C110.697184,18.8240392 111.357217,18.9265827 112.000642,18.9265827 L118.933884,18.9265827 C119.577309,18.9265827 120.237343,18.8045414 120.40199,18.6521704 C120.564471,18.5019658 120.17235,18.3828131 119.527481,18.3893124 L111.403434,18.4586376 L111.403434,18.4586376 Z M87.9563508,18.5286849 C87.3136484,18.534462 86.9236941,18.6413384 87.0941186,18.7662682 C87.2638209,18.8926422 87.9303538,18.9937415 88.5730562,18.9937415 L95.8030972,18.9937415 C96.4465217,18.9937415 97.1116104,18.8717002 97.2813127,18.7200514 C97.451015,18.5698467 97.0610607,18.4514162 96.4176362,18.4571933 L87.9563508,18.5286849 L87.9563508,18.5286849 Z M86.7272727,28.5014042 C86.0831261,28.5107919 85.631068,28.6220011 85.7227794,28.7476531 C85.8137688,28.8740271 86.4160315,28.9772928 87.0601781,28.9772928 L89.9313969,28.9772928 C90.5740993,28.9772928 91.176362,28.8545294 91.2673514,28.7043248 C91.3583407,28.5541202 90.9062826,28.4393003 90.2628581,28.4486881 L86.7272727,28.5014042 L86.7272727,28.5014042 Z M93.014202,28.500682 C92.3707775,28.5100698 91.9143866,28.6220011 92.0017652,28.7476531 C92.0891439,28.8740271 92.6863516,28.9772928 93.3304983,28.9772928 L95.896975,28.9772928 C96.5396774,28.9772928 97.1376073,28.8552515 97.224986,28.7050469 C97.3123646,28.5533981 96.8559737,28.4385782 96.2125491,28.4494103 L93.014202,28.500682 L93.014202,28.500682 Z M106.485678,38.051673 C105.841531,38.0733371 105.349755,38.1953783 105.390917,38.319586 C105.432079,38.4445158 105.992458,38.5477814 106.636604,38.5477814 L106.656102,38.5477814 C107.299527,38.5477814 107.860627,38.4250181 107.903956,38.2740913 C107.948006,38.1231646 107.455508,38.0184546 106.811362,38.0401188 L106.485678,38.051673 L106.485678,38.051673 Z M104.634839,22.0252748 C103.995025,21.9508946 103.50686,22.0014443 103.551633,22.1321512 C103.596405,22.267913 104.153896,22.4477253 104.791543,22.535826 L105.967905,22.6997513 C106.606275,22.7864078 107.194817,22.7445238 107.27714,22.6029848 C107.359464,22.4614459 106.904517,22.2866886 106.263981,22.2123084 L104.634839,22.0252748 L104.634839,22.0252748 Z M163.428388,32.8291744 C162.787852,32.7547942 162.301131,32.8031774 162.34807,32.9346064 C162.389232,33.0682019 162.951777,33.2487363 163.589425,33.3375592 L164.761454,33.5000401 C165.400546,33.5874188 165.988366,33.5455348 166.070689,33.404718 C166.153013,33.2646233 165.697344,33.0891439 165.058975,33.016208 L163.428388,32.8291744 L163.428388,32.8291744 Z M161.298804,22.3906764 C160.816417,22.4137848 160.443071,22.5379925 160.471235,22.6636444 C160.497954,22.7900185 160.869855,22.8932841 161.296638,22.8932841 C161.725588,22.8932841 162.096766,22.7690765 162.124208,22.6188719 C162.151649,22.4701115 161.781192,22.3668459 161.298804,22.3906764 M189.073658,28.7064912 C188.429511,28.7180454 187.97312,28.8278103 188.058333,28.9534622 C188.145711,29.0791142 188.742197,29.1816577 189.387066,29.1816577 L191.934045,29.1816577 C192.576747,29.1816577 193.176843,29.0581722 193.261334,28.9079676 C193.345824,28.757763 192.890155,28.6451095 192.245286,28.6537752 L189.073658,28.7064912 L189.073658,28.7064912 Z M211.632512,18.6478376 C210.989088,18.6622803 210.512477,18.7771002 210.575303,18.9027521 C210.638129,19.0284041 211.216561,19.1295033 211.859263,19.1295033 L213.029848,19.1295033 C213.676161,19.1295033 214.253871,19.0074621 214.314531,18.8558132 C214.378079,18.7056086 213.902913,18.5958437 213.258044,18.6095643 L211.632512,18.6478376 Z M110.450213,39.3775175 C109.806788,39.3861831 109.377116,39.4945037 109.494103,39.6201557 C109.613977,39.7458076 110.237182,39.8469068 110.880607,39.8469068 L115.26687,39.8469068 C115.910294,39.8469068 116.533499,39.7241435 116.653374,39.5739389 C116.771805,39.4237343 116.341411,39.306748 115.698708,39.3154136 L110.450213,39.3775175 L110.450213,39.3775175 Z M81.7358581,39.380406 C81.0917115,39.3869052 80.6930916,39.4930595 80.8483511,39.6187114 C81.0043328,39.7450855 81.6571451,39.8469068 82.302014,39.8469068 L88.8070288,39.8469068 C89.4511755,39.8469068 90.1061542,39.7234213 90.2621359,39.5717724 C90.4181176,39.4215678 90.0180534,39.3031373 89.3746289,39.3096365 L81.7358581,39.380406 Z M92.4018294,39.3717404 C91.759127,39.3840167 91.302014,39.4945037 91.3872262,39.6201557 C91.4731606,39.7458076 92.0696462,39.8469068 92.7130707,39.8469068 L95.2181658,39.8469068 C95.8615903,39.8469068 96.4573538,39.7234213 96.5447324,39.5732167 C96.6285004,39.4230121 96.1713873,39.3089144 95.5279628,39.3183022 L92.4018294,39.3717404 Z M41.6521704,39.4323999 C41.0087459,39.4475648 40.5285244,39.5631068 40.589184,39.6880366 C40.6483993,39.8144107 41.2224986,39.9155099 41.8680895,39.9155099 L42.9209661,39.9155099 C43.5643906,39.9155099 44.1399342,39.7927465 44.1991495,39.6418198 C44.259809,39.490893 43.7824761,39.3818503 43.1390516,39.396293 L41.6521704,39.4323999 L41.6521704,39.4323999 Z" id="Shape" fill="#E1DCD7" fill-rule="nonzero"></path>
            <rect id="Rectangle" stroke-opacity="0" stroke="#979797" x="108.5" y="0.5" width="59" height="59"></rect>
        </g>
    </g>
</svg>