<?xml version="1.0" encoding="UTF-8"?>
<svg width="247px" height="60px" viewBox="0 0 247 60" version="1.1" xmlns="http://www.w3.org/2000/svg" xmlns:xlink="http://www.w3.org/1999/xlink">
    <title>logo</title>
    <g id="Page-1" stroke="none" stroke-width="1" fill="none" fill-rule="evenodd">
        <g id="logo" fill-rule="nonzero">
            <path d="M0,29.3772487 C0.486129957,29.3666716 1.0464817,29.0879797 1.38868268,29.7471455 C1.62065633,30.1939883 2.01381552,30.5578913 2.52003148,30.8537212 C2.33836216,30.3778206 2.15669283,29.9019202 1.92764368,29.3019032 C4.39167078,29.3019032 6.70437806,29.3155797 9.01667585,29.2910165 C9.51262026,29.2857526 10.1629872,29.5831151 10.4165766,28.7862881 C10.4421082,28.7060618 10.7848599,28.7026926 10.9804026,28.7026558 C18.1745322,28.7012025 25.3686617,28.7042531 32.5627915,28.7087475 C32.6263512,28.7087873 32.6898926,28.7366955 32.8244275,28.7682335 C32.8244275,29.2970837 32.8244275,29.8436727 32.8244275,30.4404584 C30.8805385,30.7409268 28.9578855,31.1243377 27.2924372,32.298024 C25.669784,33.441555 24.5167266,34.9289478 24.1026148,36.8528548 C23.9574265,37.5273802 24.0706179,38.4682638 24.460174,39.0025037 C25.3218097,40.1841519 26.4335671,41.1850274 27.599803,42.4261923 C27.599803,42.761697 27.599803,43.41883 27.599803,44.1221374 C22.5209521,44.1221374 17.4905915,44.1221374 12.3853874,44.1221374 C12.3853874,43.4459196 12.3853874,42.7662344 12.3853874,41.9697598 C14.2672339,41.9697598 16.1598315,41.9697598 18.0524307,41.9697598 C18.0524413,41.8960761 18.0524537,41.8223892 18.0524644,41.7487053 C16.4280266,41.7487053 14.8035889,41.7487053 13.1791512,41.7487053 C13.1551931,41.6790254 13.1312365,41.6093455 13.1072799,41.5396658 C13.4138081,41.3439379 13.7102557,41.1299623 14.0286121,40.9556462 C15.3898956,40.2102912 15.9395401,39.0157328 15.7172471,37.5530381 C15.5025389,36.140261 14.4646034,35.2997921 13.1584619,34.9511504 C11.9259662,34.6221701 10.6284903,34.5398866 9.36425318,34.3222782 C6.43262311,33.8176663 3.55049474,33.1520071 1.14217051,31.2730205 C0.718917119,30.9427985 0.463795329,30.398981 0.0655132787,29.9292366 C0,29.7539762 0,29.6032852 0,29.3772487 Z" id="Path" fill="#367FCA"></path>
            <path d="M43.3648276,60 C41.7664463,59.5971161 40.2248796,59.2988748 38.7654557,58.7724149 C33.7000863,56.9451692 30.0284488,53.5447527 27.8448175,48.6163755 C27.5508453,47.9528915 27.2352701,47.8844702 26.6698486,47.8856343 C22.202676,47.8948545 17.7354773,47.8907555 13.268288,47.8907524 C13.0348418,47.8907524 12.8013971,47.8907524 12.5679507,47.8907524 C12.5516623,47.8108629 12.535373,47.7309735 12.519084,47.6510872 C13.2054612,47.529316 13.888683,47.3258784 14.5787324,47.2991481 C18.7499811,47.1375492 22.9231321,47.0256016 27.0947559,46.8727117 C27.8048904,46.8466834 28.1336465,47.0170836 28.4364901,47.7761503 C29.6942295,50.9286363 31.7961146,53.474379 34.4961565,55.5167182 C37.1255721,57.5056335 40.1236313,58.6827018 43.3516068,59.1547707 C45.9168591,59.5299265 48.5238783,59.5610176 51.0864914,59.0043906 C54.743804,58.2099799 58.3909561,57.3687416 62.0439468,56.5542525 C63.1262189,56.3129458 64.2135357,56.0943477 65.3435115,56.0779398 C61.08687,57.2450303 56.8368607,58.4374532 52.5681551,59.558517 C51.6811139,59.7914719 50.7247598,59.759919 49.7608265,59.9251301 C47.633967,60 45.5466379,60 43.3648276,60 Z" id="Path" fill="#367FCA"></path>
            <path d="M229.184948,0 C230.292185,0.20117393 231.307149,0.391487446 232.317259,0.605718667 C234.627975,1.09579377 236.632599,2.18874924 238.371488,3.80778403 C238.847123,4.25064562 239.354519,4.65816393 239.847328,5.08189546 C239.78403,5.16910052 239.720707,5.25630598 239.657384,5.34351145 C239.240242,5.04481171 238.808095,4.76544884 238.408348,4.44428652 C235.797008,2.34623214 232.843504,1.30215809 229.518243,0.977996088 C226.481531,0.681960311 223.545841,0.904476589 220.779471,2.09790328 C218.989209,2.8702328 217.392957,4.1091132 215.604642,5.10786367 C215.472945,5.05386504 215.446384,5.03093064 215.419847,5.00799625 C218.16828,2.01592192 221.53013,0.353753637 225.606149,0.0765387134 C226.794302,0 227.942416,0 229.184948,0 Z" id="Path" fill="#367FCA"></path>
            <path d="M246.870229,48.2554033 C246.19214,49.4361889 245.607797,50.6209457 244.818502,51.6497756 C242.388498,54.8172088 239.207589,56.9803902 235.408553,58.2081159 C234.165366,58.6098782 232.867343,58.8434707 231.603053,59.0839695 C233.640465,58.2600287 235.759288,57.5905442 237.697258,56.5779003 C241.061621,54.8199713 243.677753,52.191442 245.723784,48.9976886 C245.978866,48.599509 246.393798,48.3028889 246.802465,47.9389313 C246.870229,48.0084455 246.870229,48.0982495 246.870229,48.2554033 Z" id="Path" fill="#367FCA"></path>
            <path d="M0,27.1656037 C2.73202732,26.9684977 5.46424648,26.8288399 8.19561754,26.6724439 C8.36307447,26.6628592 8.52344944,26.5200734 8.68776581,26.4407763 C9.41077294,26.0918534 10.1088841,25.5509017 10.8630132,25.4396701 C12.0184666,25.2692475 13.2130737,25.3714087 14.3901552,25.400074 C16.598264,25.4538439 18.8054743,25.5489035 21.0135538,25.6044848 C22.0984041,25.6317938 23.1843634,25.6092214 24.2698191,25.6092214 C24.271483,25.7523381 24.2731453,25.8954514 24.2748092,26.0385682 C23.949359,26.0385682 23.6239072,26.0385682 23.2984572,26.0385682 C19.3615798,26.0385682 15.4247026,26.0384896 11.487826,26.0386238 C10.5831047,26.0386567 9.68806139,25.9981336 9.16585574,27.0687098 C9.06916742,27.2669328 8.57581426,27.31386 8.26484404,27.3159825 C5.57307563,27.3344049 2.88114851,27.3266021 0.0946343217,27.3266088 C0,27.3266088 0,27.2192721 0,27.1656037 Z" id="Path" fill="#367FCA"></path>
            <path d="M69.7573016,46.3301484 C70.1388414,46.8367368 70.5203809,47.343325 70.9552389,47.784072 C71.0085512,47.7182307 70.994973,47.7029638 70.994973,47.7029638 C71.3052272,48.5166187 71.658708,49.3168661 71.9155397,50.1470972 C72.2939363,51.3702859 71.9003225,53.3027688 71.1289195,54.351145 C69.8269235,51.2006527 66.9583168,50.3257456 64.6016482,50.5889815 C62.8347712,50.7863424 61.0885257,51.2372602 59.3574542,51.6724653 C56.4713837,52.3980501 53.6077551,53.2127776 50.727384,53.9618145 C50.1924606,54.1009169 49.6249114,54.1400141 49.0694456,54.1699333 C44.7237692,54.4040185 40.3985152,54.370036 36.7515473,51.5195375 C33.7588279,49.1804039 31.9452039,46.1611022 31.549506,42.2446248 C31.2733231,39.5110492 31.5483581,36.9153864 32.703081,34.500874 C34.572758,30.5914074 37.7653996,28.1955061 41.9750734,27.2013311 C42.9555542,26.9697755 43.9714903,26.8887871 45.0785054,26.7223782 C46.1450622,22.2897379 47.234021,17.8201904 48.2864993,13.3420458 C48.4948189,12.4556671 48.625779,11.540099 48.681387,10.6311802 C48.7706457,9.17220573 48.2534777,7.96036293 46.6950401,7.04517356 C48.6364722,7.04517356 50.2940974,6.99939045 51.9456917,7.07904794 C52.3332656,7.09774125 52.7004535,7.54050064 53.1789987,7.85523843 C53.8842357,6.77937579 55.0673118,7.05927955 56.1717488,7.04693794 C57.2016285,7.03542926 58.2317292,7.044479 59.2576004,7.044479 C58.9810217,7.35417363 58.7416172,7.62224138 58.5747626,7.95768262 C58.6473065,8.0250561 58.6672195,8.05154581 58.6058413,7.97328146 C58.4079693,8.08342678 58.2714754,8.27183624 58.1401623,8.4549584 C58.1453494,8.44967089 58.1535625,8.43733693 58.0808406,8.46651924 C57.2890703,10.0445709 57.4217461,11.6408648 57.8149488,13.2235955 C59.5896091,20.3670279 61.4007503,27.5013743 63.1714515,34.6457824 C63.8126769,37.2330142 64.4310982,39.8214414 65.9962299,42.045847 C66.1461178,42.2588589 66.4699011,42.3491575 66.7523605,42.541748 C67.0290253,42.8867561 67.2662814,43.1864397 67.5035373,43.4861233 C67.6101556,43.7186961 67.7167739,43.9512691 67.8247241,44.1867437 C65.4413718,44.6212296 63.43161,44.3791958 62.7167847,43.7736414 C61.9908735,43.9922935 61.4684571,44.2626482 60.9342671,44.288427 C59.5749813,44.3540162 58.2104289,44.310244 56.7018628,44.310244 C59.356122,42.3329284 58.6792753,39.80307 58.0929333,37.3570924 C56.7470232,31.7425461 55.3170904,26.1482459 53.9374742,20.5417249 C53.675333,19.4764111 53.4879024,18.3926598 53.0572737,17.2945868 C52.7450736,18.4481891 52.4135191,19.5969608 52.1248354,20.7564352 C51.5840589,22.9283744 51.0505074,25.1026084 50.5670637,27.2876738 C50.5144974,27.5252691 50.7403115,27.9304567 50.9589652,28.102008 C51.5478544,28.5640432 52.2027259,28.9417245 52.9190672,29.2733989 C53.0434807,29.2265683 53.0817046,29.2579444 53.0426214,29.3509848 C53.3229631,29.6790137 53.6820792,29.9441031 54.0670623,30.240667 C54.1715875,30.3468809 54.2502329,30.4216236 54.2479801,30.564522 C54.3597178,30.8297159 54.5523536,31.0267539 54.7364939,31.2165106 C54.7279984,31.209226 54.7136037,31.1920717 54.7136037,31.1920717 C54.8395765,31.5625053 54.9296149,31.9502036 55.0974209,32.3005384 C56.1011816,34.3960768 56.2967639,36.5501289 55.5201494,38.7471264 C55.287626,39.4049151 54.880041,40.00064 54.4866603,40.7506206 C54.138753,39.4578438 53.9272845,38.2767769 53.5002038,37.179904 C52.8959192,35.6278995 51.8698392,34.3617838 50.3518262,33.5661622 C50.2981458,33.6319205 50.3104226,33.6484754 50.3696522,33.5868421 C50.0714109,33.296324 49.71394,33.0674395 49.2641994,32.7794698 C48.7165111,35.0227784 48.1215998,37.1082752 47.7210618,39.2305637 C47.4771302,40.52307 47.5251908,41.8778181 48.2936383,43.0605664 C48.3817952,43.1962508 48.6347073,43.2245841 48.8106836,43.3130752 C48.8101403,43.323458 48.7764803,43.3087568 48.7764803,43.3087568 C48.9601358,43.6184913 49.1437911,43.9282288 49.3680952,44.3065156 C47.7753807,44.3065156 46.1059206,44.5048047 44.5079882,44.2511772 C42.8850543,43.9935783 41.3508513,42.0783234 41.8296726,39.9658275 C42.4066503,37.420278 43.0051802,34.8796249 43.6379592,32.1487878 C42.810411,32.5687138 42.0670945,32.9459001 41.3888327,33.3816709 C41.4538876,33.4402553 41.4710138,33.4279974 41.4008977,33.364028 C41.1688287,33.4834834 41.0068788,33.6669052 40.8500727,33.845117 C40.8552198,33.839907 40.8672265,33.8315345 40.8092614,33.7699749 C40.0487264,34.1219664 39.2728761,34.4721381 39.2420337,35.4573379 C39.2461064,35.4515041 39.2563054,35.4415946 39.1965142,35.3824541 C37.3313827,37.2515483 36.9665334,39.6006222 37.3435368,42.0758091 C37.523555,43.2576906 37.8241075,44.489756 38.8395436,45.3278313 C38.8354368,45.3218468 38.8251367,45.3116206 38.8344917,45.4065237 C39.0150349,45.5744293 39.1862231,45.6474293 39.3979312,45.7665895 C39.7365663,46.2523322 40.0346847,46.6919111 40.3888257,47.1786957 C40.6496102,47.3333325 40.8543758,47.4407697 41.0533221,47.5427482 C41.0475088,47.5372895 41.0323562,47.5323255 41.0323562,47.5323255 C42.2527663,48.0681074 43.4328162,48.879958 44.7043011,49.066392 C46.1365297,49.2763919 47.6652573,49.0146957 49.1259837,48.7891309 C50.6282823,48.5571451 51.3900419,47.3996501 51.912575,46.0732966 C51.981761,45.8976727 52.0556493,45.7239085 52.2490708,45.2529011 C52.7327415,46.2771091 53.1082472,47.0722758 53.508012,47.918825 C55.7360682,47.3051191 58.0236061,46.6228456 60.338478,46.0516885 C62.7885305,45.4471637 65.2744436,45.0347838 67.7817246,45.7332739 C68.4308196,45.9141015 69.0349812,46.2566784 69.7180218,46.4402844 C69.7762509,46.3556138 69.7573016,46.3301484 69.7573016,46.3301484 Z" id="Path" fill="#FFFFFF"></path>
            <path d="M125.925341,34.4386955 C126.810505,34.3421668 127.066009,33.9681083 127.052072,33.1160136 C126.991689,29.4245195 127.047119,25.731307 127.018974,22.0390383 C126.999543,19.4888549 126.369465,17.1883262 124.104819,15.4479156 C126.440196,15.5545445 128.809741,15.4532417 131.100762,15.8299177 C133.138627,16.1649713 134.2541,18.4086786 134.268295,20.1552237 C134.293404,23.2432802 134.275338,26.3316888 134.275338,29.4199482 C134.275338,29.7489732 134.275338,30.0779983 134.275338,30.4326988 C140.905962,28.0197848 144.627213,30.4578148 145.935215,34.580879 C145.33327,34.3964135 144.820135,34.2340789 144.303989,34.0819538 C142.796552,33.6376413 141.38917,34.1300399 140.072098,34.7218019 C138.207847,35.5594049 136.418113,36.5658536 134.618988,37.5415849 C134.427664,37.6453443 134.291438,38.0252438 134.289754,38.2781033 C134.268025,41.5340585 134.149042,44.7968322 134.319079,48.0440231 C134.435899,50.2751585 135.12744,52.4007302 137.504666,53.8238851 C135.675455,53.8238851 134.138116,53.9414167 132.63305,53.7720117 C131.929071,53.6927842 131.287428,53.0590938 130.65901,52.7003692 C128.929904,54.8056021 126.429319,53.4066593 124.215457,53.7633426 C126.569491,51.9295833 127.063391,49.4424127 127.031018,46.7304036 C127.006622,44.6870138 127.026188,42.6430952 127.026188,40.5741035 C121.409248,41.5331025 116.626503,40.1039527 112.940268,35.7580268 C110.803626,33.2390017 109.845875,30.2002672 109.469999,26.9036591 C109.1152,23.7919347 109.316037,20.7871111 110.54495,17.927373 C111.165392,16.4836103 111.975806,15.0603907 112.970969,13.8507672 C115.686622,10.5498331 119.078147,8.09353794 123.346786,7.37841816 C125.664097,6.99020301 128.134766,7.01689841 130.46814,7.3435248 C133.96685,7.8332735 137.399252,8.78336414 140.871721,9.47837735 C144.415868,10.1877383 147.760566,9.93195699 150.477301,7.02290076 C150.932745,11.1566836 148.625869,14.1306778 144.823195,15.1265067 C142.82992,15.6484988 140.792743,15.7358083 138.73986,15.3614008 C138.024659,15.2309593 137.324097,15.19928 137.244947,16.3449346 C137.200787,16.9841416 136.691672,17.5911944 136.2987,18.4064852 C135.261885,15.2753072 133.028653,14.1918338 130.200469,13.6930855 C127.470497,13.2116555 124.83301,13.2080542 122.399335,14.5629735 C118.754161,16.5923804 116.583069,19.6112775 116.536698,23.9672575 C116.512559,26.2342745 116.705297,28.4453694 117.781588,30.4586449 C118.982799,32.7055968 120.754848,34.2749285 123.43481,34.4748047 C124.233794,34.5343975 125.041344,34.479293 125.925341,34.4386955 Z" id="Path" fill="#FFFFFF"></path>
            <path d="M224.369349,20.1972611 C224.474248,20.4346647 224.515223,20.7493765 224.694388,20.8969494 C225.866968,21.8628304 228.260243,22.5898069 229.958993,21.3939818 C230.304495,22.628633 229.566902,23.5252154 229.226891,24.5550444 C229.294386,24.6118465 229.311426,24.5971487 229.236863,24.536156 C229.005889,24.8249929 228.849476,25.1748226 228.649379,25.562068 C228.331703,25.8040357 228.057684,26.0085858 227.67894,26.2145675 C227.47579,26.388315 227.377318,26.5606337 227.263677,26.7462984 C227.248509,26.7596475 227.194065,26.8193575 227.125831,26.7383658 C226.860259,26.8502156 226.662921,27.043054 226.472748,27.227407 C226.479914,27.2189213 226.496707,27.2044294 226.496707,27.2044262 C225.355548,27.7688001 224.214414,28.333174 223.055549,28.9634608 C223.037845,29.0293707 223.049492,29.018369 222.969463,29.0258254 C222.772642,29.1677713 222.65585,29.302261 222.502638,29.4693383 C222.322069,29.5756396 222.177918,29.649353 221.976025,29.7762572 C221.411564,30.1339672 220.820116,30.3820703 221.012012,31.1753821 C220.996277,31.1886359 220.940109,31.2487207 220.88537,31.1709026 C220.671632,31.2032109 220.462818,31.2794098 220.36085,31.4284344 C217.691488,35.3289886 217.523699,40.1183047 219.854798,44.1915525 C219.914758,44.2963483 220.170554,44.2895032 220.348341,44.3500458 C220.361662,44.3653644 220.42145,44.4201586 220.338516,44.5006987 C220.484069,44.7678561 220.712582,44.9544762 220.977563,45.184385 C221.146805,45.468443 221.279578,45.7092064 221.412328,45.9499726 C222.760798,47.504669 224.514188,48.2398501 226.510595,48.5748989 C230.08369,49.174555 233.05354,47.968665 235.478704,45.468483 C237.509609,43.3747682 238.647641,40.7839537 238.34794,37.8137631 C238.021423,34.5776382 235.317809,32.4136386 232.222646,32.9087693 C230.266549,33.2216851 228.812613,35.3458402 229.510192,37.3147984 C229.885662,38.3746131 230.795551,38.7182275 231.856878,38.9421485 C231.434573,40.1061446 230.407005,40.5110603 229.403791,40.6780178 C226.718325,41.1249504 224.206337,39.2010934 224.189765,36.2760564 C224.165658,32.0233438 227.800534,28.185535 231.370895,27.8386979 C232.366525,27.741976 233.379392,27.8172932 234.38433,27.8229585 C234.86071,27.8256498 235.194713,27.8463878 235.400423,27.1912401 C235.703473,26.2260825 236.466233,25.5454792 237.629578,25.1443055 C237.037613,26.3449403 237.625491,27.2513893 238.101698,28.2122363 C238.169218,28.233681 238.157816,28.2218402 238.167174,28.3167005 C238.348235,28.4845274 238.51994,28.5574975 238.732496,28.6787146 C239.178637,29.1260803 239.583878,29.5251986 239.911158,29.9756767 C240.628412,30.8415253 241.423626,31.6560175 242.212831,32.4632069 C242.206823,32.455901 242.19488,32.4412155 242.200814,32.5203085 C243.65933,35.8277876 243.844677,39.1748776 242.987188,42.5641656 C242.674707,43.7992883 242.062648,44.9589004 241.592523,46.1478712 C241.597792,46.1427774 241.606312,46.1308477 241.541723,46.1512077 C241.378637,46.3665538 241.280165,46.5615399 241.187233,46.7513493 C241.192774,46.7461725 241.201244,46.7336222 241.117645,46.7768616 C241.022029,47.037137 241.009963,47.2541698 240.982434,47.4842936 C240.96697,47.4973877 240.911491,47.5564249 240.827917,47.4766191 C240.62686,47.6903307 240.509354,47.9838422 240.360254,48.3031147 C240.253705,48.4074712 240.178749,48.4860635 240.046739,48.4861988 C239.718646,48.8007431 239.447632,49.1937506 239.181248,49.5809761 C239.185926,49.5751941 239.197499,49.5658851 239.13126,49.5028723 C238.767856,49.7903652 238.470667,50.1408707 238.141762,50.5172849 C238.034967,50.6222035 237.959887,50.7012076 237.829674,50.7012291 C237.300476,51.015285 236.826362,51.4083233 236.357147,51.7928819 C236.362023,51.7843964 236.374335,51.7691946 236.374335,51.7691946 C236.003052,51.8987286 235.609508,51.9854472 235.263882,52.164359 C231.514577,54.1051073 227.583004,54.3381223 223.587112,53.2313967 C218.635481,51.8599625 215.404319,48.5289713 213.426552,43.8890239 C213.363859,43.741941 213.361988,43.5690324 213.266593,43.390987 C213.201389,43.3738066 213.214415,43.3879177 213.214415,43.3879177 C212.507159,41.2477254 212.453379,39.0361759 212.563056,36.8213544 C212.724196,33.5669739 213.927359,30.6589452 215.983972,28.1868838 C217.240717,26.6762778 218.825112,25.4372546 220.309804,24.0313432 C219.154067,22.8304718 218.193108,21.2558025 217.753442,19.4227655 C216.866602,15.7255002 217.483734,12.3630864 220.125393,9.49394345 C221.647513,7.84072088 223.40807,6.63457905 225.69716,6.25944075 C228.469524,5.80509989 231.120221,5.93498299 233.560897,7.49626707 C233.643733,7.54926408 233.739644,7.58187424 233.886232,7.55752792 C233.942991,7.49106873 233.930457,7.47447603 233.870547,7.5403185 C233.987019,7.73985755 234.163378,7.87355453 234.355151,8.02077571 C234.370541,8.03429909 234.425576,8.09491483 234.480784,8.14066118 C235.210546,8.79288723 235.885102,9.39936613 236.584527,10.0310823 C236.659385,10.1066153 236.709347,10.1569111 236.755862,10.2990278 C236.894398,10.4994801 237.036431,10.6081118 237.169844,10.7095244 C237.161251,10.7023037 237.146796,10.6851058 237.146796,10.6851058 C237.289961,11.1193457 237.404439,11.567256 237.600251,11.9764054 C237.639994,12.0594802 238.014011,12.0621507 238.186824,11.989753 C239.160834,11.5816951 240.10921,11.1114453 241.08881,10.7181706 C241.793555,10.4352315 242.109508,9.75976128 242.012242,9.04021831 C241.815101,7.58187202 241.67137,6.10897328 241.650464,4.64002111 C241.645883,4.31914247 242.24829,3.98965025 242.571162,3.66412214 C242.853429,3.95931752 243.265885,4.20663128 243.39558,4.55795279 C243.972205,6.11981917 243.440347,7.66104559 243.167487,9.19686065 C243.039712,9.91601422 243.374896,10.4755868 244.099217,10.5023219 C244.901523,10.5319358 245.705749,10.5090926 246.717557,10.5090926 C246.521401,12.6592176 246.329234,14.7652307 246.133447,16.911262 C245.738967,16.911262 245.321365,16.911262 245.079457,16.911262 C244.700712,15.6710362 244.347946,14.5158328 243.948418,13.2075711 C243.214839,14.180145 242.49894,14.0064867 241.744405,13.7798838 C241.447536,13.6907289 241.045422,13.6227699 240.798294,13.7508614 C239.433621,14.4582181 238.659485,15.5202005 238.527721,17.1455673 C238.4554,18.0376257 237.893402,18.8901313 237.621452,19.8540307 C237.651125,19.9885894 237.611529,20.029586 237.571958,20.0705859 C237.264795,20.1842991 236.904248,20.2303958 236.659459,20.4230561 C235.383507,21.42735 233.972417,21.3275419 232.536211,20.9652418 C231.984382,20.8260379 231.662273,20.590115 232.20664,19.9586991 C233.724968,18.1975447 233.862642,16.2029221 232.843151,14.1804984 C231.814968,12.1408275 230.038578,11.0654547 227.775393,11.1672128 C226.812907,11.2104876 225.877163,11.846068 224.99441,12.2707962 C225.059541,12.3291214 225.076777,12.3171041 225.014848,12.2549217 C224.38432,12.5245953 223.658276,12.7375472 223.83621,13.6582549 C223.820476,13.6714134 223.764283,13.7310742 223.705308,13.653164 C222.314533,14.7872499 222.221356,17.5538442 223.446582,19.3792341 C223.442519,19.3731003 223.432152,19.3626283 223.441509,19.45749 C223.622571,19.6253201 223.794275,19.6982886 223.995652,19.8057911 C224.139999,19.9593043 224.254674,20.0782835 224.369349,20.1972611 M238.17232,13.4190431 C238.256166,13.4719219 238.374903,13.59095 238.41871,13.5679263 C239.319906,13.0944893 240.226249,12.6273772 241.096222,12.10084 C241.287109,11.9852996 241.342612,11.6468552 241.460463,11.411063 C241.371545,11.320037 241.282627,11.2290112 241.193709,11.1379853 C240.218763,11.669452 239.237218,12.189617 238.278377,12.7485537 C238.173896,12.8094542 238.200219,13.093884 238.17232,13.4190431 M245.313165,11.9186308 C245.958122,11.9807597 246.243024,11.7861391 245.950464,11.172442 C245.131759,11.172442 244.385547,11.172442 243.582503,11.172442 C243.738152,12.320237 244.595419,11.7692921 245.313165,11.9186308 M242.333957,10.520258 C242.184784,11.0803867 242.035611,11.6405156 241.872352,12.2536029 C242.385397,12.2536029 242.688275,12.2536029 243.307574,12.2536029 C242.989995,11.5602481 242.749688,11.0356336 242.333957,10.520258 Z" id="Shape" fill="#FFFFFF"></path>
            <path d="M191.111618,43.4585159 C191.229365,43.6165791 191.347125,43.7746454 191.603053,44.1182028 C189.366692,43.7391071 187.085067,44.8427845 185.140618,43.0938262 C184.794691,43.9326564 184.107281,44.1208233 183.240512,44.0779005 C182.155247,44.0241518 181.065307,44.0649677 179.922702,44.0649677 C180.97251,42.6972181 181.005476,41.2057011 180.049667,39.5602146 C179.691479,38.9435765 179.298264,38.3463883 178.901331,37.7535768 C178.168694,36.6593968 177.940919,36.5602156 176.466453,36.6593137 C176.407616,38.5620357 176.53312,40.4331928 177.387947,42.2344512 C177.456234,42.2569861 177.444881,42.2451111 177.454246,42.3400698 C177.634732,42.5080762 177.805867,42.5811243 177.993472,42.6746648 C178.052898,42.7396151 178.095841,42.7840756 178.138797,42.8285362 C178.347929,43.2021266 178.557061,43.5757201 178.855369,44.1086164 C177.132386,43.7427149 175.256973,44.8266254 173.806881,43.1516593 C172.278439,44.8119703 170.283855,43.7129247 168.696575,44.0965417 C169.27629,43.1855585 169.960768,42.2797514 170.449123,41.2778757 C170.735452,40.6904618 170.806378,39.9503792 170.808771,39.2783778 C170.833231,32.3979865 170.815202,25.5174568 170.83128,18.6370162 C170.834336,17.3273613 170.612219,16.0882445 169.868586,15.0057841 C169.521345,14.5003327 169.025983,14.0971261 168.549618,13.5970448 C170.280406,13.9284674 172.197167,12.9651594 173.919953,14.4869449 C174.461425,13.37926 175.518781,13.594572 176.490214,13.6394631 C178.36208,13.7259606 180.282007,13.2827052 182.094471,14.0389207 C183.017868,14.4241906 183.893595,14.9242397 184.847919,15.3078304 C184.904964,15.2432541 184.892532,15.226672 184.832824,15.3115428 C185.054977,15.4787449 185.336839,15.5610766 185.659656,15.6909291 C186.1324,16.3116145 186.564176,16.8847793 187.050985,17.5391363 C187.280281,17.7012178 187.454545,17.7821069 187.642359,17.8781711 C187.655896,17.8933444 187.716169,17.9478407 187.637401,18.0019232 C187.745722,18.4002244 187.932824,18.744443 188.116097,19.08244 C188.112243,19.076215 188.102229,19.0655397 188.109372,19.1432225 C188.451715,20.3225607 189.033541,21.4150214 189.074827,22.5276395 C189.188512,25.5905386 189.491226,28.7182108 187.906229,31.5685677 C187.911212,31.5633452 187.91887,31.5511074 187.844054,31.5830597 C187.74992,31.8066573 187.730627,31.9983028 187.71531,32.183511 C187.719287,32.17708 187.72951,32.1659341 187.644863,32.1061109 C187.477987,32.3287983 187.395758,32.6113055 187.281987,32.9195337 C187.175617,33.0237406 187.100801,33.102223 186.960017,33.1020878 C186.731899,33.2777709 186.569736,33.532072 186.382364,33.8112638 C186.306922,33.8860742 186.256664,33.9359908 186.113119,33.983204 C185.847531,34.2228438 185.67523,34.465184 185.487625,34.7208876 C185.472321,34.7342541 185.417571,34.7942955 185.349541,34.7132172 C185.084801,34.8251836 184.888114,35.0182253 184.696741,35.2059216 C184.702043,35.2005764 184.714328,35.1918571 184.652005,35.1294721 C184.362694,35.2602332 184.135717,35.4533735 183.908728,35.6465166 C184.042111,35.7001333 184.175506,35.7537497 184.304385,35.8018488 C184.299881,35.7963343 184.292947,35.7838904 184.231496,35.8415237 C184.280158,36.0736592 184.390272,36.2481644 184.496592,36.4165769 C184.492788,36.4104781 184.482884,36.4000672 184.490505,36.4824711 C184.636689,36.6480295 184.775239,36.731187 184.908622,36.8091837 C184.903467,36.8040259 184.895244,36.7919542 184.831719,36.8587465 C184.946312,37.1217638 185.124443,37.317992 185.327401,37.5394643 C185.402046,37.6150743 185.451861,37.66544 185.488153,37.7899424 C185.615191,38.0421123 185.755741,38.2201452 185.899532,38.4743786 C186.11221,38.7790668 186.321649,39.0075577 186.537838,39.3018137 C186.665833,39.4938804 186.787054,39.620182 186.923922,39.7596412 C186.939558,39.7727985 186.995339,39.8324924 187.048346,39.8855338 C187.305379,40.2105978 187.509393,40.4826172 187.759247,40.794401 C188.177033,41.0663498 188.548966,41.2985375 188.843088,41.5890904 C189.018322,41.8870985 189.271342,42.1267383 189.555671,42.3925605 C189.661661,42.4977145 189.736367,42.5766801 189.871529,42.7099386 C190.203907,42.8630317 190.47584,42.9618317 190.741673,43.0567287 C190.735585,43.0528287 190.725202,43.0427623 190.666157,43.1046001 C190.784211,43.2691711 190.961298,43.3719078 191.132629,43.469056 C191.126873,43.4634615 191.111618,43.4585159 191.111618,43.4585159 M176.923893,18.9404497 C176.767277,19.3877387 176.480015,19.8335253 176.474873,20.2825597 C176.436519,23.6321705 176.44975,26.9824437 176.46298,30.3324405 C176.463937,30.5751436 176.541147,30.9939972 176.669694,31.0314241 C177.580707,31.2966587 178.547341,31.7515676 179.434212,31.6419079 C181.512878,31.3848941 182.807889,29.9413499 183.243126,27.9820868 C183.561071,26.5507279 183.553375,25.0105077 183.466041,23.532154 C183.26496,20.1276443 180.733788,18.1613197 177.240315,18.6933269 C177.156908,18.7060321 177.108282,18.9483232 177.057975,19.0697086 C177.057975,19.0697086 177.071819,19.0552073 176.923893,18.9404497 Z" id="Shape" fill="#FFFFFF"></path>
            <path d="M164.368326,42.4455639 C164.118591,42.509673 163.836116,42.5193084 163.62403,42.646025 C160.188445,44.6986019 156.635239,44.734569 153.039267,43.1841187 C150.460545,42.0722639 149.204556,39.8284793 148.523923,37.2807111 C148.091099,35.660559 147.86868,33.9696591 147.710391,32.2955929 C147.539352,30.4866975 147.418982,28.6534185 147.514908,26.8433306 C147.690069,23.5385578 147.963881,20.2186012 149.542988,17.2045987 C151.082128,14.2668986 153.631178,12.889737 156.882593,12.7087945 C158.72972,12.6060021 160.574822,12.6697312 162.265353,13.522274 C163.098127,13.9422529 163.846878,14.5277656 164.72578,14.9737858 C164.871797,14.934302 164.92519,14.9622343 164.895395,15.0731432 C165.040467,15.339045 165.268224,15.5247959 165.509259,15.7257524 C165.522524,15.7409593 165.582114,15.7953671 165.502559,15.8525072 C165.543558,16.1162501 165.664112,16.322853 165.780469,16.5233768 C165.77626,16.5172961 165.765216,16.5074511 165.787893,16.5762449 C166.071804,17.1940673 166.333013,17.7430944 166.59243,18.3652484 C166.730569,18.667602 166.870512,18.8968319 167.001325,19.2057538 C167.326689,21.3292099 167.710342,23.3664422 167.984902,25.418178 C168.473107,29.0665815 168.271549,32.6976802 167.385052,36.26748 C167.040041,37.6568153 166.471545,38.9910134 165.933825,40.3592401 C165.430857,40.9074248 164.998916,41.4466927 164.478757,42.0170288 C164.385789,42.191672 164.38104,42.3352469 164.365884,42.4785649 C164.355466,42.4783112 164.368326,42.4455639 164.368326,42.4455639 M155.587998,18.3776071 C155.434385,18.6625993 155.280772,18.9475931 155.106444,19.2312765 C155.106444,19.2312765 155.120593,19.1979912 154.958636,19.0661543 C154.746414,19.3802425 154.474456,19.6696045 154.331666,20.0124204 C153.373957,22.3117413 153.26916,24.7688255 153.142862,27.1994422 C153.06262,28.7439265 153.170915,30.3106509 153.338223,31.8519182 C153.508869,33.4238839 153.738295,35.0090444 154.158909,36.528775 C154.545262,37.9247184 155.405732,39.0305124 157.058197,39.1585104 C158.915386,39.3023634 160.684675,39.074583 161.304835,37.0192235 C161.880069,35.1127778 162.366359,33.1325602 162.516303,31.1565137 C162.755718,28.0011977 162.635704,24.8101775 161.928835,21.7100476 C161.212296,18.567477 160.066884,17.4853909 157.281168,17.7465959 C156.73838,17.7974886 156.234995,18.2658756 155.727819,18.5244966 C155.727819,18.5244966 155.745625,18.5108201 155.587998,18.3776071 Z" id="Shape" fill="#FFFFFF"></path>
            <path d="M208.869052,22.2377379 C208.570629,22.4310687 208.261312,22.6099071 207.976557,22.8213819 C207.617915,23.0877278 207.279354,23.3807112 206.882753,23.7022247 C206.726807,21.6408427 206.205508,19.9255702 204.452584,18.7948648 C202.870315,17.7742551 200.114783,18.0224632 199.04324,19.3856121 C199.107879,19.4417169 199.124704,19.4291831 199.064176,19.3700384 C198.634419,19.8367508 198.173389,20.3214719 197.91222,20.895753 C196.904078,23.1125157 196.747636,25.5214709 196.725302,27.8825417 C196.703326,30.2031724 197.021211,32.5356409 197.326034,34.8452139 C197.414271,35.5137078 197.971325,36.1212303 198.308462,36.7512272 C198.303448,36.7457523 198.295834,36.7330234 198.231863,36.796935 C198.278662,37.0640874 198.389444,37.2673219 198.515999,37.4838386 C198.531784,37.4971173 198.588103,37.5572162 198.641303,37.6101132 C198.970281,37.9007447 199.246059,38.1384821 199.516155,38.3707722 C199.51046,38.3653281 199.495343,38.3607349 199.495343,38.3607349 C200.40865,39.2800359 201.584587,39.3290036 202.705641,39.0850107 C204.003254,38.8025948 204.537961,37.6889596 204.554551,36.5010621 C204.586456,34.2166794 204.6013,31.8978369 203.164999,29.903376 C203.030892,29.7171561 202.889567,29.528758 202.718628,29.3782545 C202.578132,29.2545268 202.388659,29.185592 202.239869,28.9787688 C203.899158,29.191706 205.705071,28.2276679 207.266924,29.6663361 C208.735762,28.1786513 210.660479,29.2354844 212.519084,28.8043623 C212.026607,29.3443723 211.653183,29.7538403 211.276737,30.2328944 C211.273717,30.3024808 211.284884,30.290729 211.21429,30.3169363 C210.918888,30.8762134 210.609818,31.3903693 210.483362,31.9455171 C209.838653,34.7757721 209.968254,37.6391902 210.298544,40.4882481 C210.384614,41.2309244 210.811325,41.9393501 211.121088,42.6464668 C211.164222,42.7449547 211.434887,42.7452159 211.626292,42.8216752 C211.74059,42.9404441 211.828814,43.0284891 211.917063,43.1165312 C212.04758,43.4426456 212.178097,43.7687629 212.351698,44.2025088 C210.697695,43.9221819 208.804251,44.934604 207.466698,43.4009348 C206.899145,43.6824598 206.373488,44.1698249 205.857043,44.1604325 C203.528309,44.1180522 201.164537,44.1483059 198.884025,43.7519539 C195.5535,43.1731151 193.585289,40.8565216 192.419381,37.8240858 C191.614999,35.7319202 191.193141,33.5621709 191.198279,31.3158613 C191.203046,29.2364952 191.055444,27.1449747 191.232165,25.0805036 C191.515236,21.7738336 192.359867,18.583066 194.600414,15.9986964 C196.058926,14.3163598 198.052171,13.3846078 200.27801,13.2246 C201.986772,13.1017616 203.748696,12.9751843 205.395642,13.6984925 C205.83758,13.8925852 206.244532,14.1651543 206.740426,14.4043664 C206.813273,14.4070347 206.801784,14.3968023 206.824317,14.4652333 C207.039913,14.6622771 207.232952,14.7908898 207.472913,14.942464 C207.691357,15.0792617 207.862853,15.1930992 208.02707,15.3915641 C208.232663,15.6566226 208.44561,15.8370557 208.653332,16.0123501 C208.648107,16.00721 208.639812,15.9951694 208.57672,16.0573803 C209.162448,17.2757836 209.673248,18.4797819 209.44329,19.8368476 C209.304132,20.6581246 209.046838,21.4596769 208.848401,22.2613292 C208.85417,22.2525698 208.869052,22.2377409 208.869052,22.2377379 Z" id="Path" fill="#FFFFFF"></path>
            <path d="M107.988547,43.7228595 C108.008094,44.1262262 107.982283,44.3755728 107.406989,44.3698369 C103.793505,44.3338082 100.178851,44.3847074 96.5662268,44.3186862 C95.9703898,44.3077971 95.3826363,43.8624294 94.6914552,43.5766335 C93.3777976,45.078063 91.3844218,44.0576498 89.4656489,44.4162428 C90.0665179,43.7119736 90.7274692,43.2339234 90.960939,42.600979 C91.4257247,41.3408996 91.9177878,39.9995943 91.9378604,38.6849348 C92.035971,32.2592344 92.0423896,25.8303871 91.9472623,19.4045993 C91.9170388,17.3632731 91.6341578,15.2571753 89.5475923,13.9393612 C91.3625664,13.9822732 93.2806277,13.1295052 94.6443466,14.6577968 C95.3694771,14.3402311 95.9847928,13.8460882 96.6096589,13.8339276 C100.3818,13.7605249 104.156126,13.7974218 108.091603,13.7974218 C107.864781,14.2267259 107.706613,14.5260932 107.622584,14.9003401 C107.696722,14.9752183 107.716739,15.0022279 107.632697,14.9225539 C107.430522,15.1359176 107.312401,15.4289553 107.162576,15.7476207 C107.055646,15.851381 106.980418,15.929512 106.830098,15.9286102 C106.65481,15.9499912 106.554626,16.0504033 106.45443,16.1508156 C106.604687,16.1701612 106.754933,16.1895071 106.913113,16.2202508 C106.953035,16.269727 106.965575,16.2841833 106.958618,16.2750211 C107.165312,17.9507443 107.372006,19.6264688 107.5787,21.3021934 C107.483752,21.3415764 107.388804,21.380961 107.293869,21.4203456 C105.938593,19.322815 103.887834,18.9297071 101.625336,19.0170064 C100.682228,19.0533972 99.7334135,19.0698504 98.7928989,19.008861 C97.980502,18.9561781 97.6855885,19.4007268 97.6740759,20.0537423 C97.6393896,22.0216459 97.6615605,23.9905324 97.6615605,25.7592648 C99.1827292,25.933152 100.651442,25.9678558 102.049203,26.2978273 C103.481279,26.6358997 104.606923,27.5790898 105.556376,28.8676829 C103.795647,28.8868476 102.05262,28.6847378 100.635163,29.8226423 C100.700525,29.8848478 100.717948,29.8730967 100.65955,29.8125414 C100.426724,29.8621771 100.252284,29.9723681 100.084157,30.0786204 C100.090458,30.074685 100.101314,30.0645661 100.020869,30.0720135 C99.8229641,30.2137151 99.7055111,30.3479722 99.5422246,30.5203351 C99.223048,30.8342398 98.9496928,31.1100424 98.5969874,31.3667904 C98.43008,31.5299819 98.3425288,31.7122276 98.2602325,31.8890931 C98.2654812,31.883713 98.2738185,31.8712228 98.2004909,31.9003471 C97.2048523,34.0847308 97.8456873,36.3456567 97.6890671,38.5527234 C97.6855451,38.6023468 97.9448253,38.6702942 98.0729243,38.7223164 C98.064327,38.7149363 98.0498621,38.6975324 98.0498621,38.6975291 C98.2586665,38.9046294 98.4645124,39.288215 98.676715,39.2916995 C100.95637,39.3291394 103.286457,39.5739648 105.409399,38.4903338 C106.105698,38.1349187 106.654154,37.4950146 107.389547,36.8864616 C107.250579,38.4772025 107.790407,40.0480182 106.941857,41.6297229 C106.950671,41.7307516 106.889481,41.7374016 106.81044,41.7305461 C106.631538,41.9043966 106.42243,42.224703 106.448389,42.2446651 C106.783739,42.5024898 107.152549,42.7175499 107.526349,42.9589062 C107.539805,42.9743932 107.600536,43.0295959 107.518946,43.0976049 C107.63162,43.3622514 107.825861,43.558886 108.01151,43.7480301 C108.002907,43.7405396 107.988547,43.7228595 107.988547,43.7228595 Z" id="Path" fill="#FFFFFF"></path>
            <path d="M87.4582047,43.2651637 C87.4582047,43.5016831 87.4582047,43.7382058 87.4582047,44.0975626 C87.0610677,44.0975626 86.672132,44.0975626 86.2831964,44.0975626 C83.1729296,44.0975626 80.0623076,44.0709702 76.9526167,44.1135044 C75.9997425,44.1265392 75.1781143,43.9947679 74.6373775,43.1779139 C73.0533863,44.7973012 71.0808942,43.7782111 69.2652138,44.0630084 C70.5867683,43.194179 71.2770648,41.9711762 71.5162083,40.4744232 C71.5681359,40.1494421 71.6144529,39.8189355 71.6147162,39.4909364 C71.6203082,32.4358589 71.6685791,25.3800891 71.5712474,18.3263636 C71.5545812,17.1187182 70.9811615,15.8914638 70.5190629,14.7319301 C70.3528679,14.31488 69.7572513,14.0705111 69.1603053,13.5877863 C71.0229336,13.9756105 72.88223,12.9597031 74.558059,14.4589861 C75.0593818,13.3974987 76.0882975,13.6568667 77.0299506,13.6576589 C77.860558,13.6583572 78.691147,13.6919838 79.5216565,13.7144813 C79.5485328,13.7152106 79.6000009,13.7647681 79.5966933,13.77223 C79.5709869,13.8303447 79.5346414,13.8837139 79.5742883,14.0012708 C79.6469917,14.0639907 79.6639273,14.0518021 79.5817731,13.9867178 C79.3482217,14.1399623 79.1968186,14.3582895 79.0301457,14.5897945 C79.0148702,14.6029707 78.960162,14.6622545 78.8881567,14.5827558 C78.6900078,14.7633648 78.5638701,15.0234726 78.4421363,15.2774583 C78.4465463,15.2713363 78.4573323,15.2607965 78.3914829,15.200999 C77.2982181,16.4312129 77.3032959,18.0338338 77.2788204,19.5126418 C77.181323,25.4031328 77.2297226,31.2962478 77.2559681,37.1882478 C77.2580261,37.6489995 77.5058119,38.1086439 77.6489525,38.5717091 C77.6585074,38.5746164 77.6598305,38.5775267 77.6598305,38.5775267 C77.8673566,38.7356658 78.0787907,39.0358019 78.2818091,39.030166 C80.5289141,38.9677707 82.8543207,39.4557393 84.9557067,38.2514502 C85.6352048,37.8620369 86.2319242,37.3268579 86.8709914,36.8550495 C86.8709914,38.0303098 86.89102,39.3206055 86.8543377,40.6092679 C86.8468714,40.8715553 86.6259559,41.1277082 86.5787017,41.4898094 C86.6295083,41.6194918 86.6071032,41.6477207 86.5118108,41.5985414 C86.333905,41.6871571 86.2309441,41.8548576 86.1279895,42.0225611 C86.2809178,42.0423669 86.4338399,42.0621697 86.6187528,42.1194952 C86.7919058,42.2946653 86.9330681,42.4323125 86.9935092,42.6381819 C87.1050022,42.9036102 87.2972159,43.1008225 87.480916,43.2905008 C87.4723962,43.2829636 87.4582047,43.2651637 87.4582047,43.2651637 Z" id="Path" fill="#FFFFFF"></path>
            <path d="M148.284814,48.8111249 C151.114976,50.5092448 154.078734,51.5734822 157.272228,52.1218784 C160.380441,52.6556285 163.494028,52.7023916 166.624549,52.7005694 C180.995943,52.6922154 195.367326,52.6997506 209.73872,52.6884354 C210.454663,52.6878689 211.030245,52.829242 211.654623,53.2684376 C215.398601,55.9019624 219.590418,57.4881915 224.067382,58.3476463 C225.229762,58.5707871 226.400627,58.7495103 227.563916,58.9682371 C227.700907,58.9939951 227.814508,59.1445963 227.938931,59.2373161 C227.913722,59.3388765 227.888537,59.4404306 227.863328,59.5419847 C225.451923,59.0870227 223.015185,58.7357326 220.635113,58.1525352 C217.157788,57.3004494 213.949377,55.7902689 210.975449,53.7763499 C210.628102,53.5411243 210.090371,53.5147262 209.64081,53.5143752 C193.422624,53.5017857 177.203748,53.586884 160.986705,53.450633 C156.420586,53.4122732 151.963199,52.4246691 148.071728,49.6995143 C145.917789,48.1911345 144.32689,46.3205371 143.51145,43.5114504 C144.325967,44.613349 144.922147,45.5644094 145.663742,46.383479 C146.443986,47.2452607 147.363299,47.9807987 148.284814,48.8111249 Z" id="Path" fill="#367FCA"></path>
            <path d="M186.894141,8.56237008 C193.998101,8.56237008 201.001474,8.56682679 208.004846,8.5589499 C209.5757,8.55718279 211.08074,8.21433551 212.450418,7.39451763 C212.92993,7.1075024 213.341983,6.6989393 213.89313,6.25954198 C213.697258,7.45668879 212.989949,8.18935962 212.126036,8.54621592 C210.926248,9.04181246 209.623637,9.55735947 208.363118,9.56250457 C192.044516,9.62911678 175.725584,9.60324678 159.406737,9.61832061 C158.715353,9.61895712 158.236283,9.49103798 158.167939,8.56237008 C167.7222,8.56237008 177.25787,8.56237008 186.894141,8.56237008 Z" id="Path" fill="#367FCA"></path>
            <path d="M109.141226,6.8059688 C108.057375,7.16406999 107.034116,7.73745946 106.008302,7.7424595 C93.3694682,7.80405313 80.7302468,7.78248784 68.0911297,7.7830408 C67.5156897,7.78306569 66.8729004,7.87354632 67.0540869,6.94576756 C67.5243325,6.94576756 67.9736313,6.94576756 68.4229301,6.94576756 C80.2574397,6.94576756 92.091949,6.93833413 103.92644,6.95236537 C106.153861,6.9550063 108.365348,6.97793798 110.147948,5.19083969 C110.225862,5.29297529 110.303765,5.39511131 110.381679,5.49724691 C109.988003,5.91721163 109.594327,6.33717677 109.141226,6.8059688 Z" id="Path" fill="#367FCA"></path>
            <path d="M67.7844485,43.5182439 C67.4239617,43.1810503 67.1851632,42.881045 66.8534796,42.4810811 C65.1713809,40.0659653 64.3531234,37.4565721 63.6985482,34.7573189 C62.2758341,28.8904784 60.7192478,23.0555706 59.3260168,17.1820436 C58.7784997,14.8738419 57.8275502,12.6194495 58.0477767,10.1674284 C58.1009657,9.5751773 58.1831499,8.98551101 58.2520011,8.39465597 C58.2520011,8.39465597 58.2437346,8.40700316 58.3047023,8.4722227 C58.5001104,8.36111083 58.6345509,8.18478003 58.7689974,8.00845003 C58.7689974,8.00845084 58.748955,7.98193269 58.7422143,7.9917314 C59.1162131,7.7771015 59.4969526,7.55267289 59.8776918,7.32824427 C58.037051,9.70494185 58.9235049,12.1630279 59.5150797,14.5679566 C61.2269952,21.5274023 62.9827519,28.4761635 64.7279686,35.4274598 C65.3368303,37.8526099 66.0172988,40.2553654 67.5683059,42.2901085 C68.004335,42.862134 68.525514,43.3697644 69.0076336,43.9069306 C68.9618707,43.9786641 68.9161017,44.0504009 68.8703327,44.1221374 C68.548936,43.9332358 68.2275333,43.7443339 67.7844485,43.5182439 Z" id="Path" fill="#12161C"></path>
            <path d="M164.782431,42.1731467 C165.211752,41.6319919 165.641074,41.0908372 166.208172,40.5201533 C166.42401,40.3866352 166.516109,40.2904559 166.57807,40.1775219 C168.254142,37.1221941 168.652373,33.7389764 168.733019,30.3660879 C168.799664,27.5783792 168.451318,24.7721269 168.151968,21.9887788 C168.050696,21.0471434 167.536557,20.150477 167.211105,19.2332599 C167.071998,19.0032311 166.932904,18.7731991 166.868028,18.4530854 C166.619295,17.7771667 166.296356,17.1913284 165.973405,16.6054901 C165.973405,16.6054901 165.984382,16.6153696 166.051685,16.5576597 C166.0098,16.2969386 165.900613,16.0939258 165.791413,15.890913 C165.791413,15.8909146 165.732185,15.8363164 165.666089,15.7666759 C165.463681,15.4932678 165.327355,15.2894986 165.191029,15.0857324 C165.138473,15.0548668 165.085404,15.0268367 165.04075,15.0097414 C164.919647,14.8426667 164.789615,14.6674921 164.554799,14.351145 C164.853624,14.4019948 165.029651,14.3787701 165.125629,14.4561329 C167.01849,15.981727 168.253971,17.9604192 168.766037,20.320961 C169.495855,23.6852714 169.740819,27.117355 169.562585,30.5500384 C169.397316,33.7331217 169.050129,36.9207493 167.553157,39.8144507 C166.768245,41.3317565 165.726611,42.6582841 163.969466,43.2061069 C164.136552,43.0584272 164.303638,42.9107474 164.527855,42.6987131 C164.584986,42.6343581 164.572204,42.66722 164.626919,42.6127 C164.715225,42.4298326 164.748828,42.3014881 164.782431,42.1731467 Z" id="Path" fill="#FFFFFF"></path>
            <path d="M92.6536343,50.6870229 C101.418945,50.6870229 110.083635,50.6870229 118.778626,50.6870229 C118.106438,52.8359581 117.3501,53.6186883 115.942197,53.5868574 C116.314193,53.2396458 116.675345,52.9668165 116.952346,52.6259451 C117.230109,52.2841243 117.423932,51.8744209 117.7643,51.3136463 C104.735472,51.3136463 91.911735,51.3136463 79.0879983,51.3136463 C79.0866534,51.2067041 79.0853146,51.0997619 79.0839695,50.9928195 C83.5736509,50.8908883 88.0633322,50.7889571 92.6536343,50.6870229 Z" id="Path" fill="#367FCA"></path>
            <path d="M186.967114,17.639082 C186.537049,17.0657797 186.106984,16.4924807 185.585089,15.8316302 C185.417017,15.6422257 185.340785,15.5403726 185.299357,15.3970016 C185.355137,15.3260482 185.376102,15.2966112 185.397054,15.2671756 C188.438682,17.2043671 190.210053,19.9389689 190.257936,23.5980385 C190.28423,25.607792 190.242887,27.6693904 189.829631,29.6212897 C189.297566,32.1344656 187.671225,34.0246544 185.483187,35.382191 C185.347008,35.4666816 185.218921,35.5643878 185.005471,35.7126101 C186.844137,38.6821365 188.89899,41.4023445 191.755725,43.5095075 C191.728868,43.6172641 191.701461,43.6406932 191.674054,43.6641221 C191.511788,43.6155999 191.349534,43.5670774 191.126868,43.5821512 C191.066467,43.6457413 191.081662,43.650688 191.146268,43.5944501 C191.034451,43.4354394 190.858017,43.3326664 190.681583,43.2298903 C190.681583,43.2298903 190.691925,43.239959 190.665533,43.164236 C190.349777,43.0065726 190.060415,42.9246293 189.771076,42.8426858 C189.696667,42.7636989 189.622257,42.6847148 189.59397,42.5208958 C189.388197,42.1965433 189.136314,41.9570195 188.884419,41.7174957 C188.513972,41.4852569 188.143513,41.2530148 187.807734,40.912933 C187.550436,40.5430143 187.258469,40.2809412 186.966503,40.0188683 C186.966503,40.0188683 186.910943,39.9591604 186.973654,39.8890794 C186.858953,39.6867634 186.681516,39.5545225 186.504092,39.4222817 C186.295483,39.1937404 186.086875,38.965196 185.878889,38.5796159 C185.745937,38.2489476 185.612337,38.0753183 185.478749,37.9016858 C185.429143,37.8513083 185.379524,37.8009308 185.317058,37.6488109 C185.161038,37.3572516 185.017891,37.1674317 184.874732,36.9776149 C184.874732,36.9776179 184.882922,36.9896924 184.880465,36.9124773 C184.740007,36.7520575 184.602006,36.66885 184.464006,36.5856392 C184.464006,36.5856392 184.473871,36.5960524 184.538965,36.5445459 C184.49431,36.3184686 184.384559,36.143898 184.274809,35.9693212 C184.274809,35.9693179 184.281728,35.9817648 184.290799,35.9232381 C184.431428,35.7021845 184.562974,35.5396636 184.69452,35.3771429 C184.694532,35.3771459 184.682296,35.3858673 184.749579,35.3839692 C185.009579,35.2478799 185.202283,35.1136856 185.394988,34.9794913 C185.394988,34.9794913 185.449521,34.9194358 185.522684,34.8526831 C185.790801,34.580923 185.985742,34.3759123 186.180684,34.1709107 C186.230755,34.1209855 186.280814,34.0710572 186.435452,34.0017483 C186.692359,33.7767508 186.844687,33.5711371 186.997015,33.3655204 C187.071547,33.2870224 187.146066,33.2085216 187.29892,33.0481571 C187.484082,32.7610338 187.590923,32.555774 187.697764,32.3505172 C187.697764,32.3505141 187.687581,32.3616627 187.758091,32.3361663 C187.847867,32.1189611 187.86712,31.9272524 187.886373,31.7355435 C187.886373,31.7355435 187.878745,31.7477841 187.937105,31.8126633 C188.356828,31.1666774 188.893441,30.4925805 189.049509,29.7386658 C189.76934,26.2611903 189.87755,22.7906331 188.46263,19.4268606 C188.421312,19.3286128 188.20417,19.3053037 188.069006,19.247051 C188.069006,19.247051 188.07898,19.2577288 188.145432,19.2024754 C188.036073,18.807843 187.860274,18.4684643 187.684476,18.1290869 C187.684476,18.1290902 187.624442,18.0745811 187.556145,17.9782408 C187.314274,17.8009614 187.140688,17.7200225 186.967114,17.639082 Z" id="Path" fill="#FFFFFF"></path>
            <path d="M240.576966,47.5175411 C240.576966,47.5175411 240.632412,47.4586203 240.70592,47.3804773 C240.808493,47.1003429 240.837532,46.8983549 240.866571,46.6963606 C240.866547,46.6963606 240.858081,46.7088861 240.925511,46.7750523 C241.085743,46.592403 241.178546,46.3435872 241.271373,46.0947715 C241.271373,46.0947745 241.262858,46.1066807 241.320592,46.171139 C241.433082,46.1972756 241.512128,46.1713781 241.539173,46.1188751 C243.309729,42.6811785 244.272182,39.1060898 243.15806,35.2598083 C242.872738,34.2747987 242.300198,33.372455 241.859589,32.4321328 C241.859589,32.4321328 241.871525,32.4467894 241.871672,32.3804544 C241.132944,31.5161443 240.394044,30.7181752 239.655168,29.9201999 C239.250145,29.5218652 238.845147,29.1235338 238.345475,28.6100898 C238.108855,28.4036771 237.966907,28.3123768 237.824935,28.2210765 C237.824935,28.2210765 237.836329,28.2328939 237.838913,28.2406516 C237.737744,27.7712507 237.682249,27.2770597 237.519949,26.8206046 C237.214201,25.9608968 237.555756,25.4952523 238.366,25.1908397 C238.133637,27.1052646 238.811752,28.4922207 240.306754,29.6647426 C242.572108,31.4414661 243.942783,33.777109 244.307349,36.702116 C244.803599,40.6833028 243.743397,44.2109352 241.478732,47.4530427 C240.259725,49.1982055 238.782761,50.6440149 236.770959,51.6030534 C236.660832,51.5766285 236.637896,51.548689 236.641587,51.4558619 C236.96284,51.1723025 237.257465,50.9536341 237.552065,50.7349687 C237.627124,50.6561234 237.702158,50.5772752 237.859167,50.4199468 C238.24876,50.0686636 238.556379,49.7958546 238.863997,49.5230424 C238.863997,49.5230393 238.852431,49.53233 238.915136,49.516861 C239.241803,49.1755216 239.505764,48.8496482 239.76975,48.5237811 C239.844662,48.4453468 239.919573,48.3669094 240.075868,48.2051748 C240.297181,47.9204321 240.437086,47.7189866 240.576966,47.5175411 Z" id="Path" fill="#FFFFFF"></path>
            <path d="M77.8169933,38.5061157 C77.7367755,38.5785702 77.7354638,38.5756591 77.807763,38.4964284 C77.8257619,38.0263646 77.7249097,37.6356179 77.724181,37.2446802 C77.713882,31.7140147 77.729701,26.1832817 77.7101415,20.65267 C77.7036074,18.803822 77.841095,16.9901212 78.5274465,15.2551432 C78.5274465,15.2551432 78.5167529,15.265686 78.5801983,15.2494225 C78.7710877,15.0409152 78.8985254,14.8486714 79.0259692,14.6564292 C79.0259692,14.6564292 79.0802089,14.5971284 79.1441402,14.5311902 C79.3799478,14.3254339 79.5518302,14.1856177 79.7237066,14.0458015 C79.7237066,14.0458015 79.7069161,14.0579936 79.6996291,14.0654346 C79.8554133,14.0728769 80.0184844,14.0728769 80.3053435,14.0728769 C78.6709762,15.848515 78.5365916,18.0159599 78.5234569,20.1860067 C78.4916186,25.4463486 78.5131093,30.7070213 78.5131093,35.9675631 C78.5131093,36.8191016 78.5131093,37.6706404 78.5131093,38.6259542 C78.3908149,38.5877713 78.1440161,38.510713 77.8169933,38.5061157 Z" id="Path" fill="#FFFFFF"></path>
            <path d="M43.1260522,4.58570514 C41.9975778,6.51205862 42.1208787,8.6909408 43.5987935,10.3390026 C44.193434,11.0021046 44.2371014,11.5412445 44.0114353,12.301642 C43.3757622,14.4435545 42.7903784,16.6004443 42.176336,18.7488916 C42.1238147,18.9326509 42.0057215,19.0975649 41.7675432,19.2366412 C42.0043535,18.0141828 42.2218725,16.7875547 42.4833265,15.5704201 C42.752168,14.318878 43.0816161,13.0802622 43.339504,11.8266754 C43.3828085,11.6161685 43.2635748,11.295221 43.1080643,11.1320313 C41.0599744,8.9827769 41.0036131,5.61442598 42.9256815,3.22489727 C43.8888814,2.02744258 45.2433231,1.29128014 46.781119,1.23373743 C48.4340537,1.17188648 50.0958732,1.34874082 51.7557252,1.61597987 C50.3683117,1.68037932 48.9744144,1.68179864 47.5950618,1.82454561 C45.7187483,2.01872244 44.0755099,2.68404327 43.1260522,4.58570514 Z" id="Path" fill="#367FCA"></path>
            <path d="M121.304876,33.2824427 C119.848653,32.7806303 118.832368,31.7084498 118.243003,30.332074 C116.947126,27.3058242 116.783902,24.133131 117.593943,20.9431751 C118.136069,18.8083058 119.489661,17.1961975 121.084751,15.7952259 C121.306279,15.6006607 121.62177,15.5200253 122.137405,15.2671756 C121.163361,16.5156739 120.266559,17.4635222 119.601522,18.5609326 C118.343236,20.6372824 117.721818,22.9118492 118.173072,25.3928665 C118.435318,26.8346963 118.613789,28.3044521 119.01821,29.7037076 C119.410836,31.0621946 120.280943,32.1651894 121.38454,33.1267288 C121.358625,33.2353416 121.331751,33.2588923 121.304876,33.2824427 Z" id="Path" fill="#FFFFFF"></path>
            <path d="M198.770515,37.520268 C198.770515,37.520268 198.713587,37.4603194 198.778662,37.3896968 C198.720858,37.1120971 198.59798,36.9051141 198.475089,36.6981371 C198.475089,36.6981371 198.482785,36.710834 198.480432,36.6373949 C197.49021,34.4115438 197.424997,32.0887228 197.277929,29.8021848 C197.185385,28.3632177 197.361737,26.9047129 197.46249,25.4579814 C197.51425,24.7146391 197.558901,23.9438081 197.793407,23.2455428 C198.227505,21.9528931 198.798785,20.704447 199.312912,19.4375867 C199.312912,19.4375851 199.295905,19.4500875 199.288359,19.4574351 C199.724096,19.2360633 200.167391,19.0073455 200.610687,18.778626 C198.806268,20.7843251 198.555606,23.2286732 198.284871,25.6503259 C198.149078,26.8649792 198.033095,28.097469 198.089935,29.3137406 C198.202426,31.7206474 198.286698,34.1533681 199.311372,36.4083369 C199.628273,37.1057256 200.096435,37.737156 200.540269,38.4732824 C200.259497,38.3683014 200.029471,38.2822909 199.743505,38.2590269 C199.687554,38.3217765 199.702834,38.3263582 199.76971,38.2637956 C199.481217,37.9742465 199.125872,37.7472573 198.770515,37.520268 Z" id="Path" fill="#12161C"></path>
            <path d="M135.957762,40.118779 C135.957762,42.2924287 135.990691,44.3670369 135.949207,46.4400734 C135.900364,48.8804158 136.126726,51.2144809 138.015267,53.0443894 C137.931007,53.1237405 137.846746,53.2030916 137.762485,53.2824427 C137.289372,52.8974387 136.733804,52.5819806 136.358963,52.1140702 C135.331479,50.8314845 134.969991,49.2988484 134.974992,47.6555815 C134.984038,44.6785443 134.999067,41.7011724 134.962082,38.7245897 C134.953072,38.0003845 135.186135,37.692067 135.957762,37.7107197 C135.957762,38.4933422 135.957762,39.2561913 135.957762,40.118779 Z" id="Path" fill="#FFFFFF"></path>
            <path d="M221.431505,45.8736982 C221.167223,45.6163735 221.033155,45.3746821 220.808333,45.0348754 C220.578613,44.7319672 220.439671,44.5271653 220.30073,44.3223603 C220.30073,44.3223573 220.24036,44.2673518 220.173276,44.1946895 C219.139695,42.3821288 218.506677,40.5366972 218.475099,38.5378795 C218.432034,35.8105708 219.152798,33.3029664 220.824445,31.1001516 C220.824445,31.1001516 220.88116,31.0398352 220.946628,30.9689588 C221.317652,30.4549263 221.623208,30.01177 221.928765,29.5686172 C222.07432,29.4946194 222.219875,29.4206218 222.495048,29.317399 C222.734565,29.1458502 222.844489,29.0035267 222.954389,28.8612033 C222.954389,28.8612033 222.942628,28.8722474 222.934945,28.8746007 C223.214643,28.8096456 223.502073,28.7423344 223.911562,28.7022901 C224.063159,28.7510134 224.092649,28.7724666 224.122137,28.7939228 C222.281265,30.1961211 220.764174,31.8493987 220.033067,34.0900836 C219.31096,36.3031994 219.098445,38.5271806 219.668234,40.8356485 C220.224297,43.088676 221.378072,44.9506725 223.09343,46.5198858 C223.030772,46.5857783 222.968114,46.6516678 222.905456,46.7175573 C222.457527,46.4414809 222.009623,46.1654048 221.431505,45.8736982 Z" id="Path" fill="#FFFFFF"></path>
            <path d="M134.572362,18.5177606 C133.999761,17.5391576 133.482677,16.6219697 132.977099,15.7251908 C133.902114,15.8472935 134.571711,16.6424372 135.014313,17.4711554 C135.468481,18.3215277 135.786849,19.3547704 135.824599,20.3223674 C135.930639,23.0405804 135.83878,25.7665533 135.877252,28.4886672 C135.887136,29.1881344 135.625386,29.4368554 135.024541,29.4656489 C134.891665,25.8189061 134.759761,22.1990409 134.572362,18.5177606 Z" id="Path" fill="#FFFFFF"></path>
            <path d="M40.3052605,47.0648286 C40.0068165,46.6276132 39.7083697,46.1904011 39.315634,45.6405122 C39.0795391,45.4368127 38.9377391,45.3457836 38.795936,45.2547544 C38.795936,45.2547544 38.8062475,45.2649255 38.8729874,45.2097137 C38.7810615,44.8356313 38.6270571,44.5143668 38.4629652,44.1982871 C37.5104835,42.3635817 37.3187753,40.4121951 37.8429102,38.4563875 C38.1252937,37.4026838 38.7547294,36.4410457 39.2275797,35.4378702 C39.2275797,35.4378702 39.2173695,35.4477263 39.2786369,35.4338653 C39.840027,34.8921634 40.3401529,34.3643226 40.8402786,33.8364789 C40.8402754,33.8364789 40.8282555,33.8448063 40.8917291,33.8429599 C41.1183789,33.7057804 41.2815519,33.5704475 41.4447249,33.4351145 C41.4447279,33.4351145 41.4275829,33.4473063 41.4201994,33.4548085 C41.5024066,33.4543928 41.5920003,33.4464717 41.7894358,33.466829 C41.9264275,33.5163729 41.9555771,33.5376444 41.9847328,33.558916 C41.0813909,34.672466 39.997181,35.686262 39.3102754,36.9191837 C37.5881985,40.0101337 38.4447018,44.0151804 40.7798499,46.3190022 C41.0877452,46.6227677 41.3889235,46.9332651 41.6942993,47.3245806 C41.6686093,47.432647 41.6418286,47.45678 41.615048,47.480916 C41.452176,47.432965 41.2893041,47.3850139 41.0660096,47.4002812 C41.0055871,47.4635026 41.0207564,47.4684399 41.086384,47.3895445 C40.8697601,47.2287121 40.5875118,47.1467688 40.3052605,47.0648286 Z" id="Path" fill="#FFFFFF"></path>
            <path d="M211.791447,43.0379299 C211.613413,42.8629496 211.52222,42.7755661 211.348716,42.5995336 C210.939103,41.4039777 210.420637,40.3114265 210.327729,39.1869312 C210.175724,37.3468714 210.214705,35.480728 210.340092,33.6358989 C210.41818,32.4877503 210.803683,31.3585924 211.051181,30.2209089 C211.051181,30.2209089 211.039638,30.2325725 211.031601,30.2348259 C211.465503,29.9706719 211.907416,29.7042649 212.466577,29.4656489 C212.614179,29.514651 212.644534,29.5358618 212.674889,29.5570756 C211.473386,30.9876251 211.110227,32.6982335 211.072296,34.4470555 C211.030987,36.3528215 211.020621,38.286717 211.321304,40.161054 C211.492966,41.2310067 212.311833,42.206642 212.915502,43.255393 C212.991748,43.2860414 212.978208,43.2720359 212.972143,43.266968 C212.519557,43.8244331 212.224607,43.2886303 211.791447,43.0379299 Z" id="Path" fill="#FFFFFF"></path>
            <path d="M53.1895738,29.2120886 C53.149524,29.1821864 53.1109426,29.1510137 53.082411,29.1240217 C52.6643296,28.7772107 52.237673,28.424946 51.789734,27.9996905 C51.768439,27.9266968 51.7557252,27.9398553 51.7557252,27.9398553 C53.4378402,28.3664483 54.5035271,29.6284425 55.5591954,30.8227015 C56.8239974,32.2535494 57.3779902,34.0715361 57.4038577,35.9165087 C57.4268194,37.5535455 56.902678,39.1466573 55.7931061,40.4580153 C55.7036263,40.4328829 55.6141462,40.4077505 55.5246662,40.3826182 C55.6912655,39.7764343 55.8365326,39.1636117 56.0281446,38.5652087 C56.875844,35.9177789 56.5271743,33.4467213 54.8674448,31.1269095 C54.7966822,31.1037713 54.8112115,31.1208143 54.812494,31.0555282 C54.6786397,30.7976852 54.5435026,30.6051282 54.4083656,30.4125742 C54.3289786,30.3383193 54.2495978,30.2640613 54.0906503,30.1039871 C53.737247,29.7494747 53.4634103,29.4807816 53.1895738,29.2120886 Z" id="Path" fill="#12161C"></path>
            <path d="M48.8970674,43.4601255 C48.8293764,43.4026489 48.8634393,43.4173632 48.8101599,43.34731 C47.9261607,41.8481744 47.9755608,40.3356995 48.3320709,38.797527 C48.6683455,37.3466883 49.1236433,35.9119699 49.3142336,34.4431216 C49.4253924,33.5864359 49.6496107,33.4226164 50.3816794,33.7337351 C50.3816794,33.7337351 50.3692556,33.7171655 50.3620125,33.7097298 C49.9039691,35.5504623 49.3613663,37.3827285 49.0314588,39.2518258 C48.7683134,40.7427073 48.7764325,42.2762374 49.8309265,43.6598162 C49.8064051,43.769943 49.7785479,43.7933671 49.7506874,43.8167939 C49.4887101,43.7170655 49.2267327,43.617337 48.8970674,43.4601255 Z" id="Path" fill="#FFFFFF"></path>
            <path d="M207.933272,15.3984293 C207.756607,15.2859682 207.579967,15.1735104 207.438115,14.9735416 C207.412483,14.7636404 207.352014,14.6412529 207.328244,14.4782567 C207.387133,14.4088127 207.40927,14.379979 207.431407,14.351145 C210.36927,15.777048 211.162185,18.5663114 210.43303,21.051668 C210.084138,22.240924 209.094232,22.9818913 207.913736,23.5114504 C208.199583,23.1369703 208.485404,22.7624902 208.782116,22.3166203 C208.79298,22.2452308 208.777653,22.25988 208.843886,22.2455284 C210.275212,20.2986285 210.120277,17.6001946 208.556866,16.0783175 C208.556866,16.0783175 208.56541,16.0902122 208.563344,16.019627 C208.351943,15.7655054 208.142607,15.5819688 207.933272,15.3984293 Z" id="Path" fill="#FFFFFF"></path>
            <path d="M98.7698083,31.3968759 C99.0384229,31.1212277 99.3070436,30.8455793 99.7115438,30.5353417 C99.9549837,30.3592802 100.062538,30.217808 100.170098,30.0763359 C100.170098,30.0763359 100.159429,30.0864492 100.213337,30.1523632 C100.42704,30.1706005 100.586842,30.1229271 100.787036,30.110962 C100.856965,30.1671057 100.886501,30.1875411 100.916031,30.2079735 C99.3235328,31.4881546 98.7699239,33.156845 98.9485561,35.1776584 C99.0552649,36.3848747 98.9681292,37.6095039 98.9681292,38.9312977 C98.8039242,38.8884433 98.5525286,38.8228331 98.2276524,38.7308492 C98.1541777,38.7044757 98.1683921,38.72187 98.1702472,38.6351099 C98.2394826,36.3262263 98.3068689,34.104106 98.3742613,31.8819825 C98.3742551,31.8819825 98.3660622,31.8944658 98.4324753,31.9606064 C98.589193,31.8167892 98.6795036,31.606834 98.7698083,31.3968759 Z" id="Path" fill="#FFFFFF"></path>
            <path d="M224.267319,20.2066053 C224.058058,20.0055059 223.939804,19.8874334 223.735443,19.6685087 C223.502821,19.4768715 223.356355,19.3860881 223.209865,19.2953046 C223.209865,19.2953046 223.220555,19.3056968 223.29196,19.2445637 C222.611638,17.3319017 222.436174,15.4987225 223.552362,13.706668 C223.552362,13.706668 223.610308,13.6474619 223.673282,13.5800604 C224.12611,13.1095955 224.515965,12.7065332 224.90582,12.3034722 C224.90582,12.3034736 224.888045,12.3153994 224.880402,12.3228134 C225.204489,12.216839 225.536219,12.1034497 226.10687,11.9083969 C223.05149,14.807833 222.552168,17.6906024 225.58378,20.7634037 C225.554959,20.869564 225.526519,20.8927965 225.498054,20.9160305 C225.118128,20.7072325 224.738228,20.4984317 224.267319,20.2066053 Z" id="Path" fill="#FFFFFF"></path>
            <path d="M51.6994632,27.9341773 C51.0339573,27.8778104 50.8683632,27.6811407 51.0771438,26.8844866 C51.7660077,24.2559718 52.3081542,21.5858939 52.9066368,18.9317742 C53.0173873,18.9316155 53.128138,18.9314567 53.2388887,18.9312977 C53.2388887,19.6004666 53.3489929,20.2937678 53.2190775,20.9344615 C52.7539189,23.228484 52.2074353,25.5046832 51.6863871,27.8706125 C51.6810626,27.9536016 51.6931221,27.9404372 51.6994632,27.9341773 Z" id="Path" fill="#FFFFFF"></path>
            <path d="M149.711726,13.5051815 C149.129678,13.883199 148.609878,14.2207633 147.938931,14.6564885 C148.023817,14.3727822 148.020375,14.1894973 148.105982,14.126896 C149.885474,12.8255069 150.764162,11.0481545 151.023391,8.8953482 C151.109333,8.18159539 151.199387,7.37729333 152.21374,7.02290076 C152.198868,9.54026947 151.612869,11.729168 149.711726,13.5051815 Z" id="Path" fill="#FFFFFF"></path>
            <path d="M71.1699388,47.8432423 C70.9638172,47.4745759 70.7506258,47.0987834 70.5343511,46.7175573 C72.6450608,47.0043178 74.5099628,51.5501557 72.2591713,54.351145 C72.2936047,53.6905706 72.2265785,53.0040001 72.3819587,52.3744078 C72.8071878,50.6514308 72.3135224,49.2031996 71.2190013,47.84446 C71.1496566,47.8209965 71.1628754,47.8361162 71.1699388,47.8432423 Z" id="Path" fill="#12161C"></path>
            <path d="M106.887082,16.3383417 C106.821237,16.2748439 106.809373,16.2604881 106.725492,16.161431 C106.702642,16.0668652 106.733374,16.0335446 106.764106,16.000224 C106.83528,15.9226353 106.906454,15.8450468 107.055044,15.6847978 C107.265614,15.4020236 107.398768,15.2019067 107.531922,15.0017898 C107.531922,15.0017898 107.512983,14.9749678 107.506717,14.9847989 C107.677994,14.696286 107.807833,14.3436067 108.047449,14.116007 C108.256367,13.9175683 108.589094,13.8601719 108.867113,13.740458 C108.913949,13.8158672 108.960786,13.8912765 109.007634,13.9666841 C108.502788,14.6911716 107.997954,15.4156592 107.489676,16.1451026 C109.074802,17.5826734 108.085981,19.5514469 108.421647,21.2717446 C108.315923,21.3058451 108.210187,21.3399455 108.104451,21.3740458 C107.940565,20.8096457 107.675112,20.2530572 107.634331,19.6791901 C107.554022,18.5493163 107.766408,17.373528 106.887082,16.3383417 Z" id="Path" fill="#FFFFFF"></path>
            <path d="M106.870229,41.5398583 C106.870229,41.5398583 106.928707,41.5331435 106.921633,41.5379722 C107.698636,40.9946502 107.70978,40.1456198 107.750347,39.2857023 C107.792747,38.387082 107.443689,37.3695591 108.580576,36.4885496 C108.265068,38.4609539 109.202126,40.4001436 107.515701,41.9035224 C108.065026,42.5915066 108.603373,43.2657482 109.160305,43.963247 C108.432056,44.2183408 108.432056,44.2183408 107.990116,43.5722994 C107.920588,43.5446659 107.934311,43.5625184 107.935553,43.4965288 C107.807796,43.2352405 107.678784,43.0399417 107.549773,42.844646 C107.549773,42.844646 107.491732,42.7889053 107.428001,42.7201095 C107.199602,42.2808298 107.034921,41.9103425 106.870229,41.5398583 Z" id="Path" fill="#FFFFFF"></path>
            <path d="M87.0963211,42.6066833 C86.9553897,42.4680823 86.8144643,42.3294843 86.5893825,42.0918328 C86.5400431,41.8979171 86.5748539,41.8030486 86.6096587,41.7081833 C86.6299718,41.678071 86.6523393,41.6496471 86.6697662,41.6323034 C86.8736974,41.0421274 87.1746932,40.4576295 87.2754632,39.8396151 C87.4472923,38.7858269 86.9149776,37.5723025 88.1617146,36.6412214 C87.7813317,38.446613 88.7880365,40.3244338 87.3069233,41.8796564 C87.8012657,42.5413231 88.3152789,43.2293194 88.8549618,43.9516657 C87.9545609,44.4185801 87.8257733,43.8308481 87.5517741,43.3346209 C87.479645,43.3066863 87.4938127,43.3246092 87.4951153,43.2586324 C87.3630563,42.9973305 87.2296887,42.8020084 87.0963211,42.6066833 Z" id="Path" fill="#12161C"></path>
            <path d="M178.090672,43.0083982 C177.968871,42.8762324 177.925502,42.8311384 177.811298,42.6971414 C177.597478,42.5153489 177.454469,42.4224658 177.31146,42.3295886 C177.31146,42.3295886 177.322925,42.3416328 177.325528,42.349528 C177.186076,41.3729998 177.035891,40.3896745 176.904632,39.4037974 C176.804347,38.6505372 176.728021,37.8940421 176.641221,37.1405542 C177.512203,37.0503318 177.488257,37.0519415 177.533832,37.7398409 C177.658113,39.6155703 177.654233,41.5300522 178.943806,43.0965991 C179.08922,43.2732446 179.234311,43.4501364 179.236641,43.8167939 C178.880792,43.5763535 178.524955,43.3359133 178.090672,43.0083982 Z" id="Path" fill="#12161C"></path>
            <path d="M98.1679389,23.7943311 C98.1679389,22.2793701 98.1679389,20.8645045 98.1679389,19.389313 C98.4861584,19.389313 98.7644303,19.389313 99.0538619,19.389313 C99.061778,19.4188548 99.086322,19.464039 99.0837867,19.5076531 C98.9664857,21.5259713 98.8492154,23.5443209 98.7079979,25.5609901 C98.7055311,25.5962746 98.411694,25.6111698 98.1679389,25.648855 C98.1679389,25.0317089 98.1679389,24.4630668 98.1679389,23.7943311 Z" id="Path" fill="#FFFFFF"></path>
            <path d="M227.669569,26.2381307 C227.939198,26.0336239 228.208827,25.8291138 228.567379,25.5314916 C228.828479,25.166406 229.00068,24.894434 229.172856,24.622462 C229.172856,24.6224634 229.156089,24.6371584 229.149014,24.6458375 C229.477594,24.0136008 229.829677,23.3808143 230.143137,22.7289327 C230.353549,22.2913 230.509273,21.8266193 230.689494,21.3740458 C230.796323,21.3964429 230.903152,21.4188417 231.010006,21.4412404 C231.051972,21.7799557 231.206606,22.1529478 231.118167,22.4519846 C230.385605,24.928645 228.654776,26.5038104 226.449188,27.625229 C226.401213,27.6496213 226.323436,27.6136396 226.259542,27.605819 C226.294263,27.5247202 226.328985,27.4436185 226.383453,27.2958732 C226.403225,27.229233 226.3867,27.243722 226.451587,27.2449691 C226.707453,27.1122232 226.898432,26.9782329 227.089411,26.8442366 C227.089411,26.8442366 227.142984,26.7845383 227.220276,26.7176462 C227.421577,26.5132098 227.545561,26.3756687 227.669569,26.2381307 Z" id="Path" fill="#FFFFFF"></path>
            <path d="M237.331108,19.9982238 C237.444051,19.8887479 237.482407,19.8479388 237.514823,19.8155948 C238.406157,19.0173436 238.644066,17.9345002 238.784082,16.7822453 C238.854758,16.2003922 239.082982,15.6386791 239.311159,14.8091603 C240.058327,17.5530795 238.931922,20.1929527 236.793893,20.610687 C237.001318,20.366858 237.128907,20.2168742 237.331108,19.9982238 Z" id="Path" fill="#FFFFFF"></path>
            <path d="M144.050702,30.5343511 C145.47304,31.0228647 146.645871,32.4178885 147.328244,34.432813 C147.265361,34.5073726 147.202478,34.5819291 147.139595,34.6564885 C146.798016,34.3673109 146.390871,34.1244324 146.127339,33.7801475 C145.377197,32.8001994 144.685596,31.7789123 143.969466,30.6901081 C143.995528,30.5823341 144.023109,30.558344 144.050702,30.5343511 Z" id="Path" fill="#12161C"></path>
            <path d="M236.531154,10.0599195 C236.481842,10.0098127 236.432554,9.95970807 236.369492,9.80714246 C235.959081,9.23227829 235.598882,8.71991724 235.150406,8.30434355 C234.926459,8.09685136 234.54119,8.06626201 234.228894,7.95565365 C234.228894,7.95565225 234.174602,7.89526686 234.236522,7.82040958 C234.112463,7.60955686 233.926461,7.47356222 233.740458,7.33756979 C233.740458,7.33757119 233.752823,7.35410083 233.760037,7.36148541 C233.813479,7.25354658 233.859683,7.13822417 233.905886,7.02290076 C235.75056,7.98636776 237.291926,9.25361465 238.167939,11.1872083 C238.083646,11.2749332 237.999354,11.3626574 237.915061,11.4503817 C237.627931,11.1615366 237.340802,10.8726925 236.983541,10.5599234 C236.913386,10.5360002 236.927646,10.5531328 236.928763,10.4808088 C236.796955,10.292297 236.664055,10.176109 236.531154,10.0599195 Z" id="Path" fill="#12161C"></path>
            <path d="M34.2414382,25.3277128 C33.6156539,25.9140296 33.0545907,26.4665099 32.2137405,26.5648855 C34.171217,24.680231 36.3516118,23.1665813 39.0839695,22.4427481 C37.448963,23.415703 35.8757594,24.3518781 34.2414382,25.3277128 Z" id="Path" fill="#367FCA"></path>
            <path d="M138.287048,15.8778626 C138.522007,15.8928417 138.676844,15.9081111 138.931298,15.9332082 C138.59685,16.6927052 138.291633,17.3858157 137.947226,18.1679389 C137.335023,17.1784076 137.44018,16.5473374 138.287048,15.8778626 Z" id="Path" fill="#FFFFFF"></path>
            <path d="M54.351145,46.9172874 C54.1470551,47.1705471 53.9402911,47.3466966 53.6035341,47.6335878 C53.4200837,46.8463709 53.2749242,46.2234825 53.129771,45.6005943 C53.2456916,45.5657895 53.3616189,45.5309848 53.4775395,45.4961832 C53.7678455,45.9441814 54.0581582,46.3921793 54.351145,46.9172874 Z" id="Path" fill="#12161C"></path>
            <path d="M206.732209,14.351145 C206.857201,14.0357537 206.942998,13.6340349 207.470131,14.1175601 C207.49914,14.2059157 207.475932,14.2365415 207.322279,14.3010573 C207.033741,14.3341912 206.875649,14.3334336 206.717557,14.332676 C206.717557,14.332676 206.729963,14.3434127 206.732209,14.351145 Z" id="Path" fill="#12161C"></path>
            <path d="M69.8082914,46.2470267 C69.7544968,46.2077777 69.7726558,46.2212404 69.7796147,46.2232001 C69.8655743,46.1857305 69.9445811,46.1463012 70.0235819,46.1068702 C70.0920591,46.1514262 70.1605363,46.1959823 70.2290076,46.2405399 C70.1067004,46.2557851 69.9843873,46.2710288 69.8082914,46.2470267 Z" id="Path" fill="#12161C"></path>
            <path d="M236.946565,51.6752063 C236.764157,51.7311638 236.553594,51.7620993 236.339386,51.7546205 C236.335719,51.7162064 236.324538,51.7247368 236.37823,51.7191406 C236.573228,51.6767164 236.714557,51.6398815 236.855864,51.6030534 C236.876728,51.618759 236.897569,51.6344681 236.946565,51.6752063 Z" id="Path" fill="#12161C"></path>
            <path d="M122.137405,15.2574707 C122.342954,15.1796237 122.517375,15.1470642 122.691797,15.1145038 C122.710566,15.1549789 122.729335,15.1954538 122.748092,15.2359288 C122.534166,15.258205 122.320228,15.2804811 122.137405,15.2574707 Z" id="Path" fill="#12161C"></path>
            <path d="M184.757292,15.2671756 C184.808166,15.1202606 184.850049,14.9647087 184.891917,14.8091603 C185.020467,14.8579676 185.149017,14.9067727 185.332974,15.0156163 C185.362219,15.1100116 185.336042,15.1443688 185.184871,15.2184817 C184.950865,15.2518892 184.841852,15.245536 184.732824,15.2391825 C184.732824,15.2391825 184.748287,15.2585406 184.757292,15.2671756 Z" id="Path" fill="#12161C"></path>
            <path d="M41.77321,47.480916 C41.9733347,47.5579951 42.131704,47.6716459 42.2900763,47.7852967 C42.2691792,47.8365081 42.2482851,47.8877196 42.227388,47.9389313 C42.0533912,47.8716947 41.8793946,47.8044617 41.6793893,47.6676413 C41.6794071,47.5711996 41.7054309,47.5443418 41.77321,47.480916 Z" id="Path" fill="#12161C"></path>
            <path d="M223.578865,47.1755725 C223.403713,47.1003909 223.228588,47.0252091 223.053435,46.9500239 C223.07655,46.8725352 223.099638,46.7950462 223.122726,46.7175573 C223.301018,46.7777751 223.479336,46.8379894 223.664122,46.9974747 C223.640024,47.1230179 223.609459,47.149297 223.578865,47.1755725 Z" id="Path" fill="#12161C"></path>
            <path d="M144.028333,30.5343511 C143.828206,30.4572809 143.669834,30.3436251 143.51145,30.2299693 C143.53234,30.178757 143.553241,30.1275481 143.57413,30.0763359 C143.748136,30.143563 143.92213,30.2107937 144.122137,30.3476092 C144.122114,30.4440593 144.096088,30.4709142 144.028333,30.5343511 Z" id="Path" fill="#12161C"></path>
            <path d="M212.671756,29.4241697 C212.78303,29.3723495 212.956382,29.3426624 213.129771,29.3129771 C213.087785,29.3547556 213.045762,29.3965341 212.935614,29.4620934 C212.822951,29.4726832 212.778411,29.459494 212.671756,29.4241697 Z" id="Path" fill="#12161C"></path>
            <path d="M223.50107,47.1755725 C223.645777,47.2130994 223.731269,47.2706719 223.816794,47.3282443 C223.673001,47.3235544 223.529176,47.3188645 223.358779,47.2776867 C223.368767,47.2260065 223.405328,47.2108123 223.50107,47.1755725 Z" id="Path" fill="#12161C"></path>
            <path d="M225.638474,20.9160305 C225.783181,20.9535566 225.868674,21.011129 225.954198,21.0687023 C225.810406,21.0640116 225.66658,21.0593217 225.496183,21.0181447 C225.506172,20.9664635 225.542732,20.9512695 225.638474,20.9160305 Z" id="Path" fill="#12161C"></path>
            <path d="M100.610687,29.9337255 C100.756588,29.9401253 100.912641,29.9426504 101.068702,29.9451754 C101.033707,29.9808439 100.998711,30.016514 100.900998,30.0729768 C100.797417,30.0830075 100.756537,30.0722455 100.673161,30.0178185 C100.630655,29.9741535 100.644546,29.9236641 100.644546,29.9236641 C100.644546,29.9236641 100.620848,29.9298492 100.610687,29.9337255 Z" id="Path" fill="#12161C"></path>
            <path d="M223.816794,28.8134838 C223.928068,28.761662 224.10142,28.731975 224.274809,28.7022901 C224.232786,28.7440683 224.1908,28.7858465 224.080652,28.8514055 C223.967989,28.861997 223.923449,28.8488079 223.816794,28.8134838 Z" id="Path" fill="#12161C"></path>
            <path d="M49.7607452,43.6641221 C49.9054182,43.7016615 49.9908769,43.7592276 50.0763359,43.8167939 C49.9325278,43.8120822 49.788724,43.8073707 49.6183206,43.7661764 C49.6283272,43.7145122 49.664929,43.6993305 49.7607452,43.6641221 Z" id="Path" fill="#12161C"></path>
            <path d="M191.898124,43.3587786 C192.042793,43.396315 192.128275,43.4538817 192.21374,43.5114504 C192.069937,43.5067409 191.926134,43.5020313 191.755725,43.4608422 C191.765731,43.4091775 191.802326,43.3939922 191.898124,43.3587786 Z" id="Path" fill="#12161C"></path>
            <path d="M41.8320611,33.3936239 C41.9433453,33.3417955 42.1167131,33.3121191 42.2900763,33.2824427 C42.2480241,33.324218 42.2059715,33.365995 42.0958229,33.4315564 C41.9831872,33.4421518 41.9386614,33.428961 41.8320611,33.3936239 Z" id="Path" fill="#12161C"></path>
            <path d="M215.572519,4.92992088 C215.5345,4.98146085 215.477173,5.0098138 215.419847,5.03816794 C215.433119,4.9947911 215.446391,4.95141307 215.484106,4.88742355 C215.523451,4.88011904 215.538339,4.89342628 215.572519,4.92992088 Z" id="Path" fill="#367FCA"></path>
            <path d="M121.516445,33.2824427 C121.661113,33.3199796 121.746595,33.3775471 121.832061,33.4351145 C121.688258,33.4304049 121.544455,33.4256973 121.374046,33.3845076 C121.384051,33.3328422 121.420647,33.3176568 121.516445,33.2824427 Z" id="Path" fill="#12161C"></path>
            <path d="M164.041563,13.740458 C164.085191,13.7923892 164.06839,13.842759 164.05158,13.8931298 C164.028088,13.8417184 164.004606,13.790307 164.041563,13.740458 Z" id="Path" fill="#12161C"></path>
            <path d="M57.9834579,8.39694656 C57.9877744,8.95914885 57.9061002,9.54940402 57.8532412,10.1422466 C57.6343813,12.5967164 58.57943,14.8533601 59.1235497,17.163867 C60.5081357,23.0432596 62.0550632,28.8839944 63.4689492,34.7566939 C64.1194627,37.4586428 64.9326429,40.0706418 66.5648855,42.4427481 C66.3746625,42.3498199 66.0507964,42.2593341 65.9008702,42.0458807 C64.3353385,39.8168641 63.7167591,37.2230713 63.0753698,34.6304765 C61.3042161,27.4712588 59.4926121,20.3221237 57.7174982,13.1638837 C57.324195,11.5778722 57.1914853,9.97826935 57.9834579,8.39694656 Z" id="Path" fill="#12161C"></path>
            <path d="M50.3816794,33.484586 C49.6078364,33.2336937 49.3887604,33.3984734 49.280151,34.2601805 C49.0939318,35.7376383 48.649076,37.1807662 48.3205137,38.6401088 C47.97218,40.1872972 47.9239129,41.7086373 48.7881752,43.2061069 C48.6662343,43.1874815 48.4161647,43.1589567 48.3289986,43.022355 C47.5691881,41.831611 47.5216676,40.4677044 47.7628576,39.1664605 C48.1588938,37.0298248 48.7471186,34.9302296 49.2886512,32.6717557 C49.733337,32.9616722 50.0867901,33.192104 50.3816794,33.484586 Z" id="Path" fill="#12161C"></path>
            <path d="M39.2366412,35.4198473 C38.8244,36.4912431 38.1961105,37.4613913 37.9142412,38.5244197 C37.3910608,40.4975352 37.5824199,42.4661907 38.5331672,44.3171323 C38.6969602,44.6360092 38.8506842,44.9601167 38.9465433,45.3435115 C37.8652245,44.5582754 37.5648888,43.3219991 37.3850005,42.1360783 C37.008269,39.6524319 37.3728551,37.2953296 39.2366412,35.4198473 Z" id="Path" fill="#12161C"></path>
            <path d="M40.7633588,33.740458 C40.3159391,34.3888627 39.8097914,34.9698688 39.2375155,35.5725191 C39.2067585,34.5091834 39.9928155,34.1258168 40.7633588,33.740458 Z" id="Path" fill="#12161C"></path>
            <path d="M52.9770992,29.3129771 C53.3162103,29.5101629 53.5790233,29.767162 53.8931298,30.0763359 C53.5965533,29.8766028 53.2486712,29.624695 52.9770992,29.3129771 Z" id="Path" fill="#12161C"></path>
            <path d="M40.4580153,47.3282443 C40.6942365,47.3471084 40.989036,47.3912841 41.221374,47.480916 C40.9448032,47.4687678 40.7306965,47.4111602 40.4580153,47.3282443 Z" id="Path" fill="#FFFFFF"></path>
            <path d="M54.351145,30.5343511 C54.6189517,30.6652355 54.785884,30.8671201 54.9618321,31.1450382 C54.7306479,31.0158314 54.4904633,30.8105883 54.351145,30.5343511 Z" id="Path" fill="#12161C"></path>
            <path d="M41.5267176,33.4351145 C41.4394429,33.6262933 41.2862819,33.7563347 41.0687023,33.8931298 C41.1564702,33.7245823 41.3086507,33.5492811 41.5267176,33.4351145 Z" id="Path" fill="#FFFFFF"></path>
            <path d="M38.9312977,45.3435674 C39.060422,45.3414765 39.1986744,45.398075 39.389313,45.4961832 C39.2746069,45.492547 39.1075178,45.4474027 38.9312977,45.3435674 Z" id="Path" fill="#FFFFFF"></path>
            <path d="M58.6259542,7.9389313 C58.5443243,8.22304655 58.3933064,8.41975912 58.1679389,8.54961832 C58.2479171,8.27235292 58.4022384,8.06193998 58.6259542,7.9389313 Z" id="Path" fill="#12161C"></path>
            <path d="M241.917342,32.3664122 C242.346569,33.2320828 242.91193,34.1389126 243.193675,35.1288193 C244.293827,38.9942229 243.343442,42.5870855 241.595087,46.0418729 C241.56838,46.0946371 241.490326,46.1206633 241.374046,46.0995058 C241.780989,44.8422009 242.385013,43.6791214 242.693392,42.4403054 C243.539623,39.0408827 243.35671,35.6837843 241.917342,32.3664122 Z" id="Path" fill="#12161C"></path>
            <path d="M220.916031,30.9923664 C219.263013,33.2674128 218.525909,35.7685456 218.56995,38.4888159 C218.602244,40.4824752 219.249613,42.3231441 220.292894,44.1156893 C220.177884,44.1275448 219.913739,44.1343986 219.851822,44.0294704 C217.444638,39.9510753 217.617904,35.1557069 220.374391,31.2502237 C220.479688,31.1010108 220.695316,31.0247156 220.916031,30.9923664 Z" id="Path" fill="#12161C"></path>
            <path d="M238.015267,13.2242896 C238.047029,12.9861786 238.020167,12.7184371 238.126788,12.6611099 C239.105267,12.1349676 240.106915,11.6453222 241.101828,11.1450382 C241.192568,11.2307234 241.283307,11.3164084 241.374046,11.4020937 C241.253781,11.6240512 241.197141,11.9426381 241.002345,12.0513995 C240.114554,12.5470432 239.189649,12.9867484 238.269995,13.4324075 C238.225291,13.4540803 238.104121,13.3420359 238.015267,13.2242896 Z" id="Path" fill="#12161C"></path>
            <path d="M223.664122,13.740458 C222.532392,15.6189926 222.72055,17.4611582 223.454588,19.389313 C222.023137,17.630387 222.126175,14.8714181 223.664122,13.740458 Z" id="Path" fill="#12161C"></path>
            <path d="M245.072079,11.897305 C244.418306,11.7467472 243.521591,12.3021774 243.358779,11.1450382 C244.198777,11.1450382 244.979327,11.1450382 245.835706,11.1450382 C246.141729,11.7637314 245.843717,11.9599364 245.072079,11.897305 Z" id="Path" fill="#12161C"></path>
            <path d="M242.357987,10.5343511 C242.672001,11.0825 242.902065,11.6355181 243.206107,12.3664122 C242.613206,12.3664122 242.323238,12.3664122 241.832061,12.3664122 C241.988361,11.7201314 242.131176,11.1296762 242.357987,10.5343511 Z" id="Path" fill="#12161C"></path>
            <path d="M239.694656,29.9236641 C240.507788,30.6313804 241.243357,31.3876687 241.984733,32.2137405 C241.199407,31.5130948 240.40825,30.7426684 239.694656,29.9236641 Z" id="Path" fill="#12161C"></path>
            <path d="M234.351145,8.24427481 C234.618459,8.31118346 235.017894,8.34265376 235.250075,8.55612163 C235.715041,8.98366367 236.088485,9.51078049 236.48855,10.0763359 C235.787448,9.53430727 235.097529,8.91273312 234.351145,8.24427481 Z" id="Path" fill="#12161C"></path>
            <path d="M225.038168,12.0610687 C224.706522,12.5429554 224.309905,12.9608621 223.86573,13.4351145 C223.614993,12.557657 224.376684,12.3385449 225.038168,12.0610687 Z" id="Path" fill="#12161C"></path>
            <path d="M221.832061,29.7709924 C221.598636,30.1725601 221.310164,30.6291414 220.974886,31.1450382 C220.730146,30.3975669 221.293967,30.1409625 221.832061,29.7709924 Z" id="Path" fill="#12161C"></path>
            <path d="M236.87786,51.4391325 C236.70067,51.5866574 236.549382,51.6607772 236.335878,51.7557252 C236.734567,51.3327644 237.19547,50.8889682 237.709924,50.5343511 C237.476934,50.8709257 237.190348,51.1183211 236.87786,51.4391325 Z" id="Path" fill="#12161C"></path>
            <path d="M238.931298,49.4656489 C238.687464,49.7949148 238.376768,50.0624946 238.015267,50.3816794 C238.264495,50.0901812 238.564478,49.747072 238.931298,49.4656489 Z" id="Path" fill="#12161C"></path>
            <path d="M239.847328,48.3969466 C239.6504,48.855233 239.399241,49.2247368 239.083969,49.6183206 C239.277619,49.1976562 239.535335,48.7529084 239.847328,48.3969466 Z" id="Path" fill="#12161C"></path>
            <path d="M229.007634,24.4274809 C228.884274,24.754517 228.669287,25.0216572 228.396947,25.3435115 C228.531741,25.0546781 228.723889,24.7111308 229.007634,24.4274809 Z" id="Path" fill="#12161C"></path>
            <path d="M220.305344,44.4274809 C220.550582,44.5561721 220.703596,44.7688004 220.916031,45.0381679 C220.721313,44.9004118 220.467202,44.7059134 220.305344,44.4274809 Z" id="Path" fill="#12161C"></path>
            <path d="M240.610687,47.480916 C240.543813,47.7702695 240.377795,47.9776342 240.152672,48.2442748 C240.232892,48.0020138 240.372247,47.7004735 240.610687,47.480916 Z" id="Path" fill="#12161C"></path>
            <path d="M226.870229,26.5648855 C226.739327,26.832698 226.537455,26.9996255 226.259542,27.1755725 C226.388753,26.9443936 226.594006,26.7041989 226.870229,26.5648855 Z" id="Path" fill="#12161C"></path>
            <path d="M241.374046,46.1068702 C241.358996,46.3166619 241.309603,46.5451132 241.221374,46.7175573 C241.234918,46.4828757 241.287297,46.3042014 241.374046,46.1068702 Z" id="Path" fill="#12161C"></path>
            <path d="M223.358779,19.3893689 C223.487925,19.387278 223.626154,19.4438765 223.816794,19.5419847 C223.702098,19.5383504 223.534992,19.4932052 223.358779,19.3893689 Z" id="Path" fill="#12161C"></path>
            <path d="M233.740458,7.32824427 C234.017656,7.40810234 234.228013,7.56236495 234.351145,7.78625954 C234.067162,7.70480971 233.870403,7.55372972 233.740458,7.32824427 Z" id="Path" fill="#12161C"></path>
            <path d="M227.480916,26.1068702 C227.45194,26.2410081 227.280532,26.3765597 227.022901,26.5648855 C227.070602,26.4478669 227.204559,26.2780739 227.480916,26.1068702 Z" id="Path" fill="#12161C"></path>
            <path d="M238.015267,28.3970025 C238.144413,28.3949116 238.282643,28.4515101 238.473282,28.5496183 C238.358587,28.5459821 238.19148,28.500836 238.015267,28.3970025 Z" id="Path" fill="#12161C"></path>
            <path d="M236.641221,10.0763359 C236.793694,10.1099683 236.942335,10.2680615 237.099237,10.5343511 C236.950785,10.4952955 236.794074,10.3480456 236.641221,10.0763359 Z" id="Path" fill="#12161C"></path>
            <path d="M222.900763,28.8549618 C222.861776,29.0034195 222.714458,29.1601185 222.442748,29.3129771 C222.47637,29.1604921 222.634418,29.0118475 222.900763,28.8549618 Z" id="Path" fill="#12161C"></path>
            <path d="M240.862391,46.7175573 C240.903671,46.8720415 240.88168,47.0684941 240.815706,47.3282443 C240.780874,47.1808667 240.790006,46.9701978 240.862391,46.7175573 Z" id="Path" fill="#12161C"></path>
            <path d="M188.226072,19.0902771 C188.345664,19.0707981 188.548463,19.0941439 188.587053,19.1925461 C189.908518,22.5616072 189.807455,26.0376207 189.135168,29.5205636 C188.989408,30.2756635 188.488239,30.9508203 188.091603,31.6030534 C189.511539,28.6825656 189.22994,25.5492422 189.124185,22.480809 C189.085779,21.3661807 188.544536,20.2717461 188.226072,19.0902771 Z" id="Path" fill="#12161C"></path>
            <path d="M187.022901,39.8473282 C187.268706,40.0464651 187.568773,40.2961477 187.78626,40.610687 C187.494861,40.4163156 187.286018,40.1570962 187.022901,39.8473282 Z" id="Path" fill="#12161C"></path>
            <path d="M184.732824,35.1145038 C184.661191,35.3377294 184.525551,35.499028 184.385184,35.7238934 C184.243456,35.7342313 184.106455,35.6810057 183.969466,35.6277798 C184.202591,35.4360444 184.435704,35.2443119 184.732824,35.1145038 Z" id="Path" fill="#12161C"></path>
            <path d="M188.854962,41.6793893 C189.187611,41.871753 189.44199,42.1261156 189.618321,42.4427481 C189.285745,42.2504791 189.031231,41.9959336 188.854962,41.6793893 Z" id="Path" fill="#12161C"></path>
            <path d="M186.10687,34.0458015 C185.993544,34.2348073 185.777034,34.4213608 185.496183,34.6564885 C185.622462,34.4844942 185.813067,34.2639204 186.10687,34.0458015 Z" id="Path" fill="#12161C"></path>
            <path d="M187.633588,18.1679389 C187.919411,18.4227621 188.117036,18.7259077 188.244275,19.0839695 C187.964375,18.8313419 187.754876,18.5238011 187.633588,18.1679389 Z" id="Path" fill="#12161C"></path>
            <path d="M189.770992,42.7480916 C189.979134,42.7636533 190.242001,42.8097925 190.534351,42.9007634 C190.317792,42.8899548 190.071738,42.8343111 189.770992,42.7480916 Z" id="Path" fill="#12161C"></path>
            <path d="M184.885496,36.9465649 C185.082123,37.0762755 185.21847,37.2764371 185.343511,37.5572519 C185.163209,37.4309474 184.994213,37.2239799 184.885496,36.9465649 Z" id="Path" fill="#12161C"></path>
            <path d="M185.343511,34.8091603 C185.212617,35.0769745 185.010737,35.2439068 184.732824,35.4198473 C184.862029,35.188667 185.067264,34.9484746 185.343511,34.8091603 Z" id="Path" fill="#12161C"></path>
            <path d="M185.496183,37.7099237 C185.660302,37.8250773 185.809413,38.0260661 185.954198,38.3206107 C185.793654,38.2080319 185.637408,38.0018974 185.496183,37.7099237 Z" id="Path" fill="#12161C"></path>
            <path d="M186.870229,32.9770992 C186.785942,33.2915874 186.637743,33.519074 186.412214,33.740458 C186.492028,33.4529361 186.649172,33.1715168 186.870229,32.9770992 Z" id="Path" fill="#12161C"></path>
            <path d="M184.732824,15.3543901 C184.88596,15.2534768 184.977041,15.260391 185.136247,15.2767693 C185.283887,15.415611 185.363414,15.5449845 185.496183,15.7251908 C185.256545,15.6714215 184.963663,15.5668196 184.732824,15.3543901 Z" id="Path" fill="#12161C"></path>
            <path d="M187.633588,32.0610687 C187.621439,32.3376135 187.563824,32.5517399 187.480916,32.8244275 C187.499789,32.5882059 187.543956,32.2934264 187.633588,32.0610687 Z" id="Path" fill="#12161C"></path>
            <path d="M184.427481,36.6412214 C184.57175,36.6417013 184.724417,36.6926018 184.885496,36.7938931 C184.741227,36.7934019 184.58856,36.7425201 184.427481,36.6412214 Z" id="Path" fill="#12161C"></path>
            <path d="M187.022901,17.5572519 C187.162179,17.5570831 187.365755,17.6079827 187.633588,17.7099237 C187.49431,17.7100828 187.290747,17.6592026 187.022901,17.5572519 Z" id="Path" fill="#12161C"></path>
            <path d="M190.534351,42.9007634 C190.805799,42.9615598 191.009385,43.1142394 191.145038,43.3587786 C190.873562,43.2979684 190.670033,43.1453071 190.534351,42.9007634 Z" id="Path" fill="#12161C"></path>
            <path d="M177.40458,42.4428041 C177.533697,42.4407132 177.671958,42.4973116 177.862595,42.5954198 C177.747894,42.5917856 177.580803,42.5466395 177.40458,42.4428041 Z" id="Path" fill="#12161C"></path>
            <path d="M184.122137,35.7251908 C184.360016,35.8615516 184.512739,36.0651258 184.580153,36.3358779 C184.342206,36.1995027 184.189585,35.9959573 184.122137,35.7251908 Z" id="Path" fill="#12161C"></path>
            <path d="M187.731925,31.6030534 C187.774053,31.7726892 187.759377,31.9762623 187.687923,32.2137405 C187.645804,32.0440983 187.660453,31.8405446 187.731925,31.6030534 Z" id="Path" fill="#12161C"></path>
            <path d="M186.412214,39.2366412 C186.587018,39.3151203 186.768719,39.4712833 186.870229,39.6946565 C186.666408,39.6126898 186.542766,39.4635056 186.412214,39.2366412 Z" id="Path" fill="#12161C"></path>
            <path d="M155.757513,18.484958 C155.975062,18.4044085 156.199656,18.3152188 156.570525,18.1679389 C154.439117,21.4167433 154.44157,24.9852644 154.431891,28.4747245 C154.422285,31.9358784 154.320773,35.4996723 156.641221,38.6259542 C155.451823,38.3898381 154.920371,37.528914 154.671971,36.6970754 C154.239015,35.2471916 153.976896,33.7242509 153.821412,32.212774 C153.645055,30.4983067 153.51453,28.751875 153.633753,27.0389531 C153.81641,24.4147353 153.78456,21.7200739 155.110218,19.2224113 C155.169613,19.153046 155.15575,19.1864912 155.208605,19.1333708 C155.434978,18.8743593 155.608497,18.6684697 155.782005,18.4625786 C155.782005,18.4625756 155.764559,18.4763178 155.757513,18.484958 Z" id="Path" fill="#12161C"></path>
            <path d="M167.079941,19.0839695 C167.432532,19.9281696 167.974415,20.8322837 168.081151,21.7817402 C168.396655,24.5882065 168.763799,27.4177673 168.693558,30.2286304 C168.60856,33.6295338 168.188839,37.0408522 166.422323,40.1215572 C166.357019,40.2354293 166.259949,40.3324074 166.10687,40.4580153 C166.524958,39.1033685 167.120499,37.7533817 167.481921,36.3476051 C168.41059,32.7355607 168.621736,29.061492 168.110307,25.3699138 C167.822686,23.2938979 167.420782,21.2325573 167.079941,19.0839695 Z" id="Path" fill="#12161C"></path>
            <path d="M165.954198,16.6412214 C166.269105,17.1964798 166.607627,17.8259095 166.870229,18.4732824 C166.522156,17.899281 166.250004,17.3073376 165.954198,16.6412214 Z" id="Path" fill="#12161C"></path>
            <path d="M155.725191,18.3206107 C155.604201,18.6026593 155.386182,18.8155149 155.114504,19.0839695 C155.24995,18.8435178 155.439055,18.5474669 155.725191,18.3206107 Z" id="Path" fill="#12161C"></path>
            <path d="M164.885496,14.9618321 C165.130762,15.0905268 165.28379,15.3031511 165.496183,15.5725191 C165.301465,15.4347612 165.047355,15.24026 164.885496,14.9618321 Z" id="Path" fill="#12161C"></path>
            <path d="M165.496183,15.8778626 C165.747201,16.0223939 165.892778,16.2238159 165.954198,16.4885496 C165.710271,16.3461571 165.550514,16.140456 165.496183,15.8778626 Z" id="Path" fill="#12161C"></path>
            <path d="M164.677352,42.1374046 C164.71867,42.2463117 164.692998,42.390167 164.633444,42.5954198 C164.60315,42.4953282 164.606757,42.3338388 164.677352,42.1374046 Z" id="Path" fill="#12161C"></path>
            <path d="M199.083969,19.0839695 C198.645407,20.4206025 198.09228,21.6791953 197.671977,22.9823508 C197.444923,23.6862912 197.40169,24.4633871 197.351576,25.2127708 C197.254025,26.6712605 197.083276,28.1416191 197.172879,29.5922813 C197.315274,31.897403 197.378414,34.2391024 198.342066,36.4885496 C198.014406,35.9290573 197.469229,35.3181293 197.382873,34.6458883 C197.084549,32.3233691 196.773441,29.9778262 196.794948,27.6441875 C196.816807,25.2698819 196.969913,22.8474235 197.956561,20.6182348 C198.212163,20.0407347 198.663363,19.5532965 199.083969,19.0839695 Z" id="Path" fill="#12161C"></path>
            <path d="M211.11688,30.0763359 C210.947471,31.2052416 210.573275,32.3519063 210.497477,33.5178561 C210.375767,35.3912879 210.33793,37.2863645 210.485477,39.154953 C210.57566,40.2968828 211.078919,41.4063732 211.450382,42.5894937 C211.338212,42.6024619 211.066646,42.6021987 211.023368,42.5029353 C210.712574,41.7902514 210.284442,41.0762482 210.198085,40.3277247 C209.866695,37.4562358 209.736663,34.5702736 210.383519,31.7177357 C210.510395,31.1582172 210.820494,30.6400132 211.11688,30.0763359 Z" id="Path" fill="#12161C"></path>
            <path d="M208.549618,15.8778626 C210.231533,17.3729481 210.391561,20.1354336 208.907054,22.1374046 C209.049749,21.3413627 209.323469,20.5307295 209.471512,19.7001481 C209.716151,18.327708 209.17274,17.1100694 208.549618,15.8778626 Z" id="Path" fill="#12161C"></path>
            <path d="M198.625954,37.5572519 C198.916397,37.7482848 199.258616,37.9971729 199.541985,38.3206107 C199.214662,38.1351459 198.946202,37.8751248 198.625954,37.5572519 Z" id="Path" fill="#12161C"></path>
            <path d="M207.938931,15.2671756 C208.1449,15.3796388 208.343722,15.5861778 208.549618,15.8778626 C208.348373,15.762421 208.140055,15.5618352 207.938931,15.2671756 Z" id="Path" fill="#12161C"></path>
            <path d="M206.717557,14.2615591 C206.827691,14.192755 206.957858,14.1934887 207.163729,14.2031732 C207.291628,14.338017 207.343822,14.4639099 207.324252,14.6564885 C207.080847,14.5924829 206.909229,14.4617899 206.717557,14.2615591 Z" id="Path" fill="#12161C"></path>
            <path d="M198.167939,36.7938931 C198.411785,36.9362154 198.571546,37.1418932 198.625954,37.4045802 C198.37503,37.2601446 198.229442,37.0586968 198.167939,36.7938931 Z" id="Path" fill="#12161C"></path>
            <path d="M98.1676893,31.9083969 C98.1727616,34.1434794 98.0995917,36.4082252 98.0335807,38.7689159 C97.8948887,38.8043498 97.6182311,38.7351377 97.6219891,38.6845906 C97.7891063,36.4364449 97.1053216,34.1334375 98.1676893,31.9083969 Z" id="Path" fill="#12161C"></path>
            <path d="M106.741438,41.6793893 C106.968637,42.07285 107.124385,42.4590972 107.328244,42.9007634 C107.050651,42.7184068 106.717304,42.4920133 106.414199,42.2206017 C106.390737,42.1995875 106.579737,41.8624014 106.741438,41.6793893 Z" id="Path" fill="#12161C"></path>
            <path d="M107.328244,43.0534351 C107.596055,43.184327 107.762978,43.3862085 107.938931,43.6641221 C107.70775,43.5349111 107.467568,43.3296679 107.328244,43.0534351 Z" id="Path" fill="#FFFFFF"></path>
            <path d="M107.480916,14.8091603 C107.41404,15.0985109 107.248032,15.3058752 107.022901,15.5725191 C107.103109,15.330258 107.242439,15.028716 107.480916,14.8091603 Z" id="Path" fill="#FFFFFF"></path>
            <path d="M98.4732824,31.2977099 C98.4661667,31.5354862 98.4140427,31.753486 98.3206107,31.9083969 C98.3289587,31.6561824 98.3786147,31.4670596 98.4732824,31.2977099 Z" id="Path" fill="#FFFFFF"></path>
            <path d="M100.152672,30.0763359 C100.113633,30.2248024 99.9663507,30.3815107 99.6946565,30.5343511 C99.7283059,30.3818467 99.8863583,30.2332137 100.152672,30.0763359 Z" id="Path" fill="#12161C"></path>
            <path d="M100.561167,29.6183206 C100.624123,29.7012286 100.613113,29.8325622 100.602483,29.897227 C100.416551,30.0271999 100.241241,30.0925074 100,30.0729123 C100.122115,29.8371438 100.31017,29.6862782 100.561167,29.6183206 Z" id="Path" fill="#12161C"></path>
            <path d="M106.687518,15.8778626 C106.73606,15.9476771 106.699054,15.9684836 106.717557,16.0204646 C106.601887,16.0396438 106.430721,16.0276475 106.259542,16.0156514 C106.37369,15.9533861 106.487823,15.8911209 106.687518,15.8778626 Z" id="Path" fill="#12161C"></path>
            <path d="M78.6259542,15.2671756 C77.9725556,17.0548742 77.8279105,18.8614062 77.8347847,20.7029465 C77.8553625,26.211698 77.8387199,31.7205703 77.8495551,37.2293754 C77.8503217,37.6187678 77.9564243,38.0079701 77.9275222,38.4732824 C77.7021564,38.0908294 77.4437038,37.6328703 77.4415572,37.173808 C77.4141818,31.303411 77.3636988,25.4319032 77.4653932,19.5630098 C77.4909224,18.0896238 77.485626,16.4928789 78.6259542,15.2671756 Z" id="Path" fill="#12161C"></path>
            <path d="M87.0229008,42.5954198 C87.2907074,42.7263073 87.4576397,42.9281888 87.6335878,43.2061069 C87.4024036,43.0769001 87.1622191,42.871657 87.0229008,42.5954198 Z" id="Path" fill="#12161C"></path>
            <path d="M79.6946565,14.0458015 C79.5803186,14.2787045 79.362984,14.4376141 79.0839695,14.6564885 C79.2120746,14.4682365 79.4018748,14.2200232 79.6946565,14.0458015 Z" id="Path" fill="#12161C"></path>
            <path d="M78.9312977,14.6564885 C78.8635118,14.9010408 78.7094056,15.0740353 78.4732824,15.2671756 C78.5425075,15.0531906 78.6937351,14.81906 78.9312977,14.6564885 Z" id="Path" fill="#12161C"></path>
            <path d="M86.5393631,41.5267176 C86.5845276,41.7044401 86.5452366,41.8010625 86.5648855,41.9600858 C86.4515049,42.0021787 86.2791911,41.9818705 86.1068702,41.9615592 C86.2228803,41.7895755 86.3388975,41.6175949 86.5393631,41.5267176 Z" id="Path" fill="#12161C"></path>
            <path d="M176.845471,19.2419983 C177.103406,19.2488726 177.36883,19.2488726 177.557252,19.2488726 C177.557252,23.2799824 177.557252,27.2281525 177.557252,31.1763192 C177.43399,31.2167817 177.310715,31.2572474 177.187453,31.2977099 C177.006633,30.9516198 176.672874,30.6072312 176.668738,30.2591765 C176.629054,26.9186692 176.64006,23.5775317 176.653899,20.2366412 C176.655063,19.9557406 176.782247,19.6753261 176.859058,19.3076904 C176.86723,19.2206961 176.85296,19.235124 176.845471,19.2419983 Z" id="Path" fill="#12161C"></path>
        </g>
    </g>
</svg>