<?xml version="1.0" encoding="UTF-8"?>
<svg width="226px" height="60px" viewBox="0 0 226 60" version="1.1" xmlns="http://www.w3.org/2000/svg" xmlns:xlink="http://www.w3.org/1999/xlink">
    <title>logo-palworld</title>
    <g id="Game-Images" stroke="none" stroke-width="1" fill="none" fill-rule="evenodd">
        <g id="logo-palworld" fill="#FFFFFF" fill-rule="nonzero">
            <path d="M113.352748,60 C112.482525,59.1479075 111.612303,58.3048799 110.751146,57.4709171 C111.693887,56.5281765 112.564109,55.6670192 113.425266,54.8058619 C114.250164,55.6488896 115.111321,56.5281765 116.017803,57.4618522 C115.356071,58.1145188 114.639951,58.8215743 113.932896,59.5286297 C113.787859,59.6736667 113.660951,59.8458982 113.524979,60 C113.479655,60 113.416201,60 113.352748,60 Z M111.77547,57.3530745 C112.328424,57.9150929 112.899507,58.5043058 113.461525,59.075389 C114.014479,58.5224354 114.594627,57.9513522 115.156645,57.3893337 C114.576497,56.8001209 114.005414,56.2199728 113.452461,55.6579544 C112.881377,56.2290376 112.310294,56.8091857 111.77547,57.3530745 Z" id="Shape"></path>
            <path d="M77.8821327,22.2178577 C78.3263085,22.2178577 78.6979659,22.2178577 79.0696232,22.2178577 C81.1364007,22.2178577 83.212243,22.2087929 85.2790204,22.2269225 C85.4784463,22.2269225 85.7050667,22.3266354 85.8772981,22.444478 C86.2670851,22.7073576 86.6296776,22.689228 86.9832054,22.3538299 C87.0466591,22.2903762 87.146372,22.2269225 87.2370201,22.2269225 C87.826233,22.2178577 88.4154459,22.2178577 89.0227884,22.2178577 C88.8686865,22.7708113 88.6964551,23.2784409 88.5967421,23.8042 C88.3429274,25.0460795 88.5695477,26.2607645 88.8052329,27.4754495 C89.0046587,28.5269678 89.2494087,29.5694214 89.3763161,30.6209397 C89.4397698,31.1013748 89.2766032,31.6180692 89.2131495,32.1347636 C89.5666772,32.161958 89.7117142,32.452032 89.7751679,32.7964949 C90.0561771,34.2649947 90.3281215,35.7244297 90.5910011,37.1929294 C90.6181955,37.3560961 90.6363252,37.5827164 90.5547418,37.6914942 C90.3281215,37.9725034 90.3553159,38.2263182 90.5184826,38.4982626 C90.5638067,38.5707811 90.6272604,38.62517 90.6816492,38.6886237 C90.7451029,38.6161052 90.8448159,38.5617163 90.8720103,38.480133 C91.3071214,37.0750869 91.7241028,35.6700408 92.1592138,34.2649947 C92.5218064,33.0775042 92.8843989,31.8990784 93.2651211,30.7206527 C93.3013803,30.6209397 93.4373525,30.4849675 93.5280006,30.4849675 C93.9903061,30.4668379 94.4707412,30.2402176 94.9239819,30.5393564 C94.9602412,30.5665508 95.0418245,30.5393564 95.0962134,30.5302916 C95.1234078,30.5212268 95.1415374,30.4940323 95.2412504,30.3943194 C94.8967875,29.9138843 94.5523246,29.3971899 94.1716024,28.9258196 C93.9993709,28.7173289 93.9268524,28.5541623 94.0175006,28.2822179 C94.5613894,26.5780329 95.0780837,24.873848 95.6310374,23.1696631 C95.7216855,22.8977187 95.9301762,22.6620335 96.0933428,22.4082188 C96.1386669,22.4263484 96.183991,22.4354132 96.2202502,22.4535428 C96.5465835,23.4959964 96.8729168,24.5475147 97.2083149,25.5899683 C97.9697592,27.9921438 98.7221387,30.4033842 99.5017127,32.7964949 C99.6739441,33.3131893 99.7917867,33.7573652 99.2297683,34.1018281 C99.1119257,34.1743466 99.0303424,34.3193836 98.9396943,34.4281614 C98.9668887,34.4734854 98.9850183,34.5188095 98.9940831,34.5188095 C99.8461756,34.4553558 100.208768,34.9267261 100.399129,35.6972352 C100.634814,36.6399758 100.961148,37.5645868 101.32374,38.4982626 C101.405324,38.0540867 101.495972,37.6099109 101.56849,37.165735 C101.867629,35.4343556 102.166768,33.7029763 102.456842,31.9715969 C102.746916,30.1858287 103.046055,28.4091252 103.29987,26.6142922 C103.472101,25.3633479 103.52649,24.0942741 103.127638,22.8614594 C103.05512,22.6439039 103.453971,22.2178577 103.725916,22.2178577 C106.100897,22.2178577 108.466813,22.2178577 110.841794,22.2269225 C111.195322,22.2269225 111.458202,22.4082188 111.412878,22.9430428 C111.730146,22.7254872 111.956766,22.4807373 112.237776,22.3900891 C112.591303,22.2813114 112.98109,22.2813114 113.361812,22.2813114 C113.389007,22.2813114 113.506849,22.6257743 113.452461,22.7073576 C112.49159,24.1033389 111.974896,25.6896812 111.594174,27.3213476 C111.458202,27.9014957 111.331294,28.4544493 110.914313,28.90769 C110.868989,28.9620789 110.823665,29.0799214 110.841794,29.1071159 C111.313165,29.5784862 110.923378,30.0407917 110.8146,30.4940323 C110.316035,32.6695876 109.799341,34.8451428 109.237322,37.0025684 C109.137609,37.3923553 108.738758,37.6824294 108.530267,38.0540867 C108.267387,38.525457 107.786952,38.6886237 107.333711,38.9515032 C107.605656,39.1781236 107.850406,39.3322254 108.040767,39.5497809 C108.358035,39.9123735 108.448684,40.3565493 108.312711,40.8188548 C108.022637,41.8250491 107.723498,42.8312434 107.442489,43.8465025 C107.397165,44.0187339 107.360906,44.2000302 107.369971,44.3722617 C107.3881,44.6804653 107.333711,44.9342801 107.061767,45.1246412 C106.998313,45.1699653 106.925795,45.2696782 106.91673,45.3421967 C106.907665,45.9223448 106.907665,46.4843632 106.681045,47.0554464 C106.481619,47.563076 106.508813,48.1613537 106.400036,48.7052425 C106.300323,49.2219368 106.164351,49.7295664 106.010249,50.237196 C105.946795,50.4456867 105.847082,50.7810848 105.71111,50.8082792 C105.303193,50.8898625 104.859017,50.917057 104.559879,50.5091404 C104.46923,50.382233 104.369517,50.2553256 104.215416,50.0558997 C104.342323,50.7538903 104.26074,50.8445384 103.626203,50.8445384 C102.266481,50.8445384 100.906759,50.8354736 99.5470368,50.8536033 C99.1753794,50.8536033 99.0031479,50.7448255 99.0756665,50.5182052 C98.8399813,50.2643904 98.5771017,50.1102886 98.5227128,49.892733 C98.2145092,48.8230851 97.9244351,47.7353074 97.7159444,46.638465 C97.6615556,46.348391 97.9425648,46.0039281 98.0876018,45.6232059 C98.1057314,45.66853 98.0966666,45.6232059 98.0876018,45.6232059 C97.1811204,45.4691041 97.2173797,44.6804653 97.0542131,44.0549932 C96.718815,42.7768545 96.4287409,41.489651 96.1114725,40.2115123 C96.1114725,40.1933827 96.0661484,40.1843179 95.9936299,40.1389938 C95.7670096,41.1089288 95.5313244,42.0697991 95.3137689,43.0306693 C94.7426856,45.4962985 94.1806672,47.952863 93.6277136,50.4184922 C93.5551951,50.7357607 93.4554821,50.8807977 93.0928896,50.8536033 C92.6577786,50.817344 92.1954731,50.9261218 91.7875565,50.8264088 C91.3796399,50.7266959 91.035177,50.7901496 90.64539,50.817344 C89.2494087,50.917057 87.8443626,50.8536033 86.3939925,50.8536033 C86.1945666,50.0921589 85.9951407,49.3397794 85.8047796,48.5964647 C85.4059278,47.0735761 85.0161408,45.5416226 84.6082242,44.0187339 C84.5357057,43.7377247 84.4450576,43.4748451 84.8076501,43.2754192 C83.9555577,42.6046231 84.0099466,41.5621695 83.747067,40.6738178 C83.1306597,38.5435866 82.6049005,36.3952259 82.0519469,34.2468651 C81.5443173,32.2888654 81.0548174,30.3218009 80.5471878,28.3638012 C80.4021508,27.7836531 80.2117897,27.2216347 80.0667527,26.6414866 C79.9851694,26.2879589 79.7857435,25.9797553 80.0304935,25.553709 C80.1845953,25.2726998 80.0214287,24.8013295 79.9761046,24.4206073 C79.9670398,24.3752833 79.8401324,24.3208944 79.7585491,24.3027648 C79.2871788,24.1849222 78.9789751,23.903913 78.74329,23.4778667 C78.5076048,23.0427557 78.1994012,22.6710984 77.8821327,22.2178577 Z" id="Path"></path>
            <path d="M16.8578088,0 C15.679383,2.5653422 14.7638369,5.2032029 14.3377906,8.06768394 C14.6913184,7.66883215 14.9723276,7.27904517 15.3258553,6.97084152 C15.679383,6.66263786 16.1054293,6.43601753 16.504281,6.16407312 C16.5496051,6.19126756 16.5858644,6.218462 16.6311884,6.25472126 C16.5314755,6.53573047 16.4680218,6.84393413 16.3229848,7.08868409 C15.634059,8.23085058 15.2261424,9.45460039 15.099235,10.7780632 C15.0720405,11.077202 15.144559,11.3763408 15.144559,11.6754797 C15.144559,11.9111648 15.1173646,12.14685 15.099235,12.3734703 C15.0901702,12.4459888 15.0720405,12.536637 15.099235,12.6000906 C15.4074386,13.116785 15.679383,13.6606738 16.0419756,14.1411089 C16.3501792,14.5399607 16.7580958,14.866294 17.1206884,15.2198217 C17.3473087,15.4373772 17.573929,15.6639976 17.8096142,15.8815531 C17.8821327,15.9450068 17.9909104,15.9631364 18.0906234,15.9812661 C18.6617066,16.0537846 19.2327899,16.1172383 19.7948083,16.1806919 C20.0667527,16.2078864 20.3296323,16.2441456 20.6015767,16.2532105 C22.2423079,16.2894697 23.892104,16.2532105 25.5328352,16.3529234 C28.2885385,16.51609 30.9626584,17.0418492 33.3467044,18.5556731 C33.6277136,18.7369693 33.8815284,18.94546 34.144408,19.1448859 C34.3891579,19.335247 34.5885838,19.5256081 34.334769,19.8610062 C34.2985098,19.9063303 34.2803802,20.0241728 34.3166394,20.0694969 C34.4072875,20.2235987 34.5613894,20.3505061 34.6248431,20.5227376 C34.6792319,20.6859042 34.6520375,20.8762653 34.6611023,21.0303671 C34.869593,21.0666264 35.0690189,21.1028856 35.359093,21.1482097 C35.6129077,20.9941079 35.9029818,21.0394319 36.0570836,21.4473485 C36.4015465,22.3628947 36.7913335,23.269376 36.9545001,24.2211814 C37.2898982,26.1519867 37.0451482,28.0465327 36.3018335,29.877625 C35.4678707,31.9262729 34.0265654,33.4400967 32.150149,34.5460039 C30.7088437,35.3980964 29.1406309,35.9419852 27.4817701,36.1595407 C27.291409,36.1867352 27.0557239,36.0598278 26.8834924,35.9329204 C26.6568721,35.7788186 26.4755758,35.561263 26.2036314,35.2983834 C26.2670851,35.5521982 26.2852147,35.7153649 26.3486684,35.8604019 C26.4755758,36.1867352 26.3124092,36.3317722 26.0313999,36.340837 C25.0795945,36.3680314 24.1368539,36.3952259 23.1850485,36.3770962 C22.9040393,36.3680314 22.8768449,36.485874 22.8859097,36.6852999 C22.9040393,37.165735 22.9402986,37.6461701 22.9402986,38.1175404 C22.9493634,40.7916604 22.9221689,43.4657803 22.967493,46.1399003 C22.9856226,47.0463816 23.1759837,47.9619278 23.2756967,48.8684091 C23.3028911,49.1131591 23.3028911,49.3669739 23.3028911,49.6207886 C23.3028911,49.7567608 23.2756967,49.892733 23.35728,50.0558997 C23.4569929,49.9199275 23.5567059,49.7839553 23.7017429,49.602659 C23.9736873,50.0015108 24.2275021,50.382233 24.5357057,50.8354736 C24.0643354,50.8354736 23.6654836,50.8354736 23.2666319,50.8354736 C22.5686412,50.8354736 21.8797154,50.8626681 21.1817248,50.8264088 C20.9551044,50.817344 20.7375489,50.6632422 20.5109286,50.5907237 C20.4112156,50.5635292 20.3024379,50.5453996 20.2027249,50.5635292 C19.6588361,50.6451126 19.1240121,50.817344 18.5801233,50.8264088 C16.2504663,50.8536033 13.929874,50.8354736 11.600217,50.8354736 C10.8387727,50.8354736 10.8115782,50.7992144 10.9294208,50.0287052 C10.8297078,50.1102886 10.7299949,50.1556126 10.6846708,50.2281311 C10.3945968,50.8082792 9.89603207,50.8807977 9.31588401,50.8354736 C8.80825446,50.7992144 8.29156009,50.8264088 7.78393054,50.8264088 C7.7567361,50.7810848 7.73860647,50.7448255 7.71141203,50.6995014 C7.81112498,50.6179181 7.8927083,50.5091404 8.01055088,50.4456867 C8.29156009,50.3006496 8.64508782,50.2281311 8.87170815,50.0196404 C10.1770413,48.8230851 11.4189207,47.5540112 12.0715873,45.8498263 C12.4795039,44.7892431 12.8602261,43.7195951 13.1774945,42.6318175 C13.3044019,42.1967065 13.4856982,42.0154102 13.9208092,42.0335398 C14.0386518,42.0426046 14.1655592,41.9791509 14.2834018,41.9519565 C14.2380777,41.924762 14.1927536,41.8885028 14.1474296,41.8613084 C14.2199481,41.6074936 14.2652721,41.3536788 14.3559203,41.1089288 C14.4103091,40.9729566 14.5190869,40.8641789 14.6187999,40.7554011 C15.2714664,40.0846049 15.2714664,40.0846049 14.6369295,39.4410032 C14.0930407,38.8971144 13.9661333,38.2172534 14.029587,37.4830035 C14.1202351,36.4405499 14.2108833,35.3890316 14.2834018,34.346578 C14.3377906,33.5760689 14.3740499,32.8146246 14.3649851,32.0441154 C14.3559203,30.657199 14.3559203,29.2702825 14.2652721,27.8833661 C14.1474296,26.0794682 14.1202351,24.2574407 13.6398,22.4988669 C13.6216704,22.4354132 13.6035408,22.3447651 13.6216704,22.2903762 C13.9117444,21.5923856 14.5825406,21.2388578 15.2805312,21.4473485 C15.0267165,20.9215894 14.7729017,20.4774135 14.1474296,20.3414413 C13.8754852,20.2870524 13.6398,20.0513673 13.39505,19.8972654 C13.0959112,19.7159692 12.7967724,19.5346729 12.5066983,19.3443118 C12.3797909,19.2627285 12.2438187,19.19021 12.1622354,19.0814322 C11.9265503,18.7913582 11.7180596,18.4831546 11.500504,18.1749509 C11.4642448,18.120562 11.4007911,18.0208491 11.4189207,17.9845898 C11.6908651,17.5041547 11.2466893,17.5222843 11.0200689,17.3863121 C10.8387727,17.2775344 10.6484116,17.1687566 10.5033746,17.0237196 C9.75099505,16.2441456 8.74480076,15.8906179 7.82925461,15.3829884 C6.07974562,14.4039885 4.42994958,13.2980813 3.03396831,11.8477111 C1.66518149,10.4336002 0.649922384,8.80193383 0.196681713,6.86206376 C0.151357646,6.65357305 -0.0661978763,6.39975827 0.29639466,6.19126756 C0.359848354,6.15500831 0.232940966,5.71989727 0.142292832,5.49327693 C-0.120586757,4.8678048 0.00632063108,3.1726847 0.314524287,2.68318477 C0.622727943,3.66218462 0.849348279,4.76809186 1.31165376,5.76522133 C1.87367219,6.97084152 2.64418134,8.07674875 3.31497753,9.22798006 C3.57785712,9.67215591 3.81354227,10.1344614 4.05829223,10.5877021 C4.22145887,10.4154706 4.40275514,10.4879891 4.63844029,10.7236743 C5.10981058,11.1859798 5.62650495,11.6029612 6.1341345,12.0290074 C6.24291226,12.1196555 6.37888446,12.1831092 6.43327334,12.2103037 C6.75054181,11.3582112 7.04061584,10.5333132 7.38507875,9.7265448 C7.50292133,9.45460039 7.78393054,9.2551745 7.94709718,8.99229491 C8.13745827,8.68409125 8.26436565,8.33056353 8.46379155,8.03142469 C8.6994767,7.67789696 8.98955073,7.36062849 9.35214326,7.07961928 C9.22523588,7.433147 9.08019886,7.77760991 8.98955073,8.13113763 C8.75386558,8.97416528 8.61789338,9.84438737 8.30968972,10.6602206 C8.05587494,11.3310168 8.11932864,11.9746185 8.10119901,12.6454147 C8.0921342,13.0442665 8.21904159,13.261822 8.59069894,13.4431183 C10.0501339,14.1592386 11.500504,14.9116181 12.9508742,15.6549328 C13.0415223,15.7002568 13.1321705,15.7365161 13.204689,15.7727753 C12.959939,14.9750718 12.6879946,14.1773682 12.4795039,13.3705998 C12.1713002,12.1831092 12.1894299,10.977489 12.3707261,9.76280405 C12.8964853,6.19126756 14.564411,3.14549026 16.6583829,0.290074029 C16.7037069,0.181296268 16.7852903,0.0906481342 16.8578088,0 Z M22.6411597,25.1548572 C22.4598635,25.1004683 22.3329561,25.0551443 22.287632,25.0460795 C22.4145394,25.7259405 22.6230301,26.4058015 22.6411597,27.0856625 C22.6955486,28.8623659 22.6864838,30.6481342 22.6502245,32.4339024 C22.6411597,32.9596616 22.4689283,33.4854208 22.3782801,34.0021151 C22.3601505,34.0836984 22.3782801,34.1652818 22.3782801,34.2649947 C22.7136782,34.0474392 22.9946875,33.7483003 23.3300856,33.6576522 C24.8711038,33.2225412 26.0313999,32.2616709 27.0738535,31.1104396 C27.3186035,30.8475601 27.5180293,30.5756157 27.8081034,30.7478471 C27.826233,30.5302916 27.7627793,30.2492824 27.8715571,30.0861157 C29.0771773,28.3366067 29.5122883,26.4511255 28.8596217,24.3843481 C28.4788996,23.1605983 27.6902608,22.2722466 26.5027702,21.7192929 C25.3877982,21.1935338 24.2003076,21.1482097 23.0128171,21.0122375 C22.6955486,20.9759782 22.5958357,21.1119504 22.6049005,21.4292189 C22.6320949,22.5169965 22.6411597,23.6047741 22.6502245,24.6834869 C22.6592894,24.8375888 22.6502245,24.9826258 22.6411597,25.1548572 Z" id="Shape"></path>
            <path d="M193.603541,50.7992144 C193.65793,50.4184922 193.630735,50.0287052 193.775772,49.7205016 C194.256207,48.7052425 194.482828,47.6446593 194.39218,46.5387521 C194.319661,45.6232059 194.582541,44.7983079 194.890744,43.9734099 C195.072041,43.48391 195.253337,43.0125397 195.634059,42.6227527 C195.84255,42.4051972 195.896939,42.0516694 196.06917,41.634688 C195.606865,41.734401 195.235207,41.779725 194.881679,41.8975676 C194.491892,42.0335398 194.401244,41.9066324 194.401244,41.5349751 C194.410309,38.2535126 194.383115,34.981115 194.419374,31.6996525 C194.428439,31.1104396 194.700383,30.5302916 194.854485,29.9501435 C194.881679,29.8232361 194.945133,29.6600695 194.890744,29.5784862 C194.410309,28.8623659 194.364985,28.0646623 194.401244,27.2578939 C194.464698,25.9797553 194.337791,24.7378758 193.748578,23.5775797 C193.531022,23.1424687 193.268143,22.7254872 193.005263,22.2541169 C193.114041,22.2359873 193.195624,22.2178577 193.277207,22.2178577 C194.528152,22.2178577 195.788161,22.2359873 197.039105,22.2269225 C197.637383,22.2178577 198.108753,22.4626076 198.552929,22.8252002 C198.951781,23.1515335 199.341568,23.4869316 199.749484,23.8042 C199.794808,23.8404593 199.885456,23.8313945 200.003299,23.8404593 C200.003299,23.3056353 200.003299,22.7980057 200.003299,22.2722466 C200.139271,22.2541169 200.238984,22.2269225 200.338697,22.2269225 C201.725614,22.2269225 203.121595,22.1725336 204.508511,22.2450521 C206.883492,22.3628947 209.068112,23.0880798 211.053307,24.4296722 C212.231732,25.2273757 213.237927,26.1791811 214.108149,27.2850884 C214.534195,27.8289772 214.534195,28.4725789 214.144408,29.052727 C214.108149,29.1071159 214.099084,29.1796344 214.044695,29.3246714 C214.443547,29.1071159 214.670167,29.1252455 215.059954,29.3790603 C216.211185,30.1314398 216.265574,31.382384 216.610037,32.4792265 C217.081408,33.9839855 217.172056,35.5521982 217.117667,37.1294758 C217.108602,37.4830035 216.999824,37.7368183 216.610037,37.7368183 C216.691621,38.1266052 216.854787,38.5073274 216.845722,38.8789847 C216.809463,39.6948179 216.746009,40.519716 216.591908,41.3174195 C216.329028,42.7134008 215.984565,44.1003173 215.712621,45.4962985 C215.540389,46.4118447 215.757945,47.2186131 216.392482,47.9619278 C218.16012,50.0105756 221.432518,50.0287052 223.245481,48.6417888 C223.925342,48.1250944 224.287934,47.3908445 224.568943,46.6022058 C225.013119,45.378456 224.777434,44.1909654 224.405777,42.9218915 C223.744045,43.5836229 223.03699,43.8193081 222.239286,43.3207433 C221.695398,42.9853452 221.378129,42.4867805 221.205898,41.8431787 C221.505036,41.9066324 221.749786,41.9519565 222.112379,42.024475 C221.722592,41.5259103 221.369064,41.1542529 221.115249,40.7282067 C220.843305,40.2568364 220.662009,39.7220124 220.444453,39.2143828 C220.417259,39.1509291 220.381,39.0421514 220.417259,38.9968273 C220.734527,38.5617163 220.326611,38.2535126 220.263157,37.8818553 C220.163444,37.3017072 220.235963,36.6852999 220.235963,36.0416981 C220.326611,36.0870222 220.426324,36.1051518 220.462583,36.1595407 C221.124314,37.1022813 222.103314,37.4830035 223.163897,37.7368183 C223.889082,37.9090497 224.442036,38.3441607 224.859017,38.9424384 C224.967795,39.1056051 224.97686,39.3322254 225.058443,39.6494939 C225.421036,39.9123735 225.511684,40.8641789 225.103767,41.5621695 C224.01599,40.4290678 223.308934,40.030216 222.420583,40.0936697 C222.737851,40.2930956 223.000731,40.4471975 223.245481,40.6284937 C225.493554,42.3689379 226.409101,45.1065116 225.665786,47.85315 C225.130962,49.8292793 223.816564,51.1164829 222.021731,51.9957698 C220.779851,52.6121771 219.465453,52.9747696 218.087602,52.9838344 C216.301834,52.9838344 214.715491,52.3946215 213.401093,51.1527421 C213.292315,51.0530292 213.310445,50.8264088 213.246991,50.5907237 C212.304251,50.4728811 212.023242,49.602659 211.660649,48.8593443 C211.343381,48.2066777 211.397769,48.1794833 211.243668,48.0888352 C211.171149,48.6055295 211.171149,48.5964647 210.66352,48.922798 C209.566677,49.6207886 208.406381,50.1918719 207.119178,50.382233 C206.548094,50.4638163 205.931687,50.2281311 205.342474,50.1284182 C205.179307,50.1012237 205.007076,50.0558997 204.80765,50.1012237 C205.07053,50.2734552 205.333409,50.4366218 205.632548,50.6360477 C204.961752,50.8807977 196.032911,50.9986403 193.603541,50.7992144 Z M200.492799,35.561263 C200.501864,35.6065871 200.510929,35.6428464 200.519993,35.6881704 C200.692225,35.8150778 200.873521,35.9329204 201.027623,36.0779574 C201.308632,36.340837 201.544317,36.6581055 201.852521,36.8847258 C202.251373,37.1838646 202.441734,37.5283275 202.432669,38.0268923 C202.423604,40.4562623 202.432669,42.8856323 202.432669,45.3150023 C202.432669,45.5778819 202.387345,45.8498263 202.305762,46.103641 C202.215114,46.4027799 202.061012,46.6747243 201.934104,46.9557335 C201.961299,46.9919927 201.997558,47.0373168 202.024752,47.0735761 C202.278567,46.9376039 202.532382,46.7925669 202.786197,46.6656595 C202.967493,46.5750113 203.157854,46.4752984 203.348215,46.4390391 C203.565771,46.3937151 203.801456,46.4390391 204.019011,46.3937151 C206.239891,45.9857985 207.663066,44.6532709 208.424511,42.5683638 C209.240344,40.3474845 209.376316,38.0268923 209.294733,35.6972352 C209.267538,34.836078 209.412575,34.1108929 209.811427,33.4944856 C209.548548,33.2678652 209.231279,33.1046986 209.086242,32.8508838 C208.93214,32.5789394 208.959335,32.2163469 208.877751,31.8990784 C208.497029,30.3218009 207.944076,28.8351715 206.665937,27.7473939 C205.451252,26.7140051 204.009947,26.4239311 202.432669,26.4692552 C202.432669,26.6686811 202.432669,26.8137181 202.432669,26.9678199 C202.432669,29.3790603 202.423604,31.7993655 202.414539,34.2106058 C202.414539,34.9357909 201.798132,35.5250038 201.100141,35.5250038 C200.90978,35.515939 200.70129,35.5431334 200.492799,35.561263 Z" id="Shape"></path>
            <path d="M120.314524,47.5086871 C120.196682,47.418039 120.124163,47.3273908 120.06071,47.318326 C119.462432,47.3001964 118.864154,47.3092612 118.265876,47.3001964 C118.138969,47.3001964 117.984867,47.2548723 117.894219,47.173289 C115.773053,45.1518356 114.413331,42.6862064 113.833183,39.8217253 C113.606562,38.6976885 113.452461,37.5464572 113.407136,36.3952259 C113.352748,34.9267261 113.552173,33.4582263 113.951025,32.0350506 C114.159516,31.2917359 114.930025,30.702523 115.67334,30.6662638 C115.800247,30.657199 115.927155,30.7297175 116.16284,30.7931712 C116.117516,30.6118749 116.12658,30.4396435 116.044997,30.3671249 C115.646145,29.9864028 115.582692,29.5784862 115.782118,29.0708566 C116.044997,28.3819308 116.12658,27.5660976 116.552627,27.0040792 C117.912349,25.2092461 119.716247,23.9401722 121.773959,23.0518205 C124.031098,22.0728207 126.415144,21.7011633 128.862643,21.764617 C130.358338,21.8099411 131.817773,22.0909503 133.259078,22.4716725 C134.364985,22.7708113 135.489022,22.9521076 136.649318,22.7617465 C136.82155,22.734552 137.039105,22.9249131 137.320114,23.0518205 C137.483281,22.8705242 137.700836,22.6257743 137.927457,22.3810243 C138.00904,22.2903762 138.081559,22.1906632 138.181272,22.1362744 C139.368762,21.4836078 140.329632,20.649645 140.601577,19.0995619 C140.746614,19.2989878 140.855391,19.3896359 140.900716,19.5165433 C141.136401,20.1873395 141.480864,20.8490709 141.544317,21.5289319 C141.616836,22.3719595 141.988493,23.1968575 141.653095,24.0761444 C141.43554,24.6562925 141.136401,25.118598 140.637836,25.4630609 C140.365892,25.653422 140.130206,25.6896812 139.831068,25.4630609 C138.96991,24.8103943 138.924586,24.5112555 139.740419,23.7951352 C140.68316,22.9702372 141.036688,21.9549781 140.882586,20.649645 C140.801003,20.7674875 140.737549,20.8309412 140.719419,20.8943949 C140.492799,21.86433 139.994234,22.6257743 139.142142,23.1696631 C137.954651,23.9311074 138.00904,24.8375888 138.398827,25.4902553 C138.625447,25.8709775 139.024299,26.1429219 139.278114,26.5145792 C139.930781,27.4754495 140.574382,28.4544493 141.17266,29.4606436 C141.544317,30.0861157 141.41741,30.3489953 140.755679,30.6300045 C140.402151,30.7841064 140.048623,30.9382082 139.676966,31.1648285 C139.858262,31.1648285 140.039558,31.1648285 140.220855,31.1648285 C141.299567,31.1738933 142.124465,31.8628192 142.323891,32.9052727 C142.704613,34.8542076 142.84965,36.8303369 142.586771,38.7974014 C142.450799,39.8217253 142.15166,40.8188548 141.925039,41.8250491 C141.861586,42.1151231 141.689354,42.2601601 141.381151,42.2148361 C141.254243,42.1967065 141.118271,42.2148361 140.936975,42.2148361 C141.653095,42.6499471 141.66216,42.6590119 141.299567,43.3932618 C139.323438,47.4271038 136.078235,49.8836682 131.736189,50.8807977 C130.104523,51.2524551 128.445662,51.3884273 126.768671,51.1890014 C124.303042,50.8898625 121.98245,50.2009367 119.906608,48.7868258 C119.725311,48.6599184 119.444302,48.387974 119.480561,48.2973259 C119.589339,48.0344463 119.679987,47.6809186 120.069774,47.6446593 C120.124163,47.6627889 120.187617,47.5902704 120.314524,47.5086871 Z M134.655059,43.7921136 C134.39218,43.0306693 134.083976,42.3236138 134.238078,41.5168454 C134.319661,41.0907992 134.410309,40.6556882 134.383115,40.2296419 C134.292467,38.8517903 134.238078,37.4648738 133.993328,36.1142166 C133.630735,34.1290225 132.950874,32.2344765 131.953745,30.4577731 C131.219495,29.1524399 130.349273,27.9558846 129.134588,27.058468 C128.200912,26.3604774 127.158458,25.9525608 125.961903,25.8709775 C124.756283,25.7893942 123.831672,26.2154404 123.260589,27.2306995 C122.861737,27.9468198 122.589792,28.7535882 122.335978,29.5422269 C122.200005,29.9682732 122.181876,30.4033842 121.529209,30.2764768 C121.955256,30.5393564 122.127487,30.8384952 122.045904,31.3008007 C121.96432,31.7631062 121.937126,32.2344765 121.928061,32.696782 C121.882737,34.6457169 122.136552,36.5583925 122.752959,38.4166793 C123.287783,40.0392809 124.094551,41.5168454 125.055422,42.9218915 C125.581181,43.6833359 125.871255,44.5082339 125.118875,45.4056504 C125.318301,45.3512615 125.436144,45.3421967 125.535857,45.2878078 C126.261042,44.9161505 126.895579,45.0702523 127.530116,45.5506874 C128.092134,45.9676688 128.681347,46.3665206 129.297754,46.6837891 C129.859773,46.9738631 130.467115,47.2095483 131.146976,47.0645113 C132.361661,46.8106965 132.941809,45.91328 133.385985,44.8798912 C133.62167,44.3450672 133.793902,43.773984 134.011457,43.1847711 C134.238078,43.4204563 134.446568,43.6108173 134.655059,43.7921136 Z" id="Shape"></path>
            <path d="M154.153473,44.2453543 C154.905852,45.0067986 155.377223,45.7319837 155.322834,46.7653724 C155.25938,47.9891222 155.585713,49.1494183 156.229315,50.2100015 C156.283704,50.3006496 156.374352,50.3912978 156.374352,50.4819459 C156.374352,50.5907237 156.292769,50.7085662 156.247445,50.817344 C156.147732,50.7720199 156.038954,50.7448255 155.966435,50.6813718 C155.884852,50.5997885 155.839528,50.4910107 155.703556,50.28252 C155.52226,50.9533162 155.041824,50.8264088 154.624843,50.8264088 C153.79088,50.8354736 152.965982,50.8264088 152.132019,50.8354736 C151.85101,50.8445384 151.660649,50.7901496 151.506547,50.5182052 C151.343381,50.237196 151.11676,50.0015108 150.87201,49.6751775 C150.699779,49.9471219 150.536612,50.1646774 150.41877,50.4094274 C150.264668,50.7448255 150.028983,50.8354736 149.66639,50.8264088 C148.578613,50.7992144 147.490835,50.817344 146.403057,50.817344 C145.732261,50.817344 145.52377,50.5363348 145.868233,49.9561867 C146.638742,48.6236592 146.693131,47.173289 146.711261,45.7047892 C146.720326,44.7620486 146.711261,43.8374377 146.956011,42.9128267 C147.073853,42.459586 146.919752,41.9338269 146.874428,41.4443269 C146.838168,41.0726696 146.720326,40.6919474 146.720326,40.3202901 C146.711261,36.485874 146.720326,32.6514579 146.702196,28.807977 C146.702196,28.4544493 146.665937,28.128116 147.028529,27.9196253 C147.309539,27.7564587 147.581483,27.5842272 147.898752,27.3938661 C147.862492,27.3485421 147.771844,27.158181 147.635872,27.0947273 C146.838168,26.7049403 146.575289,26.2154404 146.611548,25.3361535 C146.629678,24.973561 146.493705,24.5928388 146.348668,24.2483759 C146.103918,23.659163 145.795715,23.0880798 145.505641,22.5079317 C145.822909,22.1634688 146.248955,22.1997281 146.675002,22.2087929 C147.336733,22.2178577 148.007529,22.2269225 148.669261,22.1997281 C149.068112,22.1815984 149.394446,22.2178577 149.358186,22.7164224 C149.403511,22.7254872 149.430705,22.734552 149.430705,22.734552 C149.92927,22.1181447 150.618196,22.1997281 151.288992,22.1997281 C153.355769,22.2087929 155.431611,22.1906632 157.498389,22.2178577 C158.141991,22.2269225 158.785592,22.3266354 159.429194,22.4082188 C159.592361,22.4263484 159.746463,22.5532558 159.8915,22.6348391 C159.936824,22.6620335 159.991213,22.734552 160.027472,22.734552 C161.115249,22.544191 161.994536,23.1334038 162.901018,23.5503853 C164.315129,24.2030518 165.493554,25.1729869 166.336582,26.4964496 C167.451554,28.2368938 167.678174,30.1314398 167.215869,32.0985043 C167.025508,32.8871431 166.626656,33.6304578 166.327517,34.3919021 C166.209675,34.6910409 165.992119,34.836078 165.656721,34.7816891 C165.185351,34.7182354 164.71398,34.6638465 164.24261,34.6275872 C164.133832,34.6185224 164.025055,34.6910409 163.861888,34.736365 C164.587073,35.2802538 164.741175,35.5975223 164.532684,36.1958 C164.460166,36.4042907 164.278869,36.5946518 164.106638,36.7396888 C163.889082,36.9119202 163.626203,37.0388276 163.372388,37.165735 C163.118573,37.2926424 162.855694,37.3832905 162.474971,37.5373924 C163.03699,38.6342348 163.571814,39.7129476 164.142897,40.7735307 C164.405777,41.2630307 164.73211,41.7162713 165.004054,42.1967065 C165.103767,42.3870675 165.130962,42.6136879 165.212545,42.9309563 C165.801758,43.1485119 166.055573,43.8555673 166.481619,44.3994561 C168.095156,46.4571688 169.699628,48.5239462 171.3041,50.5816589 C171.340359,50.6269829 171.358489,50.6813718 171.431007,50.7992144 C171.240646,50.7992144 171.095609,50.7992144 170.959637,50.7992144 C168.693433,50.7992144 166.42723,50.7992144 164.161027,50.817344 C163.825629,50.817344 163.589944,50.7266959 163.372388,50.4819459 C163.091379,50.1646774 162.79224,49.8655386 162.474971,49.5845294 C162.203027,49.3397794 162.030796,49.1131591 162.30274,48.7686962 C162.348064,48.7052425 162.357129,48.6055295 162.402453,48.4514277 C161.459712,48.9681221 161.178703,48.1432241 160.788916,47.6809186 C159.293222,45.9223448 158.033213,44.0006043 156.990759,41.9519565 C156.428741,40.8551141 155.99363,39.6948179 155.50413,38.5707811 C155.449741,38.4438737 155.368158,38.3169663 155.24125,38.0631515 C155.24125,38.5073274 155.322834,38.8427255 155.214056,39.1056051 C155.123408,39.3412902 154.833334,39.5044569 154.606713,39.7310772 C155.395352,40.2115123 155.24125,41.0364103 155.295639,41.7706602 C155.340963,42.314549 155.304704,42.8584378 155.304704,43.4023266 C155.304704,43.9552803 155.041824,44.209095 154.470741,44.2000302 C154.398223,44.2362895 154.325704,44.2453543 154.153473,44.2453543 Z M154.9965,36.2864481 C155.24125,36.2501889 155.449741,36.241124 155.649167,36.1867352 C157.625296,35.6791056 159.030342,34.446291 159.936824,32.6514579 C160.471648,31.5908748 160.652944,30.4305786 160.390064,29.2521529 C160.154379,28.1915697 159.556102,27.402931 158.568037,26.8953014 C157.434935,26.3242182 156.22025,26.23357 154.9965,26.1791811 C154.9965,27.6023569 155.01463,28.9530141 154.987436,30.3127361 C154.978371,30.5846805 154.815204,30.8475601 154.679232,31.2192174 C155.03276,31.5455507 155.01463,32.1166339 154.9965,32.696782 C154.987436,33.0140505 154.9965,33.3313189 154.9965,33.6485874 C154.9965,34.5006799 154.9965,35.3618371 154.9965,36.2864481 Z" id="Shape"></path>
            <path d="M52.7363403,31.7631062 C53.3890068,31.3733192 53.5793679,31.4367729 53.9510253,31.9353377 C54.6308863,32.8690134 55.3288769,33.7845596 56.0268675,34.7091706 C55.2472936,34.5550687 54.6218215,34.0746336 53.9963493,33.5670041 C54.984414,35.3527723 56.1719046,36.9844387 57.7854413,38.2897719 C57.413784,38.4166793 56.7973767,38.2172534 56.099386,37.7368183 C55.6008213,37.3923553 55.129451,37.0116332 54.6218215,36.6671703 C55.9452842,38.8336607 57.5134969,40.7825956 59.6346633,42.2510953 C59.6255985,42.2964194 59.6074688,42.3326787 59.598404,42.3780027 C59.2811356,42.3054842 58.9548023,42.269225 58.6556634,42.1604472 C57.3865896,41.6709473 56.3169416,40.8913733 55.3379417,39.9667624 C55.2926177,39.9305031 55.2472936,39.8942438 55.2019695,39.8670494 C55.1566455,39.839855 55.1022566,39.8126605 55.0116084,39.7673365 C55.3923306,41.0273455 55.7186639,42.2601601 56.1356453,43.4567155 C56.3078768,43.9552803 56.0359324,44.354132 56.0178027,44.8073727 C56.0087379,45.133706 55.8274416,45.4600393 55.7005343,45.7773078 C55.5736269,46.0764466 55.664275,46.1761595 55.9634138,46.2758725 C56.6795341,46.5296873 57.3231359,46.9013446 57.703858,47.6174649 C58.0573857,48.2791963 58.4653024,48.9137332 58.8550893,49.5573349 C58.9457375,49.7114368 59.06358,49.8564738 59.1451634,50.0105756 C59.4352374,50.5907237 59.2902004,50.8445384 58.6647282,50.8354736 C58.2114876,50.8354736 57.7582469,50.8445384 57.3050062,50.8354736 C56.7973767,50.8354736 56.2262934,50.9895755 55.9634138,50.2100015 C55.6008213,50.8989273 55.0388029,50.8536033 54.4767844,50.8445384 C52.7544699,50.8354736 51.0321553,50.8354736 49.3098408,50.8354736 C49.1466742,50.8354736 48.9835075,50.8354736 48.8022112,50.8354736 C48.7478224,49.5663998 48.7931464,48.3245203 48.620915,47.1189001 C48.4486835,45.9042151 48.0498317,44.7257894 47.7688225,43.5926877 C46.7173042,43.5926877 45.7292395,43.5926877 44.7411748,43.5926877 C44.2607397,43.5926877 43.7712398,43.6108173 43.2908047,43.5836229 C43.1095084,43.5745581 42.937277,43.4748451 42.7650455,43.384197 C42.3752585,43.4204563 42.2211567,43.6652062 42.1395734,44.064058 C41.8766938,45.2606134 41.477842,46.4299743 41.2784161,47.6355945 C41.1515087,48.4061036 41.2874809,49.2219368 41.3056106,50.0105756 C41.3056106,50.1556126 41.2965457,50.3097145 41.3146754,50.4547515 C41.3418698,50.7901496 41.1605735,50.8445384 40.8704995,50.8354736 C37.6978148,50.8264088 34.5251301,50.8354736 31.3524454,50.8354736 C31.2346028,50.8354736 31.0895658,50.8626681 30.9989177,50.8082792 C30.9263992,50.7629551 30.8629455,50.572594 30.8992048,50.5182052 C31.2074084,50.0377701 31.5246769,49.5573349 31.8782046,49.1040943 C32.8118804,47.8984741 33.4917414,46.5659465 34.0175006,45.1427708 C34.5070005,43.8011784 34.9783708,42.4505212 35.4678707,41.1089288 C35.5675837,40.8369844 35.6854262,40.5106512 36.1477317,40.7282067 C36.1477317,40.4743919 36.1930558,40.2659012 36.1386669,40.0846049 C35.939241,39.4591328 36.2655743,38.9424384 36.4468706,38.4076144 C37.3080278,35.9782444 38.1963796,33.5579393 39.0847313,31.1285693 C39.338546,30.4396435 39.8914997,30.122375 40.5985551,30.1767639 C40.8523699,30.1948935 41.1152495,30.1042454 41.4143883,30.0498565 C41.3599994,29.9682732 41.332805,29.8866898 41.2784161,29.8504306 C40.3719348,29.2884121 40.3991292,28.372866 40.507907,27.5298383 C40.6257495,26.6414866 40.9611476,25.7803294 41.2149624,24.9010425 C41.2421569,24.8103943 41.3146754,24.7197462 41.3871939,24.6653573 C41.7588512,24.3662185 41.7860457,24.1486629 41.3237402,23.9583019 C40.6710736,23.6863575 40.2903515,23.1787279 39.87337,22.6710984 C39.7917867,22.5713854 39.728333,22.4626076 39.5923608,22.2722466 C39.8371108,22.2450521 39.9912126,22.2178577 40.1453144,22.2178577 C42.7469159,22.2178577 45.3394525,22.1815984 47.941054,22.2450521 C48.620915,22.2631817 49.2645167,22.589515 49.9715722,22.2269225 C50.2525814,22.0818855 50.660498,22.5169965 50.7058221,22.9702372 C50.950572,25.4811905 51.9023774,27.7655235 52.8813773,30.0407917 C53.0989328,30.557486 53.0626736,31.1285693 52.7363403,31.7631062 Z M47.1977393,38.7611422 C46.3184524,35.6337815 46.0193135,32.4610968 45.2488044,29.3518658 C44.5145545,32.3613839 43.7893694,35.3709019 43.0460547,38.4348089 C44.1066379,38.4348089 45.0765729,38.4257441 46.0374432,38.4438737 C46.2278042,38.4438737 46.4091005,38.5073274 46.5994616,38.5617163 C46.7898227,38.6070403 46.9892486,38.6886237 47.1977393,38.7611422 Z" id="Shape"></path>
            <path d="M80.3749564,43.6833359 C80.1664657,44.3722617 79.9851694,44.9977338 79.7766787,45.6232059 C79.6950954,45.8588911 79.5409935,46.058317 79.3596973,46.2305484 C79.3596973,46.493428 79.4140862,46.7653724 79.3506325,47.0010576 C79.033364,48.1341592 78.6707715,49.2672609 78.3353734,50.4003626 C78.2447252,50.7176311 78.0996882,50.8717329 77.7370957,50.8354736 C77.3019846,50.7992144 76.8578088,50.8445384 76.4226977,50.817344 C76.2867255,50.8082792 76.1235589,50.7266959 76.0329108,50.6179181 C75.9966515,50.572594 76.1144941,50.3912978 76.168883,50.2643904 C76.0147811,50.137483 75.779096,50.0377701 75.6703182,49.847409 C75.5615405,49.6751775 75.5887349,49.4213627 75.4890219,49.2219368 C75.3802442,49.6661127 75.2895961,50.1102886 75.1354942,50.5363348 C75.0901702,50.6632422 74.854485,50.8082792 74.7003832,50.8082792 C72.3163372,50.8264088 69.9232265,50.817344 67.5391806,50.8264088 C67.0043566,50.8264088 67.0406158,50.3550385 66.8683844,50.0649645 C66.8230603,49.9833812 66.8502548,49.8655386 66.8321251,49.7295664 C66.7324122,49.7567608 66.6326992,49.747696 66.6145696,49.7930201 C66.4695326,50.0830941 66.3426252,50.3912978 66.1885234,50.672307 C66.1522641,50.7448255 66.0162919,50.8082792 65.9347086,50.8082792 C64.5205977,50.817344 63.097422,50.817344 61.5835982,50.817344 C61.6923759,50.4094274 61.7377,50.0377701 61.9008666,49.7205016 C62.3087832,48.9318628 62.5082091,48.0979 62.5082091,47.2186131 C62.5354036,42.1785768 62.5535332,37.1294758 62.5988573,32.0894395 C62.5988573,31.7359118 62.7892183,31.3733192 62.8979961,31.0197915 C62.9433202,30.8656897 63.0158387,30.7297175 63.0883572,30.557486 C62.8889313,30.5665508 62.7529591,30.5756157 62.5988573,30.5846805 C62.5988573,29.3156066 62.6441813,28.082792 62.5807276,26.8499773 C62.5354036,25.9706904 62.4356906,25.0823387 62.2181351,24.2393111 C62.0640333,23.6138389 61.6742463,23.0518205 61.347913,22.3719595 C61.5020148,22.3266354 61.7014407,22.2087929 61.9099314,22.2087929 C62.6532461,22.1815984 63.387496,22.1725336 64.1308107,22.2087929 C64.5659218,22.2359873 64.991968,22.3719595 65.3273661,22.4354132 C65.7624772,22.3447651 66.1431993,22.2178577 66.5148567,22.2087929 C68.3006249,22.1815984 70.0773283,22.1997281 71.8630966,22.1906632 C72.0081336,22.1906632 72.1531706,22.1906632 72.4341798,22.1906632 C71.9718743,22.6982928 71.7633836,23.3328297 70.9838097,23.1787279 C70.8840967,23.1605983 70.7571893,23.269376 70.530569,23.369089 C71.2285596,23.4959964 71.3735967,23.758876 71.3010781,24.3571536 C71.2194948,25.0460795 71.1923004,25.7440701 71.1832356,26.4329959 C71.1651059,27.7927179 71.1741708,29.1524399 71.1741708,30.512162 C71.1741708,31.3098655 71.1741708,31.3098655 70.630282,32.0078562 C70.5033746,31.917208 70.3764672,31.8265599 70.240495,31.7359118 C70.2042357,31.7540414 70.1679765,31.7812358 70.1226524,31.7993655 C70.3311431,32.1347636 70.4761801,32.6151987 70.775319,32.7602357 C71.1560411,32.941532 71.1560411,33.1772171 71.1560411,33.4672911 C71.1651059,34.4009669 71.1651059,35.3437075 71.1651059,36.2773833 C71.1651059,39.0874754 71.1651059,41.8975676 71.1560411,44.7076598 C71.1560411,44.9252153 71.0472634,45.133706 71.0291337,45.3512615 C71.0200689,45.5053633 71.0291337,45.7047892 71.1107171,45.7954374 C71.2376245,45.9314096 71.4098559,45.9857985 71.6092818,45.7773078 C71.7271244,45.6504004 71.9718743,45.5960115 72.1622354,45.5778819 C73.5310222,45.42378 74.9179387,45.3512615 76.2776607,45.1427708 C77.6373827,44.9252153 78.9155214,44.4175857 80.1211416,43.7377247 C80.1755305,43.7286599 80.2389842,43.7195951 80.3749564,43.6833359 Z" id="Path"></path>
            <path d="M191.94468,43.7830488 C191.654606,44.7257894 191.527698,45.7501133 190.666541,46.4752984 C190.96568,46.8106965 190.96568,47.1823538 190.793449,47.5993352 C190.630282,47.998187 190.539634,48.4332981 190.394597,48.8412147 C190.322078,49.0315758 190.222365,49.2219368 190.095458,49.3760387 C189.914162,49.602659 189.76006,49.3488442 189.596893,49.3216498 C189.27056,49.2763257 188.917032,49.3760387 188.563504,49.4213627 C188.726671,49.6207886 188.889838,49.8202145 188.998616,49.9471219 C189.225236,49.9108627 189.49718,49.7930201 189.578764,49.8746034 C189.769125,50.0740293 190.059199,50.3006496 189.850708,50.6451126 C189.796319,50.7266959 189.678477,50.8264088 189.587828,50.8264088 C186.750542,50.8264088 183.913255,50.8264088 181.075969,50.817344 C181.066904,50.817344 181.048774,50.8082792 180.994385,50.7720199 C181.039709,50.6541774 181.085033,50.52727 181.139422,50.4094274 C181.103163,50.4184922 181.075969,50.427557 181.039709,50.4366218 C180.958126,50.1918719 180.876543,49.9471219 180.785895,49.6661127 C180.686182,49.8655386 180.622728,50.0558997 180.495821,50.2009367 C180.133228,50.6269829 179.725311,50.8717329 179.108904,50.8629113 C177.10558,50.817344 175.093192,50.8445384 173.080803,50.8445384 C172.98109,50.8445384 172.881377,50.8354736 172.799794,50.8354736 C173.126127,50.28252 173.479655,49.7658257 173.751599,49.212872 C174.159516,48.3698444 174.141386,47.4361686 174.141386,46.5206225 C174.141386,45.4328448 174.141386,44.3450672 174.141386,43.2572896 C174.141386,42.5683638 174.69434,42.0063454 175.401395,41.9791509 C175.682405,41.9700861 175.972479,41.9791509 176.307877,41.9791509 C176.226293,41.5531047 175.936219,41.3264844 175.637081,41.1633177 C174.830312,40.7282067 174.585562,40.0664753 174.630886,39.1781236 C174.649016,38.7974014 174.404266,38.3985496 174.286423,37.9996978 C174.232034,37.8002719 174.150451,37.600846 174.150451,37.4014202 C174.141386,34.446291 174.141386,31.4911618 174.141386,28.5360326 C174.141386,27.6114217 174.132322,26.6958755 174.123257,25.7712645 C174.114192,24.7922647 173.851312,23.8857834 173.325553,23.0608853 C173.253035,22.9430428 173.24397,22.7617465 173.271164,22.6257743 C173.280229,22.5713854 173.479655,22.5623206 173.651886,22.5079317 C173.660951,22.4716725 173.679081,22.3628947 173.69721,22.2541169 C173.760664,22.2450521 173.805988,22.2269225 173.851312,22.2269225 C174.757794,22.2269225 175.664275,22.2359873 176.570756,22.2269225 C177.042127,22.2178577 177.522562,22.1815984 177.821701,22.7708113 C178.34746,22.0274966 179.090774,22.2450521 179.761571,22.2359873 C180.649922,22.2178577 181.547339,22.1997281 182.435691,22.2359873 C182.852672,22.2541169 183.260589,22.4172836 183.668505,22.5079317 C183.41469,23.1515335 183.079292,23.6682278 183.006774,24.2302463 C182.861737,25.2998942 182.843607,26.3876719 182.825478,27.4754495 C182.816413,28.0374679 182.7167,28.5269678 182.354107,28.9802085 C182.100293,29.297477 181.937126,29.6963288 181.7377,30.0679861 C181.773959,30.0951805 181.810219,30.122375 181.837413,30.1405046 C181.955256,30.0317268 182.054968,29.9138843 182.190941,29.8232361 C182.326913,29.732588 182.49008,29.6691343 182.644181,29.5966158 C182.69857,29.7507176 182.798283,29.9048195 182.798283,30.0589213 C182.807348,31.5727451 182.807348,33.0775042 182.807348,34.591328 C182.807348,37.7821423 182.825478,40.9638918 182.798283,44.1547061 C182.798283,44.6170116 182.635117,45.0883819 182.49008,45.5325578 C182.363172,45.91328 182.326913,45.8951503 182.626052,46.248678 C182.861737,45.7591781 183.260589,45.6232059 183.777283,45.6141411 C185.998162,45.5778819 188.191847,45.3693911 190.258625,44.4991691 C190.340208,44.4629098 190.45805,44.4085209 190.521504,44.4447802 C191.101652,44.7348542 191.355467,44.3360024 191.627411,43.9371506 C191.690865,43.8465025 191.799643,43.8011784 191.890291,43.7286599 C191.881226,43.7286599 191.917485,43.7558544 191.94468,43.7830488 Z" id="Path"></path>
            <path d="M118.664728,58.5768243 C118.229617,58.1598429 117.830765,57.7609911 117.422849,57.3712041 C117.821701,56.9814171 118.220552,56.5916302 118.646599,56.1746487 C118.628469,56.1746487 118.673793,56.1655839 118.682858,56.1837136 C119.04545,56.7004079 119.55308,56.7547968 120.142293,56.7547968 C130.222365,56.7910561 140.293373,56.8545097 150.373446,56.9088986 C161.749786,56.9723523 173.126127,57.035806 184.502468,57.0992597 C195.534346,57.1627134 206.557159,57.2352319 217.589037,57.2986856 C220.217833,57.3168152 222.846629,57.2986856 225.475425,57.2986856 C225.475425,57.3621393 225.475425,57.4346578 225.475425,57.4981115 C219.809916,57.4981115 214.153473,57.4799819 208.487964,57.4981115 C200.900716,57.5253059 193.322532,57.57063 185.735283,57.6159541 C174.839377,57.6794078 163.952536,57.7428615 153.05663,57.7972503 C142.015688,57.860704 130.974745,57.9241577 119.933802,57.9785466 C119.344589,57.9966762 119.344589,58.005741 118.664728,58.5768243 Z" id="Path"></path>
            <path d="M108.249258,56.2290376 C108.61185,56.5916302 109.028832,56.9995468 109.445813,57.4074634 C109.046961,57.8063152 108.639045,58.2051669 108.240193,58.6040187 C108.222063,58.5949539 108.203934,58.5949539 108.194869,58.5858891 C107.732563,57.9332225 107.052702,57.9966762 106.372841,57.9876114 C100.208768,57.9694818 94.044695,57.9422874 87.8806219,57.9150929 C83.647354,57.8969633 79.423151,57.860704 75.1898831,57.8425744 C64.1489404,57.7791207 53.1079976,57.7066022 42.0670549,57.6431485 C34.724556,57.5978244 27.3820571,57.5434356 20.0486231,57.5253059 C14.0205222,57.5071763 7.99242125,57.5253059 1.97338514,57.5253059 C1.97338514,57.4799819 1.97338514,57.4437226 1.97338514,57.3983985 C7.2853658,57.3530745 12.5973465,57.2896208 17.9093271,57.2624263 C25.9407518,57.2080375 33.9812413,57.1717782 42.012666,57.1264541 C53.2802291,57.0630005 64.5477922,57.0086116 75.8153552,56.9451579 C86.2852147,56.8817042 96.7460094,56.8273153 107.215869,56.7366672 C107.569397,56.7185375 107.91386,56.4012691 108.249258,56.2290376 Z" id="Path"></path>
            <path d="M96.183991,19.8428766 C96.1114725,18.8729415 96.0298891,17.9030065 95.9845651,16.9240066 C95.9755003,16.7789696 96.1205373,16.615803 96.2111854,16.4617012 C96.2927687,16.3347938 96.3924817,16.2169512 96.4287409,16.0265901 C96.3108984,16.0991086 96.1930558,16.1716271 96.038954,16.2622753 C96.183991,15.156368 96.4559354,14.1411089 97.1176668,13.261822 C96.2111854,13.8691645 95.549454,14.6578033 95.1959263,15.691192 C94.8423986,16.7155159 94.9149171,17.7398399 95.1506022,18.8548119 C94.0175006,17.6673213 93.7636858,15.8090346 94.4707412,14.33147 C95.0508893,13.116785 95.9120466,12.1377852 97.0360834,11.4307297 C97.6706204,11.0318779 98.368611,10.7508687 99.0394072,10.4154706 C99.0756665,10.4517299 99.1119257,10.4879891 99.148185,10.5242484 C99.1209905,10.6602206 99.0575368,10.8052576 99.0575368,10.9412298 C99.0575368,11.3763408 99.0847313,11.8114519 99.1028609,12.2465629 C99.1209905,12.6091555 99.3657405,12.9173591 99.1753794,13.361535 C99.0122128,13.7331923 99.338546,14.1683034 99.6014256,14.5037015 C100.018407,15.0385255 99.87337,15.645868 99.8461756,16.2441456 C99.8461756,16.2894697 99.7917867,16.3801178 99.7555275,16.3801178 C99.2207035,16.4526363 99.2569627,16.8696178 99.1753794,17.2503399 C99.1209905,17.5041547 99.0031479,17.7942287 98.8127869,17.9483306 C98.3232869,18.365312 97.7884629,18.7279045 97.2627038,19.0995619 C96.9454353,19.3443118 96.6100372,19.5528025 96.183991,19.8428766 Z" id="Path"></path>
        </g>
    </g>
</svg>