<?xml version="1.0" encoding="UTF-8"?>
<svg width="247px" height="60px" viewBox="0 0 247 60" version="1.1" xmlns="http://www.w3.org/2000/svg" xmlns:xlink="http://www.w3.org/1999/xlink">
    <title>logo-cstwo</title>
    <g id="Game-Images" stroke="none" stroke-width="1" fill="none" fill-rule="evenodd">
        <g id="logo-cstwo" transform="translate(0, 0)">
            <path d="M230.638239,32.5331376 L230.473542,32.5331376 L192.666276,32.5331376 L191.937909,32.5331376 L191.652991,33.2034202 L188.241028,41.2313982 L187.590166,42.7629505 L189.254313,42.7629505 L226.203744,42.7629505 C228.583927,42.7629505 230.204037,45.2100257 229.262533,47.4237064 L229.262533,47.4241468 L227.316991,52 L171.849689,52 L179.798313,33.2996404 C179.798313,33.2996404 179.798313,33.2995963 179.798313,33.2995523 C182.412331,27.1522495 188.42378,23.1671046 195.073322,23.1671046 L227.031634,23.1671046 L227.760001,23.1671046 L228.044918,22.496778 L231.39479,14.615222 L232.045652,13.0836697 L230.381505,13.0836697 L188.391634,13.0836697 L192.255854,4 L235.978569,4 C241.53468,4 245.298496,9.70645138 243.110313,14.8536807 L237.605285,27.8037284 L237.605285,27.8039927 C236.407046,30.6248514 233.676771,32.4686679 230.638239,32.5331376 Z" id="Path" stroke="#FFFFFF" stroke-width="5"></path>
            <path d="M10.7880226,4.26380604 C8.1072887,4.2631545 5.68306852,5.8483655 4.62196026,8.29450275 L0.271604004,18.4502899 C-0.670440473,20.6506275 0.953795857,23.0921982 3.36021641,23.0921982 L17.5257254,23.0921982 C18.1980337,23.0921982 18.8052557,22.6934459 19.0690355,22.0789578 L20.4768447,18.801967 L5.56861714,18.801967 L9.55455476,9.51427523 L7.39019512,8.4971156 L23.7950538,8.4971156 C24.4673621,8.4971156 25.0745841,8.0983633 25.3383639,7.48391927 L26.7211603,4.26576587 L10.7880226,4.26380604 Z M47.333285,19.0347009 C46.2803676,21.4952073 43.8531089,23.0921982 41.1657694,23.0921982 L26.1932043,23.0921982 C23.7889768,23.0921982 22.1664447,20.6473688 23.1110318,18.4463706 L27.4609768,8.31343853 C28.5153034,5.85752514 30.9405364,4.26381505 33.6252777,4.26381505 L48.598019,4.26381505 C51.002863,4.26381505 52.6247346,6.70929174 51.6801474,8.90960734 L47.333285,19.0347009 Z M42.4342025,17.7894312 L46.4208447,8.49715963 L30.3237144,8.49715963 L32.38243,9.51427523 L28.3957437,18.802011 L40.8931382,18.802011 C41.5644777,18.802011 42.170819,18.4032587 42.4342025,17.7887706 L42.4342025,17.7894312 Z M60.4579823,51.114422 L57.2754502,51.114422 L63.5484777,36.5172697 C63.3036337,36.5172697 56.614019,36.5185468 56.614019,36.5185468 L58.4472667,32.2858716 L77.7062759,32.2858716 L76.4322942,35.2837578 C76.128441,36.0001908 75.2622392,36.5185468 74.4149731,36.5185468 L68.9350465,36.5185468 L63.5484777,49.085211 C63.0213584,50.3155963 61.8050648,51.114422 60.4579823,51.114422 Z M123.485065,45.8790312 L121.790973,45.8790312 L117.183413,45.8724697 L114.895267,51.1135413 L109.603377,51.1135413 L117.710533,32.2858716 L122.988771,32.2858716 L119.168588,41.1738862 L131.705395,32.5813578 C131.985469,32.3891817 132.317946,32.2858716 132.65879,32.2858716 L140.594643,32.2858716 L126.547817,41.9896661 L132.8869,51.114422 L127.088588,51.114422 L123.485065,45.8796477 L123.485065,45.8790312 Z M113.356184,32.2858716 L107.929102,32.2858716 L99.8338355,51.114422 L103.784808,51.114422 C104.633395,51.114422 105.540991,50.5547156 105.845725,49.8373578 L110.565579,38.8035229 L113.356184,32.2858716 Z M97.4853584,51.1135413 L91.832808,51.1135413 L89.5010648,46.8235743 L79.4963676,46.8235743 L78.523597,49.0878532 C77.9960373,50.3169174 76.7810648,51.1135413 75.4366245,51.1135413 L72.2109364,51.1135413 L80.299597,32.2858716 L98.2899089,32.2858716 C100.697395,32.2858716 102.321909,34.7306128 101.376441,36.9309064 L97.8900557,45.0481908 C97.4276704,46.1254606 96.3624226,46.8242349 95.1840006,46.8242349 L97.4862392,51.114422 L97.4853584,51.1135413 Z M99.2538722,41.7870092 L96.2593768,36.5184147 L81.4291382,36.5314936 L83.4812483,37.5185321 L81.2948263,42.6367853 L92.5351933,42.6367853 C93.2085144,42.6367853 93.8162208,42.236756 94.0795603,41.6209908 L96.258496,36.5190752 L99.2538722,41.7870092 Z M144.196404,40.1060404 L156.361102,40.1060404 L155.215707,42.7633028 C154.951046,43.3758092 154.345542,43.7732844 153.675744,43.7732844 L142.613285,43.7732844 L141.295267,46.8240587 L156.153689,46.8240587 L154.756404,50.0984954 C154.493946,50.7141284 153.88712,51.114422 153.21468,51.114422 L136.577615,51.114422 C135.375854,51.114422 134.565138,49.8919633 135.036771,48.7914862 L141.247267,34.3116917 C141.774826,33.0834202 142.987157,32.2858716 144.329835,32.2858716 L162.398092,32.2858716 L161.018863,35.5040294 C160.755524,36.1185174 160.148698,36.5172697 159.477579,36.5172697 L143.211744,36.5172697 L145.308331,37.5141284 L144.196404,40.1060404 Z M55.9680006,18.7987963 L62.1507529,4.26774312 L58.9246245,4.26774312 C57.5819456,4.26774312 56.3682942,5.06405431 55.8402942,6.29186349 L50.6109364,18.444433 C49.6641474,20.6450789 51.2877804,23.0921982 53.6952667,23.0921982 L67.4250282,23.0921982 C70.1178722,23.0921982 72.5491382,21.492389 73.6011749,19.0282716 L79.9050282,4.26774312 L76.7141291,4.26381586 C75.3674869,4.26185982 74.1498722,5.06143853 73.6231933,6.29447927 L68.7091382,17.780844 C68.4475603,18.3993394 67.8380924,18.8013945 67.1630098,18.8013945 L55.9680006,18.7987963 Z M111.310239,23.0921982 L108.127267,23.0921982 L114.400735,8.49517798 C114.155891,8.49517798 107.465835,8.49649908 107.465835,8.49649908 L109.299083,4.26381505 L128.558092,4.26381505 L127.284551,7.26166165 C126.980258,7.97809908 126.114056,8.49649908 125.26679,8.49649908 L119.786863,8.49649908 L114.400735,21.0631193 C113.873175,22.2933725 112.656881,23.0921982 111.310239,23.0921982 Z M169.842496,18.8021431 L172.144294,23.0915376 L166.491744,23.0915376 L164.160001,18.8014826 L154.155303,18.8014826 L153.182533,21.0658055 C152.654973,22.2947376 151.440001,23.0915376 150.09556,23.0915376 L146.869872,23.0915376 L154.958092,4.26381505 L172.948404,4.26381505 C175.355891,4.26381505 176.980845,6.70855193 176.035377,8.90881468 L172.548551,17.0260991 C172.086166,18.1033688 171.021358,18.8021431 169.842496,18.8021431 Z M170.918753,8.49636697 L173.913689,13.7649615 L170.917872,8.49698349 L168.738936,13.5988991 C168.475597,14.2146642 167.867891,14.6147376 167.194569,14.6147376 L155.953762,14.6147376 L158.140184,9.4964844 L156.088074,8.50940183 L170.918753,8.49636697 Z M145.605579,12.0839927 L133.412258,12.0839927 L134.526826,9.49208073 L132.425395,8.49517798 L148.729542,8.49517798 C149.402423,8.49517798 150.010569,8.09642569 150.27479,7.48193761 L151.657102,4.26381505 L133.546129,4.26381505 C132.200368,4.26381505 130.984955,5.06132404 130.456514,6.28961761 L124.231487,20.7696147 C123.758533,21.8697835 124.57101,23.0921982 125.775854,23.0921982 L142.45167,23.0921982 C143.125872,23.0921982 143.734019,22.6921248 143.997358,22.0763596 L145.397725,18.802011 L130.504514,18.802011 L131.825615,15.7511927 L142.914056,15.7511927 C143.585615,15.7511927 144.192441,15.3537615 144.457542,14.741255 L145.605579,12.0839927 Z M81.7541291,21.0654532 C81.2261291,22.2941651 80.0107162,23.0921982 78.6649548,23.0921982 L75.4379456,23.0921982 L83.5310098,4.26708257 L87.5744593,4.26381505 C88.1971382,4.26381505 88.7691749,4.60498495 89.0598171,5.15203523 L95.5169181,17.2844624 L100.262313,6.2918811 C100.790753,5.06706642 102.003083,4.27231413 103.345322,4.27100624 L106.623413,4.26708257 L98.9570648,22.0797945 C98.6928447,22.6935339 98.0855786,23.0921982 97.4126979,23.0921982 L93.9800373,23.0921982 C93.3582392,23.0921982 92.7875236,22.7510459 92.496441,22.2052991 L86.2762575,10.5467156 L81.752808,21.0654532 L81.7541291,21.0654532 Z M44.1806979,46.8240587 L45.4736153,43.8137982 L45.4740557,43.8131376 L35.400441,43.8137982 L34.166885,43.8137982 C31.7616447,43.8137982 30.1373511,41.3748697 31.07683,39.1751927 L31.5787603,38.0005138 L32.2813658,36.353189 C33.3333584,33.8874422 35.7668704,32.2858716 38.4622245,32.2858716 L55.7081841,32.2858716 L54.331597,35.5033688 C54.0686979,36.119178 53.4601107,36.5185468 52.78723,36.5185468 L34.9675162,36.5185468 L37.078019,37.5357064 L36.2484557,39.4745982 L47.5442208,39.4745982 C49.9521474,39.4745982 51.5771015,41.9193835 50.6316337,44.1197211 L49.3673401,47.0626055 C48.3122208,49.5198532 45.8818355,51.114422 43.1930869,51.114422 L25.9459382,51.114422 L27.3650208,47.8332477 C27.6301217,47.2206972 28.2360667,46.8240587 28.9070979,46.8240587 L44.1806979,46.8240587 Z" id="Shape" fill="#FFFFFF"></path>
            <rect id="Rectangle" stroke-opacity="0" stroke="#FFFFFF" x="107.5" y="0.5" width="66" height="59"></rect>
        </g>
    </g>
</svg>