<?xml version="1.0" encoding="UTF-8"?>
<svg width="111px" height="19px" viewBox="0 0 111 19" version="1.1" xmlns="http://www.w3.org/2000/svg" xmlns:xlink="http://www.w3.org/1999/xlink">
    <title>logo-minecraft</title>
    <defs>
        <linearGradient x1="49.9271255%" y1="99.8869863%" x2="49.9271255%" y2="0.116438356%" id="linearGradient-1">
            <stop stop-color="#FFFFFF" offset="0%"></stop>
            <stop stop-color="#CFCFCF" offset="100%"></stop>
        </linearGradient>
        <linearGradient x1="49.9271255%" y1="99.8869863%" x2="49.9271255%" y2="0.116438356%" id="linearGradient-2">
            <stop stop-color="#FFFFFF" offset="0%"></stop>
            <stop stop-color="#CFCFCF" offset="100%"></stop>
        </linearGradient>
        <linearGradient x1="49.9271255%" y1="99.8869863%" x2="49.9271255%" y2="0.116438356%" id="linearGradient-3">
            <stop stop-color="#FFFFFF" offset="0%"></stop>
            <stop stop-color="#CFCFCF" offset="100%"></stop>
        </linearGradient>
        <linearGradient x1="49.9271255%" y1="99.8869863%" x2="49.9271255%" y2="0.116438356%" id="linearGradient-4">
            <stop stop-color="#FFFFFF" offset="0%"></stop>
            <stop stop-color="#CFCFCF" offset="100%"></stop>
        </linearGradient>
        <linearGradient x1="49.9271255%" y1="99.8869863%" x2="49.9271255%" y2="0.116438356%" id="linearGradient-5">
            <stop stop-color="#FFFFFF" offset="0%"></stop>
            <stop stop-color="#CFCFCF" offset="100%"></stop>
        </linearGradient>
        <linearGradient x1="49.9271255%" y1="99.8869863%" x2="49.9271255%" y2="0.116438356%" id="linearGradient-6">
            <stop stop-color="#FFFFFF" offset="0%"></stop>
            <stop stop-color="#CFCFCF" offset="100%"></stop>
        </linearGradient>
        <linearGradient x1="49.9271255%" y1="99.8869863%" x2="49.9271255%" y2="0.116438356%" id="linearGradient-7">
            <stop stop-color="#FFFFFF" offset="0%"></stop>
            <stop stop-color="#CFCFCF" offset="100%"></stop>
        </linearGradient>
        <linearGradient x1="49.9271255%" y1="99.8869863%" x2="49.9271255%" y2="0.116438356%" id="linearGradient-8">
            <stop stop-color="#FFFFFF" offset="0%"></stop>
            <stop stop-color="#CFCFCF" offset="100%"></stop>
        </linearGradient>
        <linearGradient x1="49.9271255%" y1="99.8869863%" x2="49.9271255%" y2="0.116438356%" id="linearGradient-9">
            <stop stop-color="#FFFFFF" offset="0%"></stop>
            <stop stop-color="#CFCFCF" offset="100%"></stop>
        </linearGradient>
    </defs>
    <g id="Panel-Page-v1.0" stroke="none" stroke-width="1" fill="none" fill-rule="evenodd">
        <g id="Desktop-HD" transform="translate(-891, -5859)" fill-rule="nonzero">
            <g id="Group-34" transform="translate(340, 5730)">
                <g id="Group-32" transform="translate(116.4262, 111)">
                    <g id="logo-minecraft" transform="translate(434.5738, 18)">
                        <g id="Group" fill="#030303">
                            <path d="M51.370536,5.27328 L51.238704,8.393304 L51.018984,8.393304 L51.19476,9.931344 L51.062928,13.271088 L50.799264,13.271088 L51.018984,14.94096 L50.887152,18.412536 L39.373824,18.412536 L39.241992,17.973096 L39.198048,18.412536 L33.61716,18.412536 L32.29884,15.688008 L31.903344,18.412536 L26.410344,18.412536 L26.14668,17.973096 L26.058792,18.412536 L20.65368,18.412536 L20.346072,18.01704 L20.258184,18.412536 L14.853072,18.412536 L12.567984,15.775896 L11.161776,15.775896 L10.810224,15.424344 L10.019232,18.412536 L4.789896,18.412536 L0,14.018136 L4.482288,0.087888 L9.799512,0.087888 L12.260376,3.427632 L12.52404,2.460864 L13.974192,2.460864 L14.589408,0.087888 L20.038464,0.043944 L20.302128,0.527328 L20.390016,0.043944 L25.883016,0.043944 L26.102736,0.527328 L26.190624,0.043944 L31.727568,0.043944 L32.694336,2.504808 L32.826168,2.504808 L33.001944,2.944248 L33.441384,0.043944 L39.066216,0.043944 L39.198048,0.483384 L39.241992,0.043944 L50.799264,0.043944 L51.370536,5.27328 Z M68.376864,17.973096 L68.288976,18.412536 L62.532312,18.412536 L62.092872,5.27328 L62.576256,0 L74.177472,0 L74.221416,0.483384 L74.353248,0 L85.866576,0 L85.954464,0.483384 L86.174184,0 L97.55568,0 L97.687512,0.43944 L97.951176,0 L109.244784,0 L110.29944,3.339744 L108.058296,6.020328 L108.058296,6.064272 L108.54168,7.646256 L109.332672,10.151064 L109.684224,11.337552 L110.29944,13.446864 L110.431272,13.930248 L105.948984,18.368592 L100.587816,18.368592 L98.522448,9.8874 L96.149472,13.1832 L94.4796,13.1832 L94.611432,13.84236 L91.447464,18.324648 L85.954464,18.324648 L85.866576,17.885208 L85.602912,18.324648 L80.065968,18.324648 L80.022024,17.885208 L79.802304,18.324648 L74.221416,18.324648 L74.177472,17.841264 L74.001696,18.324648 L68.33292,18.324648 L68.376864,17.973096 Z" id="Shape"></path>
                            <polygon id="Path" points="50.843208 0.043944 62.532312 0 62.6202 3.251856 62.224704 8.393304 56.819592 8.393304 56.775648 10.151064 62.83992 10.151064 62.927808 13.798416 62.488368 18.412536 50.931096 18.412536 50.359824 13.798416"></polygon>
                        </g>
                        <polygon id="Path" fill="url(#linearGradient-1)" points="13.139256 3.2958 14.589408 3.2958 15.204624 0.87888 19.423248 0.87888 16.479 13.666584 11.908824 13.666584 13.271088 8.261472 11.64516 8.261472 10.942056 10.898112 7.997808 10.898112 8.744856 8.217528 7.074984 8.261472 5.449056 13.666584 1.010712 13.666584 5.097504 0.922824 9.22824 0.922824 8.56908 3.207912 9.975288 3.251856 9.272184 5.800608 12.480096 5.800608"></polygon>
                        <polygon id="Path" fill="url(#linearGradient-2)" points="21.049176 0.922824 25.2678 0.922824 22.719048 13.710528 18.192816 13.710528"></polygon>
                        <polygon id="Path" fill="url(#linearGradient-3)" points="30.716856 3.251856 32.167008 3.2958 31.815456 5.756664 33.441384 5.756664 34.144488 0.87888 38.363112 0.87888 36.869016 13.666584 32.342784 13.666584 32.914056 9.579792 31.376016 9.535848 31.771512 6.899208 30.145584 6.899208 29.046984 13.666584 24.476808 13.666584 26.893728 0.87888 31.112352 0.87888"></polygon>
                        <polygon id="Path" fill="url(#linearGradient-4)" points="43.416672 10.986 49.612776 11.029944 49.480944 13.666584 38.626776 13.666584 39.98904 0.87888 50.052216 0.87888 49.920384 3.120024 44.031888 3.120024 43.812168 5.756664 49.832496 5.756664 49.700664 8.217528 43.592448 8.217528"></polygon>
                        <path d="M108.629568,0.790992 L109.332672,3.07608 L106.388424,3.07608 L106.388424,3.163968 L106.78392,4.658064 L107.22336,6.240048 L108.190128,9.491904 C108.278016,9.843456 108.409848,10.151064 108.497736,10.502616 C108.585624,10.854168 108.717456,11.20572 108.805344,11.513328 L109.42056,13.62264 L104.850384,13.62264 L101.95008,3.07608 L99.005832,3.07608 L98.43456,0.790992 L108.629568,0.790992 Z" id="Path" fill="url(#linearGradient-5)"></path>
                        <polygon id="Path" fill="url(#linearGradient-6)" points="93.688608 13.62264 89.118432 13.62264 86.7894 0.834936 96.89652 0.834936 97.423848 3.07608 91.491408 3.07608 92.018736 5.668776 98.083008 5.668776 98.698224 8.217528 92.546064 8.217528"></polygon>
                        <path d="M80.461464,9.491904 L81.032736,13.62264 L76.46256,13.62264 L75.056352,0.834936 L85.163472,0.834936 L87.360672,13.666584 L82.790496,13.666584 L82.17528,9.535848 L80.461464,9.491904 Z M83.449656,4.482288 L83.185992,2.85636 L81.208512,2.85636 L81.384288,4.350456 L79.802304,4.350456 L79.582584,2.85636 L77.649048,2.85636 L77.868768,4.482288 L79.626528,4.482288 L79.714416,5.097504 L78.835536,5.097504 L79.143144,7.602312 L80.1978,7.602312 L80.109912,6.767376 L81.691896,6.767376 L81.823728,7.646256 L82.922328,7.646256 L82.526832,5.141448 L81.647952,5.141448 L81.560064,4.526232 L83.449656,4.482288" id="Shape" fill="url(#linearGradient-7)"></path>
                        <path d="M72.551544,7.03104 L74.04564,7.03104 L74.7048,13.666584 L70.134624,13.666584 L69.739128,8.261472 L68.025312,8.217528 L68.376864,13.666584 L63.806688,13.666584 L63.323304,0.87888 L73.430424,0.87888 L73.913808,5.624832 L72.419712,5.624832 L72.551544,7.03104 Z M69.563352,5.756664 L69.387576,3.120024 L67.761648,3.120024 L67.937424,5.756664 L69.563352,5.756664" id="Shape" fill="url(#linearGradient-8)"></path>
                        <polygon id="Path" fill="url(#linearGradient-9)" points="55.80888 11.029944 55.940712 3.120024 61.785264 3.120024 61.74132 0.834936 51.6342 0.87888 51.238704 13.666584 62.092872 13.666584 62.004984 11.029944"></polygon>
                        <path d="M1.669872,13.666584 C1.31832,13.666584 1.230432,13.886304 1.494096,14.106024 L4.658064,17.13816 C4.921728,17.401824 5.449056,17.5776 5.800608,17.5776 L8.525136,17.5776 C8.876688,17.5776 8.964576,17.35788 8.744856,17.094216 L5.976384,14.149968 C5.71272,13.886304 5.229336,13.666584 4.877784,13.666584 L1.669872,13.666584 Z M12.567984,13.666584 C12.216432,13.666584 12.0846,13.886304 12.348264,14.149968 L14.809128,17.050272 C15.028848,17.313936 15.512232,17.533656 15.907728,17.533656 L18.764088,17.533656 C19.11564,17.533656 19.247472,17.313936 19.027752,17.006328 L16.874496,14.149968 C16.654776,13.84236 16.171392,13.62264 15.81984,13.62264 L12.567984,13.666584 Z M8.656968,10.898112 C8.305416,10.898112 8.173584,11.117832 8.437248,11.381496 L11.161776,14.457576 C11.381496,14.72124 11.820936,14.94096 12.0846,14.94096 C12.348264,14.94096 12.392208,14.677296 12.172488,14.369688 L12.040656,14.193912 C11.820936,13.886304 11.733048,13.358976 11.820936,13.007424 L11.820936,12.919536 C11.908824,12.567984 11.820936,12.040656 11.601216,11.776992 L11.337552,11.381496 C11.117832,11.117832 10.634448,10.854168 10.282896,10.854168 L8.656968,10.898112 Z M18.851976,13.710528 C18.500424,13.710528 18.368592,13.930248 18.588312,14.237856 L20.65368,17.094216 C20.8734,17.401824 21.356784,17.621544 21.708336,17.621544 L24.520752,17.621544 C24.872304,17.621544 25.004136,17.35788 24.82836,17.050272 L23.0706,14.2818 C22.894824,13.974192 22.41144,13.710528 22.059888,13.710528 L18.851976,13.710528 Z M25.135968,13.666584 C24.784416,13.666584 24.652584,13.930248 24.82836,14.237856 L26.498232,17.006328 C26.674008,17.313936 27.157392,17.5776 27.508944,17.5776 L30.277416,17.5776 C30.628968,17.5776 30.804744,17.313936 30.628968,17.006328 L29.310648,14.2818 C29.134872,13.974192 28.739376,13.710528 28.34388,13.710528 L25.135968,13.666584 Z M33.001944,13.666584 C32.650392,13.666584 32.474616,13.930248 32.606448,14.2818 L33.880824,17.006328 C34.012656,17.313936 34.452096,17.621544 34.803648,17.621544 L37.660008,17.621544 C38.01156,17.621544 38.23128,17.35788 38.099448,17.006328 L37.088736,14.2818 C36.956904,13.930248 36.561408,13.666584 36.209856,13.666584 L33.001944,13.666584 Z M39.285936,13.666584 C38.934384,13.666584 38.714664,13.930248 38.846496,14.2818 L39.76932,16.874496 C39.901152,17.226048 40.296648,17.489712 40.6482,17.489712 L49.349112,17.489712 C49.700664,17.489712 49.964328,17.182104 49.920384,16.830552 L49.568832,14.2818 C49.524888,13.930248 49.173336,13.62264 48.821784,13.62264 L39.285936,13.666584 Z M51.897864,13.666584 C51.546312,13.666584 51.282648,13.974192 51.326592,14.325744 L51.590256,16.962384 C51.6405452,17.3373915 51.9589531,17.6183397 52.337304,17.621544 L60.994272,17.621544 C61.345824,17.621544 61.697376,17.313936 61.74132,16.962384 L62.048928,14.325744 C62.092872,13.974192 61.829208,13.666584 61.477656,13.666584 L51.897864,13.666584 Z M64.509792,13.666584 C64.15824,13.666584 63.806688,13.974192 63.762744,14.325744 L63.455136,16.91844 C63.411192,17.269992 63.674856,17.5776 64.026408,17.5776 L66.838824,17.5776 C67.190376,17.5776 67.585872,17.269992 67.629816,16.91844 L68.245032,14.2818 C68.33292,13.930248 68.1132,13.62264 67.761648,13.62264 L64.509792,13.666584 Z M70.793784,13.666584 C70.442232,13.666584 70.046736,13.974192 70.002792,14.325744 L69.387576,16.91844 C69.299688,17.269992 69.519408,17.5776 69.914904,17.5776 L72.72732,17.5776 C73.078872,17.5776 73.474368,17.313936 73.6062,16.962384 L74.529024,14.369688 C74.660856,14.018136 74.441136,13.754472 74.089584,13.754472 L70.793784,13.666584 Z M77.12172,13.62264 C76.770168,13.62264 76.374672,13.886304 76.24284,14.237856 L75.320016,16.91844 C75.188184,17.269992 75.407904,17.533656 75.759456,17.533656 L78.571872,17.533656 C78.923424,17.533656 79.362864,17.269992 79.494696,16.91844 L80.769072,14.193912 C80.900904,13.886304 80.769072,13.578696 80.373576,13.578696 L77.12172,13.62264 Z M83.449656,13.62264 C83.098104,13.62264 82.658664,13.886304 82.482888,14.193912 L81.164568,16.91844 C80.988792,17.226048 81.164568,17.489712 81.51612,17.489712 L84.416424,17.489712 C84.767976,17.489712 85.207416,17.226048 85.383192,16.91844 L86.965176,14.149968 C87.140952,13.84236 87.00912,13.578696 86.657568,13.578696 L83.449656,13.62264 Z M89.777592,13.62264 C89.42604,13.62264 88.9866,13.886304 88.76688,14.193912 L87.053064,16.962384 C86.877288,17.269992 87.00912,17.533656 87.360672,17.533656 L90.217032,17.533656 C90.568584,17.533656 91.051968,17.313936 91.271688,17.006328 L93.293112,14.149968 C93.512832,13.84236 93.381,13.62264 93.029448,13.62264 L89.777592,13.62264 Z M105.553488,13.62264 C105.201936,13.62264 104.718552,13.84236 104.454888,14.106024 L101.906136,17.006328 C101.686416,17.269992 101.774304,17.489712 102.125856,17.489712 L104.850384,17.489712 C105.201936,17.489712 105.729264,17.269992 105.992928,17.050272 L109.025064,14.106024 C109.288728,13.84236 109.20084,13.666584 108.849288,13.666584 L105.553488,13.62264 Z" id="Shape" fill="#29282A"></path>
                        <path d="M4.350456,3.032136 C4.306512,3.120024 4.570176,3.163968 4.965672,3.163968 L7.953864,3.163968 C8.305416,3.163968 8.613024,3.07608 8.613024,2.988192 C8.613024,2.900304 8.305416,2.812416 7.953864,2.812416 L5.05356,2.812416 C4.702008,2.85636 4.3944,2.944248 4.350456,3.032136 L4.350456,3.032136 Z M4.086792,9.579792 C4.218624,9.22824 3.998904,8.964576 3.647352,8.964576 L2.988192,8.964576 C2.63664,8.964576 2.329032,9.00852 2.329032,9.096408 C2.329032,9.184296 2.63664,9.22824 2.988192,9.22824 L3.251856,9.22824 C3.603408,9.22824 3.823128,9.491904 3.691296,9.843456 L3.032136,11.820936 C2.900304,12.172488 3.120024,12.436152 3.471576,12.436152 L5.668776,12.436152 C6.020328,12.436152 6.327936,12.392208 6.327936,12.30432 C6.327936,12.216432 6.020328,12.172488 5.668776,12.172488 L3.823128,12.172488 C3.471576,12.172488 3.251856,11.908824 3.383688,11.557272 L3.383688,11.513328 C3.51552,11.161776 3.867072,10.898112 4.262568,10.898112 L5.93244,10.898112 C6.283992,10.898112 6.5916,10.854168 6.5916,10.76628 C6.5916,10.678392 6.283992,10.634448 5.93244,10.634448 L4.350456,10.634448 C3.998904,10.634448 3.779184,10.370784 3.911016,10.019232 L4.086792,9.579792 Z M16.566888,3.647352 C16.610832,3.2958 16.391112,2.988192 15.995616,2.988192 L15.204624,2.988192 C14.853072,2.988192 14.50152,3.032136 14.50152,3.120024 C14.457576,3.207912 14.765184,3.251856 15.116736,3.251856 L15.688008,3.251856 C16.03956,3.251856 16.303224,3.559464 16.25928,3.911016 L16.171392,4.745952 C16.127448,5.097504 15.775896,5.405112 15.424344,5.405112 L12.655872,5.405112 C12.30432,5.405112 11.996712,5.449056 11.996712,5.536944 C11.996712,5.624832 12.30432,5.668776 12.655872,5.668776 L18.192816,5.668776 C18.544368,5.668776 18.851976,5.624832 18.851976,5.536944 C18.851976,5.449056 18.544368,5.405112 18.192816,5.405112 L17.006328,5.405112 C16.654776,5.405112 16.391112,5.097504 16.435056,4.745952 L16.566888,3.647352 Z M20.521848,12.172488 C20.565792,11.820936 20.565792,11.64516 20.43396,11.820936 C20.346072,11.996712 20.170296,12.436152 20.126352,12.787704 L20.038464,13.139256 C19.950576,13.490808 20.082408,14.018136 20.302128,14.325744 L20.390016,14.457576 C20.609736,14.765184 20.917344,15.116736 21.09312,15.248568 C21.268896,15.3804 21.268896,15.248568 21.049176,14.94096 L20.609736,14.2818 C20.390016,13.974192 20.302128,13.446864 20.346072,13.095312 L20.521848,12.172488 Z M25.004136,3.471576 C25.004136,3.383688 24.696528,3.339744 24.344976,3.339744 L23.29032,3.339744 C22.938768,3.339744 22.762992,3.383688 22.938768,3.471576 C23.114544,3.51552 23.553984,3.603408 23.905536,3.603408 L24.344976,3.603408 C24.696528,3.603408 25.004136,3.559464 25.004136,3.471576 Z M26.717952,12.831648 C26.80584,12.480096 26.761896,12.348264 26.674008,12.52404 C26.542176,12.699816 26.410344,13.007424 26.3664,13.271088 C26.322456,13.490808 26.3664,13.930248 26.454288,14.193912 C26.542176,14.457576 26.761896,14.809128 26.849784,14.984904 C26.981616,15.116736 26.981616,14.984904 26.849784,14.633352 L26.761896,14.2818 C26.630064,13.930248 26.630064,13.358976 26.717952,13.007424 L26.717952,12.831648 Z M25.663296,9.535848 C25.311744,9.535848 25.004136,9.579792 25.004136,9.623736 C25.004136,9.66768 25.311744,9.755568 25.663296,9.799512 L28.871208,9.975288 C29.22276,9.975288 29.618256,10.151064 29.706144,10.282896 C29.794032,10.458672 29.969808,10.54656 30.013752,10.502616 C30.057696,10.458672 30.013752,10.282896 29.88192,10.063176 C29.750088,9.8874 29.354592,9.711624 29.00304,9.66768 L25.663296,9.535848 Z M29.134872,3.032136 C29.266704,3.120024 29.6622,3.207912 30.013752,3.207912 L30.145584,3.207912 C30.497136,3.207912 30.804744,3.163968 30.804744,3.07608 C30.804744,2.988192 30.497136,2.944248 30.145584,2.900304 L29.530368,2.900304 C29.178816,2.900304 29.00304,2.944248 29.134872,3.032136 L29.134872,3.032136 Z M33.17772,9.623736 C32.826168,9.623736 32.51856,9.711624 32.51856,9.799512 C32.51856,9.8874 32.826168,9.931344 33.17772,9.931344 L34.979424,9.843456 C35.330976,9.843456 35.59464,10.10712 35.550696,10.458672 L35.1552,13.007424 C35.111256,13.358976 35.1552,13.930248 35.243088,14.2818 L35.287032,14.457576 C35.37492,14.809128 35.59464,15.248568 35.726472,15.424344 C35.858304,15.60012 35.902248,15.512232 35.770416,15.16068 L35.506752,14.2818 C35.418864,13.930248 35.37492,13.358976 35.418864,13.007424 L35.858304,10.195008 C35.902248,9.843456 35.682528,9.535848 35.287032,9.579792 L33.17772,9.623736 Z M33.792936,2.988192 C33.792936,3.07608 34.0566,3.163968 34.408152,3.251856 L37.57212,3.603408 C37.923672,3.647352 38.23128,3.603408 38.23128,3.559464 C38.23128,3.471576 37.923672,3.383688 37.57212,3.339744 L34.452096,2.988192 C34.100544,2.900304 33.792936,2.900304 33.792936,2.988192 L33.792936,2.988192 Z M40.955808,11.42544 C40.955808,11.073888 40.692144,10.76628 40.340592,10.76628 L39.285936,10.76628 C38.934384,10.76628 38.626776,10.810224 38.626776,10.898112 C38.626776,10.986 38.934384,11.029944 39.285936,11.029944 L40.032984,11.029944 C40.384536,11.029944 40.692144,11.337552 40.6482,11.689104 L40.604256,12.96348 C40.604256,13.315032 40.6482,13.886304 40.736088,14.237856 L40.911864,14.984904 C40.999752,15.336456 41.175528,15.775896 41.263416,15.951672 C41.351304,16.127448 41.395248,15.995616 41.30736,15.644064 L40.999752,14.193912 C40.911864,13.84236 40.86792,13.271088 40.86792,12.875592 L40.955808,11.42544 Z M39.285936,4.61412 C39.285936,4.702008 39.593544,4.745952 39.945096,4.745952 L40.955808,4.745952 C41.30736,4.745952 41.7468,4.658064 41.922576,4.570176 C42.098352,4.482288 41.922576,4.3944 41.571024,4.438344 L39.945096,4.482288 C39.593544,4.438344 39.285936,4.526232 39.285936,4.61412 Z M46.976136,6.108216 C46.976136,5.756664 46.888248,5.449056 46.80036,5.449056 C46.712472,5.449056 46.668528,5.756664 46.668528,6.108216 L46.668528,7.338648 C46.668528,7.6902 46.756416,7.822032 46.844304,7.646256 C46.932192,7.47048 47.02008,6.987096 46.976136,6.635544 L46.976136,6.108216 Z M48.3384,11.073888 C48.3384,11.42544 48.030792,11.689104 47.67924,11.689104 L46.888248,11.689104 C46.5281003,11.6983431 46.2383271,11.9881163 46.229088,12.348264 L46.229088,13.139256 C46.229088,13.490808 46.273032,13.798416 46.36092,13.798416 C46.448808,13.798416 46.492752,13.490808 46.492752,13.139256 L46.492752,12.655872 C46.5019911,12.2957243 46.7917643,12.0059511 47.151912,11.996712 L47.942904,11.996712 C48.3030517,11.9874729 48.5928249,11.6976997 48.602064,11.337552 L48.602064,11.161776 C48.602064,10.810224 48.55812,10.502616 48.470232,10.502616 C48.426288,10.502616 48.3384,10.76628 48.3384,11.073888 L48.3384,11.073888 Z M59.76384,11.733048 C59.719896,11.86488 59.675952,12.260376 59.719896,12.611928 L59.76384,13.051368 C59.8077767,13.4897098 59.8077767,13.9313462 59.76384,14.369688 L59.368344,17.094216 C59.3244,17.445768 59.368344,17.753376 59.456232,17.753376 C59.54412,17.753376 59.675952,17.445768 59.719896,17.094216 L60.071448,14.413632 C60.1153847,13.9752902 60.1153847,13.5336538 60.071448,13.095312 L59.98356,12.216432 C59.895672,11.776992 59.807784,11.601216 59.76384,11.733048 L59.76384,11.733048 Z M51.370536,16.127448 C51.370536,16.215336 51.678144,16.25928 52.029696,16.25928 L52.07364,16.25928 C52.425192,16.25928 52.7328,16.215336 52.7328,16.127448 C52.7328,16.03956 52.425192,15.995616 52.07364,15.995616 L52.029696,15.995616 C51.678144,15.951672 51.370536,16.03956 51.370536,16.127448 Z M52.425192,4.965672 C52.557024,5.05356 52.996464,5.185392 53.348016,5.229336 L55.545216,5.580888 C55.896768,5.71272 56.160432,5.800608 56.204376,5.71272 C56.24832,5.624832 55.984656,5.493 55.633104,5.361168 L52.820688,4.877784 C52.469136,4.877784 52.29336,4.877784 52.425192,4.965672 L52.425192,4.965672 Z M52.381248,7.558368 C52.51308,7.47048 52.337304,7.426536 51.985752,7.426536 C51.6342,7.426536 51.326592,7.514424 51.326592,7.602312 C51.326592,7.6902 51.502368,7.734144 51.722088,7.734144 C51.941808,7.734144 52.249416,7.646256 52.381248,7.558368 Z M65.344728,5.097504 C65.344728,5.27328 65.69628,5.405112 66.047832,5.405112 L66.179664,5.405112 C66.531216,5.405112 66.882768,5.405112 66.926712,5.449056 C66.970656,5.449056 67.146432,5.580888 67.23432,5.536944 C67.322208,5.493 67.23432,5.405112 67.146432,5.27328 C67.0146,5.185392 66.619104,5.097504 66.267552,5.097504 C65.916,5.097504 65.608392,4.789896 65.564448,4.438344 L65.212896,1.274376 C65.168952,0.922824 65.081064,0.615216 64.993176,0.615216 C64.905288,0.615216 64.905288,0.922824 64.949232,1.274376 L65.212896,3.779184 C65.25684,4.130736 64.993176,4.438344 64.641624,4.438344 L63.806688,4.438344 C63.455136,4.438344 63.147528,4.482288 63.147528,4.570176 C63.147528,4.658064 63.455136,4.702008 63.806688,4.702008 L64.641624,4.702008 C65.03712,4.789896 65.344728,4.921728 65.344728,5.097504 L65.344728,5.097504 Z M64.949232,11.601216 C64.993176,11.952768 64.861344,12.480096 64.685568,12.787704 C64.509792,13.095312 64.37796,13.62264 64.465848,13.666584 C64.553736,13.710528 64.685568,13.446864 64.773456,13.095312 C64.861344,12.787704 65.168952,12.480096 65.212896,12.480096 C65.25684,12.480096 65.25684,12.172488 65.25684,11.820936 L65.168952,10.458672 C65.125008,10.10712 65.432616,9.799512 65.784168,9.799512 L67.89348,9.799512 C68.245032,9.799512 68.55264,9.755568 68.55264,9.66768 C68.55264,9.579792 68.245032,9.535848 67.89348,9.535848 L65.47656,9.535848 C65.125008,9.535848 64.8174,9.843456 64.861344,10.195008 L64.949232,11.601216 Z M69.65124,10.502616 C69.65124,10.590504 69.958848,10.634448 70.3104,10.634448 L71.672664,10.634448 C72.024216,10.634448 72.463656,10.590504 72.595488,10.502616 C72.72732,10.414728 72.551544,10.370784 72.199992,10.370784 L70.3104,10.370784 C69.958848,10.370784 69.65124,10.414728 69.65124,10.502616 L69.65124,10.502616 Z M70.925616,6.547656 C71.013504,6.635544 71.365056,6.679488 71.716608,6.679488 L72.024216,6.679488 C72.375768,6.679488 72.683376,6.635544 72.683376,6.547656 C72.683376,6.459768 72.375768,6.415824 72.024216,6.415824 L71.409,6.415824 C71.101392,6.415824 70.881672,6.503712 70.925616,6.547656 Z M63.27936,16.347168 C63.27936,16.435056 63.543024,16.522944 63.93852,16.522944 L67.146432,16.742664 C67.497984,16.786608 67.805592,16.742664 67.805592,16.654776 C67.805592,16.566888 67.541928,16.479 67.146432,16.479 L63.93852,16.25928 C63.586968,16.215336 63.323304,16.25928 63.27936,16.347168 Z M82.702608,10.370784 C82.351056,10.370784 82.043448,10.458672 82.043448,10.502616 C82.043448,10.590504 82.351056,10.634448 82.702608,10.634448 L86.613624,11.073888 C86.965176,11.117832 87.272784,11.073888 87.316728,10.986 C87.360672,10.898112 87.053064,10.810224 86.701512,10.810224 L82.702608,10.370784 Z M95.270592,5.229336 C95.182704,5.27328 95.13876,5.580888 95.182704,5.93244 C95.182704,5.93244 95.710032,7.426536 95.534256,7.734144 C95.35848,8.041752 95.314536,8.305416 95.402424,8.34936 C95.490312,8.393304 95.666088,8.12964 95.79792,7.822032 L95.402424,5.844552 C95.402424,5.493 95.35848,5.229336 95.270592,5.229336 Z M93.117336,1.75776 C92.809728,1.75776 92.50212,1.494096 92.414232,1.186488 C92.326344,0.87888 92.194512,0.65916 92.106624,0.703104 C92.018736,0.747048 92.06268,1.010712 92.150568,1.362264 L92.150568,1.406208 C92.238456,1.75776 92.590008,2.021424 92.897616,2.021424 C93.205224,2.021424 93.512832,2.285088 93.644664,2.63664 L93.732552,2.944248 C93.864384,3.2958 93.996216,3.559464 94.084104,3.51552 C94.171992,3.471576 94.128048,3.207912 93.996216,2.85636 L93.82044,2.372976 C93.776496,2.065368 93.424944,1.75776 93.117336,1.75776 Z M104.191224,9.843456 C103.839672,9.843456 103.532064,9.8874 103.532064,9.975288 C103.532064,10.063176 103.839672,10.10712 104.191224,10.10712 L107.88252,10.10712 C108.234072,10.10712 108.54168,10.063176 108.54168,9.975288 C108.54168,9.8874 108.234072,9.843456 107.88252,9.843456 L104.191224,9.843456 Z M107.00364,3.2958 C107.091528,3.2958 107.047584,2.988192 106.959696,2.63664 L106.608144,1.362264 C106.520256,1.010712 106.388424,0.747048 106.300536,0.747048 C106.212648,0.747048 106.256592,1.054656 106.34448,1.406208 L106.696032,2.680584 C106.827864,3.032136 106.959696,3.2958 107.00364,3.2958 Z" id="Shape" fill="#030303" opacity="0.44"></path>
                        <g id="Group" transform="translate(5.4051, 2.4609)" fill="#030303">
                            <path d="M9.00852,0.747048 L10.195008,0.747048 C10.54656,0.747048 10.54656,0.703104 10.195008,0.615216 L9.8874,0.571272 C9.535848,0.483384 9.272184,0.571272 9.272184,0.703104 L9.00852,0.747048 Z M2.021424,13.095312 C1.889592,12.96348 1.494096,12.875592 1.142544,12.919536 L0.527328,13.007424 C0.175776,13.051368 0.175776,13.139256 0.527328,13.1832 L1.581984,13.315032 C1.933536,13.315032 2.153256,13.271088 2.021424,13.095312 Z M13.84236,14.633352 C13.754472,14.50152 13.40292,14.413632 13.007424,14.413632 L11.601216,14.545464 C11.249664,14.589408 11.249664,14.633352 11.601216,14.677296 L13.358976,14.853072 C13.710528,14.853072 13.930248,14.765184 13.84236,14.633352 L13.84236,14.633352 Z M28.12416,14.06208 C28.080216,13.930248 28.34388,13.84236 28.695432,13.84236 L28.959096,13.84236 C29.310648,13.84236 29.310648,13.930248 29.00304,14.06208 L28.827264,14.106024 C28.475712,14.193912 28.168104,14.193912 28.12416,14.06208 L28.12416,14.06208 Z M44.471328,13.139256 C44.427384,12.96348 44.119776,12.831648 43.768224,12.875592 L42.801456,13.007424 C42.449904,13.051368 42.449904,13.139256 42.801456,13.1832 L43.856112,13.358976 C44.251608,13.446864 44.515272,13.358976 44.471328,13.139256 L44.471328,13.139256 Z M45.833592,13.84236 C45.833592,13.666584 46.097256,13.534752 46.404864,13.578696 C46.756416,13.62264 46.756416,13.754472 46.448808,13.930248 C46.1412,14.106024 45.877536,14.018136 45.833592,13.84236 L45.833592,13.84236 Z M35.506752,10.634448 C35.462808,10.370784 35.37492,10.32684 35.330976,10.590504 C35.287032,10.854168 35.330976,11.337552 35.418864,11.689104 L35.462808,11.820936 C35.550696,12.172488 35.638584,12.172488 35.59464,11.820936 C35.5922585,11.4239056 35.5628948,11.0274961 35.506752,10.634448 Z M40.911864,10.854168 C40.86792,10.722336 40.823976,10.942056 40.823976,11.293608 L40.823976,11.337552 C40.823976,11.689104 40.86792,11.776992 40.955808,11.513328 C40.999752,11.249664 40.999752,10.942056 40.911864,10.854168 L40.911864,10.854168 Z M29.925864,10.722336 C29.925864,10.458672 29.88192,10.458672 29.794032,10.722336 C29.750088,10.986 29.794032,11.513328 29.925864,11.86488 L29.969808,11.996712 C30.10164,12.348264 30.145584,12.348264 30.057696,11.952768 L30.057696,11.86488 L29.925864,10.722336 L29.925864,10.722336 Z M21.09312,10.942056 C21.049176,10.810224 20.961288,10.854168 20.917344,10.986 C20.8734,11.117832 20.917344,11.381496 21.049176,11.557272 C21.181008,11.733048 21.268896,11.733048 21.224952,11.513328 L21.09312,10.942056 L21.09312,10.942056 Z M14.897016,10.722336 C14.853072,10.458672 14.72124,10.458672 14.633352,10.810224 C14.545464,11.117832 14.677296,11.557272 14.897016,11.820936 C15.116736,12.040656 15.248568,12.040656 15.16068,11.733048 C15.116736,11.469384 14.984904,11.029944 14.897016,10.722336 L14.897016,10.722336 Z M3.779184,10.32684 C3.691296,10.195008 3.911016,10.151064 4.262568,10.195008 L5.097504,10.282896 C5.449056,10.32684 5.449056,10.370784 5.097504,10.414728 L4.61412,10.458672 C4.262568,10.502616 3.867072,10.458672 3.779184,10.32684 Z M54.402672,10.590504 C54.446616,10.238952 54.578448,10.238952 54.622392,10.590504 C54.71028,10.942056 54.666336,11.513328 54.578448,11.86488 L54.49056,12.172488 C54.402672,12.52404 54.314784,12.52404 54.314784,12.172488 L54.314784,11.908824 C54.314784,11.513328 54.358728,10.942056 54.402672,10.590504 Z M50.711376,3.383688 C50.711376,3.51552 50.447712,3.471576 50.184048,3.251856 L50.09616,3.207912 C49.788552,2.988192 49.832496,2.900304 50.140104,2.988192 C50.447712,3.032136 50.711376,3.207912 50.711376,3.383688 L50.711376,3.383688 Z M68.816304,12.787704 C68.860248,12.655872 68.596584,12.567984 68.245032,12.567984 L67.937424,12.567984 C67.585872,12.567984 67.585872,12.655872 67.89348,12.74376 L68.1132,12.787704 C68.464752,12.96348 68.77236,12.919536 68.816304,12.787704 Z M66.487272,10.854168 C66.399384,10.678392 66.35544,10.76628 66.35544,11.117832 C66.35544,11.469384 66.443328,11.601216 66.531216,11.469384 C66.619104,11.293608 66.57516,11.029944 66.487272,10.854168 Z M74.748744,13.40292 C74.792688,13.271088 74.529024,13.1832 74.177472,13.1832 L73.16676,13.271088 C72.815208,13.315032 72.815208,13.358976 73.16676,13.40292 L74.001696,13.534752 C74.353248,13.62264 74.7048,13.534752 74.748744,13.40292 L74.748744,13.40292 Z M73.562256,10.898112 C73.518312,10.76628 73.430424,10.722336 73.38648,10.854168 C73.342536,10.986 73.342536,11.293608 73.430424,11.557272 C73.474368,11.820936 73.562256,11.820936 73.6062,11.601216 C73.650144,11.381496 73.650144,11.073888 73.562256,10.898112 L73.562256,10.898112 Z M90.041256,5.976384 C89.909424,5.93244 89.953368,5.668776 90.0852,5.361168 C90.217032,5.05356 90.30492,5.097504 90.30492,5.449056 C90.30492,5.800608 90.129144,6.020328 90.041256,5.976384 Z M82.219224,13.051368 C82.351056,12.919536 82.702608,12.831648 83.098104,12.875592 L84.5922,13.139256 C84.943752,13.1832 84.943752,13.227144 84.5922,13.271088 L82.702608,13.315032 C82.307112,13.315032 82.131336,13.227144 82.219224,13.051368 Z M97.467792,13.051368 C97.599624,12.875592 97.99512,12.74376 98.390616,12.831648 L99.75288,13.095312 C100.104432,13.1832 100.104432,13.227144 99.75288,13.271088 L97.907232,13.358976 C97.511736,13.40292 97.33596,13.271088 97.467792,13.051368 Z M98.083008,7.514424 C98.039064,7.294704 98.258784,7.162872 98.610336,7.206816 L99.796824,7.382592 C100.148376,7.426536 100.148376,7.514424 99.796824,7.602312 L98.830056,7.778088 C98.478504,7.822032 98.126952,7.6902 98.083008,7.514424 L98.083008,7.514424 Z" id="Shape"></path>
                            <path d="M96.501024,1.054656 C96.413136,0.966768 96.325248,0.615216 96.281304,0.263664 C96.23736,-0.087888 96.325248,-0.087888 96.413136,0.263664 L96.501024,0.571272 C96.632856,0.922824 96.632856,1.142544 96.501024,1.054656 Z" id="Path" opacity="0.5"></path>
                            <path d="M81.73584,8.832744 L80.944848,8.525136 C80.593296,8.393304 80.63724,8.305416 80.988792,8.34936 L81.823728,8.437248" id="Path"></path>
                            <path d="M49.87644,11.513328 C49.920384,11.337552 49.920384,11.073888 49.87644,10.898112 C49.832496,10.722336 49.480944,10.590504 49.085448,10.590504 L48.865728,10.590504 C48.514176,10.590504 48.11868,10.76628 47.986848,10.942056 C47.855016,11.117832 48.074736,11.381496 48.426288,11.469384 L49.129392,11.64516 C49.480944,11.733048 49.832496,11.689104 49.87644,11.513328 L49.87644,11.513328 Z" id="Path" opacity="0.5"></path>
                            <path d="M49.349112,11.029944 C49.129392,10.810224 49.129392,10.590504 49.393056,10.590504 C49.612776,10.590504 49.920384,10.722336 50.008272,10.854168 C50.140104,10.986 50.052216,11.381496 49.87644,11.64516 C49.700664,11.952768 49.568832,12.040656 49.65672,11.820936 C49.65672,11.64516 49.524888,11.293608 49.349112,11.029944 Z M28.34388,0.615216 C28.387824,0.43944 28.695432,0.351552 29.046984,0.43944 L29.090928,0.43944 C29.44248,0.527328 29.44248,0.65916 29.090928,0.747048 L28.959096,0.790992 C28.5636,0.87888 28.299936,0.790992 28.34388,0.615216 L28.34388,0.615216 Z M13.315032,3.120024 C13.271088,3.251856 12.919536,3.251856 12.567984,3.163968 L12.480096,3.163968 C12.128544,3.07608 12.128544,2.988192 12.480096,2.988192 L12.74376,2.988192 C13.139256,2.944248 13.358976,3.032136 13.315032,3.120024 L13.315032,3.120024 Z M1.230432,8.261472 C1.274376,8.12964 1.054656,8.041752 0.65916,8.12964 L0.263664,8.217528 C-0.087888,8.305416 -0.087888,8.393304 0.263664,8.437248 L0.43944,8.481192 C0.834936,8.481192 1.186488,8.393304 1.230432,8.261472 Z" id="Shape"></path>
                        </g>
                        <path d="M7.558368,15.60012 C7.47048,15.468288 7.47048,15.116736 7.558368,14.765184 L7.646256,14.457576 C7.734144,14.106024 7.822032,14.106024 7.822032,14.50152 L7.778088,15.16068 C7.734144,15.512232 7.646256,15.731952 7.558368,15.60012 L7.558368,15.60012 Z M19.159584,17.13816 C19.071696,17.094216 19.071696,16.786608 19.159584,16.522944 C19.247472,16.25928 19.33536,16.303224 19.33536,16.654776 C19.33536,17.006328 19.247472,17.226048 19.159584,17.13816 Z M29.618256,10.151064 C29.618256,9.931344 29.706144,10.063176 29.837976,10.370784 L29.88192,10.458672 C30.013752,10.810224 30.013752,10.942056 29.88192,10.810224 C29.750088,10.678392 29.618256,10.370784 29.618256,10.151064 Z M87.800112,15.731952 C87.931944,15.644064 87.931944,15.292512 87.844056,14.94096 L87.756168,14.589408 C87.66828,14.237856 87.580392,14.237856 87.580392,14.633352 L87.580392,15.248568 C87.580392,15.60012 87.66828,15.81984 87.800112,15.731952 L87.800112,15.731952 Z M103.092624,15.60012 C103.2684,15.512232 103.2684,15.16068 103.136568,14.853072 L102.565296,13.62264 C102.433464,13.315032 102.345576,13.315032 102.38952,13.666584 L102.653184,15.116736 C102.741072,15.468288 102.916848,15.688008 103.092624,15.60012 L103.092624,15.60012 Z M103.751784,9.931344 C103.70784,9.799512 103.48812,9.975288 103.356288,10.282896 L102.785016,11.469384 C102.60924,11.776992 102.653184,11.820936 102.872904,11.513328 L103.48812,10.678392 C103.70784,10.414728 103.795728,10.063176 103.751784,9.931344 L103.751784,9.931344 Z" id="Shape" fill="#29282A"></path>
                        <path d="M93.776496,3.559464 L93.82044,2.85636 C93.82044,2.504808 93.908328,2.504808 93.996216,2.85636 L94.215936,3.647352" id="Path" fill="#030303"></path>
                        <path d="M5.361168,15.951672 C5.05356,15.863784 5.097504,15.81984 5.405112,15.81984 L6.459768,15.951672 C6.723432,15.995616 6.679488,16.03956 6.415824,16.083504 C6.108216,16.083504 5.624832,16.03956 5.361168,15.951672 Z M20.082408,14.325744 C19.818744,14.06208 19.818744,14.106024 20.038464,14.413632 L20.21424,14.633352 C20.43396,14.94096 20.741568,15.248568 20.917344,15.3804 C21.09312,15.512232 21.09312,15.3804 20.8734,15.16068 L20.082408,14.325744 L20.082408,14.325744 Z M26.014848,13.666584 C25.92696,13.666584 25.970904,13.886304 26.102736,14.149968 C26.234568,14.413632 26.278512,14.413632 26.234568,14.149968 C26.190624,13.886304 26.102736,13.666584 26.014848,13.666584 Z M34.583928,16.610832 C34.320264,16.566888 34.408152,16.522944 34.759704,16.435056 L34.979424,16.391112 C35.330976,16.347168 35.506752,16.347168 35.330976,16.479 C35.1552,16.566888 34.803648,16.654776 34.583928,16.610832 Z M40.516368,14.149968 C40.384536,13.974192 40.340592,14.106024 40.42848,14.369688 C40.472424,14.677296 40.6482,15.116736 40.780032,15.3804 C40.911864,15.644064 40.955808,15.556176 40.86792,15.204624 L40.823976,15.072792 C40.823976,14.72124 40.6482,14.2818 40.516368,14.149968 Z M60.247224,14.633352 C60.20328,14.457576 60.115392,14.457576 60.027504,14.72124 C59.939616,14.984904 59.895672,15.3804 59.895672,15.688008 C59.895672,15.995616 59.98356,15.951672 60.115392,15.60012 C60.247224,15.292512 60.291168,14.853072 60.247224,14.633352 Z M53.699568,13.358976 C53.655624,13.1832 53.479848,13.1832 53.39196,13.446864 C53.260128,13.666584 53.435904,13.974192 53.743512,14.149968 C54.05112,14.325744 54.182952,14.2818 54.05112,14.06208 C53.919288,13.886304 53.743512,13.578696 53.699568,13.358976 L53.699568,13.358976 Z M64.729512,16.69872 C64.421904,16.610832 64.509792,16.566888 64.861344,16.566888 C65.212896,16.566888 65.740224,16.654776 66.047832,16.742664 C66.35544,16.830552 66.267552,16.91844 65.916,16.874496 C65.520504,16.874496 64.993176,16.786608 64.729512,16.69872 Z M72.156048,14.149968 C72.112104,14.018136 72.024216,14.149968 71.936328,14.369688 C71.84844,14.589408 71.84844,14.72124 71.980272,14.589408 C72.112104,14.457576 72.199992,14.237856 72.156048,14.149968 Z M79.31892,13.886304 C79.274976,13.754472 79.187088,13.886304 79.0992,14.106024 C79.011312,14.369688 79.011312,14.457576 79.143144,14.325744 C79.274976,14.193912 79.362864,13.974192 79.31892,13.886304 Z M78.176376,16.03956 C77.824824,15.995616 77.868768,15.907728 78.22032,15.863784 L78.352152,15.863784 C78.703704,15.81984 79.143144,15.863784 79.31892,15.995616 C79.494696,16.083504 79.450752,16.171392 79.187088,16.171392 C78.967368,16.171392 78.527928,16.083504 78.176376,16.03956 L78.176376,16.03956 Z M88.722936,15.995616 C88.415328,16.03956 88.415328,15.951672 88.722936,15.863784 C89.030544,15.775896 89.557872,15.731952 89.909424,15.775896 L90.217032,15.81984 C90.568584,15.863784 90.568584,15.907728 90.217032,15.907728 L89.909424,15.907728 C89.557872,15.951672 88.9866,15.995616 88.722936,15.995616 L88.722936,15.995616 Z" id="Shape" fill="#5A5558"></path>
                        <path d="M95.490312,8.525136 C95.35848,8.56908 95.094816,8.876688 94.962984,9.184296 C94.831152,9.491904 94.91904,9.491904 95.13876,9.22824 L95.35848,8.920632 C95.622144,8.656968 95.666088,8.437248 95.490312,8.525136 L95.490312,8.525136 Z" id="Path" fill="#29282A"></path>
                        <path d="M107.047584,3.427632 C106.915752,3.427632 106.78392,3.120024 106.739976,2.768472 L106.739976,2.63664 C106.696032,2.285088 106.78392,2.241144 106.959696,2.592696 L107.047584,2.812416 C107.179416,3.163968 107.179416,3.427632 107.047584,3.427632 Z M63.191472,4.745952 C63.191472,4.570176 63.455136,4.438344 63.806688,4.482288 L63.894576,4.482288 C64.246128,4.482288 64.290072,4.61412 63.93852,4.745952 L63.806688,4.789896 C63.49908,4.965672 63.191472,4.921728 63.191472,4.745952 Z M46.888248,5.361168 C46.756416,5.317224 46.712472,5.536944 46.756416,5.888496 L46.756416,6.020328 C46.80036,6.37188 46.888248,6.415824 46.976136,6.064272 C47.02008,5.756664 46.976136,5.405112 46.888248,5.361168 Z M32.254896,9.8874 C32.210952,9.755568 32.474616,9.66768 32.826168,9.66768 L33.968712,9.66768 C34.320264,9.66768 34.320264,9.711624 33.968712,9.799512 L32.958,10.019232 C32.650392,10.063176 32.29884,10.019232 32.254896,9.8874 Z M6.37188,12.436152 C6.37188,12.348264 6.108216,12.260376 5.756664,12.260376 L5.580888,12.260376 C5.229336,12.260376 5.229336,12.348264 5.580888,12.436152 L5.71272,12.480096 C6.020328,12.52404 6.327936,12.52404 6.37188,12.436152 L6.37188,12.436152 Z" id="Shape" fill="#030303"></path>
                        <g id="Group" transform="translate(1.2573, 2.4609)" fill="#E0DBD6">
                            <path d="M0.544361995,11.029944 C0.192809995,11.029944 -0.0708540052,11.073888 0.0170339948,11.161776 C0.0609779948,11.20572 0.412529995,11.293608 0.808025995,11.293608 L3.09311399,11.293608 C3.44466599,11.293608 3.79621799,11.249664 3.88410599,11.161776 C3.97199399,11.073888 3.70832999,11.029944 3.35677799,11.029944 L0.544361995,11.029944 Z M11.530362,11.029944 C11.17881,11.029944 10.915146,11.073888 11.003034,11.161776 C11.046978,11.20572 11.39853,11.293608 11.794026,11.293608 L14.079114,11.293608 C14.430666,11.293608 14.782218,11.249664 14.870106,11.161776 C14.91405,11.073888 14.69433,11.029944 14.342778,11.029944 L11.530362,11.029944 Z M17.726466,10.986 C17.374914,10.986 17.067306,11.073888 17.11125,11.117832 C17.11125,11.161776 17.418858,11.249664 17.77041,11.249664 C18.121962,11.249664 18.385626,11.20572 18.42957,11.117832 C18.42957,11.029944 18.165906,10.986 17.814354,10.986 L17.726466,10.986 Z M6.69652199,5.580888 C6.34496999,5.580888 6.03736199,5.668776 6.08130599,5.71272 C6.08130599,5.756664 6.38891399,5.844552 6.74046599,5.844552 C7.09201799,5.844552 7.35568199,5.800608 7.39962599,5.71272 C7.39962599,5.624832 7.13596199,5.580888 6.78440999,5.580888 L6.69652199,5.580888 Z M11.266698,5.580888 C10.915146,5.580888 10.607538,5.668776 10.651482,5.71272 C10.651482,5.756664 10.95909,5.844552 11.310642,5.844552 C11.662194,5.844552 11.925858,5.800608 11.969802,5.71272 C12.013746,5.624832 11.706138,5.580888 11.354586,5.580888 L11.266698,5.580888 Z M2.12634599,6.327936 C1.77479399,6.327936 1.51112999,6.415824 1.55507399,6.459768 C1.55507399,6.503712 1.81873799,6.5916 2.12634599,6.5916 C2.43395399,6.5916 2.69761799,6.547656 2.69761799,6.459768 C2.69761799,6.37188 2.43395399,6.327936 2.12634599,6.327936 Z M7.61934599,8.173584 C7.26779399,8.173584 7.00412999,8.217528 7.04807399,8.305416 C7.09201799,8.34936 7.39962599,8.437248 7.79512199,8.437248 L8.76188999,8.437248 C9.11344199,8.437248 9.46499399,8.393304 9.50893799,8.305416 C9.55288199,8.217528 9.28921799,8.173584 8.93766599,8.173584 L7.61934599,8.173584 Z M5.11453799,0.263664 C4.76298599,0.263664 4.49932199,0.307608 4.54326599,0.395496 C4.58720999,0.483384 4.89481799,0.527328 5.29031399,0.527328 L6.25708199,0.527328 C6.60863399,0.527328 6.96018599,0.483384 7.00412999,0.395496 C7.04807399,0.307608 6.78440999,0.263664 6.43285799,0.263664 L5.11453799,0.263664 Z M24.054402,10.986 C23.70285,10.986 23.395242,11.073888 23.439186,11.117832 C23.48313,11.161776 23.746794,11.249664 24.098346,11.249664 C24.449898,11.249664 24.713562,11.20572 24.757506,11.117832 C24.757506,11.029944 24.493842,10.986 24.14229,10.986 L24.054402,10.986 Z M34.864626,10.986 C34.513074,10.986 34.24941,11.073888 34.293354,11.117832 C34.293354,11.161776 34.557018,11.249664 34.864626,11.249664 C35.172234,11.249664 35.435898,11.20572 35.435898,11.117832 C35.479842,11.029944 35.216178,10.986 34.864626,10.986 Z M26.075826,10.986 C25.724274,10.986 25.46061,11.029944 25.46061,11.117832 C25.504554,11.161776 25.812162,11.249664 26.163714,11.249664 L26.866818,11.249664 C27.21837,11.249664 27.569922,11.20572 27.569922,11.117832 C27.613866,11.029944 27.350202,10.986 26.954706,10.986 L26.075826,10.986 Z M31.83249,10.986 C31.480938,10.986 31.217274,11.029944 31.261218,11.117832 C31.305162,11.161776 31.61277,11.249664 32.008266,11.249664 L32.93109,11.249664 C33.282642,11.249664 33.634194,11.20572 33.678138,11.117832 C33.722082,11.029944 33.458418,10.986 33.106866,10.986 L31.83249,10.986 Z M38.160426,10.986 C37.808874,10.986 37.54521,11.073888 37.54521,11.117832 C37.54521,11.161776 37.896762,11.249664 38.248314,11.249664 L38.555922,11.249664 C38.907474,11.249664 39.259026,11.20572 39.259026,11.117832 C39.30297,11.029944 38.995362,10.986 38.64381,10.986 L38.160426,10.986 Z M50.72841,10.986 C50.376858,10.986 50.113194,11.073888 50.113194,11.117832 C50.157138,11.161776 50.464746,11.249664 50.816298,11.249664 L51.123906,11.249664 C51.475458,11.249664 51.82701,11.20572 51.82701,11.117832 C51.870954,11.029944 51.563346,10.986 51.211794,10.986 L50.72841,10.986 Z M59.692986,10.986 C59.341434,10.986 59.07777,11.073888 59.07777,11.117832 C59.121714,11.161776 59.429322,11.249664 59.780874,11.249664 L59.912706,11.249664 C60.264258,11.249664 60.571866,11.20572 60.61581,11.117832 C60.659754,11.029944 60.352146,10.986 60.000594,10.986 L59.692986,10.986 Z M64.13133,10.986 C63.779778,10.986 63.516114,11.029944 63.560058,11.117832 C63.604002,11.161776 63.955554,11.249664 64.307106,11.249664 L66.10881,11.249664 C66.460362,11.249664 66.811914,11.20572 66.855858,11.117832 C66.899802,11.029944 66.680082,10.986 66.284586,10.986 L64.13133,10.986 Z M69.62433,10.986 C69.272778,10.986 68.96517,11.073888 69.009114,11.117832 C69.053058,11.161776 69.360666,11.249664 69.712218,11.249664 C70.06377,11.249664 70.371378,11.20572 70.415322,11.117832 C70.459266,11.029944 70.151658,10.986 69.800106,10.986 L69.62433,10.986 Z M71.60181,10.986 C71.250258,10.986 70.986594,11.029944 71.030538,11.117832 C71.074482,11.20572 71.38209,11.249664 71.733642,11.249664 L72.436746,11.249664 C72.788298,11.249664 73.13985,11.20572 73.13985,11.117832 C73.183794,11.029944 72.92013,10.986 72.568578,10.986 L71.60181,10.986 Z M75.99621,10.986 C75.644658,10.986 75.380994,11.073888 75.380994,11.117832 C75.380994,11.161776 75.732546,11.249664 76.084098,11.249664 L76.479594,11.249664 C76.831146,11.249664 77.182698,11.20572 77.182698,11.117832 C77.226642,11.029944 76.962978,10.986 76.567482,10.986 L75.99621,10.986 Z M78.63285,10.986 C78.281298,10.986 78.017634,11.073888 78.017634,11.117832 C78.061578,11.161776 78.369186,11.249664 78.720738,11.249664 L78.808626,11.249664 C79.160178,11.249664 79.467786,11.20572 79.51173,11.117832 C79.555674,11.029944 79.248066,10.986 78.896514,10.986 L78.63285,10.986 Z M82.324146,10.986 C81.972594,10.986 81.70893,11.029944 81.796818,11.117832 C81.884706,11.20572 82.236258,11.249664 82.58781,11.249664 L85.136562,11.249664 C85.488114,11.249664 85.839666,11.20572 85.927554,11.117832 C86.015442,11.029944 85.751778,10.986 85.400226,10.986 L82.324146,10.986 Z M88.564194,10.986 C88.212642,10.986 87.948978,11.029944 88.036866,11.117832 C88.124754,11.161776 88.476306,11.249664 88.827858,11.249664 L91.37661,11.249664 C91.728162,11.249664 92.079714,11.20572 92.167602,11.117832 C92.25549,11.029944 91.991826,10.986 91.640274,10.986 L88.564194,10.986 Z M104.427978,10.986 C104.076426,10.986 103.812762,11.029944 103.90065,11.117832 C103.988538,11.161776 104.34009,11.249664 104.691642,11.249664 L107.240394,11.249664 C107.591946,11.249664 107.943498,11.20572 108.031386,11.117832 C108.119274,11.029944 107.85561,10.986 107.504058,10.986 L104.427978,10.986 Z M98.583426,0.43944 C98.231874,0.43944 97.96821,0.483384 98.012154,0.571272 C98.056098,0.615216 98.363706,0.703104 98.759202,0.703104 L99.638082,0.703104 C99.989634,0.703104 100.341186,0.65916 100.38513,0.571272 C100.429074,0.483384 100.16541,0.43944 99.813858,0.43944 L98.583426,0.43944 Z M93.661698,0.43944 C93.310146,0.43944 93.046482,0.483384 93.090426,0.571272 C93.13437,0.65916 93.485922,0.703104 93.837474,0.703104 L95.023962,0.703104 C95.375514,0.703104 95.727066,0.65916 95.77101,0.571272 C95.814954,0.483384 95.55129,0.43944 95.199738,0.43944 L93.661698,0.43944 Z" id="Shape"></path>
                            <path d="M91.15689,0.43944 C90.805338,0.43944 90.541674,0.527328 90.541674,0.571272 C90.585618,0.615216 90.893226,0.703104 91.244778,0.703104 L91.684218,0.703104 C92.03577,0.703104 92.387322,0.65916 92.387322,0.571272 C92.431266,0.483384 92.167602,0.43944 91.772106,0.43944 L91.15689,0.43944 Z" id="K"></path>
                            <path d="M91.991826,5.580888 C91.640274,5.580888 91.37661,5.624832 91.420554,5.71272 C91.464498,5.756664 91.772106,5.844552 92.167602,5.844552 L93.090426,5.844552 C93.441978,5.844552 93.79353,5.800608 93.837474,5.71272 C93.881418,5.624832 93.617754,5.580888 93.266202,5.580888 L91.991826,5.580888 Z M76.699314,0.087888 C76.347762,0.087888 76.084098,0.175776 76.084098,0.21972 C76.084098,0.263664 76.43565,0.351552 76.787202,0.351552 L77.226642,0.351552 C77.578194,0.351552 77.929746,0.307608 77.929746,0.21972 C77.97369,0.131832 77.710026,0.087888 77.31453,0.087888 L76.699314,0.087888 Z" id="Shape"></path>
                            <g id="K-link" transform="translate(79.6436, 0)">
                                <path d="M0.615216,0.087888 C0.263664,0.087888 0,0.175776 0,0.21972 C0.043944,0.263664 0.351552,0.351552 0.703104,0.351552 L1.142544,0.351552 C1.494096,0.351552 1.845648,0.307608 1.845648,0.21972 C1.889592,0.131832 1.625928,0.087888 1.230432,0.087888 L0.615216,0.087888 Z" id="K"></path>
                            </g>
                            <path d="M77.929746,2.372976 C77.666082,2.372976 77.446362,2.460864 77.490306,2.504808 C77.490306,2.548752 77.710026,2.63664 77.929746,2.63664 C78.149466,2.63664 78.369186,2.592696 78.369186,2.504808 C78.369186,2.372976 78.19341,2.329032 77.929746,2.372976 Z M79.204122,1.625928 C78.85257,1.625928 78.63285,1.713816 78.63285,1.75776 C78.63285,1.801704 78.896514,1.889592 79.204122,1.889592 C79.51173,1.889592 79.775394,1.845648 79.775394,1.75776 C79.775394,1.669872 79.51173,1.625928 79.204122,1.625928 Z M63.384282,1.75776 C63.03273,1.75776 62.81301,1.845648 62.81301,1.889592 C62.81301,1.933536 63.076674,2.021424 63.384282,2.021424 C63.69189,2.021424 63.955554,1.97748 63.955554,1.889592 C63.955554,1.801704 63.735834,1.75776 63.384282,1.75776 Z M67.42713,5.449056 C67.075578,5.449056 66.76797,5.536944 66.811914,5.580888 C66.855858,5.624832 67.163466,5.71272 67.515018,5.71272 C67.86657,5.71272 68.174178,5.668776 68.218122,5.580888 C68.262066,5.493 67.954458,5.449056 67.602906,5.449056 L67.42713,5.449056 Z M64.614714,6.767376 C64.263162,6.767376 63.999498,6.81132 64.043442,6.899208 C64.087386,6.943152 64.394994,7.03104 64.746546,7.03104 L65.44965,7.03104 C65.801202,7.03104 66.152754,6.987096 66.152754,6.899208 C66.196698,6.81132 65.933034,6.767376 65.581482,6.767376 L64.614714,6.767376 Z M104.032482,7.074984 C103.68093,7.074984 103.417266,7.118928 103.46121,7.206816 C103.505154,7.25076 103.812762,7.338648 104.164314,7.338648 L104.867418,7.338648 C105.21897,7.338648 105.570522,7.294704 105.570522,7.206816 C105.614466,7.118928 105.350802,7.074984 104.99925,7.074984 L104.032482,7.074984 Z M38.468034,8.085696 C38.116482,8.085696 37.852818,8.173584 37.852818,8.217528 C37.852818,8.261472 38.20437,8.34936 38.555922,8.34936 L38.731698,8.34936 C39.08325,8.34936 39.390858,8.305416 39.434802,8.217528 C39.478746,8.12964 39.171138,8.085696 38.819586,8.085696 L38.468034,8.085696 Z M32.93109,6.987096 C32.579538,6.987096 32.315874,7.074984 32.315874,7.118928 C32.359818,7.162872 32.667426,7.25076 33.018978,7.25076 L33.194754,7.25076 C33.546306,7.25076 33.853914,7.206816 33.897858,7.118928 C33.941802,7.03104 33.678138,6.987096 33.282642,6.987096 L32.93109,6.987096 Z" id="Shape"></path>
                            <path d="M24.977226,6.899208 C24.625674,6.899208 24.36201,6.987096 24.36201,7.03104 C24.405954,7.074984 24.713562,7.162872 25.065114,7.162872 L25.24089,7.162872 C25.592442,7.162872 25.90005,7.118928 25.943994,7.03104 C25.987938,6.943152 25.68033,6.899208 25.328778,6.899208 L24.977226,6.899208 Z" id="L"></path>
                            <path d="M12.980514,2.63664 C12.628962,2.63664 12.365298,2.680584 12.409242,2.768472 C12.453186,2.85636 12.760794,2.900304 13.112346,2.900304 L13.859394,2.900304 C14.210946,2.900304 14.562498,2.85636 14.562498,2.768472 C14.606442,2.680584 14.342778,2.63664 13.991226,2.63664 L12.980514,2.63664 Z M35.523786,0.615216 C35.172234,0.571272 34.864626,0.615216 34.90857,0.65916 C34.952514,0.703104 35.216178,0.834936 35.56773,0.87888 L35.743506,0.922824 C36.095058,0.966768 36.44661,0.966768 36.44661,0.87888 C36.490554,0.790992 36.22689,0.703104 35.875338,0.65916 L35.523786,0.615216 Z" id="Shape"></path>
                            <g id="L-link" transform="translate(69.0531, 7.5584)">
                                <path d="M0.615216,0.087888 C0.263664,0.087888 0,0.175776 0,0.21972 C0.043944,0.263664 0.351552,0.351552 0.703104,0.351552 L0.87888,0.351552 C1.230432,0.351552 1.53804,0.307608 1.581984,0.21972 C1.625928,0.131832 1.31832,0.087888 0.966768,0.087888 L0.615216,0.087888 Z" id="L"></path>
                            </g>
                            <g id="L-link" transform="translate(79.0723, 6.5916)">
                                <path d="M0.615216,0.087888 C0.263664,0.087888 0,0.175776 0,0.21972 C0.043944,0.263664 0.351552,0.351552 0.703104,0.351552 L0.87888,0.351552 C1.230432,0.351552 1.53804,0.307608 1.581984,0.21972 C1.625928,0.131832 1.31832,0.087888 0.966768,0.087888 L0.615216,0.087888 Z" id="L"></path>
                            </g>
                            <path d="M55.606194,0.351552 C55.254642,0.351552 55.034922,0.395496 55.078866,0.483384 C55.166754,0.527328 55.518306,0.615216 55.869858,0.615216 L59.253546,0.615216 C59.605098,0.615216 60.000594,0.571272 60.044538,0.483384 C60.088482,0.395496 59.912706,0.351552 59.51721,0.351552 L55.606194,0.351552 Z M43.653426,0.395496 C43.301874,0.395496 43.082154,0.43944 43.170042,0.527328 C43.25793,0.571272 43.609482,0.65916 44.004978,0.65916 L47.564442,0.65916 C47.915994,0.65916 48.31149,0.615216 48.399378,0.527328 C48.487266,0.43944 48.267546,0.395496 47.915994,0.395496 L43.653426,0.395496 Z M43.03821,5.449056 C42.686658,5.449056 42.422994,5.493 42.466938,5.580888 C42.510882,5.624832 42.862434,5.71272 43.213986,5.71272 L44.532306,5.71272 C44.883858,5.71272 45.23541,5.668776 45.279354,5.580888 C45.323298,5.493 45.059634,5.449056 44.708082,5.449056 L43.03821,5.449056 Z M46.246122,5.449056 C45.89457,5.449056 45.630906,5.493 45.67485,5.580888 C45.718794,5.624832 46.070346,5.71272 46.421898,5.71272 L47.608386,5.71272 C47.959938,5.71272 48.31149,5.668776 48.355434,5.580888 C48.399378,5.493 48.135714,5.449056 47.784162,5.449056 L46.246122,5.449056 Z M53.101386,10.32684 C52.749834,10.32684 52.442226,10.414728 52.48617,10.458672 C52.530114,10.502616 52.793778,10.590504 53.14533,10.590504 C53.496882,10.590504 53.760546,10.54656 53.80449,10.458672 C53.80449,10.370784 53.496882,10.32684 53.101386,10.32684 Z M52.178562,2.1972 C51.82701,2.153256 51.563346,2.1972 51.563346,2.241144 C51.60729,2.329032 51.914898,2.41692 52.26645,2.460864 L52.749834,2.504808 C53.101386,2.548752 53.452938,2.548752 53.496882,2.460864 C53.540826,2.372976 53.277162,2.285088 52.92561,2.241144 L52.178562,2.1972 Z M82.104426,7.6902 C81.752874,7.646256 81.48921,7.6902 81.48921,7.734144 C81.533154,7.822032 81.840762,7.90992 82.192314,7.953864 L82.675698,7.997808 C83.02725,8.041752 83.378802,8.041752 83.422746,7.953864 C83.46669,7.865976 83.203026,7.778088 82.851474,7.734144 L82.104426,7.6902 Z M80.961882,2.372976 C80.698218,2.372976 80.522442,2.460864 80.522442,2.504808 C80.522442,2.548752 80.742162,2.63664 80.961882,2.63664 C81.181602,2.63664 81.357378,2.592696 81.401322,2.504808 C81.401322,2.372976 81.181602,2.329032 80.961882,2.372976 Z M95.155794,5.580888 C94.804242,5.580888 94.540578,5.624832 94.584522,5.71272 C94.628466,5.756664 94.980018,5.844552 95.33157,5.844552 L96.518058,5.844552 C96.86961,5.844552 97.221162,5.800608 97.265106,5.71272 C97.30905,5.624832 97.045386,5.580888 96.693834,5.580888 L95.155794,5.580888 Z M106.625178,0.43944 C106.273626,0.43944 106.009962,0.527328 106.009962,0.571272 C106.053906,0.615216 106.361514,0.703104 106.713066,0.703104 L107.19645,0.703104 C107.548002,0.703104 107.899554,0.65916 107.899554,0.571272 C107.943498,0.483384 107.679834,0.43944 107.284338,0.43944 L106.625178,0.43944 Z M55.12281,10.986 C54.771258,10.986 54.507594,11.029944 54.595482,11.117832 C54.639426,11.161776 54.990978,11.249664 55.34253,11.249664 L57.451842,11.249664 C57.803394,11.249664 58.154946,11.20572 58.19889,11.117832 C58.242834,11.029944 58.023114,10.986 57.671562,10.986 L55.12281,10.986 Z M40.489458,10.986 C40.137906,10.986 39.918186,11.029944 39.96213,11.117832 C40.006074,11.20572 40.40157,11.249664 40.753122,11.249664 L43.961034,11.249664 C44.312586,11.249664 44.664138,11.20572 44.752026,11.117832 C44.839914,11.029944 44.620194,10.986 44.224698,10.986 L40.489458,10.986 Z M45.938514,10.986 C45.586962,10.986 45.323298,11.029944 45.367242,11.117832 C45.411186,11.161776 45.762738,11.249664 46.11429,11.249664 L47.256834,11.249664 C47.608386,11.249664 47.959938,11.20572 48.003882,11.117832 C48.047826,11.029944 47.784162,10.986 47.43261,10.986 L45.938514,10.986 Z" id="Shape"></path>
                            <g id="K-link" transform="translate(19.4842, 10.9421)">
                                <path d="M0.615216,0.087888 C0.263664,0.087888 0,0.175776 0,0.21972 C0.043944,0.263664 0.351552,0.351552 0.703104,0.351552 L1.142544,0.351552 C1.494096,0.351552 1.845648,0.307608 1.845648,0.21972 C1.889592,0.131832 1.625928,0.087888 1.230432,0.087888 L0.615216,0.087888 Z" id="K"></path>
                            </g>
                        </g>
                    </g>
                </g>
            </g>
        </g>
    </g>
</svg>