<?xml version="1.0" encoding="UTF-8"?>
<svg width="21px" height="21px" viewBox="0 0 21 21" version="1.1" xmlns="http://www.w3.org/2000/svg" xmlns:xlink="http://www.w3.org/1999/xlink">
    <title>nav-open</title>
    <g id="Page-1" stroke="none" stroke-width="1" fill="none" fill-rule="evenodd">
        <g id="nav-open">
            <path d="M0,3.125 C0,2.50390625 0.50390625,2 1.125,2 L19.875,2 C20.4984369,2 21,2.50390625 21,3.125 C21,3.74843693 20.4984369,4.25 19.875,4.25 L1.125,4.25 C0.50390625,4.25 0,3.74843693 0,3.125 Z M0,10.625 C0,10.0015624 0.50390625,9.5 1.125,9.5 L19.875,9.5 C20.4984369,9.5 21,10.0015624 21,10.625 C21,11.2484369 20.4984369,11.75 19.875,11.75 L1.125,11.75 C0.50390625,11.75 0,11.2484369 0,10.625 Z M19.875,19.25 L1.125,19.25 C0.50390625,19.25 0,18.7484369 0,18.125 C0,17.5015631 0.50390625,17 1.125,17 L19.875,17 C20.4984369,17 21,17.5015631 21,18.125 C21,18.7484369 20.4984369,19.25 19.875,19.25 Z" id="Shape" fill="#FFFFFF" fill-rule="nonzero"></path>
            <rect id="Rectangle" stroke-opacity="0" stroke="#979797" x="0.5" y="0.5" width="20" height="20"></rect>
        </g>
    </g>
</svg>