<?xml version="1.0" encoding="UTF-8"?>
<svg width="21px" height="21px" viewBox="0 0 21 21" version="1.1" xmlns="http://www.w3.org/2000/svg" xmlns:xlink="http://www.w3.org/1999/xlink">
    <title>nav-close</title>
    <g id="Page-1" stroke="none" stroke-width="1" fill="none" fill-rule="evenodd">
        <g id="nav-close">
            <path d="M19.0679691,17.0078125 C19.5803356,17.520179 19.5803356,18.3514848 19.0679691,18.8639064 C18.5556026,19.376328 17.7242968,19.3762729 17.2118752,18.8639064 L10.75,12.3539059 L4.2421875,18.8617184 C3.72982013,19.3740849 2.89851522,19.3740849 2.38609362,18.8617184 C1.87367201,18.3493519 1.87372625,17.5180461 2.38609362,17.0056245 L8.89609325,10.5 L2.38428867,3.94296908 C1.8719213,3.43060255 1.8719213,2.59929681 2.38428867,2.0868752 C2.89665604,1.57445359 3.72796094,1.57450867 4.24038255,2.0868752 L10.75,8.64609408 L17.2578125,2.13828158 C17.770179,1.62591505 18.6014848,1.62591505 19.1139064,2.13828158 C19.626328,2.65064812 19.6262729,3.48195386 19.1139064,3.99437547 L12.6039059,10.5 L19.0679691,17.0078125 Z" id="Path" fill="#FFFFFF" fill-rule="nonzero"></path>
            <rect id="Rectangle" stroke-opacity="0" stroke="#979797" x="0.5" y="0.5" width="20" height="20"></rect>
        </g>
    </g>
</svg>