<?xml version="1.0" encoding="UTF-8"?>
<svg width="53px" height="52px" viewBox="0 0 53 52" version="1.1" xmlns="http://www.w3.org/2000/svg" xmlns:xlink="http://www.w3.org/1999/xlink">
    <title>never</title>
    <g id="Game-Images" stroke="none" stroke-width="1" fill="none" fill-rule="evenodd" stroke-linejoin="round">
        <g id="never" transform="translate(1, 1)" stroke-width="2">
            <g id="Group" transform="translate(16.8381, 16.8309)" stroke="#367FCA" stroke-linecap="round">
                <line x1="16.3390686" y1="0" x2="0" y2="16.3381677" id="Path"></line>
                <line x1="16.3390686" y1="16.3381677" x2="0" y2="0" id="Path"></line>
            </g>
            <g id="Group" stroke="#060000">
                <path d="M50.0135123,25.0004504 C50.0135123,38.8073147 38.8199261,50 25.0013512,50 C11.194487,50 0,38.8073147 0,25.0004504 C0,11.1926853 11.194487,0 25.0013512,0 C38.8199261,0 50.0135123,11.1926853 50.0135123,25.0004504 Z" id="Path"></path>
                <path d="M25.0031529,6.25078822 C35.3661832,6.25078822 43.7618233,14.6446266 43.7618233,25.0004504 C43.7618233,35.3562742 35.3661832,43.7501126 25.0031529,43.7501126 C14.6473291,43.7501126 6.25258986,35.3562742 6.25258986,25.0004504 C6.25258986,18.9982884 9.07305648,13.6546257 13.4600486,10.2234033" id="Path" stroke-linecap="round"></path>
            </g>
        </g>
    </g>
</svg>