<?xml version="1.0" encoding="UTF-8"?>
<svg width="50px" height="44px" viewBox="0 0 50 44" version="1.1" xmlns="http://www.w3.org/2000/svg" xmlns:xlink="http://www.w3.org/1999/xlink">
    <title>terraria-icon-moneyback</title>
    <g id="Network" stroke="none" stroke-width="1" fill="none" fill-rule="evenodd">
        <g id="Desktop-HD" transform="translate(-1461.000000, -2127.000000)">
            <g id="Group-8" transform="translate(1287.000000, 2028.000000)">
                <g id="terraria-icon-moneyback" transform="translate(175.000000, 100.000000)">
                    <g id="Group" transform="translate(20.142470, 10.910562)" stroke="#3781C3" stroke-linecap="round" stroke-width="2.5">
                        <path d="M0.0158363576,13.5125443 C0.0158363576,15.4907119 1.74062227,17.0922497 3.8647598,17.0922497 C5.99302856,17.0922497 7.71643739,15.4907119 7.71643739,13.5125443 C7.71643739,11.5357537 5.66115359,10.6709509 3.85718589,9.7551963 C2.05390673,8.84081879 0,7.97463888 0,5.99784832 C0,4.01968069 1.72134322,2.41814296 3.84961198,2.41814296 C5.97650367,2.41814296 7.69922396,4.01968069 7.69922396,5.99784832" id="Path"></path>
                        <line x1="3.84892344" y1="2.40024099" x2="3.84892344" y2="2.44617584e-15" id="Path"></line>
                        <line x1="3.84892344" y1="19.5117697" x2="3.84892344" y2="17.1115287" id="Path"></line>
                    </g>
                    <g id="Group" stroke="#060000" stroke-linejoin="round" stroke-width="2">
                        <g transform="translate(0.000000, 0.000000)" id="Path">
                            <path d="M13.3197538,2.97792377 C7.33911896,6.60238406 3.34284854,13.1765381 3.34284854,20.6767748 L1.22308792e-15,20.6767748 L6.07014474,30.0539641 L12.1471748,20.6767748 L8.67901252,20.6767748 C8.67901252,12.21534 15.5402866,5.33685252 24.0017213,5.33685252 C29.1967352,5.33685252 33.7879018,7.92299858 36.5578873,11.8779568"></path>
                            <path d="M25.3168276,0.0420007746 C24.8809835,0.0151478203 24.4423852,-2.44617584e-15 24.0017213,-2.44617584e-15 C20.9811083,-2.44617584e-15 18.1126619,0.649290663 15.5265159,1.8170499"></path>
                            <path d="M33.8484931,2.49319352 C32.0452139,1.5140935 30.0787515,0.794572031 28.0014345,0.386957956"></path>
                            <path d="M39.3258072,6.80481402 C38.287493,5.65908797 37.1245535,4.62903619 35.8548908,3.73875748"></path>
                        </g>
                        <g transform="translate(8.674881, 11.278929)" id="Path">
                            <path d="M26.0060534,27.0760403 C31.9853112,23.45158 35.9829587,16.877426 35.9829587,9.37718933 L39.3251187,9.37718933 L33.256351,0 L27.1793209,9.37718933 L30.6474833,9.37718933 C30.6474833,17.8386241 23.7848321,24.7171116 15.3247744,24.7171116 C10.1297606,24.7171116 5.53859395,22.1309655 2.76723136,18.1760073"></path>
                            <path d="M14.0089797,30.0119633 C14.4434467,30.0388163 14.882045,30.0539641 15.3240859,30.0539641 C18.3433219,30.0539641 21.2131453,29.4046734 23.7992914,28.2382913"></path>
                            <path d="M5.47593706,27.5607706 C7.28059329,28.5398706 9.24705579,29.2593921 11.3243728,29.6670062"></path>
                            <path d="M2.44617584e-15,23.247773 C1.03693716,24.3948761 2.20125371,25.4249279 3.4695394,26.3152066"></path>
                        </g>
                    </g>
                </g>
            </g>
        </g>
    </g>
</svg>