<?xml version="1.0" encoding="UTF-8"?>
<svg width="674px" height="395px" viewBox="0 0 674 395" version="1.1" xmlns="http://www.w3.org/2000/svg" xmlns:xlink="http://www.w3.org/1999/xlink">
    <title>panel-preview-bg</title>
    <g id="Panel-Page-v1.0" stroke="none" stroke-width="1" fill="none" fill-rule="evenodd" opacity="0.0799999982">
        <g id="Desktop-HD" transform="translate(-906, -726)" fill="#4B525C">
            <g id="Group-16" transform="translate(340, 726.9829)">
                <g id="panel-preview-bg" transform="translate(566, 0)">
                    <path d="M41.0683594,0 L169.841797,0.0171168521 L0,170.333523 C0.0430851777,113.060841 0.0704442656,76.6926876 0.0820772636,61.2290633 L0.0829979879,60.005154 C0.0834406439,59.416736 0.0838567404,58.8636231 0.0842462777,58.3458153 L0.0849899396,57.3572731 C0.0852327044,57.0345684 0.0854629874,56.7284556 0.0856807886,56.4389347 L0.0847327226,56.4505857 C0.0287824557,55.9805617 2.97028081e-17,55.5022005 0,55.0171169 L0,12.0171169 C-8.11624501e-16,5.38969985 5.372583,0.0171168521 12,0.0171168521 L41.055,0.017 L41.0683594,0 Z" id="panel-top-bg"></path>
                    <path d="M545.068359,223 L673.841797,223.017117 L504,393.333523 C504.043085,336.060841 504.070444,299.692688 504.082077,284.229063 L504.082998,283.005154 C504.083441,282.416736 504.083857,281.863623 504.084246,281.345815 L504.08499,280.357273 C504.085233,280.034568 504.085463,279.728456 504.085681,279.438935 L504.084733,279.450586 C504.028782,278.980562 504,278.502201 504,278.017117 L504,235.017117 C504,228.3897 509.372583,223.017117 516,223.017117 L545.055,223.017 L545.068359,223 Z" id="panel-bottom-bg" transform="translate(588.9209, 308.1668) scale(-1, -1) translate(-588.9209, -308.1668)"></path>
                </g>
            </g>
        </g>
    </g>
</svg>