<?xml version="1.0" encoding="UTF-8"?>
<svg width="55px" height="55px" viewBox="0 0 55 55" version="1.1" xmlns="http://www.w3.org/2000/svg" xmlns:xlink="http://www.w3.org/1999/xlink">
    <title>prestashop</title>
    <g id="Game-Images" stroke="none" stroke-width="1" fill="none" fill-rule="evenodd">
        <g id="gamebg-smalland-1920" transform="translate(-421, -951)">
            <g id="Group" transform="translate(421, 951)">
                <path d="M17.8145806,42.1446704 C18.2539947,41.9435462 18.6934088,41.77899 19.1511318,41.5961497 C19.6637817,41.4133096 20.1764313,41.2304693 20.6890812,41.0659131 C21.3298934,40.8647889 21.9890146,40.7002327 22.6481358,40.5539606 C23.545273,40.3711203 24.4424101,40.2248481 25.3395472,40.133428 C24.8268974,41.724138 24.2776297,43.3148478 23.6551265,44.8872737 C23.6734355,45.1981021 23.6917443,45.4906464 23.7100533,45.8014748 C24.936751,45.5637825 26.2000666,45.4357944 27.5,45.4357944 C28.7999334,45.4357944 30.063249,45.5637825 31.2899467,45.8014748 C31.2899467,45.4906464 31.3082557,45.1798181 31.3448735,44.8872737 C30.7406791,43.3148478 30.1731026,41.724138 29.6604528,40.133428 C30.5575899,40.2248481 31.473036,40.3528362 32.3518642,40.5539606 C33.0109854,40.7002327 33.6517976,40.8647889 34.3109188,41.0659131 C34.8235687,41.2304693 35.3362183,41.3950255 35.8488682,41.5961497 C36.3065912,41.7607059 36.7460053,41.9435462 37.1854194,42.1446704 C40.2979361,43.534256 43.1358189,45.5820666 45.461052,48.2515337 C51.3015979,43.2234277 55,35.7818307 55,27.4626009 C55,12.3051467 42.6964048,0 27.5,0 C12.3219041,0 0,12.2868627 0,27.4626009 C0,35.7635468 3.69840212,43.2051438 9.53894807,48.2515337 C11.8641811,45.5820666 14.7020639,43.534256 17.8145806,42.1446704 Z" id="XMLID_125_" fill="#FFFFFF" fill-rule="nonzero"></path>
                <path d="M19.7182996,47.2392638 C20.9761499,46.6612044 22.3238465,46.2136745 23.7074817,45.9339684 C23.7074817,45.616968 23.6895125,45.2999676 23.653574,45.0016145 C24.2465604,43.3979657 24.8036083,41.7756701 25.3067485,40.1533743 C24.4262533,40.2466096 23.5277888,40.3771392 22.665263,40.582257 C22.0183686,40.7314337 21.3894435,40.8992573 20.7425491,41.1043751 C20.2394091,41.2721989 19.7362689,41.4400226 19.2331287,41.6451405 L21.1917814,42.1486115 L19.7182996,47.2392638 Z" id="XMLID_124_" fill="#525353" fill-rule="nonzero"></path>
                <path d="M14.9347141,50.1495399 C14.9907025,49.6352414 15.0093653,49.1209429 15.0093653,48.5882767 C15.0093653,48.2760242 15.2706445,48.0188749 15.5879119,48.0188749 L16.0918074,48.0188749 L17.8834356,42.1779141 C14.7107606,43.573867 11.8180276,45.6310608 9.44785277,48.3127597 C10.7542483,49.4331956 12.1726207,50.4250569 13.6656442,51.2883436 C14.0948884,50.9026198 14.5054699,50.5168959 14.9347141,50.1495399 Z" id="XMLID_123_" fill="#525353" fill-rule="nonzero"></path>
                <path d="M37.1165644,42.1779141 L38.8403412,48.0188749 L39.3251533,48.0188749 C39.6304055,48.0188749 39.8817896,48.2760242 39.8817896,48.5882767 C39.8817896,49.1209429 39.9177017,49.6352414 39.9536136,50.1495399 C40.3666019,50.5168959 40.77959,50.8842519 41.1566662,51.2883436 C42.6111029,50.4250569 43.9578033,49.4331956 45.214724,48.3127597 C42.952267,45.6310608 40.1690857,43.573867 37.1165644,42.1779141 Z" id="XMLID_122_" fill="#525353" fill-rule="nonzero"></path>
                <path d="M33.8082186,42.1486115 L35.7668712,41.6451405 C35.2637311,41.4586697 34.7605909,41.2721989 34.2574509,41.1043751 C33.6285257,40.8992573 32.9816314,40.7314337 32.334737,40.582257 C31.4542418,40.3957862 30.5737467,40.2466096 29.6932515,40.1533743 C30.1963917,41.7756701 30.7354702,43.3979657 31.346426,45.0016145 C31.3284568,45.3186149 31.3104875,45.616968 31.2925183,45.9339684 C32.6941228,46.2136745 34.0238501,46.6612044 35.2817004,47.2392638 L33.8082186,42.1486115 Z" id="XMLID_121_" fill="#525353" fill-rule="nonzero"></path>
                <path d="M27.5,47.9141104 L31.3803681,47.9141104 C31.3071536,47.2367828 31.2705463,46.5594551 31.28885,45.8994948 C30.0625072,45.6737189 28.7995572,45.5521473 27.5,45.5521473 C26.2004428,45.5521473 24.9374928,45.6737189 23.71115,45.8994948 C23.7294537,46.5768225 23.6928464,47.2367828 23.6196319,47.9141104 L27.5,47.9141104 Z" id="XMLID_120_" fill="#000000" fill-rule="nonzero"></path>
                <path d="M13.4969325,51.4130435 C13.839392,51.5964257 14.2019962,51.7798079 14.5646003,51.9631901 C14.6854684,51.4130435 14.7861917,50.8445585 14.8466258,50.2760735 C14.3832982,50.6428381 13.9401154,51.0279407 13.4969325,51.4130435 Z" id="XMLID_119_" fill="#000000" fill-rule="nonzero"></path>
                <path d="M19.2331287,47.9141104 L23.5224775,47.9141104 C23.5964319,47.2334462 23.6334089,46.5527819 23.6149203,45.8895705 C22.1728117,46.1513645 20.8046575,46.5702349 19.5104575,47.1112756 L19.2331287,47.9141104 Z" id="XMLID_118_" fill="#000000" fill-rule="nonzero"></path>
                <path d="M40.1533742,50.2760735 C40.2138082,50.8445585 40.3145316,51.4130435 40.4353996,51.9631901 C40.7980038,51.7981461 41.1404634,51.6147639 41.5030675,51.4130435 C41.0598846,51.0279407 40.6167018,50.6428381 40.1533742,50.2760735 Z" id="XMLID_117_" fill="#000000" fill-rule="nonzero"></path>
                <path d="M35.7668712,47.9141104 L35.5069356,47.1112756 C34.2072576,46.5702349 32.8147454,46.1513645 31.3850996,45.8895705 C31.3665327,46.5702349 31.4036664,47.2334462 31.4779338,47.9141104 L35.7668712,47.9141104 L35.7668712,47.9141104 Z" id="XMLID_116_" fill="#000000" fill-rule="nonzero"></path>
                <path d="M19.4916581,47.9141104 L19.7465464,47.0666737 L21.2576688,42.000476 L19.2731827,41.5030675 C18.8180254,41.6688704 18.3810742,41.8530956 17.9441233,42.0557436 L16.196319,47.9141104 L18.0715672,47.9141104 L19.4916581,47.9141104 L19.4916581,47.9141104 Z" id="XMLID_115_" fill="#AA9678" fill-rule="nonzero"></path>
                <path d="M35.2534536,47.0666737 L35.5083419,47.9141104 L36.9284327,47.9141104 L38.803681,47.9141104 L37.0558767,42.0557436 C36.6189257,41.8530956 36.1819746,41.6872928 35.7268173,41.5030675 L33.7423312,42.000476 L35.2534536,47.0666737 Z" id="XMLID_114_" fill="#AA9678" fill-rule="nonzero"></path>
                <path d="M15.9769939,49.1288344 C16.0107362,49.0950921 16.0444785,49.0950921 16.0782209,49.0613497 L15.9769939,49.0613497 C15.9769939,49.0613497 15.9769939,49.0950921 15.9769939,49.1288344 Z" id="XMLID_113_" fill="#C0B098" fill-rule="nonzero"></path>
                <path d="M27.3312884,49.2638037 L23.278541,49.2638037 L18.8590291,49.2638037 L15.9982662,49.2638037 C15.979928,49.2817854 15.9615898,49.2817854 15.9432515,49.2997673 C15.9065751,50.360694 15.7598693,51.3856568 15.5214724,52.392638 C19.097426,54.064946 23.0951586,55 27.3312884,55 L27.3312884,49.2638037 L27.3312884,49.2638037 Z" id="XMLID_112_" fill="#C0B098" fill-rule="nonzero"></path>
                <path d="M39.0230062,49.0613497 L38.9217792,49.0613497 C38.9555215,49.0950921 38.9892638,49.0950921 39.0230062,49.1288344 C39.0230062,49.0950921 39.0230062,49.0613497 39.0230062,49.0613497 Z" id="XMLID_111_" fill="#AA9678" fill-rule="nonzero"></path>
                <path d="M38.6826486,49.2638037 L35.8218859,49.2638037 L31.3840357,49.2638037 L27.3312884,49.2638037 L27.3312884,49.2638037 L27.3312884,55 C31.5490797,55 35.5651507,54.064946 39.1411042,52.392638 C38.9027074,51.3856568 38.7560016,50.3427121 38.7193252,49.2997673 C38.7193252,49.2817854 38.700987,49.2638037 38.6826486,49.2638037 Z" id="XMLID_110_" fill="#AA9678" fill-rule="nonzero"></path>
                <rect id="XMLID_109_" fill="#786453" fill-rule="nonzero" x="27.3144171" y="48.5889571" width="1.71875" height="1.71875"></rect>
                <path d="M39.915759,50.0610907 C39.8609246,49.5428541 39.8426466,49.0246175 39.8426466,48.4878725 C39.8426466,48.1732288 39.5867532,47.9141104 39.2760256,47.9141104 L38.782517,47.9141104 L36.8633165,47.9141104 L35.4376249,47.9141104 L31.1971062,47.9141104 L27.3221492,47.9141104 L23.4471925,47.9141104 L19.2066737,47.9141104 L17.780982,47.9141104 L15.8983379,47.9141104 L15.4048293,47.9141104 C15.0941016,47.9141104 14.8382082,48.1732288 14.8382082,48.4878725 C14.8382082,49.0246175 14.801652,49.5428541 14.7650958,50.0610907 C14.7102615,50.6348528 14.618871,51.2086149 14.5092025,51.7638684 C14.8564863,51.9489529 15.2037702,52.1340375 15.551054,52.3006136 C15.7886693,51.2641401 15.9348941,50.19065 15.9714503,49.1171598 C15.9714503,49.0986514 15.9714503,49.0986514 15.9714503,49.0801429 L16.0262846,49.0801429 L18.8776679,49.0801429 L23.2826895,49.0801429 L27.3221492,49.0801429 L27.3221492,49.0801429 L31.3798872,49.0801429 L35.7849088,49.0801429 L38.6362921,49.0801429 L38.6911264,49.0801429 C38.6911264,49.0986514 38.6911264,49.0986514 38.6911264,49.1171598 C38.7276826,50.2091585 38.8739074,51.2641401 39.1115227,52.3006136 C39.4588066,52.1340375 39.8060903,51.9489529 40.1533742,51.7638684 C40.0437056,51.2086149 39.9705933,50.6348528 39.915759,50.0610907 Z" id="XMLID_108_" fill="#8B7460" fill-rule="nonzero"></path>
                <g transform="translate(8.4356, 8.4356)">
                    <path d="M28.417638,15.0393017 L28.417638,15.0393017 C28.417638,15.0393017 28.417638,15.0393017 28.417638,15.0393017 C28.7644172,16.0260845 29.1476995,17.0311412 29.3484663,18.0544715 C29.3484663,18.1275665 29.3302147,18.2006615 29.3302147,18.2737565 C29.3119631,18.3833992 29.2937117,18.474768 29.2754602,18.5661367 C29.3119631,18.4382205 29.3302147,18.2737565 29.3667179,18.091019 C29.1659509,17.0494149 28.7644172,16.0443583 28.417638,15.0393017 C28.417638,15.0393017 28.417638,15.0393017 28.417638,15.0393017 C28.417638,15.0393017 28.417638,15.0393017 28.417638,15.0393017 L28.417638,15.0393017 Z" id="XMLID_107_"></path>
                    <path d="M36.3935583,21.252379 C36.3753067,21.252379 36.3570553,21.2706527 36.3388037,21.2706527 C36.3570553,21.252379 36.3753067,21.252379 36.3935583,21.252379 Z" id="XMLID_106_"></path>
                    <path d="M36.5760737,21.1061888 C36.5578221,21.1244626 36.5395705,21.1427365 36.521319,21.1610102 C36.5395705,21.1427365 36.5578221,21.1244626 36.5760737,21.1061888 Z" id="XMLID_105_"></path>
                    <path d="M27.5963191,14.3266252 C26.9575154,13.7966862 26.3004601,13.3032948 25.6069019,12.8829984 L25.6069019,12.8829984 C26.3004601,13.3032948 26.9575154,13.7784125 27.5963191,14.3266252 Z" id="XMLID_104_"></path>
                    <path d="M33.9478528,20.8869038 C33.9478528,20.9051776 33.9478528,20.9051776 33.9478528,20.8869038 C33.9478528,20.9051776 33.9478528,20.9051776 33.9478528,20.8869038 Z" id="XMLID_103_"></path>
                    <path d="M35.0976993,22.3488043 C35.1159509,22.3670781 35.1342025,22.4036256 35.152454,22.4218993 C35.152454,22.3853518 35.1159509,22.3670781 35.0976993,22.3488043 Z" id="XMLID_102_"></path>
                    <path d="M29.2572086,18.620958 C29.238957,18.7123267 29.2207056,18.7854219 29.202454,18.8402431 C29.2207056,18.7671481 29.238957,18.694053 29.2572086,18.620958 Z" id="XMLID_101_"></path>
                    <path d="M26.5742331,28.6349766 C26.1544479,29.3293794 25.8806749,30.0055083 25.7346626,30.626816 C25.8806749,29.9872346 26.1544479,29.3293794 26.5742331,28.6349766 C26.7202454,28.3974178 26.8480061,28.1781326 26.9757668,27.9588476 C26.8480061,28.1598589 26.7202454,28.3974178 26.5742331,28.6349766 C26.5742331,28.6167028 26.5742331,28.6167028 26.5742331,28.6349766 Z" id="XMLID_100_"></path>
                    <path d="M28.417638,15.0393017 C28.4358896,14.9844804 28.4723926,14.9479329 28.4906442,14.8931116 L28.4906442,14.8931116 C28.454141,14.9479329 28.4358896,14.9844804 28.417638,15.0393017 C28.5819019,15.1854917 28.7461656,15.3316818 28.9104295,15.4778719 C28.7461656,15.3316818 28.5819019,15.1854917 28.417638,15.0393017 Z" id="XMLID_99_"></path>
                    <path d="M24.6213191,12.316512 C24.5848159,12.2982382 24.5483129,12.2799645 24.5300614,12.2616907 C24.5665643,12.2799645 24.5848159,12.2982382 24.6213191,12.316512 Z" id="XMLID_96_"></path>
                    <path d="M24.7673314,12.389607 C24.7308282,12.3713332 24.6943252,12.3347857 24.6578221,12.316512 C24.6760736,12.3530595 24.7308282,12.3713332 24.7673314,12.389607 Z" id="XMLID_95_"></path>
                    <path d="M25.6616565,14.6007315 C25.6616565,14.6738266 25.6616565,14.7286478 25.6616565,14.8017429 C25.6616565,14.7286478 25.6616565,14.6738266 25.6616565,14.6007315 Z" id="XMLID_94_"></path>
                    <path d="M36.2292944,23.7924311 C36.2657976,23.8289786 36.3023005,23.8837998 36.3388037,23.9203473 C36.3023005,23.8837998 36.2657976,23.8289786 36.2292944,23.7924311 Z" id="XMLID_92_"></path>
                    <path d="M25.6616565,15.4595981 C25.6616565,15.7519782 25.6434049,16.0443583 25.6251533,16.3184647 C25.6434049,16.0443583 25.6616565,15.7519782 25.6616565,15.4595981 Z" id="XMLID_91_"></path>
                    <path d="M25.5521472,12.8464509 C25.4608896,12.7916296 25.1871166,12.6454396 24.9498466,12.4992495 C25.1871166,12.6271658 25.442638,12.7733559 25.5521472,12.8464509 Z" id="XMLID_89_"></path>
                    <path d="M24.931595,12.4809758 C24.8768405,12.4444283 24.8220859,12.4078807 24.7673314,12.389607 C24.8220859,12.4261545 24.8768405,12.462702 24.931595,12.4809758 Z" id="XMLID_88_"></path>
                    <path d="M37.1418713,19.5346458 C37.1418713,19.516372 37.1418713,19.4980983 37.1418713,19.4798245 C37.1418713,19.4798245 37.1418713,19.4798245 37.1418713,19.4798245 C37.1418713,19.4798245 37.1418713,19.4798245 37.1418713,19.4798245 C37.1418713,19.4615508 37.1418713,19.443277 37.1418713,19.4250033 C37.1418713,19.443277 37.1418713,19.4615508 37.1418713,19.4980983 C37.1418713,19.4798245 37.1418713,19.516372 37.1418713,19.5346458 Z" id="XMLID_86_"></path>
                    <path d="M32.6519939,19.370182 C32.6702454,19.4067295 32.7067484,19.4250033 32.725,19.4615508 C32.725,19.4615508 32.725,19.4615508 32.725,19.4615508 L32.725,19.4615508 C32.725,19.443277 32.688497,19.4067295 32.6519939,19.370182 L32.6519939,19.370182 Z" id="XMLID_85_"></path>
                    <path d="M28.9104295,15.4778719 C29.2754602,15.8067995 29.6404909,16.1540008 29.98727,16.5012022 C29.6222393,16.1540008 29.2754602,15.8067995 28.9104295,15.4778719 Z" id="XMLID_84_"></path>
                    <path d="M36.0467791,17.5610801 C36.1197853,17.5610801 36.1745398,17.5793539 36.247546,17.5976276 C36.1745398,17.5793539 36.1015337,17.5610801 36.0467791,17.5610801 Z" id="XMLID_83_"></path>
                    <path d="M34.9881902,18.9316119 C34.9881902,18.9681594 34.9699386,18.9864331 34.9699386,19.0229806 C34.9699386,18.9864331 34.9881902,18.9681594 34.9881902,18.9316119 Z" id="XMLID_82_"></path>
                    <path d="M36.3023005,17.6159014 C36.3388037,17.6341751 36.3935583,17.6524489 36.4300614,17.6889964 C36.3935583,17.6707226 36.3388037,17.6341751 36.3023005,17.6159014 Z" id="XMLID_81_"></path>
                    <path d="M36.7220858,17.9813765 C36.7403374,17.9996503 36.758589,18.017924 36.758589,18.0361978 C36.7403374,18.017924 36.7403374,17.9996503 36.7220858,17.9813765 Z" id="XMLID_80_"></path>
                    <path d="M37.1236197,19.0595281 C37.1236197,19.0595281 37.1236197,19.0595281 37.1236197,19.0595281 C37.1236197,19.0412544 37.1236197,19.0412544 37.1236197,19.0229806 C37.1236197,19.0412544 37.1236197,19.0595281 37.1236197,19.0595281 C37.1236197,19.0595281 37.1236197,19.0595281 37.1236197,19.0595281 Z" id="XMLID_79_"></path>
                    <path d="M37.1236197,19.8635735 C37.1236197,19.8635735 37.1236197,19.8635735 37.1236197,19.8635735 C37.1236197,19.8452997 37.1236197,19.8452997 37.1236197,19.8635735 C37.1236197,19.8635735 37.1236197,19.8818472 37.1236197,19.8818472 C37.1236197,19.8818472 37.1236197,19.8818472 37.1236197,19.8635735 Z" id="XMLID_78_"></path>
                    <path d="M35.3167177,18.0361978 C35.3349693,18.017924 35.3532209,17.9996503 35.3532209,17.9813765 C35.3532209,17.9996503 35.3349693,18.017924 35.3167177,18.0361978 Z" id="XMLID_77_"></path>
                    <path d="M35.8460123,17.5976276 C35.9007669,17.5793539 35.973773,17.5610801 36.0467791,17.5610801 C35.973773,17.5610801 35.9007669,17.5793539 35.8460123,17.5976276 Z" id="XMLID_76_"></path>
                    <path d="M30.9728528,17.5245326 C30.8085889,17.3417951 30.6260737,17.1773312 30.4618098,16.9945937 C30.6443251,17.1590575 30.8085889,17.3417951 30.9728528,17.5245326 Z" id="XMLID_75_"></path>
                    <path d="M36.0467791,11.5672879 L36.0467791,11.5672879 C36.0467791,11.5672879 36.0467791,11.5672879 36.0467791,11.5672879 L36.0467791,14.1073401 L35.0794479,18.5844105 C35.0794479,18.6026842 35.0794479,18.6026842 35.0794479,18.620958 C35.0794479,18.620958 35.0794479,18.6026842 35.0794479,18.6026842 L35.0794479,18.6026842 L35.0794479,18.6026842 L36.0467791,14.1256139 L36.0467791,11.5672879 L36.0467791,11.5672879 L36.0467791,11.5672879 L36.0467791,11.5672879 Z" id="XMLID_74_"></path>
                    <path d="M31.8854295,18.4930417 C31.7941718,18.401673 31.702914,18.2920305 31.6116565,18.2006615 C31.7211656,18.3103042 31.7941718,18.401673 31.8854295,18.4930417 Z" id="XMLID_73_"></path>
                    <path d="M37.0141104,18.6026842 C37.032362,18.6392317 37.032362,18.6757792 37.0506135,18.7123267 C37.0506135,18.7123267 37.0506135,18.7123267 37.0506135,18.7123267 C37.0506135,18.6575055 37.032362,18.6392317 37.0141104,18.6026842 L37.0141104,18.6026842 L37.0141104,18.6026842 Z" id="XMLID_72_"></path>
                    <path d="M34.9334356,19.443277 L34.9334356,19.443277 C34.9334356,19.4250033 34.9334356,19.4067295 34.9334356,19.3884558 C34.951687,19.4250033 34.9334356,19.4250033 34.9334356,19.443277 Z" id="XMLID_71_"></path>
                    <path d="M35.6634969,17.6889964 C35.7,17.6524489 35.7547546,17.6341751 35.7912577,17.6159014 C35.736503,17.6341751 35.7,17.6707226 35.6634969,17.6889964 Z" id="XMLID_70_"></path>
                    <path d="M35.46273,17.8534603 C35.4992332,17.7986389 35.5539877,17.7620914 35.6087423,17.7255439 C35.5539877,17.7620914 35.4992332,17.8169128 35.46273,17.8534603 Z" id="XMLID_69_"></path>
                    <path d="M37.0506135,20.2107749 C37.0506135,20.2107749 37.0506135,20.2107749 37.0506135,20.2107749 C37.032362,20.3021436 36.995859,20.3935124 36.9593558,20.4848811 C36.995859,20.4117861 37.032362,20.3204174 37.0506135,20.2107749 L37.0506135,20.2107749 L37.0506135,20.2107749 Z" id="XMLID_68_"></path>
                    <path d="M3.65030676,18.6026842 C3.68680981,18.547863 3.74156442,18.474768 3.77806748,18.4199467 C3.74156442,18.4930417 3.68680981,18.547863 3.65030676,18.6026842 Z" id="XMLID_67_"></path>
                    <path d="M36.484816,17.7255439 C36.5395705,17.7620914 36.5760737,17.8169128 36.6308283,17.8534603 C36.5760737,17.8169128 36.5395705,17.7620914 36.484816,17.7255439 Z" id="XMLID_66_"></path>
                    <path d="M4.43512271,17.4697114 C4.45337423,17.4514376 4.47162576,17.4148901 4.4898773,17.3966164 C4.47162576,17.4148901 4.45337423,17.4331639 4.43512271,17.4697114 Z" id="XMLID_65_"></path>
                    <path d="M23.1064417,19.443277 L23.1064417,19.443277 C23.1064417,19.443277 23.1064417,19.443277 23.1064417,19.443277 L23.1064417,19.443277 L23.1064417,19.443277 L23.1064417,19.4250033 C23.1064417,19.4250033 23.1064417,19.4250033 23.1064417,19.443277 Z" id="XMLID_64_"></path>
                    <path d="M2.46395705,20.7955351 C2.40920245,20.8869038 2.37269938,20.9965463 2.31794478,21.0879151 C2.37269938,20.9965463 2.40920245,20.9051776 2.46395705,20.7955351 Z" id="XMLID_63_"></path>
                    <path d="M1.86165645,22.2026143 C1.86165645,22.2208881 1.8434049,22.2391618 1.8434049,22.2574356 C1.8434049,22.2391618 1.86165645,22.2208881 1.86165645,22.2026143 Z" id="XMLID_62_"></path>
                    <path d="M6.20552147,15.3865031 C6.26027607,15.3316818 6.31503068,15.2768605 6.36978528,15.2220393 C6.31503068,15.2768605 6.26027607,15.3316818 6.20552147,15.3865031 Z" id="XMLID_59_"></path>
                    <path d="M5.23819019,16.4463809 C5.29294478,16.3732859 5.34769938,16.3184647 5.40245399,16.2453696 C5.34769938,16.3184647 5.29294478,16.3732859 5.23819019,16.4463809 Z" id="XMLID_58_"></path>
                    <path d="M37.0141104,18.6026842 L36.0467791,14.1256139 L37.0141104,18.6026842 Z" id="XMLID_57_"></path>
                    <path d="M20.003681,21.9833292 C19.9854294,21.9833292 19.967178,21.9650554 19.9489264,21.9650554 C19.967178,21.9833292 19.9854294,21.9833292 20.003681,21.9833292 Z" id="XMLID_56_"></path>
                    <path d="M20.2592024,22.0198767 C20.240951,22.0198767 20.2226994,22.0198767 20.2044478,22.0016029 C20.2226994,22.0198767 20.240951,22.0198767 20.2592024,22.0198767 Z" id="XMLID_55_"></path>
                    <path d="M3.06625767,19.6077408 C3.01150307,19.7173835 2.93849693,19.827026 2.88374233,19.9549422 C2.93849693,19.8452997 2.99325154,19.7356572 3.06625767,19.6077408 Z" id="XMLID_54_"></path>
                    <path d="M19.7481596,21.9102342 C19.729908,21.9102342 19.729908,21.9102342 19.7116564,21.8919604 C19.729908,21.9102342 19.729908,21.9102342 19.7481596,21.9102342 Z" id="XMLID_52_"></path>
                    <path d="M18.0142638,18.8585169 C18.0142638,18.8767906 17.9960122,18.8950644 17.9960122,18.9133381 C18.0142638,18.8950644 18.0142638,18.8767906 18.0142638,18.8585169 Z" id="XMLID_49_"></path>
                    <path d="M18.0872699,18.620958 C18.0872699,18.6392317 18.0690183,18.6392317 18.0690183,18.6575055 C18.0690183,18.6575055 18.0872699,18.6392317 18.0872699,18.620958 Z" id="XMLID_46_"></path>
                    <path d="M18.1785276,18.401673 C18.1785276,18.401673 18.1785276,18.4199467 18.1602761,18.4199467 C18.1602761,18.4199467 18.1785276,18.401673 18.1785276,18.401673 Z" id="XMLID_45_"></path>
                    <path d="M21.0440184,16.9214986 C21.025767,16.9214986 21.025767,16.9214986 21.0440184,16.9214986 C21.025767,16.9214986 21.025767,16.9214986 21.0440184,16.9214986 Z" id="XMLID_44_"></path>
                    <path d="M20.040184,16.9214986 C20.040184,16.9214986 20.0219326,16.9214986 20.040184,16.9214986 C20.0219326,16.9214986 20.040184,16.9214986 20.040184,16.9214986 Z" id="XMLID_41_"></path>
                    <path d="M20.551227,11.1287178 C20.551227,11.0921703 20.551227,11.0556228 20.551227,11.0190752 C20.551227,11.0556228 20.551227,11.0921703 20.551227,11.1287178 Z" id="XMLID_39_"></path>
                    <path d="M20.551227,10.964254 C20.551227,10.9459802 20.551227,10.9094327 20.551227,10.8911589 C20.551227,10.9094327 20.551227,10.9277065 20.551227,10.964254 Z" id="XMLID_38_"></path>
                    <path d="M20.551227,10.8546114 C20.551227,10.8363377 20.551227,10.8363377 20.551227,10.8546114 C20.551227,10.8363377 20.551227,10.8363377 20.551227,10.8546114 Z" id="XMLID_37_"></path>
                    <path d="M20.551227,11.4759192 L20.551227,11.4393716 L20.551227,11.3297291 C20.551227,11.2931816 20.551227,11.2566341 20.551227,11.2200866 C20.551227,11.2931816 20.551227,11.3845504 20.551227,11.4759192 Z" id="XMLID_36_"></path>
                    <path d="M36.795092,20.8320826 C36.758589,20.8686301 36.7403374,20.9234513 36.7038344,20.9599988 C36.7403374,20.9234513 36.7768405,20.8686301 36.795092,20.8320826 Z" id="XMLID_35_"></path>
                    <path d="M17.9777608,19.1326231 C17.9777608,19.1508969 17.9777608,19.1691706 17.9595092,19.1874444 C17.9595092,19.1691706 17.9595092,19.1508969 17.9777608,19.1326231 Z" id="XMLID_34_"></path>
                    <path d="M36.9411042,20.5579761 C36.9228528,20.6127974 36.8863497,20.6858926 36.8498467,20.7407138 C36.8863497,20.6858926 36.9046013,20.6310711 36.9411042,20.5579761 Z" id="XMLID_32_"></path>
                    <path d="M27.0305215,35.7617416 C26.9392638,35.6703729 26.8662577,35.5607304 26.775,35.4510879 C26.8662577,35.5790041 26.9575154,35.6703729 27.0305215,35.7617416 L27.0305215,35.7617416 Z" id="XMLID_31_" fill="#525353" fill-rule="nonzero"></path>
                    <path d="M27.6693252,36.4013232 C27.6693252,36.4013232 27.6693252,36.4013232 27.6693252,36.4013232 C27.6693252,36.4013232 27.6693252,36.4013232 27.6693252,36.4013232 C27.6693252,36.4013232 27.3955521,36.1820381 27.0305215,35.7800154 L27.0305215,35.7800154 C27.3955521,36.1820381 27.6693252,36.4013232 27.6693252,36.4013232 Z" id="XMLID_30_" fill="#AA9678" fill-rule="nonzero"></path>
                    <circle id="XMLID_29_" fill="#FFFFFF" fill-rule="nonzero" transform="translate(36.0544, 11.5754) rotate(-4.5715) translate(-36.0544, -11.5754)" cx="36.0543587" cy="11.5754129" r="1.71875"></circle>
                    <path d="M37.4338956,13.1022835 L37.4338956,13.1022835 L37.4338956,13.1022835 C37.4338956,13.1022835 37.4338956,13.0840097 37.4338956,13.1022835 L37.4338956,13.1022835 C37.1966258,12.7733559 36.9593558,12.4809758 36.7220858,12.2251432 C36.7220858,12.2251432 36.7220858,12.2251432 36.7220858,12.2251432 C36.7220858,12.2251432 36.7220858,12.2251432 36.7220858,12.2251432 C36.7220858,12.2251432 36.7220858,12.2251432 36.7220858,12.2251432 L36.7220858,12.2251432 C36.6125767,12.0972269 36.5030676,11.9875843 36.3935583,11.8779418 C36.3570553,11.8413943 36.3023005,11.8048468 36.2657976,11.7682993 C36.1927914,11.6952042 36.1197853,11.640383 36.0467791,11.5855617 L36.0467791,11.5855617 L36.0467791,14.1438876 L37.0141104,18.620958 L37.0141104,18.620958 C37.032362,18.6575055 37.032362,18.694053 37.0506135,18.7306005 L37.7259202,19.4980983 L37.7259202,19.4980983 L38.43773,19.4980983 C38.43773,19.4250033 38.43773,19.370182 38.43773,19.297087 L38.43773,19.297087 C38.43773,17.1773312 38.0909509,15.1489442 37.4703988,13.2484735 L37.4703988,13.2484735 C37.4521472,13.1753785 37.4521472,13.138831 37.4338956,13.1022835 Z" id="XMLID_27_" fill="#BBBCBD" fill-rule="nonzero"></path>
                    <path d="M37.1236197,19.0412544 C37.1236197,19.0412544 37.1236197,19.0595281 37.1236197,19.0595281 C37.1236197,19.0595281 37.1236197,19.0595281 37.1236197,19.0778019 C37.1236197,19.0778019 37.1236197,19.0778019 37.1236197,19.0778019 C37.1418712,19.1874444 37.1418712,19.297087 37.1418712,19.4067295 C37.1418712,19.4250033 37.1418712,19.443277 37.1418712,19.4615508 C37.1418712,19.4615508 37.1418712,19.4615508 37.1418712,19.4615508 C37.1418712,19.4615508 37.1418712,19.4615508 37.1418712,19.4615508 C37.1418712,19.4798245 37.1418712,19.4980983 37.1418712,19.516372 C37.1418712,19.6260145 37.1418712,19.7356572 37.1236197,19.827026 C37.1236197,19.827026 37.1236197,19.827026 37.1236197,19.827026 C37.1236197,19.827026 37.1236197,19.8452997 37.1236197,19.8452997 C37.1236197,19.8452997 37.1236197,19.8635735 37.1236197,19.8635735 C37.1053681,19.973216 37.0871165,20.0828585 37.0688651,20.1925011 C37.0688651,20.1925011 37.0688651,20.1925011 37.0688651,20.1925011 L37.0688651,20.1925011 L37.0688651,20.1925011 C37.0688651,20.1925011 37.0688651,20.1925011 37.0688651,20.1925011 L37.0688651,20.1925011 L37.7441718,19.443277 L37.0688651,18.6757792 C37.0688651,18.6757792 37.0688651,18.6757792 37.0688651,18.6757792 C37.0871165,18.8036956 37.1053681,18.9133381 37.1236197,19.0412544 Z" id="XMLID_25_" fill="#676A6A" fill-rule="nonzero"></path>
                    <path d="M37.1053681,19.900121 C37.1053681,19.8818472 37.1053681,19.8818472 37.1053681,19.8635735 C37.1236197,19.753931 37.1236197,19.6442883 37.1236197,19.5529195 C37.1236197,19.5346458 37.1236197,19.4980983 37.1236197,19.4798245 C37.1236197,19.4615508 37.1236197,19.443277 37.1236197,19.4067295 C37.1236197,19.297087 37.1236197,19.1874444 37.1053681,19.0778019 C37.1053681,19.0595281 37.1053681,19.0595281 37.1053681,19.0412544 C37.0871165,18.9316119 37.0688651,18.8219694 37.0506135,18.7123267 C37.032362,18.6757792 37.032362,18.6392317 37.0141104,18.6026842 C36.9411042,18.3833992 36.8680981,18.2006615 36.758589,18.0361978 C36.7403374,18.017924 36.7220858,17.9996503 36.7220858,17.9813765 C36.6855828,17.944829 36.6673312,17.9082815 36.6308283,17.871734 C36.5943251,17.8169128 36.5395705,17.7803651 36.484816,17.7438176 C36.4665644,17.7255439 36.4483128,17.7255439 36.4300614,17.7072701 C36.3935583,17.6707226 36.3388037,17.6524489 36.3023005,17.6341751 C36.2840491,17.6341751 36.2657976,17.6159014 36.247546,17.6159014 C36.1927914,17.5976276 36.1197853,17.5793539 36.0467791,17.5793539 C35.973773,17.5793539 35.9190184,17.5976276 35.8460123,17.6159014 C35.8277607,17.6159014 35.8095091,17.6341751 35.7912577,17.6341751 C35.7547546,17.6524489 35.7,17.6707226 35.6634969,17.7072701 C35.6452455,17.7255439 35.6269939,17.7255439 35.6087423,17.7438176 C35.5539877,17.7803651 35.5174846,17.8351865 35.46273,17.871734 C35.426227,17.9082815 35.4079755,17.944829 35.3714725,17.9813765 C35.3532209,17.9996503 35.3349693,18.017924 35.3349693,18.0361978 C35.2254602,18.2006615 35.1342025,18.3833992 35.0794479,18.6026842 C35.0794479,18.6026842 35.0794479,18.620958 35.0794479,18.620958 C35.0429447,18.7123267 35.0246932,18.8219694 35.0064418,18.9316119 C35.0064418,18.9681594 34.9881902,18.9864331 34.9881902,19.0229806 C34.9699386,19.1508969 34.9699386,19.2605395 34.951687,19.3884558 C34.951687,19.4067295 34.951687,19.4250033 34.951687,19.443277 L34.951687,19.443277 C34.951687,20.4848811 35.4444786,21.3437477 36.0467791,21.3437477 C36.1562883,21.3437477 36.247546,21.3072002 36.3570553,21.2706527 C36.3753067,21.2706527 36.3935583,21.252379 36.4118098,21.252379 C36.4483128,21.2341052 36.484816,21.1975577 36.521319,21.179284 C36.5395705,21.1610102 36.5578221,21.1427365 36.5760737,21.1244626 C36.6308283,21.0879151 36.6673312,21.0330938 36.7220858,20.9782726 C36.758589,20.9417251 36.7768405,20.9051776 36.8133435,20.8503563 C36.8315951,20.8138088 36.8498467,20.7955351 36.8680981,20.7589876 C36.9046012,20.7041663 36.9228528,20.6493449 36.9593558,20.5762499 C36.9776074,20.5579761 36.9776074,20.5397024 36.995859,20.5031549 C37.032362,20.4117861 37.0506135,20.3204174 37.0871165,20.2290486 C37.0871165,20.119406 37.1053681,20.0097635 37.1053681,19.900121 Z M36.0832821,19.2057181 C35.8460123,19.2057181 35.6634969,18.8950644 35.6634969,18.4930417 C35.6634969,18.1092928 35.8460123,17.7803651 36.0832821,17.7803651 C36.3205521,17.7803651 36.5030676,18.091019 36.5030676,18.4930417 C36.5030676,18.8950644 36.3023005,19.2057181 36.0832821,19.2057181 Z" id="Shape" fill="#000000" fill-rule="nonzero"></path>
                    <circle id="XMLID_22_" fill="#FFFFFF" fill-rule="nonzero" cx="36.0832821" cy="18.4930417" r="1.71875"></circle>
                    <path d="M35.0611963,18.6026842 L35.0611963,18.6026842 C35.1342025,18.3833992 35.2072086,18.2006615 35.3167177,18.0361978 C35.3349693,18.017924 35.3532209,17.9996503 35.3532209,17.9813765 C35.3897239,17.944829 35.4079755,17.9082815 35.4444786,17.871734 C35.4809816,17.8169128 35.5357362,17.7803651 35.5904907,17.7438176 C35.6087423,17.7255439 35.6269939,17.7255439 35.6452455,17.7072701 C35.6817484,17.6707226 35.736503,17.6524489 35.7730062,17.6341751 C35.7912577,17.6341751 35.8095091,17.6159014 35.8277607,17.6159014 C35.8825153,17.5976276 35.9555214,17.5793539 36.0285276,17.5793539 C36.1015337,17.5793539 36.1562883,17.5976276 36.2292944,17.6159014 C36.247546,17.6159014 36.2657976,17.6341751 36.2840491,17.6341751 C36.3205521,17.6524489 36.3753067,17.6707226 36.4118098,17.7072701 C36.4300614,17.7255439 36.4483128,17.7255439 36.4665644,17.7438176 C36.521319,17.7803651 36.5578221,17.8351865 36.6125767,17.871734 C36.6490797,17.9082815 36.6673313,17.944829 36.7038344,17.9813765 C36.7220858,17.9996503 36.7403374,18.017924 36.7403374,18.0361978 C36.8498467,18.2006615 36.9411042,18.3833992 36.995859,18.6026842 L36.995859,18.6026842 L36.995859,18.6026842 L36.0285276,14.1256139 L35.0611963,18.6026842 L35.0611963,18.6026842 L35.0611963,18.6026842 Z" id="XMLID_21_" fill="#909393" fill-rule="nonzero"></path>
                    <path d="M23.1064417,19.4250033 C23.1064417,19.3336345 23.1064417,19.2422658 23.0881901,19.1508969 C23.0881901,19.1508969 23.0881901,19.1508969 23.0881901,19.1508969 C23.0699387,19.0595281 23.0699387,18.9864331 23.0516871,18.8950644 C23.0516871,18.8950644 23.0516871,18.8950644 23.0516871,18.8950644 C23.0334356,18.8036956 23.015184,18.7306005 22.978681,18.6575055 C22.978681,18.6575055 22.978681,18.6575055 22.978681,18.6575055 C22.9604294,18.5844105 22.9239264,18.4930417 22.8874233,18.4199467 C22.8874233,18.4199467 22.8874233,18.4199467 22.8874233,18.4199467 C22.8509203,18.3468517 22.8144171,18.2737565 22.7779142,18.2006615 L22.7779142,18.2006615 C22.6501535,17.9813765 22.5041412,17.7803651 22.3216257,17.6159014 C22.0843559,17.3966164 21.8105828,17.2138787 21.5185584,17.0859624 C21.5185584,17.0859624 21.5185584,17.0859624 21.5185584,17.0859624 C21.3725461,17.0311412 21.2082822,16.9763199 21.0622699,16.9397724 C21.0622699,16.9397724 21.0622699,16.9397724 21.0440184,16.9397724 C20.8797547,16.9032249 20.7154908,16.8849511 20.551227,16.8849511 C20.3869633,16.8849511 20.2226994,16.9032249 20.0584355,16.9397724 C20.0584355,16.9397724 20.040184,16.9397724 20.040184,16.9397724 C19.8759203,16.9763199 19.729908,17.0128674 19.5838957,17.0676887 C19.5838957,17.0676887 19.5838957,17.0676887 19.5656441,17.0676887 C19.4196319,17.1225099 19.2736196,17.1956049 19.1458589,17.2869737 C19.1458589,17.2869737 19.1458589,17.2869737 19.1458589,17.2869737 C19.0180982,17.3783426 18.8903375,17.4697114 18.7808282,17.5793539 L18.7808282,17.5793539 L18.7625768,17.5793539 C18.5800613,17.7620914 18.4157975,17.9631028 18.2880368,18.1823878 C18.2880368,18.1823878 18.2880368,18.1823878 18.2880368,18.1823878 C18.2515338,18.2554828 18.2150306,18.328578 18.1785276,18.401673 C18.1785276,18.401673 18.1785276,18.4199467 18.1602761,18.4199467 C18.1237731,18.4930417 18.1055215,18.547863 18.0872699,18.620958 C18.0872699,18.6392317 18.0690183,18.6392317 18.0690183,18.6575055 C18.0507669,18.7306005 18.0325154,18.7854219 18.0142638,18.8585169 C18.0142638,18.8767906 17.9960122,18.8950644 17.9960122,18.9133381 C17.9777608,18.9864331 17.9777608,19.0412544 17.9595092,19.1143494 C17.9595092,19.1326231 17.9595092,19.1508969 17.9412576,19.1691706 C17.9412576,19.2605395 17.9230061,19.3519083 17.9230061,19.443277 C17.9230061,19.6077408 17.9412576,19.7722047 17.9777608,19.9366685 C17.9777608,19.9366685 17.9777608,19.9366685 17.9777608,19.9549422 C18.0142638,20.119406 18.0507669,20.2655961 18.1237731,20.4300599 C18.1237731,20.4300599 18.1237731,20.4300599 18.1237731,20.4300599 C18.2515338,20.7224401 18.434049,20.9965463 18.6530675,21.2341052 C18.8355829,21.4168427 19.0363498,21.5813065 19.2553682,21.7092229 C19.2553682,21.7092229 19.2553682,21.7092229 19.2553682,21.7092229 C19.3283743,21.7457704 19.4013805,21.7823179 19.4743864,21.8188654 C19.4743864,21.8188654 19.492638,21.8188654 19.492638,21.8188654 C19.5656441,21.8554129 19.6386503,21.8736867 19.6934048,21.8919604 C19.7116564,21.8919604 19.7116564,21.8919604 19.729908,21.9102342 C19.8029141,21.9285079 19.8576687,21.9467817 19.9306748,21.9650554 C19.9489264,21.9650554 19.967178,21.9833292 19.9854294,21.9833292 C20.0584355,22.0016029 20.1131901,22.0016029 20.1861963,22.0198767 C20.2044478,22.0198767 20.2226994,22.0198767 20.240951,22.0381504 C20.3322085,22.0381504 20.4234663,22.0564242 20.514724,22.0564242 C20.8797547,22.0564242 21.2082822,21.9833292 21.5185584,21.8554129 C21.6645705,21.7823179 21.8105828,21.7092229 21.956595,21.6178542 C22.230368,21.4351165 22.467638,21.1975577 22.6501535,20.9234513 C22.741411,20.7772613 22.8144171,20.6310711 22.8874233,20.4848811 C23.015184,20.1742272 23.0881901,19.827026 23.0881901,19.4798245 C23.0881901,19.4798245 23.0881901,19.4615508 23.0881901,19.4615508 L23.0881901,19.4615508 C23.1064417,19.4250033 23.1064417,19.4250033 23.1064417,19.4250033 L23.1064417,19.4250033 Z M20.5329754,19.1143494 C20.003681,19.1143494 19.5656441,18.6757792 19.5656441,18.1458403 C19.5656441,17.6159014 20.003681,17.1773312 20.5329754,17.1773312 C21.0622699,17.1773312 21.5003068,17.6159014 21.5003068,18.1458403 C21.5003068,18.6757792 21.0622699,19.1143494 20.5329754,19.1143494 Z" id="Shape" fill="#000000" fill-rule="nonzero"></path>
                    <circle id="XMLID_18_" fill="#FFFFFF" fill-rule="nonzero" cx="20.5329754" cy="18.1458403" r="1.71875"></circle>
                    <path d="M18.7443252,17.5793539 L18.7443252,17.5793539 L18.7443252,17.5793539 L18.7443252,17.5793539 L18.7443252,17.5793539 L20.5329754,12.1155006 C20.5329754,12.1155006 20.5329754,11.786573 20.5329754,11.4759192 C20.5329754,11.3845504 20.5329754,11.2931816 20.5329754,11.2200866 C20.5329754,11.183539 20.5329754,11.1652653 20.5329754,11.1469915 C20.5329754,11.110444 20.5329754,11.0738965 20.5329754,11.037349 C20.5329754,11.0190752 20.5329754,10.9825277 20.5329754,10.964254 C20.5329754,10.9459802 20.5329754,10.9094327 20.5329754,10.8911589 C20.5329754,10.8728852 20.5329754,10.8546114 20.5329754,10.8546114 C20.5329754,10.8363377 20.5329754,10.8363377 20.5329754,10.8363377 C19.5473926,10.6353263 18.5253068,10.5256838 17.4849694,10.5256838 C17.1381902,10.5256838 16.791411,10.5439576 16.4446319,10.5622313 C16.3898773,10.5622313 16.3533742,10.5622313 16.2986196,10.5805051 C14.5099693,10.7084214 12.7578221,11.183539 11.1334356,11.9327631 C9.74631902,12.5723446 8.43220859,13.4129373 7.28236197,14.3997202 L7.28236197,14.3997202 C7.28236197,14.3997202 7.28236197,14.3997202 7.28236197,14.3997202 C6.9720859,14.6738266 6.66180981,14.9479329 6.36978528,15.240313 C6.31503068,15.2951343 6.26027607,15.3499556 6.20552147,15.4047768 C5.93174847,15.6788832 5.65797545,15.9712633 5.40245399,16.2636434 C5.34769938,16.3367384 5.29294478,16.3915597 5.23819019,16.4646547 C4.98266871,16.7753086 4.72714724,17.0859624 4.4898773,17.3966164 C4.47162576,17.4148901 4.45337423,17.4514376 4.43512271,17.4697114 C4.21610429,17.7803651 3.99708588,18.091019 3.77806748,18.4199467 C3.74156442,18.474768 3.68680981,18.547863 3.65030676,18.6026842 C3.48604295,18.8767906 3.32177914,19.1508969 3.17576688,19.4250033 L11.2611963,19.4250033 L11.2794479,19.4250033 L18.7443252,17.5793539 Z" id="XMLID_17_" fill="#BBBCBD" fill-rule="nonzero"></path>
                    <path d="M25.5886503,16.9763199 C25.6069019,16.7570348 25.6251533,16.5560235 25.6251533,16.3367384 C25.6434049,16.0443583 25.6434049,15.770252 25.6616565,15.4778719 C25.6616565,15.2585868 25.6616565,15.0393017 25.6616565,14.8017429 C25.6616565,14.7286478 25.6616565,14.6738266 25.6616565,14.6007315 C25.6616565,14.0159713 25.6251533,13.4494849 25.6069019,12.8647247 L25.6069019,12.8647247 L25.6069019,12.8647247 C25.6069019,12.8647247 25.6069019,12.8647247 25.6069019,12.8647247 C25.6069019,12.8647247 25.6069019,12.8647247 25.6069019,12.8647247 C25.6069019,12.8647247 25.5886503,12.8647247 25.5886503,12.8464509 C25.5886503,12.8464509 25.5703987,12.8464509 25.5703987,12.8281771 C25.4608896,12.7733559 25.205368,12.6271658 24.9680982,12.4809758 C24.9680982,12.4809758 24.9498466,12.4809758 24.9498466,12.4809758 C24.8950921,12.4444283 24.8403375,12.4078807 24.7855828,12.389607 C24.7855828,12.389607 24.7855828,12.389607 24.7855828,12.389607 C24.7490798,12.3713332 24.7125766,12.3347857 24.6760736,12.316512 C24.6760736,12.316512 24.6578221,12.2982382 24.6578221,12.2982382 C24.6213191,12.2799645 24.5848159,12.2616907 24.5665643,12.2434169 C24.2015338,12.0424056 23.8182515,11.8779418 23.4349692,11.713478 C22.5223926,11.3297291 21.2812884,10.9825277 20.5694785,10.8180639 L20.5694785,11.3114553 L20.5694785,11.4210979 L20.5694785,11.4576454 C20.5694785,11.786573 20.5694785,12.0972269 20.5694785,12.0972269 L22.3398773,17.5428064 L22.3398773,17.5428064 C22.5223926,17.7072701 22.6866564,17.9082815 22.7961656,18.1275665 L22.7961656,18.1275665 C22.8326687,18.2006615 22.8691717,18.2737565 22.9056749,18.3468517 C22.9056749,18.3468517 22.9056749,18.3468517 22.9056749,18.3468517 C22.9421778,18.4199467 22.978681,18.4930417 22.9969326,18.5844105 C22.9969326,18.5844105 22.9969326,18.5844105 22.9969326,18.5844105 C23.015184,18.6575055 23.0516871,18.7488742 23.0699387,18.8219694 C23.0699387,18.8219694 23.0699387,18.8219694 23.0699387,18.8219694 C23.0881901,18.9133381 23.1064417,18.9864331 23.1064417,19.0778019 C23.1064417,19.0778019 23.1064417,19.0778019 23.1064417,19.0778019 C23.1246933,19.1691706 23.1246933,19.2605395 23.1246933,19.3519083 L23.1246933,19.3519083 L23.1246933,19.370182 L25.2783742,19.370182 C25.4243865,18.5844105 25.5338957,17.7803651 25.5886503,16.9763199 C25.5886503,17.0128674 25.5886503,16.9945937 25.5886503,16.9763199 Z" id="XMLID_16_" fill="#E2DDDB" fill-rule="nonzero"></path>
                    <path d="M23.1246933,27.2096235 C23.6174847,26.7162321 24.0737729,26.2593882 24.5118098,25.8025443 C24.7673314,25.528438 25.0228528,25.2543316 25.2783742,24.9984991 C27.0852761,23.0432072 28.3993865,21.1975577 29.202454,18.8402431 C29.2207056,18.7854219 29.238957,18.7123267 29.2572086,18.620958 C29.2572086,18.6026842 29.2572086,18.6026842 29.2572086,18.5844105 C29.2754602,18.4930417 29.2937117,18.401673 29.3119631,18.2920305 C29.3119631,18.2189353 29.3302147,18.1458403 29.3302147,18.0727453 C29.1294479,17.0494149 28.7461656,16.0443583 28.3993865,15.0575754 C28.3993865,15.0575754 28.3993865,15.0575754 28.3993865,15.0758492 C28.3993865,15.0758492 28.3993865,15.0758492 28.3811349,15.0575754 C28.3081288,15.0027542 28.2533742,14.9296591 28.180368,14.8748379 C27.9796012,14.6921003 27.7788344,14.5093627 27.5598159,14.3266252 C26.9210123,13.7966862 26.263957,13.3032948 25.5703987,12.8829984 L25.5703987,12.8829984 C25.6069019,13.4677586 25.6251533,14.0342451 25.6251533,14.6190053 C25.6251533,14.6921003 25.6251533,14.7469216 25.6251533,14.8200166 C25.6251533,15.0393017 25.6251533,15.2585868 25.6251533,15.4961456 C25.6251533,15.7885257 25.6069019,16.0809058 25.5886503,16.3550122 C25.5703987,16.5742972 25.5703987,16.7753086 25.5521472,16.9945937 C25.5521472,17.0128674 25.5521472,17.0311412 25.5521472,17.0676887 C25.4791412,17.871734 25.3878835,18.6757792 25.2418712,19.4615508 L24.9863496,20.6676188 C24.4570552,22.823922 23.3802147,24.7609402 22.5041412,26.7710534 C22.2668712,27.3009923 22.0478528,27.8492051 21.8470859,28.3974178 C21.8288343,28.4522391 21.8105828,28.5070603 21.7923313,28.5618816 C22.0661043,28.2695016 22.3216257,28.0136689 22.5041412,27.8309314 C22.741411,27.5933725 22.9239264,27.3923612 23.1246933,27.2096235 Z" id="XMLID_14_" fill="#FBB040" fill-rule="nonzero"></path>
                    <path d="M18.7625768,17.5793539 L18.7625768,17.5793539 C18.8720859,17.4697114 18.9998466,17.3783426 19.1276073,17.2869737 C19.1276073,17.2869737 19.1276073,17.2869737 19.1276073,17.2869737 C19.2553682,17.1956049 19.4013805,17.1225099 19.5473926,17.0676887 C19.5473926,17.0676887 19.5473926,17.0676887 19.5656441,17.0676887 C19.7116564,17.0128674 19.8576687,16.9580461 20.0219326,16.9397724 C20.0219326,16.9397724 20.040184,16.9397724 20.040184,16.9397724 C20.2044478,16.9032249 20.3687117,16.8849511 20.5329754,16.8849511 C20.6972392,16.8849511 20.8615031,16.9032249 21.025767,16.9397724 C21.025767,16.9397724 21.025767,16.9397724 21.0440184,16.9397724 C21.2082822,16.9763199 21.3542945,17.0128674 21.5003068,17.0859624 C21.5003068,17.0859624 21.5003068,17.0859624 21.5003068,17.0859624 C21.7923313,17.2138787 22.0661043,17.3783426 22.3033742,17.6159014 L22.3033742,17.6159014 L20.5329754,12.1703219 L18.7625768,17.5793539 Z" id="XMLID_13_" fill="#909393" fill-rule="nonzero"></path>
                    <path d="M18.1420245,20.4300599 C18.0872699,20.2838699 18.0325154,20.119406 17.9960122,19.9549422 C17.9960122,19.9549422 17.9960122,19.9549422 17.9960122,19.9366685 C17.9595092,19.7722047 17.9412576,19.6077408 17.9412576,19.443277 C17.9412576,19.3519083 17.9412576,19.2605395 17.9595092,19.1691706 C17.9595092,19.1508969 17.9595092,19.1326231 17.9777608,19.1143494 C17.9777608,19.0412544 17.9960122,18.9864331 18.0142638,18.9133381 C18.0142638,18.8950644 18.0325154,18.8767906 18.0325154,18.8585169 C18.0507669,18.7854219 18.0690183,18.7306005 18.0872699,18.6575055 C18.0872699,18.6392317 18.1055215,18.6392317 18.1055215,18.620958 C18.1237731,18.547863 18.1602761,18.474768 18.1785276,18.4199467 C18.1785276,18.4199467 18.1785276,18.401673 18.1967792,18.401673 C18.2332822,18.328578 18.2697854,18.2554828 18.3062883,18.1823878 C18.3062883,18.1823878 18.3062883,18.1823878 18.3062883,18.1823878 C18.434049,17.9631028 18.5983129,17.7620914 18.7808282,17.5793539 L18.7808282,17.5793539 L11.2976994,19.4250033 L11.2794478,19.4250033 L18.6895706,21.2341052 C18.4523006,21.0148201 18.2697854,20.7407138 18.1420245,20.4300599 C18.1420245,20.4300599 18.1420245,20.4300599 18.1420245,20.4300599 Z" id="XMLID_12_" fill="#676A6A" fill-rule="nonzero"></path>
                    <path d="M34.9699386,19.0229806 C34.9699386,18.9864331 34.9881902,18.9498856 34.9881902,18.9316119 C35.0064418,18.8219694 35.0246932,18.7123267 35.0611963,18.620958 C35.0611963,18.6026842 35.0611963,18.6026842 35.0611963,18.5844105 L36.0285276,14.1073401 L36.0285276,11.5490142 C35.2254602,10.8911589 34.3858897,10.5256838 33.4915644,10.5256838 C32.3599693,10.5256838 31.3196319,11.1469915 30.534816,11.9144893 C29.6769938,12.7550821 29.0199386,13.81496 28.4723926,14.8748379 C28.454141,14.9296591 28.417638,14.9662067 28.3993865,15.0210279 C28.5636503,15.167218 28.7279142,15.313408 28.8921779,15.4595981 C29.2572086,15.7885257 29.6222393,16.1357271 29.9690184,16.4829285 C30.1332823,16.6473923 30.297546,16.8118561 30.4618098,16.9763199 C30.6260737,17.1590575 30.8085889,17.3235212 30.9728528,17.5062589 C31.1918712,17.7438176 31.4108896,17.9631028 31.6116565,18.2006615 C31.702914,18.2920305 31.7941717,18.401673 31.8854295,18.4930417 C32.1409509,18.7854219 32.3964725,19.0595281 32.6519939,19.3519083 L32.6519939,19.3519083 C32.688497,19.3884558 32.725,19.4250033 32.7432516,19.443277 L34.951687,19.443277 C34.951687,19.4250033 34.951687,19.4067295 34.951687,19.3884558 C34.951687,19.2788133 34.951687,19.1508969 34.9699386,19.0229806 Z" id="XMLID_11_" fill="#E2DDDB" fill-rule="nonzero"></path>
                    <path d="M28.417638,15.0393017 C28.417638,15.0393017 28.417638,15.0393017 28.417638,15.0393017 L28.417638,15.0393017 C28.417638,15.0393017 28.417638,15.0393017 28.417638,15.0393017 C28.417638,15.0575754 28.417638,15.0575754 28.417638,15.0393017 C28.417638,15.0575754 28.417638,15.0575754 28.417638,15.0393017 Z" id="XMLID_10_" fill="#E2DDDB" fill-rule="nonzero"></path>
                    <path d="M1.8434049,22.2574356 C1.8434049,22.2391618 1.86165645,22.2208881 1.86165645,22.2026143 C2.00766871,21.8371392 2.15368098,21.471664 2.31794478,21.1061888 C2.35444785,20.9965463 2.40920245,20.9051776 2.46395705,20.8138088 C2.59171779,20.5214286 2.73773007,20.2473224 2.88374233,19.973216 C2.93849693,19.8635735 2.99325154,19.753931 3.06625767,19.6260145 C3.10276074,19.5711933 3.13926381,19.4980983 3.17576688,19.443277 C3.34003067,19.1691706 3.48604295,18.8950644 3.65030676,18.620958 C3.68680981,18.5661367 3.74156442,18.4930417 3.77806748,18.4382205 C3.97883435,18.1092928 4.19785276,17.7986389 4.43512271,17.4879851 C4.45337423,17.4697114 4.47162576,17.4331639 4.4898773,17.4148901 C4.72714724,17.0859624 4.98266871,16.7753086 5.23819019,16.4829285 C5.29294478,16.4098334 5.34769938,16.3550122 5.40245399,16.2819171 C5.65797545,15.989537 5.93174847,15.6971569 6.20552147,15.4230506 C6.26027607,15.3682293 6.31503068,15.313408 6.36978528,15.2585868 C6.66180981,14.9662067 6.95383435,14.6921003 7.28236197,14.417994 C7.28236197,14.417994 7.28236197,14.417994 7.28236197,14.417994 C8.50521473,10.288125 12.2832822,7.27295513 16.7366564,7.27295513 C18.5253068,7.27295513 20.3139571,7.78462032 21.8470859,8.73485566 C23.4167178,9.70336476 24.6943252,11.110444 25.5156442,12.7368084 C25.5156442,12.7368084 25.5156442,12.7550821 25.5338957,12.7550821 C25.5521472,12.7916296 25.5703987,12.8281771 25.6069019,12.8829984 L25.6069019,12.8829984 L25.6069019,12.8829984 C25.6069019,12.8829984 25.6069019,12.8829984 25.6069019,12.8829984 C25.6069019,12.8829984 25.6069019,12.8829984 25.6069019,12.8829984 C26.3004601,13.3032948 26.9575154,13.7966862 27.5963191,14.3266252 C27.8153373,14.5093627 28.0161044,14.6921003 28.2168712,14.8748379 C28.2898773,14.9296591 28.3446319,15.0027542 28.417638,15.0575754 C28.417638,15.0575754 28.417638,15.0575754 28.417638,15.0575754 C28.417638,15.0575754 28.417638,15.0575754 28.417638,15.0575754 C28.4358896,15.0027542 28.454141,14.9662067 28.4906442,14.9113854 C29.1111963,10.9459802 30.8633435,8.07700042 32.9257668,8.07700042 C34.4771472,8.07700042 35.8642639,9.70336476 36.7038344,12.2068694 L36.7038344,12.2251432 C36.7038344,12.2251432 36.7038344,12.2251432 36.7038344,12.2251432 C36.9411042,12.4809758 37.1783742,12.7733559 37.4156442,13.0840097 L37.4156442,13.0840097 C37.4156442,13.0840097 37.4156442,13.1022835 37.4338956,13.1022835 L37.4338956,13.1022835 L37.4338956,13.1022835 C37.4521472,13.138831 37.4521472,13.1753785 37.4703988,13.211926 L37.4703988,13.211926 L37.4338956,13.0840097 C34.8604295,5.48212698 27.6875766,0 19.218865,0 C8.5964724,0 0,8.60693936 0,19.2422658 C0,21.3437477 0.328527607,23.3538609 0.949079754,25.2360579 C0.949079754,25.2360579 0.949079754,25.2360579 0.949079754,25.2177841 C1.07684049,24.6512977 1.22285276,24.0848113 1.38711656,23.5365986 C1.53312883,23.0980284 1.6791411,22.677732 1.8434049,22.2574356 Z" id="XMLID_9_" fill="#D7D8D9" fill-rule="nonzero"></path>
                    <path d="M37.7259202,19.4615508 L37.0506135,20.2107749 L37.0506135,20.2107749 C37.0506135,20.2107749 37.0506135,20.2107749 37.0506135,20.2107749 C37.032362,20.3021436 36.995859,20.3935124 36.9593558,20.4848811 C36.9593558,20.5031549 36.9411042,20.5214286 36.9228528,20.5579761 C36.9046012,20.6127974 36.8680981,20.6858926 36.8315951,20.7407138 C36.8133435,20.7772613 36.795092,20.7955351 36.7768405,20.8320826 C36.7403374,20.8686301 36.7220858,20.9234513 36.6855828,20.9599988 C36.6490797,21.0148201 36.5943251,21.0696413 36.5395705,21.1061888 C36.521319,21.1244626 36.5030676,21.1427365 36.484816,21.1610102 C36.4483128,21.1975577 36.4118098,21.2158315 36.3753067,21.2341052 C36.3570553,21.2341052 36.3388037,21.252379 36.3205521,21.252379 C36.2292944,21.3072002 36.1197853,21.325474 36.0102762,21.325474 C35.4079755,21.325474 34.915184,20.4848811 34.915184,19.4250033 L34.915184,19.4250033 L34.915184,19.4250033 L32.7067484,19.4250033 L32.7067484,19.4250033 C32.7067484,19.4250033 32.7067484,19.4250033 32.7067484,19.4250033 C33.1265337,19.900121 33.5280675,20.3752386 33.9113497,20.8686301 C33.9113497,20.8686301 33.9296012,20.8869038 33.9296012,20.8869038 C34.3128835,21.3620215 34.6961656,21.8371392 35.0794479,22.3122568 C35.0976993,22.3305306 35.1159509,22.3670781 35.1342025,22.3853518 C35.4992332,22.8421958 35.8460123,23.2990397 36.1927914,23.7558836 C36.2292944,23.7924311 36.2657976,23.8472523 36.3023005,23.8837998 C36.6673312,24.3771913 37.032362,24.8705827 37.3973927,25.3457004 C37.3973927,25.3457004 37.3973927,25.3457004 37.3973927,25.3639741 C38.0361963,23.4817772 38.3829755,21.4899377 38.401227,19.4067295 L38.401227,19.4067295 L37.7259202,19.4615508 L37.7259202,19.4615508 Z" id="XMLID_8_" fill="#FFFFFF" fill-rule="nonzero"></path>
                    <path d="M16.2986196,10.5622313 C16.3533742,10.5622313 16.3898773,10.5622313 16.4446319,10.5439576 C16.791411,10.5256838 17.1381902,10.50741 17.4849694,10.50741 C18.5253068,10.50741 19.5473926,10.6170526 20.5329754,10.8180639 C20.5329754,10.8180639 20.5329754,10.8180639 20.5329754,10.8363377 C20.5329754,10.8363377 20.5329754,10.8546114 20.5329754,10.8728852 C20.5329754,10.8911589 20.5329754,10.9094327 20.5329754,10.9459802 C20.5329754,10.964254 20.5329754,10.9825277 20.5329754,11.0190752 C20.5329754,11.0556228 20.5329754,11.0921703 20.5329754,11.1287178 C20.5329754,11.1469915 20.5329754,11.183539 20.5329754,11.2018128 C20.5329754,11.2383603 20.5329754,11.2749078 20.5329754,11.3114553 L20.5329754,10.8180639 C21.2265338,10.9825277 22.467638,11.3297291 23.3984663,11.713478 C23.7817485,11.8779418 24.1650307,12.0606794 24.5300614,12.2434169 C24.5483129,12.2434169 24.5848159,12.2616907 24.6213191,12.2982382 C24.6213191,12.2982382 24.6395705,12.2982382 24.6395705,12.316512 C24.6760736,12.3347857 24.7125766,12.3530595 24.7490798,12.389607 C24.7490798,12.389607 24.7490798,12.389607 24.7490798,12.389607 C24.8038343,12.4261545 24.8585889,12.4444283 24.9133436,12.4809758 C24.9133436,12.4809758 24.931595,12.4809758 24.931595,12.4809758 C25.168865,12.6088921 25.4243865,12.7733559 25.5338958,12.8281771 C25.5521472,12.8281771 25.5521472,12.8464509 25.5521472,12.8464509 C25.5521472,12.8464509 25.5703987,12.8647247 25.5703987,12.8647247 L25.5703987,12.8647247 C25.5521472,12.8281771 25.5338958,12.7916296 25.4973926,12.7368084 C25.4973926,12.7368084 25.4973926,12.7185346 25.4791412,12.7185346 C24.6578221,11.0738965 23.3619631,9.66681726 21.8105828,8.71658191 C20.277454,7.78462032 18.4888036,7.25468138 16.7001534,7.25468138 C12.2467791,7.25468138 8.46871166,10.2698512 7.2458589,14.3997202 C8.41395706,13.3946636 9.70981595,12.5540708 11.0969325,11.9327631 C12.7578221,11.1652653 14.5282209,10.7084214 16.2986196,10.5622313 Z" id="XMLID_7_" fill="#000000" fill-rule="nonzero"></path>
                    <line x1="20.551227" y1="11.3297291" x2="20.551227" y2="11.4393716" id="XMLID_6_"></line>
                    <path d="M30.5530675,11.9327631 C31.3378835,11.1652653 32.3782209,10.5439576 33.509816,10.5439576 C34.4041411,10.5439576 35.2619632,10.9094327 36.0467791,11.5672879 C36.0467791,11.5672879 36.0467791,11.5672879 36.0467791,11.5672879 L36.0467791,11.5672879 L36.0467791,11.5672879 C36.1197853,11.6221092 36.1927914,11.6952042 36.2657976,11.7500255 C36.3023005,11.786573 36.3570553,11.8231205 36.3935583,11.859668 C36.5030676,11.9693106 36.6125767,12.0789531 36.7220858,12.2068694 L36.7220858,12.2068694 C36.7220858,12.2068694 36.7220858,12.2068694 36.7220858,12.2068694 C36.7220858,12.2068694 36.7220858,12.2068694 36.7220858,12.2068694 L36.7220858,12.2068694 L36.7220858,12.1885957 C35.8642639,9.68509101 34.4953988,8.05872667 32.9440184,8.05872667 C30.8815951,8.05872667 29.1294479,10.9094327 28.5088958,14.8931116 L28.5088958,14.8931116 C29.0199386,13.8332338 29.6952454,12.7733559 30.5530675,11.9327631 Z" id="XMLID_5_" fill="#000000" fill-rule="nonzero"></path>
                    <path d="M12.3380368,37.2053684 C12.5205522,37.2784634 12.6848159,37.3332848 12.8673313,37.3881061 C14.8567485,38.0825088 16.9921779,38.4662577 19.218865,38.4662577 C21.7558282,38.4662577 24.1832822,37.9728663 26.3917179,37.0774522 C26.501227,37.0226309 26.6289877,36.9860834 26.738497,36.9312622 C26.9210122,36.8581672 27.1217791,36.7667982 27.3042945,36.6754295 C27.4685582,36.6023345 27.6328221,36.5292395 27.7970859,36.4378707 C27.7605828,36.4378707 27.7240798,36.4561445 27.6875766,36.4561445 L27.6875766,36.4561445 C26.9940184,36.5292395 26.3187117,36.5475132 25.6434049,36.4378707 C21.682822,35.8713843 20.8067485,33.9526397 20.9345092,31.979074 C20.6424847,31.8146103 20.3687117,31.6318728 20.0584355,31.4125876 C17.0104294,29.201463 15.2035276,26.8441485 15.2035276,26.8441485 C15.2035276,26.8441485 17.5579755,28.6532503 21.0622699,30.0237821 C21.1352761,30.0603296 21.2082822,30.0786033 21.2812884,30.1151508 C21.4455522,29.5486644 21.6463191,29.0004517 21.8105827,28.5253341 L21.8105827,28.5253341 C21.8288343,28.4705128 21.8470859,28.4156916 21.8653375,28.3608703 C22.0661043,27.8126576 22.2851227,27.2644448 22.5223926,26.7345059 C23.3984663,24.7243927 24.4753068,22.7691008 25.0046012,20.6310711 L25.2601228,19.4250033 L23.1064417,19.4250033 L23.1064417,19.4250033 L23.1064417,19.4250033 C23.1064417,19.4250033 23.1064417,19.4250033 23.1064417,19.4250033 L23.1064417,19.4250033 L23.1064417,19.4250033 C23.1064417,19.4250033 23.1064417,19.443277 23.1064417,19.443277 C23.1064417,19.8087522 23.0334356,20.1376797 22.9056749,20.4483336 C22.8326687,20.5945236 22.7596626,20.7589876 22.6684049,20.8869038 C22.4858896,21.1610102 22.2486196,21.398569 21.9748466,21.5813065 C21.8288343,21.6726754 21.682822,21.7457704 21.5368098,21.8188654 C21.2265338,21.9467817 20.8797547,22.0198767 20.5329754,22.0198767 C20.4417178,22.0198767 20.3504601,22.0198767 20.2592024,22.0016029 C20.240951,22.0016029 20.2226994,22.0016029 20.2044478,21.9833292 C20.1314417,21.9833292 20.0766871,21.9650554 20.003681,21.9467817 C19.9854294,21.9467817 19.967178,21.9285079 19.9489264,21.9285079 C19.8759203,21.9102342 19.8211657,21.8919604 19.7481596,21.8736867 C19.729908,21.8736867 19.729908,21.8736867 19.7116564,21.8554129 C19.6386503,21.8371392 19.5656441,21.8005917 19.5108896,21.7823179 C19.5108896,21.7823179 19.492638,21.7823179 19.492638,21.7823179 C19.4196319,21.7457704 19.3466257,21.7092229 19.2736196,21.6726754 C19.2736196,21.6726754 19.2736196,21.6726754 19.2736196,21.6726754 C19.0546012,21.544759 18.8538343,21.398569 18.671319,21.1975577 L11.2611963,19.3884558 L3.17576688,19.3884558 C3.13926381,19.443277 3.10276074,19.516372 3.06625767,19.5711933 C3.01150307,19.6808358 2.93849693,19.7904785 2.88374233,19.9183947 C2.73773007,20.1925011 2.59171779,20.4848811 2.46395705,20.7589876 C2.40920245,20.8503563 2.37269938,20.9599988 2.31794478,21.0513676 C2.15368098,21.4168427 2.00766871,21.7823179 1.86165645,22.1477931 C1.86165645,22.1660668 1.8434049,22.1843406 1.8434049,22.2026143 C1.6791411,22.6229108 1.53312883,23.0614809 1.4053681,23.5000509 C1.24110429,24.0482638 1.09509203,24.6147502 0.967331288,25.1812366 C2.24493864,29.0735467 4.70889571,32.4176442 7.95766871,34.756685 C8.04892638,34.82978 8.15843559,34.8846013 8.24969325,34.9576965 C8.79723926,35.3414452 9.3630368,35.7069204 9.9470859,36.0175743 C10.7136503,36.492692 11.5167178,36.8764409 12.3380368,37.2053684 Z" id="XMLID_4_" fill="#D7D8D9" fill-rule="nonzero"></path>
                    <path d="M25.6069019,31.2115763 C25.5703987,31.4125876 25.5521472,31.613599 25.5521472,31.8146103 C25.5338958,32.1618117 25.5703987,32.5090129 25.6251533,32.8196669 C25.6616565,33.038952 25.6981594,33.2399633 25.7529142,33.4409745 C25.8441717,33.7333547 25.9354294,34.0074611 26.0631901,34.2632936 C26.1909508,34.5191263 26.3187117,34.756685 26.4464724,34.9576965 C26.4829754,35.0307915 26.5377301,35.1038865 26.5742331,35.1587077 C26.6472393,35.2500765 26.7019938,35.3414452 26.775,35.4328141 C26.8662577,35.5424566 26.9575154,35.6520991 27.0305215,35.7434679 C27.3773007,36.1454906 27.6693252,36.3647757 27.6693252,36.3647757 C27.6693252,36.3647757 27.6693252,36.3647757 27.6693252,36.3830495 C27.6693252,36.4013232 27.6693252,36.419597 27.6875766,36.4378707 L27.6875766,36.4378707 C27.7240798,36.4378707 27.7605828,36.419597 27.7970859,36.419597 C28.654908,36.3099543 29.51273,36.0723956 30.3705521,35.7800154 C30.8085889,35.6155516 31.2466258,35.4510879 31.666411,35.2683502 C31.7941717,35.213529 31.9219325,35.140434 32.0496933,35.0856127 C36.4483128,32.9475831 40.1351227,29.1831892 40.1351227,29.1831892 C34.6231595,31.905979 29.202454,31.7963365 25.6069019,31.2115763 Z" id="XMLID_3_" fill="#9F2255" fill-rule="nonzero"></path>
                    <path d="M36.2292944,23.7924311 C35.8825153,23.3355872 35.5174846,22.8787432 35.1707055,22.4218993 C35.152454,22.4036256 35.1342025,22.3670781 35.1159509,22.3488043 C34.7326688,21.8736867 34.3493865,21.398569 33.9661042,20.9234513 C33.9661042,20.9234513 33.9478528,20.9051776 33.9478528,20.9051776 C33.546319,20.4117861 33.1447853,19.9366685 32.7432516,19.4615508 C32.725,19.4250033 32.688497,19.4067295 32.6702454,19.370182 C32.4147239,19.0778019 32.1592025,18.8036956 31.903681,18.5113155 C31.8124233,18.4199467 31.7211656,18.3103042 31.6299079,18.2189353 C31.4108896,17.9813765 31.2101226,17.7620914 30.9911044,17.5245326 C30.8268405,17.3417951 30.6443251,17.1773312 30.4800614,16.9945937 C30.3157975,16.8301298 30.1515337,16.665666 29.98727,16.5012022 C29.6404909,16.1540008 29.2754602,15.8067995 28.9104295,15.4778719 C28.7461656,15.3316818 28.5819019,15.1854917 28.417638,15.0393017 C28.417638,15.0393017 28.417638,15.0393017 28.417638,15.0393017 C28.7644172,16.0443583 29.1659509,17.0494149 29.3667179,18.091019 C29.4214724,18.3651255 29.4579754,18.620958 29.4944786,18.8767906 C29.98727,22.4767206 28.8191717,24.8340352 26.9940184,27.9405739 C26.8662577,28.1598589 26.7202454,28.3974178 26.5924847,28.6167028 C26.1726994,29.3111057 25.8989265,29.9872346 25.7529142,30.6085422 C25.6981594,30.8095537 25.6616565,31.0105649 25.6251533,31.2115763 C29.2207056,31.7963365 34.6231595,31.905979 40.1533742,29.1831892 C40.1533742,29.1831892 39.0765337,27.5933725 37.4338956,25.4005216 C37.0688651,24.9071302 36.7038344,24.4137388 36.3388037,23.9386211 C36.3023005,23.8837998 36.2657976,23.8289786 36.2292944,23.7924311 Z" id="XMLID_2_" fill="#E2066F" fill-rule="nonzero"></path>
                    <path d="M27.6693252,36.4013232 C27.6693252,36.4013232 27.3955521,36.1820381 27.0305215,35.7800154 C26.9392638,35.6886466 26.8662577,35.5790041 26.775,35.4693616 C26.7019938,35.3779927 26.6472393,35.286624 26.5742331,35.1952552 C26.5377301,35.1221602 26.4829754,35.067339 26.4464724,34.994244 C26.3187117,34.7749588 26.1909508,34.5556738 26.0631901,34.2998411 C25.953681,34.0440086 25.8441717,33.7699022 25.7529142,33.477522 C25.6981594,33.2765108 25.6434049,33.0754995 25.6251533,32.8562144 C25.5703987,32.5455606 25.5521472,32.1983592 25.5521472,31.8511578 C25.5521472,31.6501465 25.5703987,31.4491351 25.6069019,31.2481238 C25.6434049,31.0471124 25.679908,30.8461012 25.7346626,30.6450899 C25.8989265,30.0237821 26.1544479,29.3659269 26.5742331,28.6532503 C26.5742331,28.6532503 26.5742331,28.6532503 26.5742331,28.6532503 C26.7019938,28.4156916 26.8480061,28.1964064 26.9757668,27.9771214 C28.8009203,24.8705827 29.9690184,22.5315418 29.476227,18.9133381 C29.4397238,18.6575055 29.4032209,18.3833992 29.3484663,18.1275665 C29.3302147,18.3103042 29.2937117,18.474768 29.2572086,18.6026842 C29.2572086,18.620958 29.2572086,18.620958 29.2572086,18.6392317 C29.238957,18.7306005 29.2207056,18.8036956 29.202454,18.8585169 C28.3993865,21.2158315 27.0852761,23.0614809 25.2783742,25.0167729 C25.0411043,25.2908791 24.7855828,25.5467118 24.5118098,25.820818 C24.0737729,26.277662 23.5992331,26.7527796 23.1246933,27.2278973 C22.9239264,27.4289087 22.7231596,27.6116462 22.5223926,27.8126576 C22.3398773,27.9953951 22.0843559,28.2512276 21.8105827,28.5436078 L21.8105827,28.5436078 C21.6463191,29.0187255 21.4455522,29.5669382 21.2812884,30.1334246 C21.2082822,30.0968771 21.1352761,30.0786033 21.0622699,30.0420558 C17.5579755,28.6897978 15.2035276,26.8624223 15.2035276,26.8624223 C15.2035276,26.8624223 17.0104294,29.2197369 20.0584355,31.4308613 C20.3504601,31.6501465 20.6424847,31.832884 20.9345092,31.9973478 C20.8067485,33.9891874 21.682822,35.8896581 25.6434049,36.4561445 C26.3187117,36.5475132 26.9940184,36.5475132 27.6875766,36.4744182 C27.6875766,36.4378707 27.6693252,36.419597 27.6693252,36.4013232 C27.6693252,36.4013232 27.6693252,36.4013232 27.6693252,36.4013232 Z" id="XMLID_1_" fill="#000000" fill-rule="nonzero"></path>
                </g>
            </g>
        </g>
    </g>
</svg>