<?xml version="1.0" encoding="UTF-8"?>
<svg width="287px" height="55px" viewBox="0 0 287 55" version="1.1" xmlns="http://www.w3.org/2000/svg" xmlns:xlink="http://www.w3.org/1999/xlink">
    <title>price-bg</title>
    <g id="Page-1" stroke="none" stroke-width="1" fill="none" fill-rule="evenodd">
        <g id="Group" transform="translate(0.6207, 0.3531)" fill="#367FCA" fill-rule="nonzero">
            <g id="price-bg" transform="translate(142.7889, 27) scale(-1, 1) rotate(-180) translate(-142.7889, -27)translate(0, 0)">
                <path d="M40.7321802,53.8366926 C40.5956543,53.6546581 40.4591285,53.199572 40.4591285,52.7899944 C40.4591285,51.8798221 38.3657321,50.2870205 36.0447927,49.4223568 C35.0891118,49.0582879 33.6783447,48.5121845 32.8591896,48.1936242 C31.7214742,47.7385381 31.1753708,47.7385381 30.3562157,48.1481156 C28.6723969,49.0582879 23.4389061,48.9672707 22.8017855,47.9660811 C22.3466993,47.2834519 19.3431307,45.963702 18.2509239,45.963702 C17.7503291,45.963702 17.2497344,45.6906503 17.1132085,45.3265814 C16.8856654,44.8259866 12.6533642,43.6427626 10.1958989,43.4152195 C2.04985666,42.7325903 2.00434804,42.7325903 1.09417573,40.7757198 C0.229512024,39.0008838 -1.05752096e-14,36.5889272 0.0474775601,30.0356865 C0.092986176,22.9363424 0.0474775601,20.9339633 -1.05752096e-14,16.2465759 C-0.0435396717,11.6502057 0.684598182,10.0574041 3.77918406,7.96400778 C5.96359762,6.46222346 6.50970102,6.50773207 8.60309735,8.32807671 C12.3348038,11.5136798 20.1167772,13.4250417 26.3514575,12.6513952 C28.4903625,12.4238521 30.8568105,11.9232574 31.5849484,11.604697 C34.2244481,10.4669817 38.4567494,9.87536965 43.6447316,9.92087826 C47.1033864,9.96638688 49.9249206,9.69333518 51.9728083,9.19274041 C54.6578166,8.55561979 55.3859545,8.55561979 57.6613853,9.10172318 C62.3487727,10.19393 65.2613241,10.19393 67.4912463,9.10172318 C69.2660823,8.28256809 69.7666771,8.19155086 71.4049873,8.64663702 C73.4073664,9.19274041 76.7750039,9.19274041 77.5486504,8.6011284 C77.8217021,8.41909394 78.6863658,8.14604224 79.5055209,7.96400778 C80.6887449,7.7364647 81.2348483,7.87299055 82.3270551,8.78316286 C83.0551929,9.42028349 84.4204514,10.19393 85.3306237,10.4669817 C87.2874942,11.1496109 91.5653041,10.6945247 92.3844592,9.7388438 C92.6575109,9.37477487 93.1581057,9.10172318 93.4311573,9.10172318 C93.7497177,9.10172318 95.1604848,8.46460255 96.6167605,7.69095608 C99.1652429,6.32569761 99.3472774,6.28018899 101.804743,6.78078377 C103.53407,7.14485269 107.902897,7.23586992 115.093259,7.09934408 C129.792541,6.78078377 136.573325,6.28018899 136.846377,5.55205114 C137.028411,4.91493052 139.849946,3.64068927 141.078678,3.64068927 C141.579273,3.64068927 142.762497,4.36882712 143.718178,5.23349083 C144.719367,6.14366314 146.130135,7.05383546 146.903781,7.28137854 C148.223531,7.64544747 148.5876,7.463413 151.54566,4.91493052 C153.274987,3.41314619 154.867789,2.27543079 155.004315,2.45746526 C155.186349,2.59399111 155.595927,2.45746526 156.005504,2.13890495 C157.006694,1.27424124 160.647383,0 162.012641,0 C163.241374,0 164.106038,0.77364647 165.152736,2.8670428 C166.244943,5.09696498 168.065287,6.23468038 171.796994,7.05383546 C174.664037,7.69095608 175.665226,7.7364647 177.121502,7.28137854 C178.077183,7.00832685 180.352614,6.64425792 182.12745,6.50773207 C184.357372,6.32569761 186.359751,5.77959422 188.36213,4.8694219 C191.274681,3.54967204 191.365699,3.54967204 197.23631,3.82272373 C200.512931,3.95924958 204.335654,4.32331851 205.79193,4.55086159 C207.7488,4.91493052 209.114059,4.91493052 211.025421,4.50535297 C214.393058,3.82272373 223.585799,3.91374097 228.045643,4.73289605 C230.002514,5.05145636 232.869556,6.0071373 234.507867,6.78078377 C236.146177,7.55443024 237.738978,8.19155086 238.103047,8.19155086 C238.421608,8.19155086 239.786866,9.01070594 241.106616,10.0118955 C243.92815,12.0597832 246.021546,12.5148694 250.890968,12.1508004 C252.665804,11.968766 254.986744,12.0142746 256.078951,12.2418177 C257.125649,12.4693608 257.990312,12.4238521 257.990312,12.2418177 C257.990312,12.0142746 258.263364,11.8322401 258.581924,11.8322401 C259.219045,11.8322401 265.63576,9.23824902 266.363898,8.69214563 C268.229751,7.32688716 271.688406,6.5987493 276.648845,6.5987493 C279.515888,6.5987493 282.109879,6.73527515 282.38293,6.91730961 C282.610474,7.09934408 282.792508,7.91849916 282.746999,8.73765425 C282.655982,9.55680933 283.338611,12.6513952 284.203275,15.6094552 C285.067939,18.6130239 285.659551,21.1615064 285.568534,21.3435408 C285.477516,21.4800667 285.113447,24.4836353 284.840396,27.9877988 C284.430818,32.6751862 284.112258,34.6320567 283.520646,35.4967204 C281.927844,37.7266426 280.562586,42.0044525 280.608094,44.5074263 C280.653603,45.7816676 280.517077,46.8738744 280.335043,46.8738744 C280.198517,46.8738744 280.1075,47.6930294 280.198517,48.694219 C280.335043,50.1960033 280.244026,50.5145636 279.606905,50.5145636 C278.150629,50.5145636 275.192569,49.4223568 274.965026,48.8307448 C274.8285,48.5121845 274.282397,48.2391328 273.690785,48.2391328 C273.144681,48.2391328 272.325526,47.8295553 271.824932,47.2834519 C271.142302,46.5098054 270.641708,46.3732796 269.276449,46.6008227 C268.229751,46.7828571 266.95551,46.6463313 266.045337,46.2822624 C264.361519,45.5541245 259.947183,45.9181934 259.401079,46.7828571 C259.219045,47.1014174 258.490907,47.4199777 257.717261,47.6020122 C256.579545,47.8295553 256.260985,47.6930294 255.805899,46.6918399 C255.487338,45.9181934 254.713692,45.4175986 253.484959,45.0535297 C252.48377,44.780478 251.528089,44.3709005 251.391563,44.188866 C251.073003,43.597254 240.97009,43.9613229 239.832375,44.5529349 C239.33178,44.8259866 238.33059,45.0535297 237.556944,45.0535297 C236.828806,45.0535297 236.146177,45.2810728 236.05516,45.5996331 C235.918634,45.9181934 234.73541,46.1912451 232.960574,46.2822624 C231.367772,46.327771 229.957005,46.6008227 229.774971,46.8738744 C229.592936,47.1924347 227.636066,47.2379433 223.813342,47.0559088 C220.718756,46.8738744 217.760696,46.7373485 217.260101,46.7828571 C214.529584,46.8738744 210.3883,47.4654864 209.978723,47.7840467 C209.296093,48.3301501 206.520068,48.0115898 206.11049,47.3289605 C205.700913,46.6463313 201.650646,45.9181934 201.286577,46.5098054 C201.150051,46.6918399 200.831491,46.7828571 200.603948,46.6463313 C200.376405,46.4642968 198.738094,46.2822624 197.008767,46.1912451 C194.642319,46.1002279 193.823164,46.1912451 193.823164,46.6463313 C193.823164,47.6475208 189.727389,48.4211673 188.498656,47.6475208 C188.225604,47.4654864 187.497466,47.510995 186.905854,47.7385381 C186.359751,47.9205725 184.630424,48.0570984 183.128639,48.0115898 C181.080752,47.9205725 179.80651,48.1481156 178.122692,48.9217621 C175.619718,50.0594775 170.29521,50.3780378 168.474865,49.5133741 C167.746727,49.1493052 167.291641,49.1493052 166.882063,49.5133741 C166.108417,50.1049861 160.283314,50.1504947 159.873737,49.5588827 C159.509668,48.9217621 157.643814,48.2391328 155.413892,48.0115898 C154.412703,47.8750639 153.092953,47.5565036 152.546849,47.2379433 C151.363625,46.6463313 148.496583,47.3744691 146.403186,48.7852362 C145.538523,49.3768482 144.901402,49.5133741 144.127755,49.2403224 C143.581652,49.0127793 142.216394,48.694219 141.169695,48.5121845 C139.258334,48.2391328 139.212825,48.2391328 139.212825,49.5588827 L139.212825,50.8331239 L135.708661,49.9684602 C133.751791,49.4678655 131.248817,48.9672707 130.111102,48.8307448 C128.927878,48.694219 127.699145,48.2391328 127.244059,47.7385381 C126.56143,47.0104002 125.969818,46.8738744 124.149473,47.0559088 C122.875232,47.1469261 121.600991,47.4654864 121.28243,47.7385381 C120.96387,48.0115898 119.735137,48.2846414 118.506405,48.4211673 C117.141146,48.5121845 116.185465,48.8307448 115.912414,49.3313396 C115.684871,49.7409172 115.229784,50.0594775 114.865715,50.0594775 C114.547155,50.0594775 113.864526,50.5600722 113.363931,51.1971929 C112.863336,51.7888049 111.589095,52.60796 110.496888,52.9720289 C108.266966,53.7456754 107.81188,53.4726237 107.81188,51.2882101 C107.81188,50.5145636 107.49332,49.9229516 107.038233,49.7409172 C106.583147,49.5588827 106.128061,49.285831 105.991535,49.1037965 C105.536449,48.4666759 100.302958,46.5098054 100.166432,46.919383 C100.075415,47.1469261 99.6658377,47.3289605 99.2107516,47.3289605 C98.801174,47.3289605 98.209562,47.5565036 97.8910017,47.8750639 C97.4814242,48.2846414 97.3448983,48.2846414 97.3448983,47.8750639 C97.3448983,47.2379433 95.843114,47.1469261 94.7053986,47.7385381 C89.7904681,50.3780378 86.7868994,50.8331239 84.6024859,49.2403224 C83.3282446,48.2846414 82.8276498,48.1936242 78.0947538,48.3301501 C75.3187282,48.4211673 71.678039,48.2391328 70.0852374,47.9660811 C68.1738755,47.6020122 66.7631084,47.5565036 66.0349706,47.8295553 C65.39785,48.0570984 64.4876776,48.102607 63.9415743,47.9660811 C61.1655487,47.0559088 50.6075498,46.8283657 49.9249206,47.6930294 C49.6518689,47.9660811 49.0602569,48.2391328 48.6051707,48.2391328 C47.0578778,48.2391328 44.6914297,49.8319344 43.3716799,51.7432963 C42.05193,53.7001667 41.2327749,54.3372874 40.7321802,53.8366926 Z" id="Path"></path>
            </g>
        </g>
    </g>
</svg>