<?xml version="1.0" encoding="UTF-8"?>
<svg width="24px" height="24px" viewBox="0 0 24 24" version="1.1" xmlns="http://www.w3.org/2000/svg" xmlns:xlink="http://www.w3.org/1999/xlink">
    <title>search</title>
    <g id="GAME-SERVERS" stroke="none" stroke-width="1" fill="none" fill-rule="evenodd">
        <g id="Desktop-HD" transform="translate(-245.000000, -572.000000)" fill="#FFFFFF" fill-rule="nonzero">
            <g id="Banner-Text" transform="translate(245.000000, 248.000000)">
                <g id="search" transform="translate(0.000000, 324.000000)">
                    <path d="M23.414,20.586 L18.337,15.509 C19.386,13.928 20,12.035 20,10 C20,4.486 15.514,0 10,0 C4.486,0 0,4.486 0,10 C0,15.514 4.486,20 10,20 C12.035,20 13.928,19.386 15.509,18.337 L20.586,23.414 C21.366,24.195 22.634,24.195 23.414,23.414 C24.195,22.633 24.195,21.367 23.414,20.586 Z M3,10 C3,6.14 6.14,3 10,3 C13.86,3 17,6.14 17,10 C17,13.86 13.86,17 10,17 C6.14,17 3,13.86 3,10 Z" id="XMLID_223_"></path>
                </g>
            </g>
        </g>
    </g>
</svg>