<?xml version="1.0" encoding="UTF-8"?>
<svg width="58px" height="50px" viewBox="0 0 58 50" version="1.1" xmlns="http://www.w3.org/2000/svg" xmlns:xlink="http://www.w3.org/1999/xlink">
    <title>server-importer</title>
    <g id="Panel-Page-v1.0" stroke="none" stroke-width="1" fill="none" fill-rule="evenodd">
        <g id="Desktop-HD" transform="translate(-778, -3379)">
            <g id="Group-18" transform="translate(-324, 3093)">
                <g id="Group-30" transform="translate(661, 124)">
                    <g id="Group-29" transform="translate(328, 162)">
                        <g id="server-importer" transform="translate(114, 0)">
                            <path d="M34.1107479,17.4050963 L14.4663876,17.4050963 L11.4114812,13.2 L1.93639836,13.2 C0.869617537,13.2 0,14.0696853 0,15.1327169 L0,40.2042877 C0,41.3225611 0.865869186,42.237037 1.93339968,42.237037 C3.00093017,42.237037 3.87429606,41.3225611 3.87429606,40.2042877 L3.87429606,21.3518997 L37.7481481,21.3518997 L37.7481481,42.237037 L1.98437726,42.237037" id="Path" stroke="#060000" stroke-width="2" stroke-linecap="round" stroke-linejoin="round"></path>
                            <g id="Group" transform="translate(18.2519, 2)" stroke="#060000" stroke-linecap="round" stroke-linejoin="round" stroke-width="2">
                                <polyline id="Path" points="3.87421912 11.5586786 3.87346947 8.15169018 37.7481481 8.15169018 37.7481481 29.037037 23.5324327 29.037037"></polyline>
                                <path d="M34.1108201,4.20498816 L14.4661003,4.20498816 L11.4105049,0 L1.93635991,0 C0.869600267,0 0,0.869662917 0,1.9326672 L0,11.5594251" id="Path"></path>
                            </g>
                            <path d="M48.4424683,35.1851852 C49.2068871,41.0191524 45.0640103,46.3653246 39.1867826,47.1248695 C37.056572,47.3996305 34.9908212,47.0337843 33.1851852,46.1793904" id="Path" stroke="#367FCA" stroke-width="2" stroke-linecap="round"></path>
                            <polyline id="Path" stroke="#367FCA" stroke-width="2" stroke-linejoin="round" points="51.8518519 38.9185185 48.6562138 35.1851852 45.2148148 38.6859502"></polyline>
                            <rect id="Rectangle" stroke-opacity="0" stroke="#979797" x="17.5" y="0.5" width="28" height="49"></rect>
                        </g>
                    </g>
                </g>
            </g>
        </g>
    </g>
</svg>