<?xml version="1.0" encoding="UTF-8"?>
<svg width="57px" height="77px" viewBox="0 0 57 77" version="1.1" xmlns="http://www.w3.org/2000/svg" xmlns:xlink="http://www.w3.org/1999/xlink">
    <title>stats</title>
    <g id="Game-Images" stroke="none" stroke-width="1" fill="none" fill-rule="evenodd">
        <g id="stats" transform="translate(1, 1)" stroke-width="2">
            <polygon id="Path" stroke="#060000" stroke-linecap="round" stroke-linejoin="round" points="21.062 54.548 10.781 60.53 0.5 54.548 10.968 48.94"></polygon>
            <polyline id="Path" stroke="#060000" stroke-linecap="round" stroke-linejoin="round" points="21.067 68.547 10.781 74.895 0.5 68.913"></polyline>
            <line x1="27.401" y1="64.634" x2="21.555" y2="61.231" id="Path" stroke="#060000" stroke-linecap="round" stroke-linejoin="round"></line>
            <line x1="44.389" y1="54.08" x2="37.864" y2="50.233" id="Path" stroke="#060000" stroke-linecap="round" stroke-linejoin="round"></line>
            <line x1="0.5" y1="54.496" x2="0.5" y2="68.889" id="Path" stroke="#060000"></line>
            <line x1="21.075" y1="54.496" x2="21.075" y2="68.547" id="Path" stroke="#060000"></line>
            <line x1="10.821" y1="60.533" x2="10.821" y2="74.887" id="Path" stroke="#060000"></line>
            <polygon id="Path" stroke="#367FCA" stroke-linecap="round" stroke-linejoin="round" points="37.789 29.046 27.508 35.028 17.226 29.046 27.694 23.439"></polygon>
            <line x1="17.226" y1="29.046" x2="17.226" y2="46.667" id="Path" stroke="#367FCA"></line>
            <line x1="37.782" y1="29.046" x2="37.782" y2="58.181" id="Path" stroke="#367FCA"></line>
            <line x1="27.432" y1="35.005" x2="27.432" y2="64.604" id="Path" stroke="#367FCA"></line>
            <polygon id="Path" stroke="#060000" stroke-linecap="round" stroke-linejoin="round" points="54.735 5.608 44.454 11.589 34.173 5.608 44.641 0"></polygon>
            <line x1="34.173" y1="5.664" x2="34.173" y2="21.354" id="Path" stroke="#060000"></line>
            <line x1="44.378" y1="11.705" x2="44.378" y2="53.852" id="Path" stroke="#060000"></line>
            <line x1="54.737" y1="5.564" x2="54.737" y2="47.755" id="Path" stroke="#060000"></line>
            <line x1="27.453" y1="64.606" x2="37.768" y2="58.252" id="Path" stroke="#060000" stroke-linecap="round" stroke-linejoin="round"></line>
            <line x1="44.442" y1="54.096" x2="54.729" y2="47.741" id="Path" stroke="#060000" stroke-linecap="round" stroke-linejoin="round"></line>
        </g>
    </g>
</svg>