<?xml version="1.0" encoding="UTF-8"?>
<svg width="56px" height="52px" viewBox="0 0 56 52" version="1.1" xmlns="http://www.w3.org/2000/svg" xmlns:xlink="http://www.w3.org/1999/xlink">
    <title>task-scheduler</title>
    <g id="Panel-Page-v1.0" stroke="none" stroke-width="1" fill="none" fill-rule="evenodd">
        <g id="Desktop-HD" transform="translate(-1093, -3619)" stroke-width="2">
            <g id="Group-18" transform="translate(-324, 3093)">
                <g id="Group-30" transform="translate(661, 124)">
                    <g id="Group-29" transform="translate(638, 403)">
                        <g id="task-scheduler" transform="translate(119, 0)">
                            <g id="Group" stroke="#060000">
                                <line x1="3.77359996" y1="12.7356006" x2="39.4859477" y2="12.7356006" id="Path" stroke-linejoin="round"></line>
                                <path d="M26.6378334,43.2435883 L2.49764599,43.2435883 C1.12513765,43.2435883 0,42.1072791 0,40.7331748 L0,6.37258814 C0,4.99928183 1.12513765,3.87574012 2.49764599,3.87574012 L9.36816738,3.87574012" id="Path" stroke-linejoin="round"></path>
                                <path d="M36.1616049,3.87653809 L40.7626997,3.87653809 C42.136006,3.87653809 43.2595477,5.0000798 43.2595477,6.37338611 L43.2595477,22.5538231" id="Path" stroke-linejoin="round"></path>
                                <line x1="25.2342042" y1="3.87653809" x2="31.2181809" y2="3.87653809" id="Path" stroke-linejoin="round"></line>
                                <line x1="14.3083994" y1="3.87653809" x2="20.2915782" y2="3.87653809" id="Path" stroke-linejoin="round"></line>
                                <line x1="9.53973092" y1="0" x2="9.53973092" y2="8.49279433" id="Path" stroke-linecap="round"></line>
                                <line x1="31.3897445" y1="0" x2="31.3897445" y2="8.49279433" id="Path" stroke-linecap="round"></line>
                                <line x1="20.4647377" y1="0" x2="20.4647377" y2="8.49279433" id="Path" stroke-linecap="round"></line>
                                <line x1="6.95750012" y1="24.0220878" x2="33.821159" y2="24.0220878" id="Path" stroke-linejoin="round"></line>
                                <line x1="6.95750012" y1="32.198886" x2="27.1724732" y2="32.198886" id="Path" stroke-linejoin="round"></line>
                                <line x1="21.6289759" y1="38.6592509" x2="21.6289759" y2="17.5625209" id="Path" stroke-linejoin="round"></line>
                                <line x1="13.4529756" y1="38.6592509" x2="13.4529756" y2="17.5625209" id="Path" stroke-linejoin="round"></line>
                                <line x1="29.8065721" y1="27.711103" x2="29.8065721" y2="17.5625209" id="Path" stroke-linejoin="round"></line>
                            </g>
                            <g id="Group" transform="translate(29.8225, 26.3585)" stroke="#367FCA" stroke-linecap="round" stroke-linejoin="round">
                                <polyline id="Path" points="5.57541614 11.106146 9.8006671 16.9584577 17.5904499 7.64694617"></polyline>
                                <path d="M6.20262053,1.41719466 C7.87356964,0.513892657 9.78869755,0 11.8211271,0 C18.3485214,0 23.6422541,5.29293477 23.6422541,11.8211271 C23.6422541,18.3493193 18.3477234,23.6414561 11.8211271,23.6414561 C5.2921368,23.6414561 0,18.3485214 0,11.8211271 C0,9.11042308 0.913675609,6.61118116 2.44657591,4.61785218" id="Path"></path>
                            </g>
                        </g>
                    </g>
                </g>
            </g>
        </g>
    </g>
</svg>