<?xml version="1.0" encoding="UTF-8"?>
<svg width="49px" height="50px" viewBox="0 0 49 50" version="1.1" xmlns="http://www.w3.org/2000/svg" xmlns:xlink="http://www.w3.org/1999/xlink">
    <title>terraria-icon-budget</title>
    <g id="Network" stroke="none" stroke-width="1" fill="none" fill-rule="evenodd">
        <g id="Desktop-HD" transform="translate(-1615.000000, -2039.000000)">
            <g id="Group-8" transform="translate(1287.000000, 2028.000000)">
                <g id="terraria-icon-budget" transform="translate(329.000000, 13.000000)">
                    <rect id="Rectangle" fill="#3781C3" x="24" y="22.2857143" width="24" height="12.8571429"></rect>
                    <g id="Group" stroke="#060000" stroke-width="2">
                        <polyline id="Path" points="13.4211429 7.80685714 31.9731429 4.56777473e-15 35.5131429 7.95857143"></polyline>
                        <path d="M43.0165714,36.1834286 L43.0165714,41.7831429 C43.0165714,44.1402857 41.088,46.0688571 38.7308571,46.0688571 L4.28571429,46.0688571 C1.92857143,46.0688571 6.09036631e-15,44.1402857 6.09036631e-15,41.7831429 L6.09036631e-15,16.2128571 C6.09036631e-15,13.8557143 1.92857143,11.9271429 4.28571429,11.9271429 L38.7317143,11.9271429 C41.0888571,11.9271429 43.0174286,13.8557143 43.0174286,16.2128571 L43.0174286,21.6454286" id="Path" stroke-linejoin="round"></path>
                        <path d="M27.714,35.9974286 C25.3568571,35.9974286 23.4291429,34.0688571 23.4291429,31.7117143 L23.4291429,26.2842857 C23.4291429,23.9271429 25.3568571,21.9985714 27.714,21.9985714 L46.6242857,21.9985714 L46.6242857,35.9974286 L27.714,35.9974286 Z" id="Path" stroke-linecap="round" stroke-linejoin="round"></path>
                    </g>
                    <circle id="Oval" fill="#060000" fill-rule="nonzero" cx="29.8234286" cy="28.998" r="1.73914286"></circle>
                </g>
            </g>
        </g>
    </g>
</svg>