<?xml version="1.0" encoding="UTF-8"?>
<svg width="40px" height="50px" viewBox="0 0 40 50" version="1.1" xmlns="http://www.w3.org/2000/svg" xmlns:xlink="http://www.w3.org/1999/xlink">
    <title>terraria-icon-ddos</title>
    <g id="Network" stroke="none" stroke-width="1" fill="none" fill-rule="evenodd" stroke-linejoin="round">
        <g id="Desktop-HD" transform="translate(-1734.000000, -2027.000000)" stroke="#060000" stroke-width="2">
            <g id="Group-8" transform="translate(1287.000000, 2028.000000)">
                <g id="terraria-icon-ddos" transform="translate(448.000000, 0.000000)">
                    <path d="M16.0444868,3.47071415 C13.4159598,5.68904456 8.57299427,8.15100214 0.0156873997,8.15100214 L0.0156873997,28.6701693 C0.0156873997,28.6701693 -1.24603667,38.5288967 18.8613772,48 C38.9695695,38.5288967 37.7078454,28.6701693 37.7078454,28.6701693 L37.7078454,8.15100214 C22.1406144,8.15100214 18.8613772,0 18.8613772,0" id="Path" stroke-linecap="round"></path>
                    <path d="M29.0789293,19.1975092 C29.7646658,20.6553804 30.1476197,22.2821561 30.1476197,24 C30.1476197,30.2331193 25.0944965,35.2862425 18.8613772,35.2862425 C12.6290363,35.2862425 7.57591312,30.2331193 7.57591312,24 C7.57591312,17.7668807 12.6290363,12.7137575 18.8613772,12.7137575 C20.8026109,12.7137575 22.6302038,13.2049037 24.2266234,14.0681066" id="Path" fill="#3781C3"></path>
                    <polyline id="Path" stroke-linecap="round" points="13.6619221 20.6016735 18.9648993 27.9447363 28.3963062 13.9980541"></polyline>
                </g>
            </g>
        </g>
    </g>
</svg>