<?xml version="1.0" encoding="UTF-8"?>
<svg width="50px" height="48px" viewBox="0 0 50 48" version="1.1" xmlns="http://www.w3.org/2000/svg" xmlns:xlink="http://www.w3.org/1999/xlink">
    <title>terraria-icon-hardware</title>
    <g id="Network" stroke="none" stroke-width="1" fill="none" fill-rule="evenodd">
        <g id="Desktop-HD" transform="translate(-1441.000000, -2201.000000)" stroke="#060000" stroke-width="2">
            <g id="Group-8" transform="translate(1287.000000, 2028.000000)">
                <g id="terraria-icon-hardware" transform="translate(155.000000, 174.000000)">
                    <path d="M48,34.555753 C48,40.7716585 42.962901,45.8095935 36.7461595,45.8095935 C30.532762,45.8095935 25.4856307,40.7716585 25.4856307,34.555753 C25.4856307,28.3406835 30.532762,23.3035845 36.7461595,23.3035845 C42.962901,23.3035845 48,28.3406835 48,34.555753 Z" id="Path" fill="#3781C3"></path>
                    <polyline id="Path" stroke-linecap="round" stroke-linejoin="round" points="31.2750877 33.7327382 35.4600302 38.184829 41.2128928 29.8911903"></polyline>
                    <g id="Group">
                        <circle id="Oval" fill-rule="nonzero" cx="7.7266172" cy="6.98923607" r="1"></circle>
                        <circle id="Oval" fill-rule="nonzero" cx="7.7266172" cy="20.783781" r="1"></circle>
                        <circle id="Oval" fill-rule="nonzero" cx="7.7266172" cy="34.6443725" r="1"></circle>
                        <path d="M0,10.3684816 L0,2.50809907 C0,1.12864458 1.12948061,0 2.50809907,0 L34.1385725,0 C35.518027,0 36.6466715,1.12864458 36.6466715,2.50809907 L36.6466715,19.4812415" id="Path" stroke-linejoin="round"></path>
                        <polyline id="Path" points="0 24.3210367 0 13.8831644 36.5371512 13.8831644"></polyline>
                        <path d="M22.9641551,41.6628697 L2.50809907,41.6628697 C1.12948061,41.6628697 0,40.5333891 0,39.1547706 L0,27.7245271 L1.69714704,27.7245271 L22.8370781,27.7245271" id="Path"></path>
                    </g>
                </g>
            </g>
        </g>
    </g>
</svg>