<?xml version="1.0" encoding="UTF-8"?>
<svg width="90px" height="22px" viewBox="0 0 90 22" version="1.1" xmlns="http://www.w3.org/2000/svg" xmlns:xlink="http://www.w3.org/1999/xlink">
    <title>trustpilot</title>
    <g id="Home" stroke="none" stroke-width="1" fill="none" fill-rule="evenodd">
        <g id="Desktop-HD" transform="translate(-1510, -5619)" fill-rule="nonzero">
            <g id="Group-41" transform="translate(320, 5125)">
                <g id="trustpilot" transform="translate(1190, 494)">
                    <path d="M23.63753,8.14814815 L32.6992969,8.14814815 L32.6992969,9.7986472 L29.1362133,9.7986472 L29.1362133,19.0769199 L27.1769124,19.0769199 L27.1769124,9.7986472 L23.6296296,9.7986472 L23.6296296,8.14814815 L23.63753,8.14814815 Z M32.3121769,11.1637796 L33.9870632,11.1637796 L33.9870632,12.6908768 L34.0186648,12.6908768 C34.0739677,12.4749237 34.176673,12.2666832 34.3267807,12.0661552 C34.4768884,11.8656273 34.6585978,11.672812 34.8719088,11.5108472 C35.0852198,11.3411697 35.322232,11.2100553 35.5829454,11.1020787 C35.8436588,11.0018147 36.1122727,10.9478264 36.3808865,10.9478264 C36.5862971,10.9478264 36.7364048,10.9555391 36.8154089,10.9632517 C36.894413,10.9709643 36.973417,10.9863895 37.0603215,10.9941021 L37.0603215,12.6754516 C36.933915,12.6523138 36.8075085,12.6368886 36.6732016,12.6214633 C36.5388947,12.6060381 36.4124881,12.5983255 36.2860816,12.5983255 C35.9858662,12.5983255 35.7014515,12.6600264 35.4328377,12.7757156 C35.1642238,12.8914048 34.935112,13.0687949 34.7376019,13.2924606 C34.5400917,13.523839 34.3820835,13.801493 34.2635774,14.140848 C34.1450713,14.4802029 34.0897685,14.8658335 34.0897685,15.3054524 L34.0897685,19.0692073 L32.3042765,19.0692073 L32.3042765,11.1637796 L32.3121769,11.1637796 Z M45.2688444,19.0769199 L43.514954,19.0769199 L43.514954,17.9740163 L43.4833524,17.9740163 C43.262141,18.3750722 42.9382243,18.6912893 42.5037019,18.9303803 C42.0691795,19.1694713 41.6267568,19.2928731 41.1764336,19.2928731 C40.1098786,19.2928731 39.3356387,19.0383568 38.8616143,18.5216118 C38.3875899,18.0048668 38.1505777,17.2258929 38.1505777,16.1846903 L38.1505777,11.1637796 L39.9360697,11.1637796 L39.9360697,16.0150128 C39.9360697,16.7091479 40.0703766,17.2027551 40.3468908,17.4881218 C40.6155047,17.7734884 41.0026246,17.920028 41.4924498,17.920028 C41.8716694,17.920028 42.1797852,17.8660398 42.4325983,17.7503506 C42.6854113,17.6346614 42.8908219,17.4881218 43.0409296,17.2953064 C43.1989377,17.1102037 43.3095434,16.8788254 43.3806471,16.6165966 C43.4517508,16.3543677 43.4833524,16.0690011 43.4833524,15.7604966 L43.4833524,11.1714922 L45.2688444,11.1714922 L45.2688444,19.0769199 Z M48.3105011,16.5394704 C48.3658039,17.0485028 48.5633141,17.403283 48.9030316,17.6115236 C49.2506495,17.8120515 49.6614707,17.920028 50.1433955,17.920028 C50.309304,17.920028 50.4989138,17.9046028 50.7122248,17.881465 C50.9255358,17.8583271 51.1309464,17.8043389 51.3126557,17.7349253 C51.5022655,17.6655118 51.6523732,17.5575353 51.7787797,17.4187082 C51.8972858,17.2798812 51.9525887,17.1024911 51.9446883,16.8788254 C51.9367879,16.6551596 51.8498834,16.4700569 51.6918753,16.3312299 C51.5338671,16.1846903 51.3363569,16.0767137 51.0914443,15.9841623 C50.8465317,15.8993236 50.5700175,15.8221975 50.2540012,15.7604966 C49.9379849,15.6987957 49.6219686,15.6293822 49.2980519,15.5599687 C48.9662348,15.4905551 48.6423182,15.3980038 48.3342023,15.2977398 C48.0260864,15.1974759 47.7495722,15.0586488 47.5046596,14.8812588 C47.2597469,14.7115813 47.0622368,14.4879155 46.9200294,14.2179741 C46.7699217,13.9480327 46.698818,13.6163903 46.698818,13.2153345 C46.698818,12.7834282 46.8094237,12.428648 47.0227347,12.1355688 C47.2360457,11.8424895 47.51256,11.6111111 47.8364766,11.433721 C48.1682937,11.2563309 48.5317125,11.1329291 48.9346332,11.055803 C49.337554,10.9863895 49.7246739,10.9478264 50.0880926,10.9478264 C50.5068142,10.9478264 50.909735,10.9941021 51.2889545,11.0789409 C51.668174,11.1637796 52.0157919,11.3026066 52.3239078,11.5031345 C52.6320237,11.6959498 52.8848367,11.9504661 53.0902473,12.2589706 C53.2956579,12.567475 53.4220644,12.9453931 53.4773672,13.385012 L51.6128712,13.385012 C51.5259667,12.9685309 51.3363569,12.6831642 51.0282411,12.5443372 C50.7201252,12.3977976 50.3646069,12.3283841 49.9695865,12.3283841 C49.84318,12.3283841 49.6930723,12.3360967 49.5192633,12.3592345 C49.3454544,12.3823724 49.1874462,12.4209354 49.0294381,12.4749237 C48.8793304,12.528912 48.7529239,12.6137507 48.6423182,12.7217273 C48.5396129,12.8297039 48.48431,12.9685309 48.48431,13.145921 C48.48431,13.3618741 48.5633141,13.5315516 48.7134218,13.662666 C48.8635296,13.7937804 49.0610397,13.901757 49.3059523,13.9943083 C49.550865,14.0791471 49.8273792,14.1562732 50.1433955,14.2179741 C50.4594118,14.279675 50.7833285,14.3490885 51.1151456,14.418502 C51.4390622,14.4879155 51.7550785,14.5804669 52.0710948,14.6807308 C52.3871111,14.7809948 52.6636253,14.9198218 52.9085379,15.0972119 C53.1534506,15.274602 53.3509607,15.4905551 53.5010685,15.752784 C53.6511762,16.0150128 53.7301803,16.3466551 53.7301803,16.7322857 C53.7301803,17.2027551 53.6195746,17.5960983 53.3983632,17.9277407 C53.1771518,18.2516704 52.8927371,18.5216118 52.5451192,18.7221397 C52.1975013,18.9226677 51.802481,19.0769199 51.375859,19.1694713 C50.949237,19.2620226 50.522615,19.3082983 50.1038935,19.3082983 C49.590367,19.3082983 49.1163426,19.25431 48.6818202,19.1386208 C48.2472978,19.0229316 47.8680783,18.8532541 47.552062,18.6295884 C47.2360457,18.39821 46.9832327,18.1128434 46.8015233,17.7734884 C46.619814,17.4341335 46.5250091,17.025365 46.5092083,16.5548957 L48.3105011,16.5548957 L48.3105011,16.5394704 Z M54.2042047,11.1637796 L55.5551743,11.1637796 L55.5551743,8.78829498 L57.3406663,8.78829498 L57.3406663,11.1637796 L58.9523493,11.1637796 L58.9523493,12.4672111 L57.3406663,12.4672111 L57.3406663,16.6937227 C57.3406663,16.8788254 57.3485667,17.0330776 57.3643675,17.1719046 C57.3801683,17.3030191 57.4196703,17.4187082 57.4749732,17.5112596 C57.530276,17.6038109 57.6171805,17.6732244 57.7356866,17.7195001 C57.8541927,17.7657758 58.0043004,17.7889136 58.209711,17.7889136 C58.3361175,17.7889136 58.4625241,17.7889136 58.5889306,17.781201 C58.7153371,17.7734884 58.8417436,17.7580632 58.9681501,17.7272127 L58.9681501,19.0769199 C58.7706399,19.1000577 58.5731297,19.115483 58.3914204,19.1386208 C58.2018106,19.1617586 58.0122009,19.1694713 57.8146907,19.1694713 C57.3406663,19.1694713 56.9614467,19.1231956 56.6770321,19.0383568 C56.3926174,18.9535181 56.1635056,18.8224037 56.0054975,18.6527262 C55.8395889,18.4830488 55.7368836,18.2748082 55.6736804,18.020292 C55.6183775,17.7657758 55.5788755,17.4726965 55.5709751,17.1487668 L55.5709751,12.4826363 L54.2200055,12.4826363 L54.2200055,11.1637796 L54.2042047,11.1637796 Z M60.2164144,11.1637796 L61.9071015,11.1637796 L61.9071015,12.2358327 L61.9387031,12.2358327 C62.1915162,11.773076 62.5391341,11.4491463 62.9894573,11.2486183 C63.4397805,11.0480904 63.9217053,10.9478264 64.4510326,10.9478264 C65.0909655,10.9478264 65.643994,11.055803 66.1180184,11.2794688 C66.5920428,11.4954219 66.9870632,11.7962138 67.3030795,12.1818444 C67.6190958,12.567475 67.8482076,13.0148066 68.0062157,13.523839 C68.1642238,14.0328714 68.2432279,14.5804669 68.2432279,15.1589128 C68.2432279,15.6910831 68.1721242,16.2078281 68.0299169,16.7014353 C67.8877096,17.2027551 67.6743986,17.642374 67.389984,18.0280046 C67.1055693,18.4136352 66.7421506,18.7144271 66.2997278,18.9458055 C65.857305,19.1771839 65.3437785,19.2928731 64.7433476,19.2928731 C64.4826342,19.2928731 64.2219207,19.2697352 63.9612073,19.2234595 C63.7004939,19.1771839 63.4476809,19.1000577 63.2106687,18.9997938 C62.9736564,18.8995298 62.7445446,18.7684154 62.5470345,18.6064505 C62.3416239,18.4444857 62.1757153,18.259383 62.033508,18.0511425 L62.0019064,18.0511425 L62.0019064,22 L60.2164144,22 L60.2164144,11.1637796 L60.2164144,11.1637796 Z M66.4577359,15.1280624 C66.4577359,14.7732822 66.4103335,14.4262146 66.3155286,14.0868597 C66.2207237,13.7475047 66.0785164,13.4544255 65.8889066,13.1921967 C65.6992969,12.9299678 65.4622846,12.7217273 65.1857704,12.567475 C64.9013557,12.4132228 64.5774391,12.3283841 64.2140203,12.3283841 C63.4634817,12.3283841 62.8946524,12.5829003 62.5154328,13.0919327 C62.1362133,13.6009651 61.9466035,14.279675 61.9466035,15.1280624 C61.9466035,15.5291182 61.994006,15.8993236 62.0967113,16.2386785 C62.1994166,16.5780335 62.3416239,16.8711128 62.5470345,17.1179164 C62.7445446,17.36472 62.9815569,17.5575353 63.2580711,17.6963623 C63.5345853,17.8429019 63.858502,17.9123154 64.2219207,17.9123154 C64.6327419,17.9123154 64.9724594,17.8274767 65.2568741,17.6655118 C65.5412887,17.503547 65.7704005,17.2875938 65.9521099,17.0330776 C66.1338192,16.7708488 66.2681262,16.4777695 66.3471302,16.1461272 C66.4182339,15.8144849 66.4577359,15.4751299 66.4577359,15.1280624 L66.4577359,15.1280624 Z M69.6099983,8.14814815 L71.3954903,8.14814815 L71.3954903,9.7986472 L69.6099983,9.7986472 L69.6099983,8.14814815 Z M69.6099983,11.1637796 L71.3954903,11.1637796 L71.3954903,19.0769199 L69.6099983,19.0769199 L69.6099983,11.1637796 Z M72.9913725,8.14814815 L74.7768645,8.14814815 L74.7768645,19.0769199 L72.9913725,19.0769199 L72.9913725,8.14814815 Z M80.2518465,19.2928731 C79.6040132,19.2928731 79.0272834,19.1848965 78.5216574,18.9766559 C78.0160314,18.7684154 77.5894094,18.4753361 77.2338911,18.1128434 C76.8862732,17.742638 76.6176593,17.3030191 76.43595,16.7939866 C76.2542406,16.2849542 76.1594357,15.7219335 76.1594357,15.1126371 C76.1594357,14.5110534 76.2542406,13.9557453 76.43595,13.4467129 C76.6176593,12.9376804 76.8862732,12.4980615 77.2338911,12.1278561 C77.581509,11.7576507 78.0160314,11.4722841 78.5216574,11.2640436 C79.0272834,11.055803 79.6040132,10.9478264 80.2518465,10.9478264 C80.8996799,10.9478264 81.4764096,11.055803 81.9820357,11.2640436 C82.4876617,11.4722841 82.9142837,11.7653634 83.269802,12.1278561 C83.6174199,12.4980615 83.8860337,12.9376804 84.0677431,13.4467129 C84.2494525,13.9557453 84.3442574,14.5110534 84.3442574,15.1126371 C84.3442574,15.7219335 84.2494525,16.2849542 84.0677431,16.7939866 C83.8860337,17.3030191 83.6174199,17.742638 83.269802,18.1128434 C82.9221841,18.4830488 82.4876617,18.7684154 81.9820357,18.9766559 C81.4764096,19.1848965 80.8996799,19.2928731 80.2518465,19.2928731 Z M80.2518465,17.9123154 C80.6468669,17.9123154 80.9944848,17.8274767 81.2867998,17.6655118 C81.5791149,17.503547 81.8161271,17.2875938 82.0057369,17.025365 C82.1953467,16.7631362 82.3296536,16.4623443 82.4244585,16.130702 C82.5113629,15.7990596 82.5587654,15.4597047 82.5587654,15.1126371 C82.5587654,14.7732822 82.5113629,14.4416399 82.4244585,14.1022849 C82.337554,13.76293 82.1953467,13.4698507 82.0057369,13.2076219 C81.8161271,12.9453931 81.5791149,12.7371525 81.2867998,12.5751877 C80.9944848,12.4132228 80.6468669,12.3283841 80.2518465,12.3283841 C79.8568262,12.3283841 79.5092083,12.4132228 79.2168932,12.5751877 C78.9245782,12.7371525 78.6875659,12.9531057 78.4979562,13.2076219 C78.3083464,13.4698507 78.1740395,13.76293 78.0792346,14.1022849 C77.9923301,14.4416399 77.9449277,14.7732822 77.9449277,15.1126371 C77.9449277,15.4597047 77.9923301,15.7990596 78.0792346,16.130702 C78.1661391,16.4623443 78.3083464,16.7631362 78.4979562,17.025365 C78.6875659,17.2875938 78.9245782,17.503547 79.2168932,17.6655118 C79.5092083,17.8351893 79.8568262,17.9123154 80.2518465,17.9123154 L80.2518465,17.9123154 Z M84.8656842,11.1637796 L86.2166538,11.1637796 L86.2166538,8.78829498 L88.0021458,8.78829498 L88.0021458,11.1637796 L89.6138288,11.1637796 L89.6138288,12.4672111 L88.0021458,12.4672111 L88.0021458,16.6937227 C88.0021458,16.8788254 88.0100462,17.0330776 88.025847,17.1719046 C88.0416478,17.3030191 88.0811499,17.4187082 88.1364527,17.5112596 C88.1917556,17.6038109 88.27866,17.6732244 88.3971661,17.7195001 C88.5156722,17.7657758 88.66578,17.7889136 88.8711906,17.7889136 C88.9975971,17.7889136 89.1240036,17.7889136 89.2504101,17.781201 C89.3768166,17.7734884 89.5032231,17.7580632 89.6296296,17.7272127 L89.6296296,19.0769199 C89.4321195,19.1000577 89.2346093,19.115483 89.0528999,19.1386208 C88.8632902,19.1617586 88.6736804,19.1694713 88.4761702,19.1694713 C88.0021458,19.1694713 87.6229263,19.1231956 87.3385116,19.0383568 C87.054097,18.9535181 86.8249851,18.8224037 86.666977,18.6527262 C86.5010685,18.4830488 86.3983632,18.2748082 86.3351599,18.020292 C86.2798571,17.7657758 86.240355,17.4726965 86.2324546,17.1487668 L86.2324546,12.4826363 L84.881485,12.4826363 L84.881485,11.1637796 L84.8656842,11.1637796 Z" id="Shape" fill="#FFFFFF"></path>
                    <polygon id="Path" fill="#00B076" points="21.1851852 7.7849555 13.0953025 7.7849555 10.596497 0 8.08988273 7.7849555 0 7.77706001 6.55155561 12.5933104 4.04494137 20.3703704 10.596497 15.5620155 17.1402438 20.3703704 14.6414383 12.5933104"></polygon>
                    <polygon id="Path" fill="#005128" points="15.4814815 14.9700552 14.8848713 13.037037 10.5925926 16.2962963"></polygon>
                </g>
            </g>
        </g>
    </g>
</svg>