<?xml version="1.0" encoding="UTF-8"?>
<svg width="51px" height="50px" viewBox="0 0 51 50" version="1.1" xmlns="http://www.w3.org/2000/svg" xmlns:xlink="http://www.w3.org/1999/xlink">
    <title>wh-plan-2</title>
    <g id="Game-Images" stroke="none" stroke-width="1" fill="none" fill-rule="evenodd" stroke-linejoin="round">
        <g id="gamebg-smalland-1920" transform="translate(-913, -1104)" stroke-width="2">
            <g id="wh-plan-2" transform="translate(914, 1105)">
                <polyline id="Path" stroke="#367FCA" stroke-linecap="round" points="13.5053779 22.6946041 22.7698406 32.2038015 33.7993334 16.9057202"></polyline>
                <g id="Group" stroke="#FFFFFF">
                    <path d="M48.0129718,24.0004324 C48.0129718,37.2550221 37.2671291,48 24.0012972,48 C10.7458427,48 0,37.2550221 0,24.0004324 C0,10.7449779 10.7458427,0 24.0012972,0 C37.2671291,0 48.0129718,10.7449779 48.0129718,24.0004324 Z" id="Path"></path>
                    <path d="M24.0030268,6.00075669 C33.9515359,6.00075669 42.0113503,14.0588415 42.0113503,24.0004324 C42.0113503,33.9420232 33.9515359,42.0001081 24.0030268,42.0001081 C14.0614359,42.0001081 6.00162148,33.9420232 6.00162148,24.0004324 C6.00162148,18.2383569 8.70926944,13.1084407 12.9207819,9.81446717" id="Path" stroke-linecap="round"></path>
                </g>
            </g>
        </g>
    </g>
</svg>