<?xml version="1.0" encoding="UTF-8"?>
<svg width="55px" height="55px" viewBox="0 0 55 55" version="1.1" xmlns="http://www.w3.org/2000/svg" xmlns:xlink="http://www.w3.org/1999/xlink">
    <title>wordpress</title>
    <g id="Game-Images" stroke="none" stroke-width="1" fill="none" fill-rule="evenodd">
        <g id="gamebg-smalland-1920" transform="translate(-314, -655)" fill="#FFFFFF" fill-rule="nonzero">
            <g id="wordpress" transform="translate(314, 655)">
                <path d="M27.4856771,0 C12.3463542,0 0,12.3463542 0,27.5143229 C0,42.6679688 12.3463542,55 27.4856771,55 C28.703125,55 29.8919271,54.9283854 31.0520833,54.7421875 C43.3268229,53.1666667 53.0807292,43.4700521 54.7278646,31.2382812 C54.9140625,30.0208333 55,28.7747396 55,27.5143229 C55,12.3463542 42.6536458,0 27.4856771,0 Z M2.77864583,27.5143229 C2.77864583,23.9335938 3.55208333,20.5247396 4.92708333,17.4596354 L16.7148437,49.7578125 C8.46484375,45.7473958 2.77864583,37.2825521 2.77864583,27.5143229 Z M30.6940104,52.0351563 C29.6484375,52.1640625 28.5742188,52.2356771 27.4856771,52.2356771 C25.0651042,52.2356771 22.7304688,51.8776042 20.5247396,51.21875 L23.2174479,43.3411458 L23.2317708,43.3411458 L27.9153646,29.6627604 L35.5208333,50.4882813 C35.578125,50.6028646 35.6497396,50.7174479 35.7070312,50.8177083 C34.1028646,51.390625 32.4270833,51.7916667 30.6940104,52.0351563 Z M30.9088542,15.9127604 C32.3984375,15.8411458 33.7304688,15.6835937 33.7304688,15.6835937 C35.0768229,15.5403646 34.9049479,13.5638021 33.5729167,13.6497396 C33.5729167,13.6497396 29.5625,13.9648437 26.984375,13.9648437 C24.5638021,13.9648437 20.4674479,13.6497396 20.4674479,13.6497396 C19.1497396,13.5638021 18.9778646,15.6119792 20.3242187,15.6835937 C20.3242187,15.6835937 21.5703125,15.8411458 22.9166667,15.9127604 L26.7695312,26.46875 L21.3554687,42.6966146 L12.3463542,15.9127604 C13.8502604,15.8411458 15.1822917,15.6835938 15.1822917,15.6835938 C16.5,15.5403646 16.3567708,13.5638021 15.0247396,13.6497396 C15.0247396,13.6497396 11.0286458,13.9648438 8.43619792,13.9648438 C7.96354167,13.9648438 7.41927083,13.9505208 6.84635417,13.9361979 C11.2578125,7.23307292 18.8632812,2.80729167 27.4856771,2.80729167 C33.9309896,2.80729167 39.7890625,5.27083333 44.1861979,9.28125 C44.0716146,9.28125 43.9713542,9.26692708 43.8567708,9.26692708 C41.421875,9.26692708 39.703125,11.3867188 39.703125,13.6640625 C39.703125,15.6979167 40.8776042,17.4166667 42.1236979,19.4505208 C43.0690104,21.0976562 44.171875,23.2174479 44.171875,26.2682292 C44.171875,28.3880208 43.5416667,31.0520833 42.2955729,34.2460938 L39.8177083,42.4960938 L30.9088542,15.9127604 Z M39.9179688,48.8841146 L41.8802083,43.1979167 L47.4661458,27.0416667 C48.8841146,23.5182292 49.3424479,20.6966146 49.3424479,18.1901042 C49.3424479,17.2877604 49.2851562,16.4283854 49.1848958,15.640625 C51.1184896,19.1640625 52.2213542,23.203125 52.2213542,27.5143229 C52.2213542,28.6601563 52.1497396,29.7773438 52.0065104,30.8802083 C50.9466146,38.5716146 46.3489583,45.1458333 39.9179688,48.8841146 Z" id="Shape"></path>
            </g>
        </g>
    </g>
</svg>