<?xml version="1.0" encoding="UTF-8"?>
<svg width="58px" height="50px" viewBox="0 0 58 50" version="1.1" xmlns="http://www.w3.org/2000/svg" xmlns:xlink="http://www.w3.org/1999/xlink">
    <title>wp-tools</title>
    <g id="Game-Images" stroke="none" stroke-width="1" fill="none" fill-rule="evenodd">
        <g id="gamebg-smalland-1920" transform="translate(-701, -2284)">
            <g id="wp-tools" transform="translate(702, 2284)">
                <path d="M24.960061,40.5008289 C23.5562957,42.3749581 23.3621423,44.5568021 25.2362716,45.9598348 C27.1111335,47.3599369 29.1332589,46.552552 30.5370242,44.6806207 L42.1547208,29.1490857 C43.8500825,27.0016765 46.3257208,27.0456357 47.0598402,26.9525887 L47.130175,26.9423315 C49.525954,26.6844372 51.8154982,25.468964 53.3731209,23.3896916 C55.6069833,20.406324 55.7154161,16.4910203 53.9497197,13.4592975 L49.9384383,18.8135339 C48.7896366,20.3477117 46.5946048,20.6627529 45.0618924,19.5117533 L45.0215964,19.4824471 C43.4874187,18.3336454 43.17311,16.1393463 44.3204464,14.6066339 L48.3317278,9.25166482 C44.9278167,8.40691461 41.1986072,9.611398 38.9647447,12.5947656 C37.4078547,14.6769687 36.884007,17.2134173 37.3104117,19.586484 L37.3206688,19.6553535 C37.4349629,20.3865423 38.1602905,22.7390947 36.5762922,24.9692939 L24.960061,40.5008289 Z" id="Path" stroke="#367FCA" stroke-width="2" stroke-linejoin="round"></path>
                <g id="Group" transform="translate(0, 4)" stroke="#394553" stroke-linecap="round" stroke-linejoin="round" stroke-width="2">
                    <path d="M36.1205814,5.96233933 L33.998815,4.06623043 L29.2995714,7.39834143 C28.0115654,6.63491582 26.6078001,6.05245579 25.1197796,5.6736736 L24.1863782,0 L18.1471102,0 L17.7719913,2.53058737" id="Path"></path>
                    <path d="M7.39834143,13.033917 C6.6400444,14.3123985 6.05831702,15.705174 5.67953483,17.1807394 L0,18.1463775 L0,24.1856456 L5.68026749,25.1534817 C6.06198029,26.6415022 6.64883625,28.0416043 7.41665778,29.3281449 L4.06403247,33.998815 L8.33467341,38.2687233 L13.0060762,34.9168306 C14.2933495,35.6824542 15.6941842,36.2693102 17.1807394,36.6502903 L18.1463775,42.3334884 L20.8234957,42.3334884" id="Path"></path>
                    <path d="M17.2137088,5.6736736 C15.7271536,6.05318844 14.3241209,6.63491582 13.0346497,7.39834143 L8.33467341,4.06623043 L4.06403247,8.33394075 L5.50076722,10.343611" id="Path"></path>
                </g>
                <path d="M19.5589347,20.6085365 C20.0622681,20.4312342 20.6029669,20.3345239 21.1656452,20.3345239 C23.8354369,20.3345239 25.9989645,22.4980515 25.9989645,25.1678432 C25.9989645,27.8376348 23.8354369,30.0011625 21.1656452,30.0011625 C18.4965862,30.0011625 16.3337912,27.8376348 16.3337912,25.1678432 C16.3337912,24.4593666 16.4869159,23.7853248 16.7601959,23.1779546" id="Path" stroke="#060000" stroke-width="2" stroke-linecap="round" stroke-linejoin="round"></path>
                <path d="M15.8363191,15.5114617 C17.4159214,14.6374053 19.2336363,14.1392005 21.1663779,14.1392005 C27.023215,14.1392005 31.8133077,18.7043684 32.1723083,24.4703565" id="Path" stroke="#060000" stroke-width="2" stroke-linecap="round" stroke-linejoin="round"></path>
                <path d="M23.4441996,35.9613039 C22.7093475,36.1151612 21.9473872,36.1957532 21.1671105,36.1957532 C15.0765567,36.1957532 10.1384679,31.258397 10.1384679,25.1671105 C10.1384679,22.5295557 11.0645427,20.1088664 12.6097103,18.2105595" id="Path" stroke="#060000" stroke-width="2" stroke-linecap="round" stroke-linejoin="round"></path>
                <rect id="Rectangle" stroke-opacity="0" stroke="#979797" x="15.5" y="0.5" width="14" height="49"></rect>
            </g>
        </g>
    </g>
</svg>